<svg id="Calque_1" data-name="Calque 1" xmlns="http://www.w3.org/2000/svg" viewBox="0 0 160 80"><defs><style>.cls-1{fill:#0768b3;}</style></defs><title>1broker</title><g id="_1broker" data-name="1broker"><polygon class="cls-1" points="32.51 54.85 7.13 54.85 4.32 57.66 35.32 57.66 35.32 26.66 32.51 29.47 32.51 54.85"/><polygon class="cls-1" points="31.01 22.34 0 22.34 0 53.34 2.75 50.53 2.75 25.09 28.19 25.09 31.01 22.34"/><path class="cls-1" d="M17.07,34.57l-2.74,1V33.33l5.1-1.83v17H17.07Z"/><g id="_Groupe_" data-name="&lt;Groupe&gt;"><path id="_Tracé_transparent_" data-name="&lt;Tracé transparent&gt;" class="cls-1" d="M55.14,31a11.08,11.08,0,0,1,2.75.33,4.62,4.62,0,0,1,1.9.92,4,4,0,0,1,1.11,1.43,4.5,4.5,0,0,1,.33,1.9,3.79,3.79,0,0,1-.2,1.24,3.59,3.59,0,0,1-1.64,2,4.82,4.82,0,0,1-1.43.66,5.4,5.4,0,0,1,2.87,1.37,3.58,3.58,0,0,1,1,2.62,5.06,5.06,0,0,1-.4,2,4.43,4.43,0,0,1-1.17,1.57,5.93,5.93,0,0,1-1.9,1,8.29,8.29,0,0,1-2.62.33H49.58V31Zm-3.2,1.9v6h3.14a7.3,7.3,0,0,0,1.76-.19A3.16,3.16,0,0,0,58.09,38a2.39,2.39,0,0,0,.72-.92,3.8,3.8,0,0,0,.26-1.24,2.85,2.85,0,0,0-.92-2.29,4.75,4.75,0,0,0-2.88-.72Zm3.79,13.67a5,5,0,0,0,1.77-.26,3,3,0,0,0,1.18-.65,3.75,3.75,0,0,0,.71-1,3.55,3.55,0,0,0,.2-1.24,2.64,2.64,0,0,0-1-2.16,4.59,4.59,0,0,0-2.88-.78H51.94v6.08Z"/><path id="_Tracé_transparent_2" data-name="&lt;Tracé transparent&gt;" class="cls-1" d="M81.64,48.44h-2.1a1.15,1.15,0,0,1-1-.53L74.05,41.7a.82.82,0,0,0-.46-.39,1.67,1.67,0,0,0-.72-.13H71.1v7.26H68.75V31h4.9a12.2,12.2,0,0,1,2.88.33,4.69,4.69,0,0,1,2,1,4.32,4.32,0,0,1,1.17,1.51,4.85,4.85,0,0,1,.4,2,4.77,4.77,0,0,1-.27,1.7A3.75,3.75,0,0,1,79,39a5.74,5.74,0,0,1-1.37,1.12,5.15,5.15,0,0,1-1.83.65,2,2,0,0,1,.78.72Zm-8-9a5.3,5.3,0,0,0,1.83-.26,3.65,3.65,0,0,0,1.31-.72,3.28,3.28,0,0,0,.78-1.11,3.18,3.18,0,0,0,.27-1.38,2.7,2.7,0,0,0-1-2.35,5,5,0,0,0-3.08-.79H71.1v6.61Z"/><path id="_Tracé_transparent_3" data-name="&lt;Tracé transparent&gt;" class="cls-1" d="M103.35,39.74a10.5,10.5,0,0,1-.59,3.6A7.42,7.42,0,0,1,101,46.15,8.28,8.28,0,0,1,98.25,48a8.68,8.68,0,0,1-3.53.65A8.88,8.88,0,0,1,91.19,48a7.92,7.92,0,0,1-2.69-1.83,8.39,8.39,0,0,1-1.76-2.81,11.28,11.28,0,0,1,0-7.2,7.34,7.34,0,0,1,1.76-2.81,8.34,8.34,0,0,1,2.69-1.83,8.65,8.65,0,0,1,3.53-.66,8.88,8.88,0,0,1,3.53.66A8.6,8.6,0,0,1,101,33.33a8.14,8.14,0,0,1,1.76,2.81A9.21,9.21,0,0,1,103.35,39.74Zm-2.42,0a8,8,0,0,0-.46-2.88,5.89,5.89,0,0,0-1.24-2.16,5.22,5.22,0,0,0-2-1.37,6.53,6.53,0,0,0-2.55-.46,6.46,6.46,0,0,0-2.55.46,5.25,5.25,0,0,0-2,1.37A5.89,5.89,0,0,0,89,36.86a9.87,9.87,0,0,0-.46,2.88A8,8,0,0,0,89,42.62a5.89,5.89,0,0,0,1.24,2.16,5.49,5.49,0,0,0,2,1.37,6.46,6.46,0,0,0,2.55.46,6.53,6.53,0,0,0,2.55-.46,5.45,5.45,0,0,0,2-1.37,5.89,5.89,0,0,0,1.24-2.16A9.6,9.6,0,0,0,100.93,39.74Z"/><path id="_Tracé_" data-name="&lt;Tracé&gt;" class="cls-1" d="M112.44,38.63h.92a2.16,2.16,0,0,0,.72-.13,1.33,1.33,0,0,0,.52-.4l5.83-6.54a1.78,1.78,0,0,1,.52-.46,2,2,0,0,1,.65-.13h2L117,38.5a3.22,3.22,0,0,1-.46.45,1.88,1.88,0,0,1-.46.33,2.67,2.67,0,0,1,.59.33,3.19,3.19,0,0,1,.52.52l6.94,8.24h-2.42c-.13,0-.2-.06-.26-.06s-.13-.07-.2-.13L121,48l-6-6.93a1.68,1.68,0,0,0-.53-.46,2.43,2.43,0,0,0-.85-.13h-1v8h-2.36V31h2.36v7.66Z"/><path id="_Tracé_2" data-name="&lt;Tracé&gt;" class="cls-1" d="M140.38,46.48v1.89H129.65V31h10.73v1.9H132v5.82h6.81v1.83H132v6Z"/><path id="_Tracé_transparent_4" data-name="&lt;Tracé transparent&gt;" class="cls-1" d="M160,48.44h-2.09a1.15,1.15,0,0,1-1-.53l-4.52-6.21a.82.82,0,0,0-.46-.39,1.67,1.67,0,0,0-.72-.13h-1.76v7.26h-2.36V31H152a12.27,12.27,0,0,1,2.88.33,4.65,4.65,0,0,1,2,1A4.35,4.35,0,0,1,158,33.79a4.85,4.85,0,0,1,.39,2,5,5,0,0,1-.26,1.7,4,4,0,0,1-.85,1.44,5.6,5.6,0,0,1-1.38,1.12,5.15,5.15,0,0,1-1.83.65,2.11,2.11,0,0,1,.79.72Zm-8.05-9a5.36,5.36,0,0,0,1.84-.26,3.52,3.52,0,0,0,1.3-.72,3.45,3.45,0,0,0,.79-1.11,3.18,3.18,0,0,0,.26-1.38,2.7,2.7,0,0,0-1-2.35A5,5,0,0,0,152,32.8h-2.55v6.61Z"/></g></g></svg>