<svg id="Calque_1" data-name="Calque 1" xmlns="http://www.w3.org/2000/svg" viewBox="0 0 160 80"><defs><style>.cls-1{fill:#ffd200;}.cls-2{fill:#333;}</style></defs><title>abcc</title><g id="abcc"><path class="cls-1" d="M0,43.85a15,15,0,0,1,15-14.8H24v14.8H16v-7H15a7,7,0,0,0,0,13.9H24v8H15A15,15,0,0,1,0,43.85Z"/><path class="cls-1" d="M55,44A15,15,0,0,1,40,59H31V51H40a6.95,6.95,0,1,0,0-13.89H39V44H31V21.05l7.55,8H40A15,15,0,0,1,55,44Z"/><path class="cls-2" d="M89,44.45h0A11,11,0,1,0,78.07,55.93a10.65,10.65,0,0,0,6.8-2.41v.3a2.12,2.12,0,0,0,4.23,0V44.76C89,44.61,89,44.61,89,44.45Zm-11,7.25a6.65,6.65,0,1,1,6.65-6.64A6.51,6.51,0,0,1,77.92,51.7Z"/><path class="cls-2" d="M129,55.78a11.11,11.11,0,0,0,7.4-2.87,2.14,2.14,0,0,0-2.87-3.17A6.39,6.39,0,0,1,129,51.55a6.65,6.65,0,1,1,0-13.29,6.4,6.4,0,0,1,4.53,1.82,2.14,2.14,0,0,0,3-3A10.6,10.6,0,0,0,129,34a10.88,10.88,0,1,0,0,21.75Z"/><path class="cls-2" d="M151.77,55.78a10.79,10.79,0,0,0,7.4-2.87,2.14,2.14,0,1,0-2.87-3.17,6.39,6.39,0,0,1-4.53,1.81,6.65,6.65,0,0,1,0-13.29,6.4,6.4,0,0,1,4.53,1.82,2.14,2.14,0,0,0,3-3,10.58,10.58,0,0,0-7.55-3,10.88,10.88,0,0,0,0,21.75Z"/><path class="cls-2" d="M103.6,34h0a10.66,10.66,0,0,0-6.8,2.42v-3a2.12,2.12,0,0,0-4.23,0V45.36a11,11,0,0,0,21.9-.45A10.74,10.74,0,0,0,103.6,34Zm0,17.67a6.65,6.65,0,1,1,6.64-6.64A6.7,6.7,0,0,1,103.6,51.7Z"/></g></svg>