<svg id="Calque_1" data-name="Calque 1" xmlns="http://www.w3.org/2000/svg" viewBox="0 0 160 80"><defs><style>.cls-1{fill:#44b64d;}.cls-2{fill:#fff;}</style></defs><title>abucoins</title><g id="abucoins"><path class="cls-1" d="M32.62,27.61A12.39,12.39,0,1,1,20.19,40,12.4,12.4,0,0,1,32.62,27.61Z"/><path d="M12.43,27.61A12.39,12.39,0,1,1,0,40,12.4,12.4,0,0,1,12.43,27.61Z"/><path class="cls-2" d="M35.77,38.7,37.18,37a5.31,5.31,0,0,0-3.73-1.57,4.71,4.71,0,1,0-.1,9.42,5.56,5.56,0,0,0,3.85-1.71l-1.41-1.52a3.47,3.47,0,0,1-2.31,1.09,2.61,2.61,0,0,1,0-5.22A3,3,0,0,1,35.77,38.7Z"/><path class="cls-2" d="M16.49,44.75l0-5.86c0-2-1.35-3.17-3.7-3.17a7.21,7.21,0,0,0-3.94,1.11l.79,1.5a5.33,5.33,0,0,1,2.66-.85c1.35,0,2,.62,2,1.66v.22H11.68c-2.18,0-3.42,1-3.42,2.71a2.82,2.82,0,0,0,3.14,2.78,3.53,3.53,0,0,0,2.91-1.19v1.09ZM12,43.17c-1,0-1.59-.48-1.59-1.24s.54-1.1,1.69-1.1h2.27v.8A2.19,2.19,0,0,1,12,43.17Z"/><path d="M63.31,46.65h3.86L61.33,32.79H57.6l-6,13.86h3.74l1-2.46h6Zm-5.88-5.22,2-4.94,1.9,4.94Z"/><path d="M75,32.79H68.41V46.65h6.88c3.26,0,5.35-1.49,5.35-3.85a3.4,3.4,0,0,0-2.86-3.49,3.09,3.09,0,0,0,2.41-3C80.19,34.16,78.18,32.79,75,32.79Zm-.18,5.52H72.06V35.62h2.78c1,0,1.63.47,1.63,1.32S75.85,38.31,74.84,38.31Zm0,5.54H72.06V40.94h2.78c1.27,0,2.06.52,2.06,1.41S76.09,43.85,74.84,43.85Z"/><path d="M86,40.85V32.79H82.38v8.06c0,3.66,2.52,6,6.45,6s6.36-2.31,6.36-6V32.79H91.57v8.06a2.63,2.63,0,0,1-2.72,2.89A2.74,2.74,0,0,1,86,40.85Z"/><path d="M107.72,37.58l2.1-2.52a8,8,0,0,0-5.61-2.37c-4.25,0-7.44,3-7.44,7a7,7,0,0,0,7.31,7.12,8.39,8.39,0,0,0,5.78-2.58L107.74,42a5.15,5.15,0,0,1-3.46,1.62,3.79,3.79,0,0,1-3.77-4,3.75,3.75,0,0,1,3.77-3.88A4.7,4.7,0,0,1,107.72,37.58Z"/><path d="M117.78,32.69c-4.3,0-7.53,3-7.53,7s3.21,7.1,7.53,7.1,7.53-3,7.53-7.1S122.08,32.69,117.78,32.69Zm0,3.08a4,4,0,0,1,0,8,3.93,3.93,0,0,1-3.83-4A3.88,3.88,0,0,1,117.82,35.77Z"/><path d="M127.1,32.79V46.65h3.62V32.79Z"/><path d="M133.43,32.79V46.65h3.4v-8.3l6.31,8.3h3.17V32.79h-3.38v8.34l-6.31-8.34Z"/><path d="M158.61,37.07,160,34.2a10.76,10.76,0,0,0-5.56-1.56c-3.36,0-5.56,1.63-5.56,4.22,0,4.91,7.33,3.48,7.33,5.84,0,.74-.68,1.13-1.75,1.13a8.81,8.81,0,0,1-5-2.1L148,44.56a10.45,10.45,0,0,0,6.4,2.22c3.1,0,5.6-1.45,5.6-4.26,0-5-7.32-3.68-7.32-6,0-.63.58-.95,1.44-.95A10.6,10.6,0,0,1,158.61,37.07Z"/></g></svg>