<svg id="Calque_1" data-name="Calque 1" xmlns="http://www.w3.org/2000/svg" viewBox="0 0 160 80"><defs><style>.cls-1{fill:#0b2332;}.cls-2{fill:#47817c;}.cls-3{fill:#153658;}.cls-4{fill:#2bb5b7;}</style></defs><title>aidosmarket</title><g id="aidosmarket"><path class="cls-1" d="M13.16,50.46,8,38.93a1.34,1.34,0,0,0-1.33-.86,1.34,1.34,0,0,0-1.34.86L.13,50.46a1.48,1.48,0,0,0,0,1.13,1.46,1.46,0,0,0,.76.82,1.63,1.63,0,0,0,.61.13,1.37,1.37,0,0,0,.52-.1,1.46,1.46,0,0,0,.81-.77l3.85-8.55,3.83,8.55a1.49,1.49,0,0,0,1.34.87,1.54,1.54,0,0,0,.6-.13,1.41,1.41,0,0,0,.77-.82A1.43,1.43,0,0,0,13.16,50.46Z"/><path class="cls-1" d="M15.76,52.54a1.47,1.47,0,0,1-1.47-1.47V39.54a1.47,1.47,0,0,1,1.47-1.47,1.49,1.49,0,0,1,1.46,1.47V51.07a1.4,1.4,0,0,1-.44,1A1.38,1.38,0,0,1,15.76,52.54Z"/><path class="cls-1" d="M20.27,52.54a1.42,1.42,0,0,1-1-.43,1.39,1.39,0,0,1-.43-1V39.55a1.43,1.43,0,0,1,.43-1.06,1.41,1.41,0,0,1,1-.42h4.2a7.26,7.26,0,0,1,7.17,7.23,7,7,0,0,1-2.1,5.09,6.94,6.94,0,0,1-5,2.15H20.27Zm4.19-2.94a4.14,4.14,0,0,0,3-1.28,4.29,4.29,0,0,0,0-6,4.13,4.13,0,0,0-3-1.27H21.73V49.6Z"/><path class="cls-1" d="M39.83,52.74a7.44,7.44,0,0,1-7.4-7.43,7.4,7.4,0,0,1,12.63-5.25,7.46,7.46,0,0,1,0,10.5A7.13,7.13,0,0,1,39.83,52.74Zm0-11.91a4.47,4.47,0,0,0-4.47,4.48,4.38,4.38,0,0,0,1.31,3.18,4.47,4.47,0,0,0,6.32,0,4.53,4.53,0,0,0,0-6.35A4.32,4.32,0,0,0,39.83,40.83Z"/><path class="cls-1" d="M52.46,52.72l-.47,0a4.81,4.81,0,0,1-3.18-1.42,1.39,1.39,0,0,1-.43-1,1.45,1.45,0,0,1,1.47-1.46,1.42,1.42,0,0,1,1,.43,1.93,1.93,0,0,0,1.31.56h.24a2,2,0,0,0,1.2-.34,1.28,1.28,0,0,0,.59-1,1.65,1.65,0,0,0-.12-.82,1,1,0,0,0-.35-.37,2.78,2.78,0,0,0-1.36-.45A5,5,0,0,1,49,45.27a4.3,4.3,0,0,1,.46-6.34,4.9,4.9,0,0,1,3.09-1H53a4.7,4.7,0,0,1,1.9.52,6,6,0,0,1,1.25.91,1.43,1.43,0,0,1,.46,1,1.38,1.38,0,0,1-.4,1.05,1.35,1.35,0,0,1-1,.46h-.06a1.41,1.41,0,0,1-1-.39,2.18,2.18,0,0,0-1.34-.64h-.25a2.06,2.06,0,0,0-1.19.33,1.31,1.31,0,0,0-.59,1,1.28,1.28,0,0,0,.44,1.1,2.27,2.27,0,0,0,1.38.54,5.49,5.49,0,0,1,2.76.91,4,4,0,0,1,1.78,3.86,4.11,4.11,0,0,1-1.62,3.07A4.81,4.81,0,0,1,52.46,52.72Z"/><path class="cls-1" d="M123.64,52.54h-.21a1.49,1.49,0,0,1-1-.57l-3.1-4.13H118v3.24a1.4,1.4,0,0,1-.44,1,1.38,1.38,0,0,1-1,.43,1.47,1.47,0,0,1-1.47-1.47V39.53a1.46,1.46,0,0,1,.43-1,1.42,1.42,0,0,1,1-.42h4A4.88,4.88,0,0,1,125.35,43a4.84,4.84,0,0,1-2.7,4.37l2.15,2.87a1.35,1.35,0,0,1,.28,1.08,1.39,1.39,0,0,1-.56,1A1.42,1.42,0,0,1,123.64,52.54Zm-3.13-7.65a1.9,1.9,0,0,0,1.36-.58,1.94,1.94,0,0,0-1.35-3.3H118v3.88Z"/><path class="cls-1" d="M136,52.54a1.4,1.4,0,0,1-1-.47l-5.08-5.55v4.55a1.47,1.47,0,1,1-2.93,0V39.53a1.47,1.47,0,0,1,1.47-1.46,1.46,1.46,0,0,1,1,.43,1.43,1.43,0,0,1,.42,1v4.4l5.1-5.4a1.38,1.38,0,0,1,1-.46h0a1.4,1.4,0,0,1,1,.4,1.46,1.46,0,0,1,.47,1,1.42,1.42,0,0,1-.41,1l-4.42,4.68,4.44,4.84a1.44,1.44,0,0,1,.38,1.07,1.47,1.47,0,0,1-1.46,1.4Z"/><path class="cls-1" d="M140.57,52.54a1.42,1.42,0,0,1-1-.43,1.39,1.39,0,0,1-.43-1V39.54a1.39,1.39,0,0,1,.43-1,1.42,1.42,0,0,1,1-.43H150a1.49,1.49,0,0,1,1.47,1.47,1.41,1.41,0,0,1-.44,1,1.39,1.39,0,0,1-1,.43h-8v2.8h3.9a1.39,1.39,0,0,1,1,.43,1.46,1.46,0,0,1,0,2.07,1.4,1.4,0,0,1-1,.44H142V49.6h5.2a1.38,1.38,0,0,1,1,.43,1.45,1.45,0,0,1,0,2.08,1.42,1.42,0,0,1-1,.43Z"/><path class="cls-1" d="M153,52.54a1.47,1.47,0,0,1-1.47-1.47V41h-2.56a1.49,1.49,0,0,1-1.47-1.47,1.47,1.47,0,0,1,1.47-1.47h9.34a1.46,1.46,0,0,1,1,.43,1.43,1.43,0,0,1,.43,1,1.4,1.4,0,0,1-.44,1,1.42,1.42,0,0,1-1,.43h-3.85V51.07A1.45,1.45,0,0,1,153,52.54Z"/><path class="cls-2" d="M107,52.65a1.86,1.86,0,0,1-1.77-1.29c-.63-2-1.3-4.12-1.88-5.9-.53,1.73-1.09,3.56-1.41,4.69a3.3,3.3,0,0,1-3.14,2.47,3.48,3.48,0,0,1-3.36-2.45L94.38,47c-1.47-4.49-3.8-11.56-4.78-14.56-.51,1.65-1.42,4.62-2.36,7.71-1.83,6-3,10-3.23,10.5a2.75,2.75,0,0,1-2.52,1.8,3.13,3.13,0,0,1-3-1.67l-1.68-3.29c-2-4-4-7.78-4.87-9.67-1.54,3.44-6,13.58-6,13.7a1.85,1.85,0,0,1-1.69,1.11h-5a1.85,1.85,0,0,1,0-3.7H63c1.37-3.16,5.22-12,5.95-13.56.28-.62,1.15-2.5,3-2.5h0c1.82,0,2.65,1.91,2.92,2.53.55,1.26,3.47,7,5.21,10.41.38.73.71,1.38,1,1.91.63-2,1.69-5.48,2.65-8.65,1.24-4.06,2.42-7.9,2.73-8.89.83-2.62,2.49-2.9,3.17-2.9s2.32.28,3.15,2.88c.52,1.64,3.53,10.78,5.14,15.68l.77,2.34c.85-2.86,2.33-7.6,2.54-8.22a2.11,2.11,0,0,1,4.08-.29c.08.14.29.57,3.06,9.3l3.85,0h0a1.85,1.85,0,0,1,0,3.7l-5.22,0Z"/><path class="cls-3" d="M13.43,50.46,8.25,38.93a1.34,1.34,0,0,0-1.33-.86,1.35,1.35,0,0,0-1.34.86L.41,50.46a1.43,1.43,0,0,0,0,1.13,1.47,1.47,0,0,0,.77.82,1.58,1.58,0,0,0,.6.13,1.46,1.46,0,0,0,.53-.1,1.41,1.41,0,0,0,.8-.77l3.85-8.55,3.83,8.55a1.44,1.44,0,0,0,.82.77,1.42,1.42,0,0,0,.53.1,1.53,1.53,0,0,0,.59-.13,1.46,1.46,0,0,0,.78-.82A1.43,1.43,0,0,0,13.43,50.46Z"/><path class="cls-3" d="M16,52.54a1.47,1.47,0,0,1-1.47-1.47V39.54a1.47,1.47,0,0,1,2.93,0V51.07A1.47,1.47,0,0,1,16,52.54Z"/><path class="cls-3" d="M20.55,52.54a1.43,1.43,0,0,1-1-.43,1.39,1.39,0,0,1-.43-1V39.55a1.43,1.43,0,0,1,.43-1.06,1.42,1.42,0,0,1,1-.42h4.19a7.24,7.24,0,0,1,7.17,7.23,7,7,0,0,1-2.1,5.09,6.92,6.92,0,0,1-5,2.15H20.55Zm4.18-2.94a4.14,4.14,0,0,0,3-1.28,4.29,4.29,0,0,0,0-6,4.11,4.11,0,0,0-3-1.27H22V49.6Z"/><path class="cls-3" d="M40.11,52.74a7.1,7.1,0,0,1-5.23-2.18A7.41,7.41,0,1,1,47.5,45.31a7.43,7.43,0,0,1-7.39,7.43Zm0-11.91a4.46,4.46,0,0,0-4.47,4.48,4.41,4.41,0,0,0,1.3,3.18,4.36,4.36,0,0,0,3.17,1.31,4.31,4.31,0,0,0,3.15-1.31,4.5,4.5,0,0,0,0-6.35A4.31,4.31,0,0,0,40.11,40.83Z"/><path class="cls-3" d="M52.73,52.72l-.47,0a4.81,4.81,0,0,1-3.18-1.42,1.39,1.39,0,0,1-.43-1,1.5,1.5,0,0,1,.43-1,1.45,1.45,0,0,1,1-.42,1.43,1.43,0,0,1,1,.43,1.91,1.91,0,0,0,1.3.56h.24a2,2,0,0,0,1.2-.34,1.28,1.28,0,0,0,.59-1,1.65,1.65,0,0,0-.12-.82,1,1,0,0,0-.35-.37,2.75,2.75,0,0,0-1.36-.45,5,5,0,0,1-3.37-1.5A4.2,4.2,0,0,1,48.12,42a4.14,4.14,0,0,1,1.63-3.07,4.9,4.9,0,0,1,3.09-1h.44a4.7,4.7,0,0,1,1.9.52,5.72,5.72,0,0,1,1.25.91,1.43,1.43,0,0,1,.46,1,1.38,1.38,0,0,1-.4,1.05,1.35,1.35,0,0,1-1,.46h-.06a1.43,1.43,0,0,1-1-.39,2.18,2.18,0,0,0-1.34-.64h-.24a2.09,2.09,0,0,0-1.2.33,1.31,1.31,0,0,0-.59,1,1.28,1.28,0,0,0,.44,1.1,2.27,2.27,0,0,0,1.38.54,5.46,5.46,0,0,1,2.76.91,4,4,0,0,1,1.79,3.86,4.16,4.16,0,0,1-1.63,3.07A4.81,4.81,0,0,1,52.73,52.72Z"/><path class="cls-3" d="M123.91,52.54h-.21a1.44,1.44,0,0,1-1-.57l-3.11-4.13h-1.38v3.24a1.39,1.39,0,0,1-.43,1,1.47,1.47,0,0,1-2.5-1V39.53a1.46,1.46,0,0,1,.43-1,1.43,1.43,0,0,1,1-.42h4A4.88,4.88,0,0,1,125.62,43a4.84,4.84,0,0,1-2.7,4.37l2.15,2.87a1.31,1.31,0,0,1,.28,1.08,1.42,1.42,0,0,1-.55,1A1.47,1.47,0,0,1,123.91,52.54Zm-3.13-7.65a1.9,1.9,0,0,0,1.36-.58,1.93,1.93,0,0,0,0-2.72,1.84,1.84,0,0,0-1.35-.58h-2.54v3.88Z"/><path class="cls-3" d="M136.24,52.54a1.4,1.4,0,0,1-1-.47l-5.08-5.55v4.55a1.47,1.47,0,1,1-2.93,0V39.53a1.49,1.49,0,0,1,1.47-1.46,1.46,1.46,0,0,1,1,.43,1.43,1.43,0,0,1,.42,1v4.4l5.1-5.4a1.38,1.38,0,0,1,1-.46h0a1.39,1.39,0,0,1,1,.4,1.46,1.46,0,0,1,.47,1,1.42,1.42,0,0,1-.41,1l-4.42,4.68,4.44,4.84a1.48,1.48,0,0,1-1.07,2.47Z"/><path class="cls-3" d="M140.85,52.54a1.43,1.43,0,0,1-1-.43,1.39,1.39,0,0,1-.43-1V39.54a1.39,1.39,0,0,1,.43-1,1.43,1.43,0,0,1,1-.43h9.44a1.49,1.49,0,0,1,1.47,1.47,1.44,1.44,0,0,1-.43,1,1.43,1.43,0,0,1-1,.43h-8v2.8h3.89a1.47,1.47,0,0,1,0,2.94h-3.89V49.6h5.19a1.4,1.4,0,0,1,1,.43,1.43,1.43,0,0,1,.43,1,1.49,1.49,0,0,1-1.47,1.47Z"/><path class="cls-3" d="M153.22,52.54a1.38,1.38,0,0,1-1-.43,1.4,1.4,0,0,1-.44-1V41h-2.56a1.47,1.47,0,0,1,0-2.94h9.34a1.46,1.46,0,0,1,1,.43,1.47,1.47,0,0,1,0,2.08,1.46,1.46,0,0,1-1,.43h-3.85V51.07a1.45,1.45,0,0,1-1.46,1.47Z"/><path class="cls-4" d="M107.26,52.65a1.84,1.84,0,0,1-1.76-1.29c-.64-2-1.31-4.12-1.89-5.9-.53,1.73-1.09,3.56-1.41,4.69a3.3,3.3,0,0,1-3.14,2.47,3.49,3.49,0,0,1-3.36-2.45l-1-3.19c-1.47-4.49-3.8-11.56-4.78-14.56-.51,1.65-1.42,4.62-2.36,7.71-1.83,6-3,10-3.23,10.5a2.74,2.74,0,0,1-2.52,1.8,3.13,3.13,0,0,1-3-1.67l-1.68-3.29c-2-4-4-7.78-4.87-9.67-1.53,3.44-6,13.58-6,13.7a1.84,1.84,0,0,1-1.69,1.11h-5a1.85,1.85,0,0,1,0-3.7h3.77c1.38-3.16,5.22-12,6-13.56.29-.62,1.15-2.5,3-2.5h0c1.82,0,2.64,1.91,2.91,2.53.55,1.26,3.47,7,5.22,10.41l1,1.91c.63-2,1.69-5.48,2.66-8.65,1.24-4.06,2.41-7.9,2.72-8.89.84-2.62,2.5-2.9,3.17-2.9s2.32.28,3.15,2.88c.52,1.64,3.53,10.78,5.15,15.68l.76,2.34c.85-2.86,2.33-7.6,2.54-8.22a2.11,2.11,0,0,1,4.09-.29c.07.14.28.57,3,9.3l3.85,0h0a1.85,1.85,0,0,1,0,3.7l-5.22,0Z"/></g></svg>