<svg id="Calque_1" data-name="Calque 1" xmlns="http://www.w3.org/2000/svg" viewBox="0 0 160 80"><defs><style>.cls-1{fill:#00a275;}</style></defs><title>b2bx</title><g id="b2bx"><path class="cls-1" d="M46.09,34.87,43.66,37.3H36.72V31.63h9.37Zm0,13.5H36.72V42.7h6.94l2.43,2.43ZM31.32,26.22V53.78H48.38l3.11-3.11V44.1L47.39,40l4.1-4.1V29.33l-3.11-3.11Zm25.84,0v9.1h5.41V31.63h9.36v5.09L67.66,41H64l-6.81,6.8v6H77.34V48.37H64.86l5.67-5.67h3.69l3.12-3.11V29.33l-3.12-3.11Zm66.12,3.11L118.59,34l-4.68-4.69V26.22h-5.4v6L116.3,40l-7.79,7.79v6h5.4V50.67L118.59,46l4.69,4.69v3.11h5.4v-6L120.89,40l7.79-7.79v-6h-5.4ZM97.84,34.87,95.42,37.3H88.48V31.63h9.36Zm0,13.5H88.48V42.7h6.94l2.42,2.43ZM83.07,26.22V53.78h17.06l3.12-3.11V44.1L99.14,40l4.11-4.1V29.33l-3.12-3.11Z"/><path class="cls-1" d="M122,24.9v3.89l-3.37,3.36-3.36-3.36V24.9h-8v7.85L114.44,40l-7.25,7.25V55.1h8V51.21l3.36-3.36L122,51.21V55.1h8V47.25L122.75,40,130,32.75V24.9Zm.66,4.16v-3.5h6.72v6.92L121.82,40l7.52,7.52v6.92h-6.72v-3.5l-4-4-4,4v3.5h-6.72V47.52L115.37,40l-7.52-7.52V25.56h6.72v3.5l4,4ZM55.84,24.9V36.64h8V33h6.72v3.22l-3.5,3.5H63.42l-7.58,7.58V55.1H78.66V47.05H68.05l3-3h3.69l3.89-3.88V28.79L74.77,24.9Zm.66.66h18l3.5,3.5v10.8l-3.5,3.5H70.81l-4.36,4.35H78v6.73H56.5V47.52l7.2-7.19h3.69l3.88-3.89V32.29h-8V36H56.5ZM30,24.9V55.1H48.92l3.89-3.89V43.56L49.26,40l3.55-3.56V28.79L48.92,24.9Zm.66.66h18l3.5,3.5v7.11L48.32,40l3.83,3.83v7.11l-3.5,3.5h-18Zm6.72,6.73v4.35h6l2-2V32.29ZM38,33h6.73v1.37L43.12,36H38Zm-.66,10.41v4.35h8V45.4l-2-2ZM38,44h5.08l1.65,1.65v1.38H38ZM81.75,24.9V55.1h18.93l3.89-3.89V43.56L101,40l3.56-3.56V28.79l-3.89-3.89Zm.66.66h18l3.51,3.5v7.11L100.08,40l3.83,3.83v7.11l-3.51,3.5h-18Zm6.73,6.73v4.35h6l2-2V32.29Zm.66.66h6.72v1.37L94.87,36H89.8Zm-.66,10.41v4.35h8V45.4l-2-2Zm.66.66h5.07l1.65,1.65v1.38H89.8Z"/></g></svg>