<svg id="Calque_1" data-name="Calque 1" xmlns="http://www.w3.org/2000/svg" viewBox="0 0 160 80"><defs><style>.cls-1{fill:#000d2b;}</style></defs><title>bancor</title><g id="bancor"><path class="cls-1" d="M11.79,20,2.5,25.48l9.29,5.44,9.46-5.44Zm1.52,29.05V60l12.62-7.2V41.89ZM22.77,28.9V39.78l-9.46,5.44V34.34ZM0,39.78l9.46,5.44V34.34L0,28.9ZM0,54.52,9.46,60V49.08L0,43.64V54.52ZM58.6,35v-.53a2.22,2.22,0,0,0-2.44-2.48H48.32v5.48h7.84A2.22,2.22,0,0,0,58.6,35Zm5.75,9v2.3q0,6.36-6.27,6.36H44.84a.84.84,0,0,1-.88-.79.38.38,0,0,1,0-.1v-23a.81.81,0,0,1,.77-.88H56.68q6.27,0,6.27,6.36V35C63,38.31,60.51,39,60.51,39v.18A4.8,4.8,0,0,1,64.35,44ZM60,46.08V44a2.22,2.22,0,0,0-2.44-2.47H48.32v7.07h9.23A2.22,2.22,0,0,0,60,46.08Zm16.73,3.36a2.86,2.86,0,0,0,3-3V45.2H73.93A1.76,1.76,0,0,0,72,47.14v.36a1.76,1.76,0,0,0,1.92,1.94Zm6.79-9.54V51.74a.82.82,0,0,1-.77.89H80.55a.84.84,0,0,1-.87-.79v-1h-.17A3.75,3.75,0,0,1,76,53H73.41q-5.23,0-5.23-5.3v-.53q0-5.3,5.23-5.3h6.27V40.09a2.12,2.12,0,0,0-2.26-2.3H75a1.76,1.76,0,0,0-1.92,1.94.84.84,0,0,1-.78.89H70.1a.83.83,0,0,1-.87-.79.33.33,0,0,1,0-.1c0-3.53,1.92-5.47,5.57-5.47h3.14c3.66,0,5.57,1.94,5.57,5.65Zm20.74,0c0-3.71-1.92-5.66-5.58-5.66H95.89a3.75,3.75,0,0,0-3.49,2.12h-.17v-.88a.84.84,0,0,0-.77-.89h-2.2a.84.84,0,0,0-.87.79V51.73a.83.83,0,0,0,.77.88h2.19a.81.81,0,0,0,.87-.78.17.17,0,0,0,0-.1V40.78a2.87,2.87,0,0,1,3-3h3a2.12,2.12,0,0,1,2.26,2.3V51.73a.83.83,0,0,0,.77.88h2.19a.83.83,0,0,0,.88-.78.34.34,0,0,0,0-.1V39.9ZM121,47.14a2.12,2.12,0,0,1-2.26,2.3h-3.66a2.12,2.12,0,0,1-2.27-2.3V40.07a2.12,2.12,0,0,1,2.27-2.3h3.66a2.12,2.12,0,0,1,2.26,2.3v.53a.83.83,0,0,0,.77.88.17.17,0,0,0,.1,0h2.09a.83.83,0,0,0,.88-.78.34.34,0,0,0,0-.1v-.71c0-3.71-1.92-5.65-5.57-5.65h-4.7c-3.66,0-5.58,1.94-5.58,5.65v7.42C109,51,110.87,53,114.53,53h4.7c3.66,0,5.58-1.94,5.58-5.66v-.7a.84.84,0,0,0-.78-.89h-2.19a.84.84,0,0,0-.87.79v.63Zm11.85-7.07v7.07a2.12,2.12,0,0,0,2.26,2.3h4a2.12,2.12,0,0,0,2.26-2.3V40.07a2.12,2.12,0,0,0-2.26-2.3h-4a2.12,2.12,0,0,0-2.26,2.3ZM129,47.32V39.9c0-3.72,1.92-5.66,5.57-5.66h5.05c3.66,0,5.58,1.94,5.58,5.66v7.42c0,3.71-1.92,5.65-5.57,5.65h-5.06C130.9,53,129,51,129,47.32Zm28.39-13.08a3.74,3.74,0,0,0-3.48,2.12h-.18v-.88a.82.82,0,0,0-.77-.89h-2.19a.84.84,0,0,0-.87.79V51.73a.83.83,0,0,0,.78.88h2.19a.83.83,0,0,0,.87-.78V41a2.86,2.86,0,0,1,3-3h2.44a.84.84,0,0,0,.87-.78V35.12a.83.83,0,0,0-.77-.88h-1.85Z"/></g></svg>