<svg id="Calque_1" data-name="Calque 1" xmlns="http://www.w3.org/2000/svg" viewBox="0 0 160 80"><defs><style>.cls-1{fill:#1d262e;}.cls-2{fill:#00a2a3;}</style></defs><title>barterdex</title><g id="barterdex"><path class="cls-1" d="M39.23,33.07V37a10.68,10.68,0,0,0-8.67-4.54,10.84,10.84,0,0,0-9.65,6.17,10.85,10.85,0,0,0-9.65-6.17A10.67,10.67,0,0,0,2.62,37V24.47H0v30.4H2.62v-4a10.67,10.67,0,0,0,8.64,4.5,10.83,10.83,0,0,0,9.65-6.17,10.82,10.82,0,0,0,9.65,6.17,10.7,10.7,0,0,0,8.67-4.53v4h2.44V33.07ZM11,52.81A8.59,8.59,0,0,1,2.62,45V42.84A8.59,8.59,0,0,1,11,35a8.67,8.67,0,0,1,8.41,8.9A8.67,8.67,0,0,1,11,52.81Zm19.8,0a8.9,8.9,0,1,1,8.47-10.6v3.4A8.7,8.7,0,0,1,30.76,52.81ZM56.69,33.2l-1.33,2.19A2.36,2.36,0,0,0,54.19,35c-3.08,0-5.55,4-5.55,9v10.9H46V33.07h2.62V36.8C50,34.15,52,32.45,54.06,32.45A5.05,5.05,0,0,1,56.69,33.2Zm12.55,2.11H64.93V54.87H62.31V35.31H58.59V33h3.72V24.84h2.62V33h4.31Zm11.22-2.86c-6.51,0-10.93,5-10.93,11.54,0,6.7,4.54,11.54,10.93,11.54a10.3,10.3,0,0,0,10.11-6.76l-1.91-1-.37-.19a8.53,8.53,0,0,1-2.23,3.26,7.73,7.73,0,0,1-5.62,2.05c-4.75,0-8.14-3.66-8.21-8.74H91.38V44C91.38,37.42,86.77,32.45,80.46,32.45Zm0,2.62a8.1,8.1,0,0,1,8,6.68h-16A8,8,0,0,1,80.44,35.07Zm24.68-1.87-1.33,2.19a2.36,2.36,0,0,0-1.16-.38c-3.09,0-5.56,4-5.56,9v10.9H94.46V33.07h2.61V36.8c1.35-2.65,3.38-4.35,5.43-4.35A5,5,0,0,1,105.12,33.2Z"/><path class="cls-2" d="M113.78,24.8h-6.43V54.94h6.43c8.21,0,8.21-5.38,8.21-10.58v-9C122,30.18,122,24.81,113.78,24.8Zm5.47,12v7.61c0,3.54-.34,8.11-5.5,8.11h-3.7V27.27h3.7c5.16,0,5.5,4.56,5.5,8.11Zm34,2.51,6-14.46h-2.85L151.66,37,146.74,24.8H125.89V54.94h20.57l5.1-13.63,5.59,13.63H160Zm-8.82,13.21H128.59V40.4h6.91V37.93h-6.91V27.27h16.2l5.28,11.92Z"/></g></svg>