<svg id="Calque_1" data-name="Calque 1" xmlns="http://www.w3.org/2000/svg" viewBox="0 0 160 80"><defs><style>.cls-1{fill:#222;}.cls-2{fill:#6399eb;}.cls-3{fill:#fff;}</style></defs><title>bibox</title><g id="bibox"><path class="cls-1" d="M77.39,38.76a13.16,13.16,0,0,0-1.19-.59,13.27,13.27,0,0,0,1.4-1.53,7.3,7.3,0,0,0,.64-5.4,4.83,4.83,0,0,0-2.79-3.47,10.65,10.65,0,0,0-4.75-1H61.86V52.15h.39c5,0,3.86,0,8.9,0a18.21,18.21,0,0,0,3.13-.28,7.64,7.64,0,0,0,6.29-7.38A6.25,6.25,0,0,0,77.39,38.76Zm-10-7.07c0-.21.08-.29.28-.29l2.93,0A2.52,2.52,0,0,1,73.33,33,2.64,2.64,0,0,1,72.13,36a3.54,3.54,0,0,1-1.22.46,4.1,4.1,0,0,1-1,.08H67.44Zm5.12,15.49a6.35,6.35,0,0,1-1.63.23c-3.09,0,0,0-3.12,0h-.34l0-.25V41.54c0-.28,0-.38.38-.38H71c1.29,0,2.75.18,3.5,1.49a3.73,3.73,0,0,1-.28,3.51A2.5,2.5,0,0,1,72.56,47.18Z"/><path class="cls-1" d="M89.29,29.27a3.14,3.14,0,1,1-3.14-3.14A3.13,3.13,0,0,1,89.29,29.27Zm-.18,4.78H83.3V52.16h5.81Z"/><path class="cls-1" d="M102.68,33.78a8.29,8.29,0,0,0-4.54,1.27V26.54H92.33V52.16h4.15L98.14,51h0a8.37,8.37,0,0,0,4.54,1.25c5.44,0,8.43-3.82,8.43-9.24C111.11,37.43,107.58,33.78,102.68,33.78Zm-.62,14a3.7,3.7,0,0,1-3.92-2.95V41.3a3.76,3.76,0,0,1,3.92-3c3.6,0,4.13,3,4.13,4.77C106.19,47.79,103.29,47.79,102.06,47.79Z"/><polygon class="cls-1" points="150 34.05 143.78 34.05 140.63 38.61 137.48 34.05 131.27 34.05 137.53 43.11 131.27 52.16 137.48 52.16 140.63 47.6 143.78 52.16 150 52.16 143.74 43.11 150 34.05"/><circle class="cls-2" cx="122.4" cy="43.03" r="9.32"/><path class="cls-3" d="M126.85,41.78c.17-1.26-.8-1.92-2.12-2.35l.4-1.71-1-.25-.39,1.67-.84-.18.39-1.68-1-.24-.4,1.71-.66-.14h0l-1.44-.33-.26,1.11s.77.17.76.18a.55.55,0,0,1,.49.59l-.45,2,.11,0-.11,0-.64,2.74a.36.36,0,0,1-.47.25s-.76-.17-.76-.17l-.49,1.2,1.36.31.74.18-.4,1.73,1,.24.4-1.71.83.2-.4,1.71,1.05.24.4-1.73c1.77.3,3.1.15,3.64-1.46a1.83,1.83,0,0,0-1-2.51A1.65,1.65,0,0,0,126.85,41.78Zm-2.32,3.37c-.29,1.3-2.48.64-3.19.47l.54-2.29C122.58,43.49,124.85,43.8,124.53,45.15Zm.27-3.35c-.27,1.18-2.09.61-2.68.48l.48-2.09C123.19,40.33,125.09,40.57,124.8,41.8Z"/><path class="cls-1" d="M46.51,47l0-14.09A2.56,2.56,0,1,0,44,28.57L31.48,21.34a2.56,2.56,0,0,0,0-.39,2.49,2.49,0,0,0-5,0,2.34,2.34,0,0,0,0,.38L14.05,28.54a2.49,2.49,0,1,0-2.46,4.26V47.12a2.49,2.49,0,1,0,2.47,4.26l12.42,7.15a3,3,0,0,0,0,.43,2.58,2.58,0,0,0,5.16,0,2,2,0,0,0,0-.43L44,51.36a2.48,2.48,0,0,0,1.6.57,2.53,2.53,0,0,0,.9-4.9ZM44,47.45l-12.34-7a3,3,0,0,0,0-.43A2.62,2.62,0,0,0,30,37.54l0-14.27a2.36,2.36,0,0,0,.65-.38l12.48,7.24a2.86,2.86,0,0,0,0,.42A2.57,2.57,0,0,0,44.69,33l0,14.08A2.61,2.61,0,0,0,44,47.45Zm-.88,2.35L30.67,57a2.6,2.6,0,0,0-3.3,0L15,49.82a2.34,2.34,0,0,0,0-.38,2.4,2.4,0,0,0,0-.37L27.38,42a2.66,2.66,0,0,0,1.69.62A2.57,2.57,0,0,0,30.76,42l12.35,7a2.56,2.56,0,0,0,0,.39A2.6,2.6,0,0,0,43.11,49.8ZM13.39,47.12V32.8A2.49,2.49,0,0,0,15,30.48a2.34,2.34,0,0,0,0-.38l12.51-7.21a2.8,2.8,0,0,0,.67.39l0,14.27A2.61,2.61,0,0,0,26.46,40a3.25,3.25,0,0,0,0,.44L14.06,47.51A2.8,2.8,0,0,0,13.39,47.12Z"/></g></svg>