<svg id="Calque_1" data-name="Calque 1" xmlns="http://www.w3.org/2000/svg" viewBox="0 0 160 80"><defs><style>.cls-1{fill:#332768;}</style></defs><title>bigone</title><g id="bigone"><path class="cls-1" d="M41.1,31.86s0,0-.05-.05L19.52,14.91h0l-.08,0h0a.52.52,0,0,0-.55,0l-8.66,6.52a.56.56,0,0,0-.21.43v0h0V50.61a14.51,14.51,0,0,0,26.93,7.58A14.62,14.62,0,0,0,41.1,31.86ZM20.78,36.51c-.36.09-.71.2-1.05.32V29.75L23.81,33A14.39,14.39,0,0,0,20.78,36.51Zm3.9-2.88,3.72,2.92A14.58,14.58,0,0,0,24.53,36a14.07,14.07,0,0,0-2.26.18A13.29,13.29,0,0,1,24.68,33.63ZM11.07,23l7.59,5.95v8.35a14.67,14.67,0,0,0-7.59,7.86Zm7.59,4.59-7.23-5.67,7.23-5.45Zm1.07.84V16.44L37.05,30a14.06,14.06,0,0,0-3.86-.54,14.35,14.35,0,0,0-8.51,2.78Zm4.8,35.75h0a13.53,13.53,0,0,1-5.87-25.69v5.65A14.57,14.57,0,0,0,33.19,58.68a15.32,15.32,0,0,0,2.26-.17A13.46,13.46,0,0,1,24.53,64.14Zm11.72-6.88A13.52,13.52,0,0,1,21.47,37.44,13.43,13.43,0,0,1,38,50.61,13.62,13.62,0,0,1,36.25,57.26Zm1.42-.42a14.63,14.63,0,0,0-5.22-18.46l-.05-.05L25.55,33a13.32,13.32,0,0,1,7.63-2.4,13.54,13.54,0,0,1,4.49,26.28Z"/><path class="cls-1" d="M59,50.89l-1.28,0c-.46,0-.91,0-1.37-.09s-.92-.08-1.37-.14a10.06,10.06,0,0,1-1.23-.22V31.53a10.06,10.06,0,0,1,1.23-.22c.45-.06.91-.1,1.37-.14l1.36-.09c.45,0,.87,0,1.26,0a18.49,18.49,0,0,1,3.16.25,8,8,0,0,1,2.56.85,4.74,4.74,0,0,1,1.7,1.59A4.49,4.49,0,0,1,67,36.17a4.31,4.31,0,0,1-.76,2.62,4.58,4.58,0,0,1-2,1.54,5.79,5.79,0,0,1,2.72,1.6,4.36,4.36,0,0,1,1,3.09,5,5,0,0,1-2.15,4.39Q63.63,50.9,59,50.89ZM56.41,39.45h2.86a11.67,11.67,0,0,0,1.91-.14,4.69,4.69,0,0,0,1.56-.5,2.75,2.75,0,0,0,1-1,2.72,2.72,0,0,0,.38-1.49,2.37,2.37,0,0,0-.4-1.41A2.74,2.74,0,0,0,62.68,34a5.54,5.54,0,0,0-1.61-.52,11.29,11.29,0,0,0-2-.17c-.69,0-1.23,0-1.63,0l-1.06.08Zm0,2.2V48.5l.73.06.85,0h1.14a16.62,16.62,0,0,0,2.29-.15,6.84,6.84,0,0,0,1.9-.55,3.32,3.32,0,0,0,1.3-1.1A3,3,0,0,0,65.11,45a3.33,3.33,0,0,0-.36-1.61,2.74,2.74,0,0,0-1.06-1,5,5,0,0,0-1.64-.57,12.65,12.65,0,0,0-2.13-.16Z"/><path class="cls-1" d="M72.89,33.47A1.68,1.68,0,0,1,71.7,33a1.84,1.84,0,0,1,0-2.5,1.75,1.75,0,0,1,2.39,0,1.84,1.84,0,0,1,0,2.5A1.68,1.68,0,0,1,72.89,33.47Zm1.32,17.25H71.6V36.11h2.61Z"/><path class="cls-1" d="M87.87,49.26a6.89,6.89,0,0,1-1.31.57,6.5,6.5,0,0,1-2.26.35,7.31,7.31,0,0,1-2.49-.42,5.32,5.32,0,0,1-2-1.3,6.25,6.25,0,0,1-1.38-2.21,9.58,9.58,0,0,1,0-6.08A6.33,6.33,0,0,1,82,36.35a7.83,7.83,0,0,1,3-.55,16.58,16.58,0,0,1,3.19.27c.91.18,1.67.34,2.29.49v13q0,3.38-1.74,4.89A7.87,7.87,0,0,1,83.43,56a15.31,15.31,0,0,1-4.72-.76L79.19,53a12.75,12.75,0,0,0,1.92.54,11.48,11.48,0,0,0,2.37.24,5,5,0,0,0,3.36-.92,3.83,3.83,0,0,0,1-2.95Zm0-10.85c-.27-.07-.62-.14-1.06-.21A13.79,13.79,0,0,0,85,38.11a4,4,0,0,0-3.24,1.37,5.55,5.55,0,0,0-1.14,3.65,6.58,6.58,0,0,0,.32,2.17,4.51,4.51,0,0,0,.87,1.49,3.52,3.52,0,0,0,1.27.87,4.13,4.13,0,0,0,1.47.28,5.84,5.84,0,0,0,1.91-.3A4.44,4.44,0,0,0,87.84,47Z"/><path class="cls-1" d="M94.33,41a12,12,0,0,1,.74-4.41,9.31,9.31,0,0,1,2-3.19,8.39,8.39,0,0,1,3-1.92,10.09,10.09,0,0,1,3.61-.65,9.77,9.77,0,0,1,3.55.65,8.24,8.24,0,0,1,2.94,1.92,9.45,9.45,0,0,1,2,3.19,12.2,12.2,0,0,1,.74,4.41,12.2,12.2,0,0,1-.74,4.41,9.35,9.35,0,0,1-2,3.19,8.24,8.24,0,0,1-2.94,1.92,9.77,9.77,0,0,1-3.55.65,10.09,10.09,0,0,1-3.61-.65,8.39,8.39,0,0,1-3-1.92,9.22,9.22,0,0,1-2-3.19A12,12,0,0,1,94.33,41Zm2.86,0a10.85,10.85,0,0,0,.45,3.22,7.36,7.36,0,0,0,1.28,2.46,5.5,5.5,0,0,0,2,1.55,6.3,6.3,0,0,0,2.68.55,6.16,6.16,0,0,0,2.67-.55,5.55,5.55,0,0,0,2-1.55,7.36,7.36,0,0,0,1.28-2.46,11.75,11.75,0,0,0,0-6.44,7.21,7.21,0,0,0-1.28-2.45,5.47,5.47,0,0,0-2-1.56,6.16,6.16,0,0,0-2.67-.55,6.3,6.3,0,0,0-2.68.55,5.42,5.42,0,0,0-2,1.56,7.21,7.21,0,0,0-1.28,2.45A10.85,10.85,0,0,0,97.19,41Z"/><path class="cls-1" d="M130.31,50.72c-.41-.69-.89-1.47-1.42-2.33s-1.11-1.76-1.73-2.69l-1.92-2.82c-.67-1-1.33-1.88-2-2.77s-1.29-1.72-1.91-2.51-1.19-1.48-1.72-2.08v15.2H117V31.25h2.16q1.32,1.41,2.82,3.27c1,1.25,2,2.53,3,3.85s1.91,2.62,2.78,3.89,1.61,2.41,2.21,3.4V31.25h2.66V50.72Z"/><path class="cls-1" d="M137.42,50.72V31.25H149.3v2.33h-9.16v5.79h8.15v2.28h-8.15v6.74H150v2.33Z"/></g></svg>