<svg id="Calque_1" data-name="Calque 1" xmlns="http://www.w3.org/2000/svg" viewBox="0 0 160 80"><defs><style>.cls-1{fill:#f5bc00;}</style></defs><title>binance</title><g id="binance"><path class="cls-1" d="M9.79,37.45,16,31.23l6.22,6.22,3.61-3.62L16,24,6.17,33.83ZM3.62,36.38,7.23,40,3.62,43.62,0,40Zm6.17,6.17L16,48.77l6.22-6.22,3.62,3.61h0L16,56,6.17,46.17h0ZM32,40l-3.61,3.62L24.77,40l3.62-3.61Z"/><path class="cls-1" d="M19.67,40h0L16,36.33,13.29,39h0l-.31.31-.65.64h0L16,43.67,19.67,40Zm18-8.25H45.5a6,6,0,0,1,4.43,1.51,3.87,3.87,0,0,1,1.16,2.88v0a4.17,4.17,0,0,1-.18,1.28,3.75,3.75,0,0,1-.48,1,4,4,0,0,1-.7.79,4.91,4.91,0,0,1-.85.58,5.65,5.65,0,0,1,2.31,1.52A3.82,3.82,0,0,1,52,44v0a4.37,4.37,0,0,1-.45,2,4,4,0,0,1-1.28,1.46,5.94,5.94,0,0,1-2,.87,10.51,10.51,0,0,1-2.6.29H37.64Zm7.08,6.86a3.91,3.91,0,0,0,2-.42,1.46,1.46,0,0,0,.73-1.37v0a1.51,1.51,0,0,0-.63-1.3A3.2,3.2,0,0,0,45,35H41.27v3.58Zm1,6.84A3.57,3.57,0,0,0,47.65,45a1.53,1.53,0,0,0,.7-1.39v0a1.63,1.63,0,0,0-.65-1.35,3.55,3.55,0,0,0-2.11-.49H41.27v3.73Zm11-13.7h3.74v17H56.72Zm9.39,0h3.44l8,10.45V31.75h3.69v17H78L69.79,37.94V48.72H66.11Zm26.38-.12h3.44l7.28,17.09H99.3l-1.55-3.8H90.58L89,48.72h-3.8l7.27-17.09Zm3.93,10-2.26-5.5-2.25,5.5Zm10.82-9.87h3.44l7.95,10.45V31.75h3.69v17h-3.18l-8.22-10.78V48.72h-3.68v-17ZM135.75,49a8.59,8.59,0,0,1-6.23-2.53,8.6,8.6,0,0,1-1.82-2.77,9.09,9.09,0,0,1-.65-3.42v0a8.78,8.78,0,0,1,2.47-6.2,8.5,8.5,0,0,1,2.79-1.89,9.08,9.08,0,0,1,3.59-.69,11.2,11.2,0,0,1,2.17.2,9.05,9.05,0,0,1,1.78.53,8.21,8.21,0,0,1,1.48.82,9.9,9.9,0,0,1,1.26,1.07l-2.38,2.74a9,9,0,0,0-2-1.41,5.3,5.3,0,0,0-2.32-.5,4.61,4.61,0,0,0-2,.41,4.53,4.53,0,0,0-1.57,1.14,5.48,5.48,0,0,0-1,1.68,5.78,5.78,0,0,0-.36,2v.05a5.87,5.87,0,0,0,.36,2.06,5.55,5.55,0,0,0,1,1.7,4.94,4.94,0,0,0,1.55,1.15,4.75,4.75,0,0,0,2,.42,5.26,5.26,0,0,0,2.46-.53,9.49,9.49,0,0,0,2-1.46l2.38,2.4a11.54,11.54,0,0,1-1.36,1.26,7.64,7.64,0,0,1-1.54,1,8,8,0,0,1-1.83.61,10.81,10.81,0,0,1-2.23.2ZM147.1,31.75h12.78v3.33h-9.09v3.44h8v3.32h-8V45.4H160v3.32H147.1Z"/></g></svg>