<svg id="Calque_1" data-name="Calque 1" xmlns="http://www.w3.org/2000/svg" xmlns:xlink="http://www.w3.org/1999/xlink" viewBox="0 0 160 80"><defs><style>.cls-1{fill:url(#Dégradé_sans_nom_28);}.cls-2{fill:url(#Dégradé_sans_nom_26);}.cls-3{fill:url(#Dégradé_sans_nom_26-2);}.cls-4{fill:url(#Dégradé_sans_nom_26-3);}</style><linearGradient id="Dégradé_sans_nom_28" x1="80.7" y1="71.83" x2="78.84" y2="50.62" gradientUnits="userSpaceOnUse"><stop offset="0" stop-color="#fddf31"/><stop offset="0.52" stop-color="#fcdd30"/><stop offset="0.7" stop-color="#f7d62b"/><stop offset="0.84" stop-color="#efcb23"/><stop offset="0.94" stop-color="#e4ba18"/><stop offset="1" stop-color="#dbad0f"/></linearGradient><linearGradient id="Dégradé_sans_nom_26" x1="81.24" y1="18.24" x2="77.24" y2="22.23" gradientUnits="userSpaceOnUse"><stop offset="0" stop-color="#fddf31"/><stop offset="0.52" stop-color="#fcde2f"/><stop offset="0.71" stop-color="#f7db28"/><stop offset="0.84" stop-color="#efd51d"/><stop offset="0.95" stop-color="#e3cd0c"/><stop offset="1" stop-color="#dbc700"/></linearGradient><linearGradient id="Dégradé_sans_nom_26-2" x1="74.57" y1="27.72" x2="70.88" y2="32.99" xlink:href="#Dégradé_sans_nom_26"/><linearGradient id="Dégradé_sans_nom_26-3" x1="67.05" y1="35.03" x2="63.72" y2="42.17" xlink:href="#Dégradé_sans_nom_26"/></defs><title>bit2c</title><g id="bit2c"><path class="cls-1" d="M68.08,69.86H72V57.54H68.08Zm7.14-16v3.67H74.06v3h1.16v5.53a3.7,3.7,0,0,0,4,3.79h2V66.57H79.92a.71.71,0,0,1-.79-.79V60.54h2v-3h-2V53.87ZM56.93,63.14h2.81a1.38,1.38,0,0,1,1.53,1.48,1.4,1.4,0,0,1-1.53,1.5H56.93Zm0-6.5h2.6a1.38,1.38,0,1,1,0,2.76h-2.6ZM52.76,52.9v17h7.39c3,0,5.28-1.77,5.28-5a3.94,3.94,0,0,0-2.09-3.69A4.08,4.08,0,0,0,65.2,57.8c0-2.93-1.88-4.9-5.41-4.9Zm15.32,2.83H72v-3H68.08Zm15.43,2h3.1a2.06,2.06,0,1,1,4.12-.05,2.91,2.91,0,0,1-.88,2.05l-6.34,7.36v2.79H93.83V67.07H87.28L92,61.57c1.16-1.36,1.81-2.24,1.81-3.89,0-3-2.15-4.93-5.15-4.93A4.83,4.83,0,0,0,83.51,57.71ZM97,54.52c-1.6,1.59-1.6,3.26-1.6,6.86s0,5.26,1.6,6.86A6.05,6.05,0,0,0,101.35,70a5.73,5.73,0,0,0,5.89-5h-1.81a4.16,4.16,0,0,1-7,2.24c-1.07-1.1-1.19-2.26-1.19-5.81s.12-4.72,1.19-5.82a4.09,4.09,0,0,1,2.93-1.19,4,4,0,0,1,4,3.43h1.86a5.73,5.73,0,0,0-5.89-5A6,6,0,0,0,97,54.52Z"/><path class="cls-2" d="M73,10v7.37l12.48,13.1V23.1Z"/><path class="cls-3" d="M63,20.12v7.37l19.39,13.1V33.22Z"/><path class="cls-4" d="M52.76,28.37v7.37L78,48.84V41.46Z"/></g></svg>