<svg id="Calque_1" data-name="Calque 1" xmlns="http://www.w3.org/2000/svg" xmlns:xlink="http://www.w3.org/1999/xlink" viewBox="0 0 160 80"><defs><style>.cls-1{fill:url(#Dégradé_sans_nom_7);}.cls-2{fill:#fff;}.cls-3{fill:#0e182c;}</style><linearGradient id="Dégradé_sans_nom_7" x1="6.49" y1="-316.48" x2="37.85" y2="-285.12" gradientTransform="translate(0 340.8)" gradientUnits="userSpaceOnUse"><stop offset="0" stop-color="#30b5ec"/><stop offset="1" stop-color="#1e58bb"/></linearGradient></defs><title>bitbay</title><g id="bitbay"><circle class="cls-1" cx="22.17" cy="40" r="22.17"/><path class="cls-2" d="M32.23,39.21a4.89,4.89,0,0,0-.72-.37h0l.17-.16a6.49,6.49,0,0,0,.9-.84,4.81,4.81,0,0,0,1.07-4.79,5.3,5.3,0,0,0-2.91-3.27,8.81,8.81,0,0,0-4-.84H13.83l0,12.61H8.09v5h8.44l-2.64,1.61v3H26.94a17.38,17.38,0,0,0,2.64-.24A6.74,6.74,0,0,0,35,44.29a5.49,5.49,0,0,0-2.74-5.09Zm-4.52-2a2.76,2.76,0,0,1-.95.36,2.56,2.56,0,0,1-.77.08H18.92V33.33H26.6a2.11,2.11,0,0,1,2,1.54,2.19,2.19,0,0,1-.85,2.36Zm-6.86,9.5H18.92V41.66h7.86a2.83,2.83,0,0,1,2.5,1.16,2.43,2.43,0,0,1,.32,2.25A2.3,2.3,0,0,1,28,46.55a8.16,8.16,0,0,1-1.27.19H20.84Z"/><path class="cls-3" d="M74.25,38.25c.33.16.68.31,1,.5A5.19,5.19,0,0,1,77.9,43.5a6.34,6.34,0,0,1-5.23,6.13,14.94,14.94,0,0,1-2.59.23c-4.18,0-8.34,0-12.53,0h-.33v-21H69.8a8.76,8.76,0,0,1,3.94.8,5.12,5.12,0,0,1,2.81,3.06,4.34,4.34,0,0,1-1,4.44,10,10,0,0,1-1.26,1.14ZM61.86,46.06h.3c2.57,0,5.17,0,7.74,0a5.12,5.12,0,0,0,1.35-.19,2.52,2.52,0,0,0,1.37-3.94,3.17,3.17,0,0,0-2.68-1.19H62.17c-.28,0-.32.08-.32.32v4.66l0,.34Zm0-8.8h7.29a3.21,3.21,0,0,0,.82-.07,2.93,2.93,0,0,0,1-.38,2.25,2.25,0,0,0-1.22-4.15c-2.55,0-5.12,0-7.68,0-.16,0-.23.07-.23.24v4.38Zm40.38,12.61V28.81H114.7a8.92,8.92,0,0,1,4.06.81,4.89,4.89,0,0,1,3,3.94,4.43,4.43,0,0,1-1.23,3.59c-.38.4-.85.72-1.29,1.1l.58.26a5,5,0,0,1,2.64,2.66,6.13,6.13,0,0,1-2.24,7.39,6.87,6.87,0,0,1-3.51,1.22c-.71.06-1.43.07-2.14.07H102.24Zm4.65-3.82.26,0H115a4.25,4.25,0,0,0,1.75-.36,2.54,2.54,0,0,0,.52-4.17,3.37,3.37,0,0,0-2.32-.78h-7.7l-.32,0v5.26Zm0-8.81h7.34a5.26,5.26,0,0,0,.89-.07,2.28,2.28,0,0,0,1.61-3.41,2.19,2.19,0,0,0-2-1.1c-2.55,0-5.11,0-7.65,0-.21,0-.24.11-.24.28v4.32Zm19.35-2c.86-.32,1.69-.63,2.51-.9a16.46,16.46,0,0,1,6-.7,9.19,9.19,0,0,1,3.66.91,4.12,4.12,0,0,1,2.47,4v7.65a11.37,11.37,0,0,0,.42,3.49.69.69,0,0,0,0,.18l-.25,0h-3.7c-.23,0-.31-.07-.34-.26l-.32-1.51-1,.79a7,7,0,0,1-4.43,1.37,7.31,7.31,0,0,1-3.84-1.06,5,5,0,0,1-1.26-7.23,5.8,5.8,0,0,1,3-1.9,9.88,9.88,0,0,1,5.65,0,14.52,14.52,0,0,1,1.54.74l.21.11c0-.53,0-1.06,0-1.59a2.26,2.26,0,0,0-2.11-2.21,9.3,9.3,0,0,0-4.59.47c-.76.23-1.5.53-2.29.85l-1.32-3.2Zm6.58,7.45a9.2,9.2,0,0,0-1,.08,5.09,5.09,0,0,0-1,.26,1.93,1.93,0,0,0-1.16,2.71A2.34,2.34,0,0,0,131.74,47a6,6,0,0,0,4.59-1.51.76.76,0,0,0,.21-.44c0-.29,0-.57,0-.85a.62.62,0,0,0-.39-.69A6.64,6.64,0,0,0,132.79,42.69ZM160,34.12l-1.19,2.53c-2,4.28-4.05,8.55-6.07,12.82l-3.28,6.86a.28.28,0,0,1-.21.19h-4.33l.14-.32,3.8-7.54a.44.44,0,0,0,0-.51L143.9,37c-.42-.88-.81-1.79-1.2-2.67a.83.83,0,0,1-.07-.21H143c1.37,0,2.78,0,4.17,0a.35.35,0,0,1,.38.26l2.85,7.06.77,1.85c0,.08.11.14.17.21s.15-.13.18-.21l3.86-8.71c.19-.46.19-.46.7-.46h4Zm-71.62,3V33.91h2.73V29.47h4.27v4.44H99c.23,0,.32.05.32.29,0,.95,0,1.9,0,2.89h-.37c-1.08,0-2.16,0-3.23,0-.26,0-.32.08-.32.31v7.77a1.28,1.28,0,0,0,1.39,1.45,14.65,14.65,0,0,0,2-.14c.36,0,.36,0,.39.32.08.84.15,1.69.26,2.55,0,.26,0,.39-.25.45a8.81,8.81,0,0,1-1.35.31,9.35,9.35,0,0,1-3.21,0A4.13,4.13,0,0,1,91.14,46c0-2.83,0-5.65,0-8.47,0-.42,0-.42-.43-.42H88.39ZM85.56,49.85H85.3c-1.24,0-2.46,0-3.7,0-.23,0-.31-.06-.31-.32q0-7.56,0-15.12c0-.24.07-.32.31-.32,1.24,0,2.47,0,3.7,0,.23,0,.3.08.3.29V49.63a.59.59,0,0,1,0,.21ZM83.31,27a2.67,2.67,0,0,1,2.4,1.3,2.12,2.12,0,0,1-.6,2.81A2.78,2.78,0,0,1,81.63,31a2.07,2.07,0,0,1-.7-2,2.31,2.31,0,0,1,1.53-1.75A7.84,7.84,0,0,1,83.3,27Z"/></g></svg>