<svg id="Calque_1" data-name="Calque 1" xmlns="http://www.w3.org/2000/svg" viewBox="0 0 160 80"><defs><style>.cls-1{fill:#49416b;}</style></defs><title>bitbns</title><g id="bitbns"><path class="cls-1" d="M55.65,14.9c-10.49-.11-20.18,5.77-24,15.8a25.75,25.75,0,0,0,6.57,28,25.82,25.82,0,0,0,28.48,3.69A25.34,25.34,0,0,0,80.1,37.16,24.64,24.64,0,0,0,55.65,14.9Zm-5,31.71a5.86,5.86,0,0,1-8.3.7,6.87,6.87,0,0,1-.81-.81c0,1,.12,1.84-1.26,2a1.45,1.45,0,0,1-1.73-1.62V34.16c0-.69,0-1.85-1-1.38h-.46c-1.39,0-1.85-2-.92-2.89a2.47,2.47,0,0,1,2.19-.34h2.76c.81-.12,1.5-.12,1.5.92v5.3c2.65-2.65,6.69-2.53,8.54.93A9.09,9.09,0,0,1,50.69,46.61ZM61.3,48.34H55.65c-1,0-2-.23-2.19-1.38s.12-2.08,1.27-2.08l.81.23c1.15.12.8-3.22.8-3.92,0-.92.47-4-1-3.57-1,0-1.73-.35-1.85-1.62,0-2.07,1.73-1.84,3.23-1.72.92.11,2.42-.47,3.23-.12s.58.92.69,1.61v5.65c0,.7-.35,4.27,1,3.58,1,0,1.84.11,1.61,1.61A2.08,2.08,0,0,1,61.3,48.34ZM73.53,35.66c0,2.88-4.27.11-4.5,2.19a37.3,37.3,0,0,0,0,5.07c0,.81-.12,1.85.92,2.08,1.38.34,1.27-1.5,1.27-2.31a1.59,1.59,0,0,1,2.42-1.5c1.27.81,1,3,.69,4.15-.92,3-5.07,4-7.61,2.43S65,42.46,65.11,39.93V37.62c0-.69,0-.58-.58-.58a3.83,3.83,0,0,1-1.61-.11,1.81,1.81,0,0,1-.69-2c.46-1.5,2.07-.35,2.42-1.73a13.08,13.08,0,0,0,0-3c0-.81.23-1.15,1-1.15l1.5.11c.35,0,1-.23,1.27-.11.69.46.23,2.42.23,3.22,0,.47-.11,1.16.23,1.39a3.87,3.87,0,0,0,1.62.11C72,34.16,73.53,34.16,73.53,35.66Z"/><path class="cls-1" d="M44.93,37.39c-3.69,0-3.81,8.42.23,7.84,1.84-.35,2.07-2.54,2.07-4S46.89,37.39,44.93,37.39Zm84.06,4c-1.38-2.42-4.61-1.49-6.69-2.53-1-.58-.92-1.73.23-2,1.39-.35,2.31.57,3.23,1.5.69.69,2.08,1.38,2.88.46.46-.58.23-1.5.23-2.19s.58-2-.11-2.54-2.54-.23-2.65.92c-2.77-2.07-7.5-1.5-8.42,2.31a4.16,4.16,0,0,0,1.5,4.61,9.9,9.9,0,0,0,3.69,1.15c.92.23,2.42.23,2.53,1.39.12,1.38-2.07,1.38-3,1.15-1.5-.35-2-2.31-3.35-2.65s-2.19.23-2.19,1.5a28.08,28.08,0,0,0-.11,3.23c.23,1.61,3,1.5,3-.23a7.07,7.07,0,0,0,7.62.8,5.25,5.25,0,0,0,2.42-2.76,4.54,4.54,0,0,0-.81-4.16ZM92.32,33.81a5.93,5.93,0,0,0-4,1.85V30.35c0-1-.7-1-1.62-.92a3.2,3.2,0,0,1-1.5.12c-.34,0-.92-.23-1.15,0-.46.23,0,3.57,0,4.49v12.8c0,2,3.11,2.31,3.11.35V46.5a5.89,5.89,0,0,0,8.3.92,5.15,5.15,0,0,0,.81-.81,9.55,9.55,0,0,0,.12-10.84A5,5,0,0,0,92.32,33.81Zm-1.5,11.42c-3.92,0-3.34-8.42.46-7.84,1.85.34,2.08,2.65,2,4C93.24,43,92.78,45.23,90.82,45.23Zm23.87-.12c-.92,0-.58-6.45-.69-7.38-.81-5.07-6.8-4.72-9.46-1.38,0-.81.23-2-.8-2.07-.58-.12-1.27.23-1.85.23l-1.84-.23c-1.39.11-2.42,2.07-1.27,3.11.57.58,1,.11,1.61.11s.58.58.58,1.16V43.5c0,.35.11,1.27-.23,1.5s-1-.23-1.5,0c-1.27.34-1.27,2.42-.35,3.11s2.77.12,3.92.12,3,.69,3.81-.23a2.29,2.29,0,0,0,.35-1.73c-.12-.93-.47-.93-1.16-1.16-.92-.34-.57-1.61-.57-2.42,0-2.07-.23-5.3,2.88-5.07,2.42.23,1.73,3.92,1.73,5.53v1.27c-.12.81-.46.46-1.16.81-1.26.46-.92,2.77.35,3.11a13.35,13.35,0,0,0,3-.11l2.19.23c.58.11,1,.11,1.27-.46a7.3,7.3,0,0,0,.11-2.77c-.11-.23-.8-.12-.92-.12Z"/></g></svg>