<svg id="Calque_1" data-name="Calque 1" xmlns="http://www.w3.org/2000/svg" viewBox="0 0 160 80"><defs><style>.cls-1{fill:#2eaa8f;}.cls-2{fill:#003f6b;}</style></defs><title>bitbank</title><g id="bitbank"><path class="cls-1" d="M20.11,35.25a8.11,8.11,0,1,0,8.1,8.11A8.11,8.11,0,0,0,20.11,35.25Z"/><path class="cls-2" d="M20.11,23.25A19.75,19.75,0,0,0,12,25v6.88A14.09,14.09,0,1,1,6,43.36V16.53H0V43.36A20.11,20.11,0,1,0,20.11,23.25Z"/><path class="cls-2" d="M57.92,32.64v7.68a7.41,7.41,0,0,1,2.29-1.6,6.27,6.27,0,0,1,2.62-.53A6.58,6.58,0,0,1,68,40.48a8.48,8.48,0,0,1,2.13,5.87,8.17,8.17,0,0,1-2.19,5.76,6.87,6.87,0,0,1-5.17,2.29,6.56,6.56,0,0,1-2.51-.48,8.28,8.28,0,0,1-2.29-1.55V54H54.08V32.64ZM62,41.81A4.14,4.14,0,0,0,59,43a5,5,0,0,0,0,6.56,4.18,4.18,0,0,0,6,0,4.68,4.68,0,0,0,1.23-3.31A4.51,4.51,0,0,0,65.07,43,4.34,4.34,0,0,0,62,41.81Z"/><path class="cls-2" d="M74.77,32.27a2.4,2.4,0,0,1,1.76.74,2.46,2.46,0,0,1,.75,1.82,2.22,2.22,0,0,1-.75,1.76,2.37,2.37,0,0,1-1.7.74,2.4,2.4,0,0,1-1.76-.74,2.55,2.55,0,0,1-.75-1.82A2.43,2.43,0,0,1,73.07,33,2.19,2.19,0,0,1,74.77,32.27Zm-1.92,6.34h3.9V54h-3.9Z"/><path class="cls-2" d="M80.69,33h3.9v5.71h2.29V42H84.59v12.1h-3.9V42h-2V38.61h2Z"/><path class="cls-2" d="M92.8,32.64v7.68a7.41,7.41,0,0,1,2.29-1.6,6.27,6.27,0,0,1,2.62-.53,6.58,6.58,0,0,1,5.12,2.29A8.48,8.48,0,0,1,105,46.35a8.17,8.17,0,0,1-2.19,5.76A6.87,6.87,0,0,1,97.6,54.4a6.56,6.56,0,0,1-2.51-.48,8.28,8.28,0,0,1-2.29-1.55V54H89V32.64Zm4,9.17a4.15,4.15,0,0,0-3,1.23,5,5,0,0,0,0,6.56,4,4,0,0,0,3,1.28,4,4,0,0,0,3-1.28,4.68,4.68,0,0,0,1.23-3.31A4.52,4.52,0,0,0,99.89,43,4.14,4.14,0,0,0,96.85,41.81Z"/><path class="cls-2" d="M119.52,38.61h3.89V54h-3.89V52.37a7.49,7.49,0,0,1-2.29,1.55,6.31,6.31,0,0,1-2.46.48,6.87,6.87,0,0,1-5.17-2.29,8.17,8.17,0,0,1-2.19-5.76,8.21,8.21,0,0,1,2.14-5.87,6.56,6.56,0,0,1,5.12-2.29,6.25,6.25,0,0,1,2.61.53,6.83,6.83,0,0,1,2.24,1.6V38.61Zm-4,3.2a4,4,0,0,0-3,1.28,4.54,4.54,0,0,0-1.17,3.26,4.67,4.67,0,0,0,1.22,3.3,4.19,4.19,0,0,0,6,0,4.67,4.67,0,0,0,1.23-3.3,4.28,4.28,0,0,0-1.23-3.26A4.2,4.2,0,0,0,115.47,41.81Z"/><path class="cls-2" d="M127.31,38.61h3.89v1.6a7.75,7.75,0,0,1,2.4-1.54,6.06,6.06,0,0,1,2.19-.43,5.27,5.27,0,0,1,3.89,1.6,5.45,5.45,0,0,1,1.33,4V54.08h-3.84V47.31a17,17,0,0,0-.26-3.68,2.76,2.76,0,0,0-.86-1.39,2.4,2.4,0,0,0-1.54-.48,2.89,2.89,0,0,0-2,.8,3.91,3.91,0,0,0-1.17,2.19,18.39,18.39,0,0,0-.16,3.14v6.19h-3.9V38.61Z"/><path class="cls-2" d="M144.75,32.64h3.89V45l5.71-6.35h4.85L152.53,46l7.47,8h-4.8l-6.56-7.15V54h-3.89V32.64Z"/></g></svg>