<svg id="Calque_1" data-name="Calque 1" xmlns="http://www.w3.org/2000/svg" viewBox="0 0 160 80"><defs><style>.cls-1{fill:#333;}.cls-2{fill:#0071bc;}</style></defs><title>bitcointoyou</title><g id="bitcointoyou"><path class="cls-1" d="M47.59,32a12.24,12.24,0,0,1,2.11.16,4.2,4.2,0,0,1,1.59.55,2.64,2.64,0,0,1,1,1.11,4.19,4.19,0,0,1,.35,1.82,4.28,4.28,0,0,1-.2,1.28,3.46,3.46,0,0,1-.58,1.11,3.39,3.39,0,0,1-.91.82,2.94,2.94,0,0,1-1.23.41v0a3,3,0,0,1,1.71,1.16,3.42,3.42,0,0,1,.6,2,4.9,4.9,0,0,1-.49,2.22,4.65,4.65,0,0,1-1.32,1.59,5.77,5.77,0,0,1-1.9,1,7.56,7.56,0,0,1-2.25.33H37.8L41.05,32ZM45.93,44.93a2.89,2.89,0,0,0,1.93-.63,2.32,2.32,0,0,0,.75-1.88,1.63,1.63,0,0,0-.25-1,1.65,1.65,0,0,0-.64-.53,2.65,2.65,0,0,0-.87-.23c-.32,0-.64,0-.94,0H42.55l-.91,4.27Zm1-6.61a2.66,2.66,0,0,0,1.63-.51,1.81,1.81,0,0,0,.68-1.54A1.41,1.41,0,0,0,48.73,35a2.23,2.23,0,0,0-1.32-.34H43.79L43,38.32Z"/><path class="cls-1" d="M58.86,36.32l-2.4,11.27H53.37l2.37-11.27Zm-2.77-1.75L56.66,32h3.12l-.57,2.55Z"/><path class="cls-1" d="M67.54,36.32l-.48,2.07h-2.2L63.7,44c0,.12-.05.22-.07.32s0,.16,0,.21a.92.92,0,0,0,.1.46.66.66,0,0,0,.59.35h.36a10,10,0,0,0,1.11-.06l-.52,2.38-1,.07c-.32,0-.65,0-1,0a6.38,6.38,0,0,1-1.08-.09,3.13,3.13,0,0,1-1-.35,2,2,0,0,1-.68-.69,2.23,2.23,0,0,1-.23-1.13,3,3,0,0,1,0-.49c0-.19.06-.38.11-.58l1.26-6h-2l.48-2.07h2l.7-3.43H66l-.7,3.43Z"/><path class="cls-1" d="M75.35,38.78a2.82,2.82,0,0,0-3,0,3.56,3.56,0,0,0-1,1.19,5.74,5.74,0,0,0-.53,1.56,8.16,8.16,0,0,0-.17,1.56,4.19,4.19,0,0,0,.11,1,2,2,0,0,0,.37.77,2.07,2.07,0,0,0,.67.53,2.27,2.27,0,0,0,1,.19,2.45,2.45,0,0,0,.93-.17,3,3,0,0,0,.72-.46,2.57,2.57,0,0,0,.52-.66,4.69,4.69,0,0,0,.34-.8h3.09a6.67,6.67,0,0,1-2.14,3.26,5.79,5.79,0,0,1-3.68,1.14,5.42,5.42,0,0,1-3.69-1.16,4.65,4.65,0,0,1-1.32-3.66A8.59,8.59,0,0,1,68,40.34a7,7,0,0,1,1.24-2.25,6,6,0,0,1,2-1.52A6.26,6.26,0,0,1,73.9,36a7.58,7.58,0,0,1,1.94.24,4.86,4.86,0,0,1,1.61.74,3.68,3.68,0,0,1,1.09,1.31A4.38,4.38,0,0,1,79,40.22H75.87a1.8,1.8,0,0,0-.52-1.44"/><path class="cls-1" d="M80.11,40.32a6.61,6.61,0,0,1,1.28-2.24,6,6,0,0,1,2-1.51,6.36,6.36,0,0,1,2.7-.56,7.21,7.21,0,0,1,2.13.3,4.6,4.6,0,0,1,1.67.88A4.06,4.06,0,0,1,91,38.67a5.46,5.46,0,0,1,.38,2.12,8.44,8.44,0,0,1-.45,2.78,6.75,6.75,0,0,1-1.29,2.25,6,6,0,0,1-2.07,1.51,6.65,6.65,0,0,1-2.75.54,5.54,5.54,0,0,1-3.76-1.21A4.5,4.5,0,0,1,79.66,43a8.07,8.07,0,0,1,.45-2.71M82.9,44a2.23,2.23,0,0,0,.42.81,2.14,2.14,0,0,0,.7.56,2.26,2.26,0,0,0,1,.2,2.35,2.35,0,0,0,1.49-.47,3.75,3.75,0,0,0,1-1.17,5.87,5.87,0,0,0,.6-1.54,6.76,6.76,0,0,0,.19-1.55A2.94,2.94,0,0,0,87.78,39,2.07,2.07,0,0,0,86,38.35a2.36,2.36,0,0,0-1.48.47,3.77,3.77,0,0,0-1,1.16A5.93,5.93,0,0,0,83,41.5,6.53,6.53,0,0,0,82.76,43a2.76,2.76,0,0,0,.14,1"/><path class="cls-1" d="M97.62,36.32,95.23,47.59h-3.1l2.38-11.27Zm-2.77-1.75L95.42,32h3.12L98,34.57Z"/><path class="cls-1" d="M103.07,36.32l-.34,1.57h0a4.82,4.82,0,0,1,4-1.88Q110,36,110,39a2.92,2.92,0,0,1-.05.45c0,.18-.06.37-.09.56s-.08.36-.11.53-.06.3-.08.4l-1.39,6.61h-3.1L106.56,41l.12-.69a4.44,4.44,0,0,0,.08-.68,1,1,0,0,0-.47-.83,1.72,1.72,0,0,0-1-.33,2.66,2.66,0,0,0-1.23.28,3,3,0,0,0-.92.71,3.54,3.54,0,0,0-.63,1,5.54,5.54,0,0,0-.38,1.15l-1.27,6H97.78l2.33-11.27Z"/><path class="cls-1" d="M111.93,36.38H114l.76-3.51h.83l-.76,3.51h2.39l-.17.72H114.7L113,44.91s0,.09,0,.18,0,.2,0,.31,0,.21-.06.32,0,.17,0,.21a.86.86,0,0,0,.29.71,1.63,1.63,0,0,0,1,.23c.41,0,.83,0,1.25-.06l-.16.71-.58,0c-.25,0-.51,0-.77,0a1.85,1.85,0,0,1-1.4-.44,1.67,1.67,0,0,1-.43-1.24,2.2,2.2,0,0,1,.07-.52c0-.21.08-.39.11-.55l1.7-7.74h-2.12Z"/><path class="cls-1" d="M123,36.12a4.42,4.42,0,0,1,3.26,1.16,4.36,4.36,0,0,1,1.17,3.25,9.39,9.39,0,0,1-.38,2.59,7.71,7.71,0,0,1-1.14,2.36,6.25,6.25,0,0,1-1.87,1.71,5,5,0,0,1-2.58.66,5.23,5.23,0,0,1-2-.34,3.65,3.65,0,0,1-1.4-1,3.88,3.88,0,0,1-.82-1.48,6.12,6.12,0,0,1-.28-1.93,8,8,0,0,1,.42-2.53,7.13,7.13,0,0,1,1.19-2.25,6.17,6.17,0,0,1,1.89-1.62,5.22,5.22,0,0,1,2.54-.62m.18.72a4.44,4.44,0,0,0-2.29.54,5.37,5.37,0,0,0-1.69,1.45,6.42,6.42,0,0,0-1,2,7.33,7.33,0,0,0-.36,2.24,5.75,5.75,0,0,0,.21,1.58,3.78,3.78,0,0,0,.65,1.28,3.12,3.12,0,0,0,1.14.88,3.9,3.9,0,0,0,1.64.31,4.14,4.14,0,0,0,2.26-.62,5.28,5.28,0,0,0,1.61-1.58,7.12,7.12,0,0,0,1-2.13,8.23,8.23,0,0,0,.33-2.25,4,4,0,0,0-.83-2.66,3.27,3.27,0,0,0-2.59-1"/><path class="cls-1" d="M127.1,50.82a5.56,5.56,0,0,0,.79.06,1.76,1.76,0,0,0,1.28-.46,5.08,5.08,0,0,0,.87-1.09l1.09-1.74-2.2-11.21h1l1.88,10.1,5.71-10.1h1l-7.61,13.17a8.62,8.62,0,0,1-.57.89,3.19,3.19,0,0,1-.63.64,2.59,2.59,0,0,1-.78.39,3.58,3.58,0,0,1-1.05.13l-.49,0-.4,0Z"/><path class="cls-1" d="M144,36.12a4.43,4.43,0,0,1,3.26,1.16,4.36,4.36,0,0,1,1.17,3.25,9,9,0,0,1-.39,2.59,7.69,7.69,0,0,1-1.13,2.36,6.38,6.38,0,0,1-1.87,1.71,5,5,0,0,1-2.59.66,5.21,5.21,0,0,1-2-.34,3.58,3.58,0,0,1-1.4-1,3.9,3.9,0,0,1-.83-1.48,6.43,6.43,0,0,1-.27-1.93,8.31,8.31,0,0,1,.41-2.53,7.56,7.56,0,0,1,1.19-2.25,6.32,6.32,0,0,1,1.9-1.62,5.19,5.19,0,0,1,2.54-.62m.17.72a4.46,4.46,0,0,0-2.29.54,5.48,5.48,0,0,0-1.69,1.45,6.61,6.61,0,0,0-1,2,7.33,7.33,0,0,0-.36,2.24,5.75,5.75,0,0,0,.21,1.58,3.45,3.45,0,0,0,.65,1.28,3.17,3.17,0,0,0,1.13.88,4,4,0,0,0,1.65.31,4.14,4.14,0,0,0,2.26-.62,5.51,5.51,0,0,0,1.61-1.58,7.37,7.37,0,0,0,1-2.13,8.23,8.23,0,0,0,.33-2.25,4.05,4.05,0,0,0-.83-2.66,3.29,3.29,0,0,0-2.6-1"/><path class="cls-1" d="M157.62,47.59h-.82l.52-2.35,0-.05a7.63,7.63,0,0,1-.79,1.12,4.39,4.39,0,0,1-.94.84,3.83,3.83,0,0,1-1.16.53,6.07,6.07,0,0,1-1.5.17,3.54,3.54,0,0,1-1.21-.21,2.82,2.82,0,0,1-1-.61,3,3,0,0,1-.7-1,3.16,3.16,0,0,1-.26-1.29q0-.19,0-.51t.09-.63c0-.22.07-.42.11-.62s.07-.36.1-.49l1.37-6.13h.83l-1.38,6.11c0,.1-.06.25-.09.43s-.08.4-.11.61-.07.44-.09.65,0,.39,0,.55a2.34,2.34,0,0,0,.68,1.74,2.72,2.72,0,0,0,2,.66,3.39,3.39,0,0,0,1.82-.5,5.52,5.52,0,0,0,1.44-1.3,7.86,7.86,0,0,0,1-1.76,10.74,10.74,0,0,0,.6-1.91l1.11-5.28H160Z"/><path class="cls-2" d="M15.73,24.27A15.73,15.73,0,1,0,31.46,40,15.73,15.73,0,0,0,15.73,24.27m0,29.5A13.77,13.77,0,1,1,29.5,40,13.77,13.77,0,0,1,15.73,53.77"/><path class="cls-2" d="M11.84,34.25h1.82V32.67a1.64,1.64,0,0,1,.39-1,1.79,1.79,0,0,1,1.33-.43,1.84,1.84,0,0,1,1.34.42,1.5,1.5,0,0,1,.38,1v1.62h1.82V32.67A3.28,3.28,0,0,0,18,30.4a3.58,3.58,0,0,0-2.66-1,3.56,3.56,0,0,0-2.64,1,3.39,3.39,0,0,0-.9,2.31Z"/><path class="cls-2" d="M20.71,41.29a3.51,3.51,0,0,0-1.9-6.42.87.87,0,0,0-.32-.06H9.89a.92.92,0,0,0,0,1.83h1.16v9.62H9.89a.91.91,0,1,0,0,1.82h2v1.6a.92.92,0,0,0,1.83,0v-1.6h3.4v1.6a.91.91,0,0,0,1.82,0v-1.6a3.65,3.65,0,0,0,1.79-6.79M17,41l.62,3.25H14.2l.54-3.33a1.69,1.69,0,1,1,2.85-1.23A1.75,1.75,0,0,1,17,41"/></g></svg>