<svg id="Calque_1" data-name="Calque 1" xmlns="http://www.w3.org/2000/svg" viewBox="0 0 160 80"><defs><style>.cls-1{fill:#00a7ec;}.cls-2{fill:none;stroke:#00a7ec;}</style></defs><title>bitcointrade</title><g id="bitcointrade"><path class="cls-1" d="M40.66,44.68A4.18,4.18,0,0,0,43,44.09a1.88,1.88,0,0,0,.87-1.63v0a1.71,1.71,0,0,0-.9-1.55,5,5,0,0,0-2.61-.55H36.46v4.35Zm-.38-5.08a4.51,4.51,0,0,0,1.19-.15,3,3,0,0,0,.94-.43,2,2,0,0,0,.62-.7,2,2,0,0,0,.22-1v0a1.74,1.74,0,0,0-.74-1.46,3.56,3.56,0,0,0-2.15-.55h-3.9V39.6Zm-4.67-5h4.76a5.51,5.51,0,0,1,1.75.26,3.35,3.35,0,0,1,1.25.7,2.26,2.26,0,0,1,.74,1.7v0a2.43,2.43,0,0,1-.18,1,2.4,2.4,0,0,1-.45.73,2.61,2.61,0,0,1-.63.52,5,5,0,0,1-.7.34,6.8,6.8,0,0,1,1,.34,3.16,3.16,0,0,1,.83.52,2.41,2.41,0,0,1,.57.74,2.21,2.21,0,0,1,.21,1v0a2.66,2.66,0,0,1-.29,1.23,2.75,2.75,0,0,1-.84.92,4.15,4.15,0,0,1-1.31.59,6,6,0,0,1-1.69.21h-5ZM47.5,45.41h.89V34.59H47.5ZM54,35.32H50.24v-.73h8.23v.73H54.75V45.41H54V35.32m11.93,11a5.52,5.52,0,0,1-4-1.69,5.78,5.78,0,0,1-1.16-1.85,6.41,6.41,0,0,1-.42-2.29v0a6,6,0,0,1,1.6-4.13,5.44,5.44,0,0,1,4-1.73,6.28,6.28,0,0,1,1.36.13,5.64,5.64,0,0,1,1.14.37,6.47,6.47,0,0,1,1,.58,9.82,9.82,0,0,1,.89.73l-.6.62a6.88,6.88,0,0,0-.77-.66,4.79,4.79,0,0,0-1.85-.88,5.18,5.18,0,0,0-1.17-.13,4.55,4.55,0,0,0-1.88.39,4.46,4.46,0,0,0-1.5,1.08,5.07,5.07,0,0,0-1,1.61,5.4,5.4,0,0,0-.36,2v0a5.31,5.31,0,0,0,.37,2,5.11,5.11,0,0,0,1,1.62,4.64,4.64,0,0,0,1.51,1.08,4.35,4.35,0,0,0,1.88.4,4.7,4.7,0,0,0,2.12-.45,7.07,7.07,0,0,0,1.75-1.31l.56.54a11.35,11.35,0,0,1-.92.81,5.53,5.53,0,0,1-2.18,1,5.87,5.87,0,0,1-1.37.15m11.8-.76a4.22,4.22,0,0,0,1.86-.4A4.35,4.35,0,0,0,81,44.07a5.07,5.07,0,0,0,1-1.61,5.88,5.88,0,0,0,.34-2v0a5.65,5.65,0,0,0-.35-2,5,5,0,0,0-1-1.62,4.51,4.51,0,0,0-1.47-1.09,4.29,4.29,0,0,0-1.87-.41,4.22,4.22,0,0,0-1.86.4,4.63,4.63,0,0,0-1.47,1.08,5,5,0,0,0-1,1.61,5.62,5.62,0,0,0-.35,2v0a5.65,5.65,0,0,0,.35,2,5.25,5.25,0,0,0,1,1.62,4.73,4.73,0,0,0,1.47,1.1A4.48,4.48,0,0,0,77.69,45.55Zm0,.76a5.15,5.15,0,0,1-2.25-.48,5.27,5.27,0,0,1-1.72-1.28,5.64,5.64,0,0,1-1.11-1.85,6.45,6.45,0,0,1-.39-2.22v0a6.11,6.11,0,0,1,.4-2.22,5.8,5.8,0,0,1,1.11-1.87,5.22,5.22,0,0,1,4-1.77,5.26,5.26,0,0,1,4,1.76,5.67,5.67,0,0,1,1.11,1.85,6.32,6.32,0,0,1,.39,2.22,0,0,0,0,1,0,0,6.2,6.2,0,0,1-.4,2.23,6,6,0,0,1-1.11,1.87,5.34,5.34,0,0,1-1.74,1.28,5.22,5.22,0,0,1-2.25.48Zm9.17-.9h.89V34.59h-.89ZM91.4,34.59h.77L99.76,44V34.59h.79V45.41h-.62L92.19,35.8v9.61H91.4V34.59m15.47,1.76h-3.58V34.59h9.15v1.76h-3.58v9.06h-2V36.35M118.93,40c1.36,0,2.22-.71,2.22-1.8v0c0-1.16-.83-1.8-2.23-1.8h-2.76V40Zm-4.66-5.36h4.8a4.32,4.32,0,0,1,3.11,1.08,3.28,3.28,0,0,1,.89,2.34v0a3.24,3.24,0,0,1-2.57,3.27l2.91,4.1h-2.23l-2.65-3.77h-2.37v3.77h-1.89ZM134,41.14l-2-4.29-1.95,4.29Zm-2.87-6.55H133l5,10.82h-2.12l-1.16-2.59h-5.39l-1.17,2.59h-2.05Zm11.94,9.09A3.58,3.58,0,0,0,147,40v0a3.6,3.6,0,0,0-3.86-3.68h-2.19v7.36ZM139,34.59h4.15c3.5,0,5.91,2.34,5.91,5.38v0c0,3-2.41,5.41-5.91,5.41H139Zm12.81,0h8.15v1.7H153.7V39.1h5.51v1.7H153.7v2.91H160v1.7h-8.23V34.59"/><path class="cls-2" d="M0,26.93H26.14V53.07H0ZM13.13,38.72H8.56V33.44h4.7c2.23,0,3.46,1,3.46,2.5v0c0,1.8-1.47,2.74-3.59,2.74Zm5.38-3a3.41,3.41,0,0,0-1-2.5,5.82,5.82,0,0,0-4.08-1.35H6.76V41.8h1.8V40.25h4.88c2.72,0,4.15,1,4.15,2.63s-1.47,2.78-3.84,2.78H8.56V44.51H6.76v2.7h7c3.41,0,5.67-1.55,5.67-4.18,0-2.14-1.5-3.2-3.35-3.74A3.71,3.71,0,0,0,18.51,35.74ZM5,43.79h5.41V42.43H5Z"/></g></svg>