<svg id="Calque_1" data-name="Calque 1" xmlns="http://www.w3.org/2000/svg" viewBox="0 0 160 80"><defs><style>.cls-1{fill:#265fac;}</style></defs><title>bitforex</title><path class="cls-1" d="M26.32,36.62h-11v6.32c0,2.48,2.58,4.88,5.6,4.88a5.56,5.56,0,0,0,5.4-5.13S26.32,36.62,26.32,36.62ZM0,27.25H5A4.48,4.48,0,0,0,8.83,31.7c.82,0,1,0,1.47,0V27.25h5V31.7h11V27.25h4.93V31.7c3.84.17,5.23-1.84,5.59-4.45h5a9.45,9.45,0,0,1-3.23,7.17c-1.44,1.25-3.23,2.17-7.34,2.17v6.8a10.42,10.42,0,0,1-10.33,9.36A10.54,10.54,0,0,1,10.3,43.11V36.62c-3.54,0-6.25-1.11-8-3.16A9.76,9.76,0,0,1,0,27.25Z"/><path class="cls-1" d="M61.15,39a5.41,5.41,0,0,1,3,5.26c0,2.8-2.25,6.17-5.63,6.17h-9.9V29.1h8.87a5.63,5.63,0,0,1,5.66,5.6A5.74,5.74,0,0,1,61.15,39Zm-3.93-1.31a2.51,2.51,0,0,0,2.64-2.79,2.54,2.54,0,0,0-2.64-2.75H51.68v5.54Zm-5.53,3.07v6.64h6.4a3.06,3.06,0,0,0,3-3.32,3.08,3.08,0,0,0-2.92-3.32Z"/><path class="cls-1" d="M70.34,30.79a1.94,1.94,0,0,1,2,2,2,2,0,0,1-2,2,2,2,0,0,1-2-2A2,2,0,0,1,70.34,30.79Z"/><rect class="cls-1" x="68.75" y="36.86" width="3.12" height="13.55"/><path class="cls-1" d="M83.25,50.52c-5.14,0-6.56-1.57-6.56-5.84V31h3v3.8h3.55v2.85H79.69v7c0,1.51,0,2.89,3.58,2.89Z"/><path class="cls-1" d="M102.16,32.16H91.3v6.53h9.54v3H91.3V50.4H88.2V29.1h14Z"/><path class="cls-1" d="M110.39,34.56c3,0,6,1.74,6,5.18v5.83c0,3.47-3,5.14-6,5.17s-6.11-1.7-6.11-5.17V39.74C104.28,36.3,107.35,34.59,110.39,34.56Zm-3,5.7v5c0,1.73,1.66,2.51,3,2.51s3-.78,3-2.51v-5a2.73,2.73,0,0,0-3-2.68A2.88,2.88,0,0,0,107.37,40.26Z"/><path class="cls-1" d="M128.41,34.56v2.79c-3.94,0-4.52,1.27-4.52,2.85V50.42h-3.15v-10a5.16,5.16,0,0,1,3.71-5.51A13.87,13.87,0,0,1,128.41,34.56Z"/><path class="cls-1" d="M134.41,45.23a2.78,2.78,0,0,0,3,2.73,4.3,4.3,0,0,0,3.21-1.6L143,47.68a6.31,6.31,0,0,1-5.5,3.06c-3,0-6.14-1.81-6.14-5.15V40.37a5.82,5.82,0,0,1,6.14-5.81c3.27,0,6.05,1.86,6.05,5.34v4.15h-9.09Zm3.2-7.8c-1.86,0-3.2,1-3.2,3v1.07h6.19V40.37A2.73,2.73,0,0,0,137.61,37.43Z"/><path class="cls-1" d="M160,34.84l-5.28,7.79,5.28,7.8h-3.44L153,45.21l-3.56,5.22H146l5.34-7.8L146,34.84h3.52L153,40.09l3.55-5.25Z"/></svg>