<svg id="Calque_1" data-name="Calque 1" xmlns="http://www.w3.org/2000/svg" viewBox="0 0 160 80"><defs><style>.cls-1{fill:#f07d05;}.cls-2{fill:#fa9f37;}.cls-3{fill:#fefefe;}</style></defs><title>bitflip</title><g id="bitflip"><g id="_Groupe_" data-name="&lt;Groupe&gt;"><path class="cls-1" d="M48.79,40A24.4,24.4,0,1,1,24.4,15.61,24.39,24.39,0,0,1,48.79,40Z"/><path class="cls-2" d="M24.4,60.18A20.18,20.18,0,1,1,44.75,40,20.29,20.29,0,0,1,24.4,60.18Z"/><path class="cls-3" d="M32.58,40.81a4.28,4.28,0,0,0-2.48-1.73c.41-.4,1.28-.73,1.58-2,.75-3.14-1.62-4.62-4.57-4.9V28.85H25v3.36H23.43V28.85H21.32v3.36H16.91v2.23h1.92c.43,0,.76.52.76,1.52V43.5c0,1-.35,1.66-.74,1.66H16.94v2.51h4.15v3.48h2.12V47.69h1.55v3.46h2.12V47.66a9.84,9.84,0,0,0,3.91-.88,3.62,3.62,0,0,0,2-2.35A5.23,5.23,0,0,0,32.58,40.81Zm-9.37-6.25a11.21,11.21,0,0,1,2.85.1,2.05,2.05,0,0,1,1.88,1.75c.22,2.52-3.55,2.18-4.73,2.24ZM26.81,45a25.26,25.26,0,0,1-3.6.25v-4.5a14.58,14.58,0,0,1,3.38.1C29.35,41.22,30,44.23,26.81,45Z"/></g><path class="cls-1" d="M56.67,31h7.48q5.11,0,7.43,1.46a5.08,5.08,0,0,1,2.31,4.64,5.88,5.88,0,0,1-1,3.55,4.08,4.08,0,0,1-2.69,1.67v.16a5.31,5.31,0,0,1,3.3,1.92,6.23,6.23,0,0,1,1,3.72,6.17,6.17,0,0,1-2.38,5.15,10.24,10.24,0,0,1-6.45,1.85h-9Zm5.1,9.55h3a5.39,5.39,0,0,0,3-.64,2.41,2.41,0,0,0,.93-2.13,2.14,2.14,0,0,0-1-2,6.52,6.52,0,0,0-3.2-.6H61.77Zm0,4.06V50.9h3.32a4.92,4.92,0,0,0,3.11-.81,3,3,0,0,0,1-2.48q0-3-4.27-3Z"/><path class="cls-1" d="M78.69,31.91q0-2.46,2.73-2.46t2.73,2.46a2.41,2.41,0,0,1-.68,1.82,2.9,2.9,0,0,1-2,.65C79.6,34.38,78.69,33.56,78.69,31.91Zm5.23,23.21h-5V36.68h5Z"/><path class="cls-1" d="M96.92,51.44a10.7,10.7,0,0,0,3.16-.58v3.75a11.22,11.22,0,0,1-4.6.84,5.64,5.64,0,0,1-4.39-1.53,6.66,6.66,0,0,1-1.37-4.57v-8.9h-2.4V38.32l2.76-1.68,1.45-3.89h3.21v3.93h5.14v3.77H94.74v8.9a2,2,0,0,0,.6,1.58A2.36,2.36,0,0,0,96.92,51.44Z"/><path class="cls-1" d="M109.21,55.12h-5V31H118v4.19h-8.76v6.22h8.15v4.17h-8.15Z"/><path class="cls-1" d="M127.3,55.12h-5V29.45h5Z"/><path class="cls-1" d="M132.34,31.91q0-2.46,2.73-2.46t2.73,2.46a2.41,2.41,0,0,1-.68,1.82,2.9,2.9,0,0,1-2.05.65C133.25,34.38,132.34,33.56,132.34,31.91Zm5.23,23.21h-5V36.68h5Z"/><path class="cls-1" d="M152.93,55.45a6.1,6.1,0,0,1-5.08-2.36h-.26c.17,1.54.26,2.43.26,2.67v7.48h-5V36.68h4.08l.71,2.39h.23a5.78,5.78,0,0,1,5.21-2.74,6,6,0,0,1,5.1,2.52,11.7,11.7,0,0,1,1.84,7,14,14,0,0,1-.86,5.13,7.23,7.23,0,0,1-2.46,3.32A6.29,6.29,0,0,1,152.93,55.45Zm-1.48-15.1a3.17,3.17,0,0,0-2.71,1.15,6.61,6.61,0,0,0-.89,3.79v.54a7.78,7.78,0,0,0,.88,4.26,3.12,3.12,0,0,0,2.79,1.28c2.24,0,3.37-1.85,3.37-5.57a8,8,0,0,0-.83-4.08A2.85,2.85,0,0,0,151.45,40.35Z"/></g></svg>