<svg id="Calque_1" data-name="Calque 1" xmlns="http://www.w3.org/2000/svg" viewBox="0 0 160 80"><defs><style>.cls-1{fill:#080404;}.cls-2{fill:#4385be;}.cls-3{fill:#ee7f4a;}</style></defs><title>bitflyer</title><g id="bitflyer"><path class="cls-1" d="M49.59,24h3.26v9.78a7.63,7.63,0,0,1,4.54-1.54,6.29,6.29,0,0,1,5.15,2.4,9,9,0,0,1,2,6.09,8.34,8.34,0,0,1-2.4,6.35,8.83,8.83,0,0,1-6.35,2.4,15,15,0,0,1-3.34-.34,12.66,12.66,0,0,1-2.83-.86Zm3.34,12.87v9a11.58,11.58,0,0,0,3.43.51,4.37,4.37,0,0,0,3.52-1.54,5.65,5.65,0,0,0,1.37-4,6.12,6.12,0,0,0-1.28-4,4.16,4.16,0,0,0-3.35-1.54A5.32,5.32,0,0,0,52.93,36.91Z"/><path class="cls-1" d="M69.92,25.67a1.7,1.7,0,0,1,1.37.6,2.18,2.18,0,0,1,.6,1.38,1.94,1.94,0,1,1-2-2Zm-1.63,6.95h3.26V49.18H68.29Z"/><path class="cls-1" d="M74,35.28l6.18-6.09v3.43h5.23v2.92H80.13v8.15c0,1.89.77,2.83,2.4,2.83a7.23,7.23,0,0,0,3.69-1.2v3.09a8.71,8.71,0,0,1-4.12,1,5.73,5.73,0,0,1-3.77-1.29,3.57,3.57,0,0,1-.78-.86A10,10,0,0,1,77,46a13.34,13.34,0,0,1-.17-3.09V35.54H74Z"/><path class="cls-1" d="M89.05,24h13.38v3.18H92.65v7h9.78v3.18H92.65V49.18h-3.6Z"/><path class="cls-1" d="M106,24h3.26V49.18H106Z"/><path class="cls-1" d="M124.14,32.62h3.69L116.08,57.67h-3.69l5.66-12-6.44-13h3.78L119.85,42Z"/><path class="cls-1" d="M144.21,41.2H132.55a5.13,5.13,0,0,0,5.4,5.15,10.52,10.52,0,0,0,6-2v3.17A12.24,12.24,0,0,1,141,49a13.92,13.92,0,0,1-3.51.43A8,8,0,0,1,133,48.32a8.67,8.67,0,0,1-2.75-3.09,9.18,9.18,0,0,1-1-4.46,8.86,8.86,0,0,1,2.15-6.17,7.29,7.29,0,0,1,5.57-2.41,6.45,6.45,0,0,1,5.24,2.32,9.38,9.38,0,0,1,2,6.18l.08.51Zm-11.58-2H141a4.51,4.51,0,0,0-1.2-3,3.8,3.8,0,0,0-2.83-1,4.14,4.14,0,0,0-2.91,1A6.4,6.4,0,0,0,132.63,39.23Z"/><path class="cls-1" d="M151.25,32.62V36.4l.17-.26c1.63-2.57,3.18-3.86,4.72-3.86A5.8,5.8,0,0,1,160,34.17l-1.72,2.91a4.74,4.74,0,0,0-3.17-1.63A3.43,3.43,0,0,0,152.36,37a5.88,5.88,0,0,0-1.2,3.6v8.67H147.9V32.62Z"/><rect class="cls-2" y="20.18" width="12.01" height="12.01"/><rect class="cls-2" x="13.81" y="20.18" width="12.01" height="12.01"/><rect class="cls-2" y="33.99" width="12.01" height="12.01"/><rect class="cls-2" y="47.81" width="12.01" height="12.01"/><rect class="cls-2" x="27.62" y="20.18" width="12.01" height="12.01"/><circle class="cls-3" cx="19.82" cy="40" r="5.92"/></g></svg>