<svg id="Calque_1" data-name="Calque 1" xmlns="http://www.w3.org/2000/svg" viewBox="0 0 160 80"><defs><style>.cls-1{fill:#97c554;}.cls-2{fill:#709b30;}.cls-3{fill:#01131d;}</style></defs><title>bitfinex</title><g id="bitfinex"><g id="logo-w-bg"><g id="logo"><path id="Path-1-Copy-7" class="cls-1" d="M142.05,46.62c.86.91,5.59,5.28,13,.21,5.36-4.17,5.23-13.23,4.72-16C159.59,31.27,153.36,44.9,142.05,46.62Zm17.71-15.76A22,22,0,0,0,146,34.29a9.78,9.78,0,0,0-4.6,9.38C151.29,42.56,159.54,31.18,159.76,30.86Z"/><path id="Path-1-Copy-6" class="cls-2" d="M159.76,30.86A22,22,0,0,0,146,34.29a9.78,9.78,0,0,0-4.6,9.38C151.29,42.56,159.54,31.18,159.76,30.86Z"/><path id="BITFINEX-Copy-2" class="cls-3" d="M11.06,46.09H3.34V42h7.72C13,42,14,42.9,14,44.1s-1,2-2.92,2Zm-.25-6.32H3.34V36.31h7.47c2,0,2.83.71,2.83,1.7s-.92,1.76-2.83,1.76Zm2,1c3.25-.1,4.43-1.72,4.43-3.48,0-1.93-1.53-3.53-5.27-3.53H0V48.54H12.3c3.06,0,5.35-1.28,5.35-4,0-1.95-1.28-3.6-4.87-3.69Zm8.81-7V48.54h3.34V33.81ZM38.46,36.6h7.35V33.81h-18V36.6h7.34V48.54h3.34Zm10.19-2.79V48.54H52V42.79h7.83V40.38H52v-4H64.71V33.81Zm18.76,0V48.54h3.34V33.81ZM78.57,37.4,89.63,48.54h3.78V33.81H90.12V44.43L79.5,33.81H75.26V48.54h3.31Zm19.35-3.59V48.54h16.33V46.07h-13V42H109V39.73h-7.78V36.35h13V33.81Zm38.67,0h-4.4L126.56,39,121,33.81h-4.47l7.85,7.26-8.15,7.47h4.41l5.9-5.43,5.87,5.43h4.5l-8.17-7.49Z"/></g></g></g></svg>