<svg id="Calque_1" data-name="Calque 1" xmlns="http://www.w3.org/2000/svg" viewBox="0 0 160 80"><defs><style>.cls-1{fill:#84b10a;}.cls-2{fill:#3a3a3a;}</style></defs><title>bitgrail</title><g id="bitgrail"><path class="cls-1" d="M32.11,39.1a5.9,5.9,0,0,0,3.74-5.92c0-4.42-3-6.79-8.35-6.79H6V28H0A14.2,14.2,0,0,0,8.87,41.57a12.65,12.65,0,0,0,4.81,4.26V50.7c-1.31,0-2.42.07-3.11.76a1.84,1.84,0,0,0-.68,1.65H28.13c6.62,0,8.78-3.63,8.78-7.29A6.58,6.58,0,0,0,32.11,39.1ZM1.93,29.63H6a37.59,37.59,0,0,0,2.14,9.61A11.81,11.81,0,0,1,1.93,29.63ZM20.59,32.7h4.87c2,0,3.22.61,3.22,2,0,1.64-1.18,2.48-3.22,2.48H20.59Zm5.82,14.39H20.59V42.18h5.82c2.27,0,3.33,1.26,3.33,2.42C29.74,46.12,28.75,47.09,26.41,47.09Z"/><path class="cls-1" d="M44.18,53.11h-5.7V32h5.7Z"/><path class="cls-1" d="M63.9,36.8H57.77V53.11h-5.7V36.8H45.94V32h18Z"/><path class="cls-2" d="M89.61,30.26l-4.28,5a8.9,8.9,0,0,0-5.9-2.3,7.27,7.27,0,0,0-5,2,6.76,6.76,0,0,0-2.13,5.12A7.17,7.17,0,0,0,79,47.77c3,0,3.78-.44,4.77-1.43V43.16H78.4V37.88H90.49V49.69A17.69,17.69,0,0,1,79,53.61,13.2,13.2,0,0,1,65.12,40.05c0-9,6.91-13.77,14.31-13.66A15.06,15.06,0,0,1,89.61,30.26Z"/><path class="cls-2" d="M92.5,32h9.17c6.64,0,9.32,2.17,9.32,7.34,0,3.5-1.25,5.61-4,6.61l4.57,7.19h-6.41l-4.2-6.47-.58,0H98v6.44H92.5ZM98,37.1v5.2h4c2.39,0,3.33-.76,3.33-2.6s-.94-2.6-3.33-2.6Z"/><path class="cls-2" d="M134.44,53.11h-6.18l-1.34-3.75h-8.51l-1.35,3.75h-5.92l9-21.33h5.49Zm-14.26-8.32h4.95l-2.42-6Z"/><path class="cls-2" d="M141.34,53.11h-5.81V32h5.81Z"/><path class="cls-2" d="M149.55,48H160v5.11H143.78V32h5.77Z"/></g></svg>