<svg id="Calque_1" data-name="Calque 1" xmlns="http://www.w3.org/2000/svg" xmlns:xlink="http://www.w3.org/1999/xlink" viewBox="0 0 160 80"><defs><style>.cls-1{fill:#f47221;}.cls-2{fill:url(#Dégradé_sans_nom_14);}.cls-3{fill:#d93727;}.cls-4{fill:#464648;}.cls-5{fill:#474749;}</style><linearGradient id="Dégradé_sans_nom_14" x1="-7865.7" y1="3339.96" x2="-7801.44" y2="3258.76" gradientTransform="matrix(0.07, 0, 0, -0.07, 585.57, 274.83)" gradientUnits="userSpaceOnUse"><stop offset="0" stop-color="#d93727"/><stop offset="1" stop-color="#f47221"/></linearGradient></defs><title>bithumb</title><g id="bithumb"><path class="cls-1" d="M5.79,29.58c.84-3.14,1.72-6.26,2.55-9.39,2.11,0,4.22,0,6.32,0A3.26,3.26,0,0,1,18,24.37c-.46,1.74-.92,3.48-1.43,5.21-.88,3-1.65,6-2.49,9-.17.57-.31,1.15-.43,1.73-.43,1.62-.9,3.21-1.3,4.82a6.34,6.34,0,0,0-.17,2.45A1.8,1.8,0,0,0,14,49a3.41,3.41,0,0,0,3-1.53A9.22,9.22,0,0,0,18.63,43a2.89,2.89,0,0,0-.57-2.11c1.08-1.26,2.45-2.22,3.58-3.44.74-.81,1.63-1.45,2.42-2.21,1.24-1,2.33-2.23,3.52-3.33A10.6,10.6,0,0,1,30,39.7a25.57,25.57,0,0,1-2.5,9.58,18.37,18.37,0,0,1-8.66,8.78A17.71,17.71,0,0,1,7.55,59.43a9.22,9.22,0,0,1-5.67-3.49,9.76,9.76,0,0,1-1.24-7,46.24,46.24,0,0,1,1.28-5.19c.3-1.13.61-2.26.92-3.38Q4.33,35,5.79,29.58Z"/><path class="cls-2" d="M18.36,44.53A11.69,11.69,0,0,0,18.63,43a2.89,2.89,0,0,0-.57-2.11,2.24,2.24,0,0,0-1.57-.53H13.64c.12-.58.26-1.16.43-1.73.84-3,1.61-6,2.49-9,1.69,0,3.36,0,5,0a8.17,8.17,0,0,1,6,2.32A10.6,10.6,0,0,1,30,39.7a24.55,24.55,0,0,1-.76,4.83Z"/><path class="cls-3" d="M.14,36.2C.78,34,1.39,31.76,2.05,29.56c1.25,0,2.49,0,3.74,0Q4.34,35,2.84,40.36A3.28,3.28,0,0,1,.63,39.2,3.43,3.43,0,0,1,.14,36.2Z"/><path class="cls-4" d="M133.48,55.88c.89-3.4,1.74-6.6,2.58-9.8a5.72,5.72,0,0,0,.16-1.68A2.11,2.11,0,0,0,135,42.78a2.59,2.59,0,0,0-3,.61,10.5,10.5,0,0,0-1.86,3.47c-.88,2.61-1.53,5.29-2.19,8a1.17,1.17,0,0,1-1.41,1.07c-1.38-.06-2.75,0-4.24,0,.75-2.78,1.48-5.43,2.19-8.08a16.6,16.6,0,0,0,.53-2.4c.11-1,.1-2.15-1-2.59a2.81,2.81,0,0,0-3.09.57,8.1,8.1,0,0,0-2,3.64c-.87,2.61-1.5,5.3-2.19,8-.17.65-.44.93-1.14.91-1.41,0-2.83,0-4.39,0,1.66-6.1,3.28-12.07,4.92-18.12,1.74.13,3.65-.64,4.68,1.49,3.93-2.36,7.11-1.66,8.8.47,2.59-1.37,5.28-2.38,8.26-1.75a4.28,4.28,0,0,1,3.72,4.19,14.43,14.43,0,0,1-.3,4.35c-.63,2.82-1.51,5.58-2.21,8.38a1.11,1.11,0,0,1-1.33,1C136.38,55.84,135,55.88,133.48,55.88ZM38.76,49.16c-.69,2.75.43,5.21,2.62,6.1a9.86,9.86,0,0,0,7.67-.1c5.64-2.27,7.69-8.89,7.1-13a4.62,4.62,0,0,0-3.74-4.22c-2-.49-3.73.3-5.64,1,.37-1.37.74-2.65,1.06-3.93.46-1.78-.38-2.92-2.16-3-.73,0-1.46,0-2.37,0C41.77,37.78,40.2,43.46,38.76,49.16Zm7.76-5.72c.92-.79,2.54-1.16,3.32-.59a2.6,2.6,0,0,1,.84,2.8c-.35,1.89-.83,3.81-2.54,4.89a3.9,3.9,0,0,1-2.87.34,1.62,1.62,0,0,1-1.12-1.71C44.51,47,44.88,44.85,46.52,43.44ZM78.59,55.9c.75,0,1-.22,1.24-.94.72-2.79,1.4-5.6,2.31-8.33A7.65,7.65,0,0,1,84,43.13a2.56,2.56,0,0,1,3.14-.27A2.64,2.64,0,0,1,88.05,45a11.13,11.13,0,0,1-.55,3c-.67,2.57-1.38,5.12-2.12,7.82,1.66,0,3.16,0,4.66,0a1.36,1.36,0,0,0,.87-.81c.45-1.35.82-2.72,1.16-4.1.55-2.21,1.2-4.41,1.53-6.66.6-4-2.16-7-5.79-6.46a31.32,31.32,0,0,0-3.57,1c.17-.67.3-1.39.54-2.07,1.5-4.29,0-5-3.76-4.68-.08,0-.15.08-.29.15C78.61,40,76.48,47.84,74.29,55.88,75.84,55.88,77.22,55.84,78.59,55.9Zm16-6.88a10.33,10.33,0,0,0-.21,3.19,3.9,3.9,0,0,0,2.17,3.17c4.06,2.15,10.7.49,12.83-3,2.59-4.27,3.26-9.55,4.55-14h-5.36c-.69,2.55-1.3,5.06-2.07,7.52a20.86,20.86,0,0,1-1.89,4.57,3,3,0,0,1-3.85.75c-1.34-.79-.88-2-.64-3.11,0-.08.06-.16.08-.24.85-3.16,1.69-6.31,2.55-9.53H97.37C96.42,41.87,95.43,45.43,94.55,49ZM74.19,35.12A2.05,2.05,0,0,0,72,32.29c-.39,0-.54,0-1.16,0-.92,0-1.34.19-1.6,1.15-1.47,5.62-3,11.22-4.54,16.83A22.7,22.7,0,0,0,64,53.53a1.66,1.66,0,0,0,1.59,2.08c1.85.14,3.7.17,5.54.2a.76.76,0,0,0,.55-.42c.37-1.22.68-2.46,1-3.79l-3-.16,2.37-8.74c2.84-.27,4.06-1.49,4.27-4.23H73.31C73.63,37.27,73.93,36.2,74.19,35.12Zm-10,7.59c1-3.62.55-4.21-3.13-4.25a1.27,1.27,0,0,0-1.49,1.13c-.73,2.88-1.54,5.74-2.31,8.6l-2,7.34h5.4C61.93,51.18,63.06,46.94,64.23,42.71Zm78.28,6.5c-.69,2.75.43,5.2,2.62,6.09a9.91,9.91,0,0,0,7.67-.09c5.63-2.28,7.69-8.9,7.1-13A4.62,4.62,0,0,0,156.16,38c-2-.49-3.73.31-5.64,1,.37-1.37.74-2.64,1.06-3.93.46-1.78-.38-2.92-2.16-3-.73,0-1.46,0-2.37,0C145.52,37.83,144,43.5,142.51,49.21Zm7.76-5.72c.92-.8,2.54-1.17,3.32-.59a2.58,2.58,0,0,1,.84,2.79c-.35,1.9-.83,3.81-2.54,4.89a3.85,3.85,0,0,1-2.87.34,1.62,1.62,0,0,1-1.12-1.7C148.26,47,148.63,44.89,150.27,43.49Z"/><path class="cls-5" d="M62.74,37.29a1.94,1.94,0,0,1-2-2.12,3.84,3.84,0,0,1,3.52-3.32,2,2,0,0,1,2.09,2.08A3.68,3.68,0,0,1,62.74,37.29Z"/></g></svg>