<svg id="Calque_1" data-name="Calque 1" xmlns="http://www.w3.org/2000/svg" viewBox="0 0 160 80"><defs><style>.cls-1{fill:#f7941e;}.cls-2{fill:#2a3d75;}</style></defs><title>bitlish</title><g id="bitlish"><path class="cls-1" d="M33.35,34.53V56.18H27.42V34.53ZM25.93,45.24V56.18H20V45.24Z"/><path class="cls-2" d="M57.82,34.54h5.93V56.19H57.82Zm17.77-5.41H69.65v5.41h-3V40h3V50.41c0,3.77,2.19,6.09,6,6.09h.41a10.44,10.44,0,0,0,4.63-1.17V50.71s-2.82.7-3.27.7h-.19c-1.07,0-1.68-.64-1.68-2.18V40h5.14V34.54H75.59Zm-20.73,14V46.7c0,6.23-3.59,9.49-8.86,9.49H36.32V23.59h5.91l0,12.43a6.68,6.68,0,0,1,4.94-1.91h.39C52.38,34.11,54.86,38,54.86,43.08Zm-6.72.22c0-2.84-.47-4.34-2.4-4.34h-.18a5.35,5.35,0,0,0-3.31,1.35V51.38H45.7c1.9,0,2.44-1.41,2.44-4.24V43.3ZM94,56.07h5.94V34.42H94Zm39.69-21.92h-.46c-1.83,0-3.6.8-5.61,2.62V23.5h-5.93V56.09h5.93V40.58a6.45,6.45,0,0,1,3.5-1.35h.17c1.91,0,2.77,1,2.77,3.23V56.09H140v-15C140,36.64,137.42,34.15,133.69,34.15Zm-21,8.39-1.35-.48c-1.09-.41-2.07-.65-2.07-1.84V40.1c0-1.11,1.06-1.7,2.49-1.7h.1a12.77,12.77,0,0,1,5.05,1.46V35.14a15.7,15.7,0,0,0-5.6-1h-.4c-3.69,0-7.54,1.94-7.54,6.5v.23c0,4.36,3,5.76,5.75,6.73l1.35.48c1.15.4,2,.7,2,1.88v.13c0,1.16-1,1.83-2.7,1.83h-.23c-1.64,0-5.38-1.77-5.38-1.77V55l.87.47a12.81,12.81,0,0,0,5,.91h.27c4.37,0,8.07-2.35,8.07-6.69v-.28C118.4,45.23,116.11,43.78,112.65,42.54ZM84.14,56.07h5.94V23.5H84.14ZM94,31.83h5.94V26.42H94Zm-36.18,0h5.93V26.42H57.82Z"/></g></svg>