<svg id="Calque_1" data-name="Calque 1" xmlns="http://www.w3.org/2000/svg" viewBox="0 0 160 80"><defs><style>.cls-1{fill:#ea6668;}.cls-2{fill:#5b69b1;}</style></defs><title>bitmex</title><g id="bitmex"><polygon class="cls-1" points="13.89 27.61 0 52.54 5.7 52.54 14.43 37.23 23.51 37.23 28.68 27.61 13.89 27.61"/><polygon class="cls-2" points="26 52.54 39.89 27.61 34.19 27.61 25.47 42.92 16.38 42.92 11.23 52.54 26 52.54"/><path d="M43.2,52.68v-25c.18,0,.36,0,.55,0,3.75,0,7.51-.05,11.26,0a7.81,7.81,0,0,1,5.37,2.07,5.19,5.19,0,0,1,1.68,3.77,6.22,6.22,0,0,1-1,4,7.29,7.29,0,0,1-2.32,2l-.35.2a8.85,8.85,0,0,1,3.71,2.21,5.17,5.17,0,0,1,1.36,3.27A6.47,6.47,0,0,1,62.67,49a6.63,6.63,0,0,1-4,3.05,17,17,0,0,1-4.06.63C50.8,52.74,47,52.68,43.2,52.68ZM46.11,50c2.77,0,5.49,0,8.21,0a12.51,12.51,0,0,0,3.26-.55A4,4,0,0,0,60.42,45a3.66,3.66,0,0,0-2.33-2.91,10.43,10.43,0,0,0-4.46-.77H46.11Zm0-11.45h7.52c.56,0,1.12-.06,1.68-.11a4,4,0,0,0,2.9-1.62,4.38,4.38,0,0,0,.83-2,3.4,3.4,0,0,0-1.15-3.31,5.34,5.34,0,0,0-3.57-1.26H46.11Z"/><path d="M67,52.66V34.1h2.74V52.66Z"/><path d="M70,27v3.13H66.74V27Z"/><path d="M79.22,52.87a7.72,7.72,0,0,1-2-.82,3.67,3.67,0,0,1-1.83-3.23c-.11-3.82-.11-7.65-.15-11.48v-.73h-2.5V34.08h2.49V28.53h2.91v5.53h5.81v2.53H78.16c0,.14,0,.24,0,.34,0,3.56,0,7.13,0,10.69a2.5,2.5,0,0,0,2.39,2.68A5.85,5.85,0,0,0,84,49.74c0,.77,0,1.5,0,2.22,0,.26,0,.22-.33.37a9.14,9.14,0,0,1-1.66.54A6.12,6.12,0,0,1,79.22,52.87Z"/><path d="M91.56,35.22V52.64h-4.4v-25H92L99.4,39.27S105,30.68,107,27.62h0c1.47,0,3.2,0,4.71,0v25h-4.37V34.87l-3.18,4.7c-1.48,2.2-3.29,4.9-4.76,7.11h0c-2.42-3.63-5.22-7.77-7.66-11.39C91.68,35.27,91.66,35.27,91.56,35.22Z"/><path d="M116.26,52.65v-25h18.57v4h-14V38h12.47V42H120.84v6.59h14.24v4Z"/><polygon points="160 52.67 151.02 39.94 159.72 27.62 154.43 27.62 148.29 36.33 142.15 27.62 136.86 27.62 145.52 39.9 136.51 52.67 141.64 52.67 148.22 43.33 154.81 52.67 160 52.67"/></g></svg>