<svg id="Calque_1" data-name="Calque 1" xmlns="http://www.w3.org/2000/svg" viewBox="0 0 160 80"><defs><style>.cls-1{fill:#45c739;}</style></defs><title>bitmarket</title><g id="bitmarket"><path class="cls-1" d="M25.12,19.56a2.49,2.49,0,0,1,3.26,0A2.57,2.57,0,0,1,29,22.27a3.67,3.67,0,0,1-1.11,1.39c0,1.65,0,3.3,0,4.95a7.39,7.39,0,0,1,4.43,2.09,5.88,5.88,0,0,1,1.24,4.65,5.24,5.24,0,0,1-2.83,3.78,6,6,0,0,1,3.35,3.2,7,7,0,0,1,.13,5.42A5.64,5.64,0,0,1,31,50.92a11.22,11.22,0,0,1-3.07.7c0,1.61,0,3.2,0,4.8A2.72,2.72,0,0,1,29,57.79a2.43,2.43,0,0,1-3,3.18,2.36,2.36,0,0,1-1.72-2.36,2.46,2.46,0,0,1,1.22-2.18c0-1.59,0-3.18,0-4.75-.77,0-1.56,0-2.33,0a11.65,11.65,0,0,1-.08,3,1.24,1.24,0,0,1-1.29.75c-2.93,0-5.87-.05-8.81,0a9.25,9.25,0,0,1-2.78-.14c-.54-.2-.65-.86-.68-1.37,0-1.24,0-2.49,0-3.75a1.34,1.34,0,0,0,0-.49c-2-.14-3.93,0-5.9,0a18.37,18.37,0,0,1-2.57,0,1.07,1.07,0,0,1-.95-.74A7,7,0,0,1,0,47.43C0,43.71,0,40,0,36.27a1.5,1.5,0,0,1,.37-1,1.27,1.27,0,0,1,.9-.33c.91-.09,1.83.05,2.75,0,0-.71,0-1.41,0-2.12a2.87,2.87,0,0,1-1.15-1.38,2.53,2.53,0,0,1,.64-2.68,2.44,2.44,0,0,1,3.64,3.21c-.21.31-.52.53-.76.82a29.36,29.36,0,0,1-.1,3.75.94.94,0,0,1-.75.74,18.61,18.61,0,0,1-3.17.09c0,3.29,0,6.59,0,9.88,2.78.12,5.57,0,8.35,0a1.08,1.08,0,0,1,1,.46A3.53,3.53,0,0,1,12,49.08c0,1.28,0,2.57,0,3.85h8.93c0-.44,0-.88,0-1.32-1.16,0-2.32-.07-3.49-.06a3.6,3.6,0,0,1-3-1.1c-.75-1-.66-2.25-.7-3.4h4.16c0-4.65,0-9.31,0-14H13.69A7.76,7.76,0,0,1,14,30.3a2.64,2.64,0,0,1,1.73-1.5,12.5,12.5,0,0,1,2.93-.21c.73,0,1.46,0,2.19,0,0-.5,0-1,0-1.51a8.77,8.77,0,0,1-.9,0H12.1v8.17a12.64,12.64,0,0,1,2.68.12c.63.25.7,1,.7,1.61-.05,1.8,0,3.6,0,5.41a2,2,0,0,1-.35,1.22,1.54,1.54,0,0,1-1.11.3H8.7A2.93,2.93,0,0,1,7.55,45a2.51,2.51,0,0,1-2.87-.72A2.58,2.58,0,0,1,4.21,42,2.43,2.43,0,0,1,6.1,40.3,2.38,2.38,0,0,1,8,40.68c.3.2.46.57.76.77a3.06,3.06,0,0,0,1.17.06h3.19a35,35,0,0,0,0-3.83,9.56,9.56,0,0,1-2.39,0,1.11,1.11,0,0,1-.9-.8A14.29,14.29,0,0,1,9.75,35c-.08-2.56,0-5.1,0-7.64a5.18,5.18,0,0,1,.15-2.08,1.16,1.16,0,0,1,1.15-.6h7.64a23.11,23.11,0,0,1,3.53,0,1,1,0,0,1,.91.67,10.46,10.46,0,0,1,.1,3.11c.78,0,1.56,0,2.34,0,0-1.62,0-3.24,0-4.85a4.33,4.33,0,0,1-.85-.86A2.57,2.57,0,0,1,25.12,19.56Zm1.35.77a1.29,1.29,0,0,0-.76.63,1.2,1.2,0,0,0,.38,1.37,1.12,1.12,0,0,0,1.75-.6C28.08,21,27.29,20,26.47,20.33ZM4.74,29.51a1.18,1.18,0,0,0-.08,2.12A1.17,1.17,0,0,0,6.3,30.41,1.12,1.12,0,0,0,4.74,29.51Zm18.48,2.77c0,1.78,0,3.54,0,5.32.92,0,1.84,0,2.76,0A2.31,2.31,0,0,0,28,36.46,3.05,3.05,0,0,0,27.73,33a2.72,2.72,0,0,0-1.86-.68C25,32.3,24.1,32.34,23.22,32.28Zm0,9.17q0,3.24,0,6.46a23.45,23.45,0,0,0,3.84-.14A2.67,2.67,0,0,0,29.13,46a3.7,3.7,0,0,0-.6-3.57,3.07,3.07,0,0,0-2.31-1C25.22,41.44,24.22,41.45,23.21,41.45Zm-17,.14a1.17,1.17,0,1,0,1.45,1.26A1.15,1.15,0,0,0,6.26,41.59Zm20,15.92a1.19,1.19,0,0,0-.05,2.15,1.19,1.19,0,1,0,.05-2.15Z"/><path class="cls-1" d="M42.62,51.2a14.45,14.45,0,0,1-2.2.16,15.17,15.17,0,0,1-2.23-.16V39.44c0-1.15-.37-1.86-1.52-1.86h-.44a5.92,5.92,0,0,1-.2-1.52,6.66,6.66,0,0,1,.2-1.59c1-.1,1.93-.17,2.57-.17h.57c2,0,3.25,1.35,3.25,3.55ZM37.51,27.92a5.31,5.31,0,0,1,2.2-.44,5.08,5.08,0,0,1,2.2.44,4.72,4.72,0,0,1,.33,1.75,4.62,4.62,0,0,1-.33,1.76,5.38,5.38,0,0,1-4.4,0,4.83,4.83,0,0,1,0-3.51Z"/><path class="cls-1" d="M56.3,36a6.26,6.26,0,0,1-.21,1.62L52,37.51V46.4c0,1,.4,1.55,1.45,1.55h2.09a7,7,0,0,1,.34,2.13,3,3,0,0,1-.1,1,30.33,30.33,0,0,1-4,.3c-2.71,0-4.06-1.31-4.06-4.12V37.55l-2.57,0A6.7,6.7,0,0,1,45,36a6.56,6.56,0,0,1,.16-1.56l2.57,0V32c0-2,.61-2.71,2.4-2.71h1.69l.24.21v5l4.08-.07A6.21,6.21,0,0,1,56.3,36Z"/><path d="M60.92,28.15a20.13,20.13,0,0,1,3-.23,17.49,17.49,0,0,1,2.88.23l2.6,9.36c.23,1,1.08,4.43,1.28,5.78H71c.2-1.35,1.05-4.83,1.28-5.78l2.57-9.36a18.25,18.25,0,0,1,2.87-.23,20.63,20.63,0,0,1,3.08.23l1.79,23a10,10,0,0,1-2.3.23,12.72,12.72,0,0,1-2-.13l-.65-10.85c-.13-2.09-.27-5.2-.27-7.33h-.23l-4,14.7a15.78,15.78,0,0,1-4.62,0l-4-14.7h-.23c0,2.13-.14,5.24-.27,7.33l-.65,10.85a13.11,13.11,0,0,1-2,.13,9.94,9.94,0,0,1-2.27-.23Z"/><path d="M99.2,51.47A4,4,0,0,1,96,49.54a7,7,0,0,1-5,2.13,4.9,4.9,0,0,1-5.07-5.07c0-4,3-5.71,6.59-5.71.78,0,1.82,0,2.84.1v-.91c0-1.76-.85-2.57-2.5-2.57a17.23,17.23,0,0,0-5.14,1.18,5.83,5.83,0,0,1-1.15-3.14A21.58,21.58,0,0,1,94,34c3.11,0,5.78,1.66,5.78,5.71v6.93a2.92,2.92,0,0,0,.94,2.5A4.67,4.67,0,0,1,99.2,51.47Zm-3.85-4.63V43.9c-.85-.07-1.76-.1-2.44-.1a2.34,2.34,0,0,0-2.63,2.53,1.83,1.83,0,0,0,1.89,2A4.69,4.69,0,0,0,95.35,46.84Z"/><path d="M104.7,34.17a4.4,4.4,0,0,1,3.75,3,4.47,4.47,0,0,1,4.29-3,7.2,7.2,0,0,1,2,.24,9,9,0,0,1-1.08,4.12,6.48,6.48,0,0,0-1.55-.24,3.58,3.58,0,0,0-3.18,2.1V51.2a14.87,14.87,0,0,1-2.23.16,15.27,15.27,0,0,1-2.2-.16V39.94a4.58,4.58,0,0,0-1.25-3.48A4.52,4.52,0,0,1,104.7,34.17Z"/><path d="M130.17,47.31a5.26,5.26,0,0,0,1.63,2.77,4.11,4.11,0,0,1-3,1.35c-1.38,0-1.92-.64-2.46-2.16l-1.15-3.11c-.61-1.59-1.19-2-2.43-2-.48,0-.88,0-1.29.07V51.2a13.9,13.9,0,0,1-2.16.16,13.5,13.5,0,0,1-2.13-.16V26.57l.2-.24h1.73c1.75,0,2.36.78,2.36,2.74V40.59l.85,0a.88.88,0,0,0,.87-.54l2.34-4a2.71,2.71,0,0,1,2.63-1.69c.91,0,1.62,0,2.43.07l.21.27-3.15,5.41a4.5,4.5,0,0,1-1.41,1.65,4.62,4.62,0,0,1,2.94,3Z"/><path d="M137.33,44.24c.14,2.29.88,4,3.45,4a11,11,0,0,0,4.56-1.15,5.16,5.16,0,0,1,1.25,2.67,11.45,11.45,0,0,1-6.49,1.93c-5.67,0-7.26-4.26-7.26-8.79,0-5.06,2.26-8.91,7.3-8.91,4.42,0,6.89,3.1,6.89,7.16a10.92,10.92,0,0,1-.37,3.11Zm0-3.11h5.61v-.41c0-2-.78-3.58-2.77-3.58C138.31,37.14,137.43,38.56,137.3,41.13Z"/><path d="M160,36a6.72,6.72,0,0,1-.2,1.62l-4.09-.07V46.4c0,1,.4,1.55,1.45,1.55h2.1a7.31,7.31,0,0,1,.33,2.13,3,3,0,0,1-.1,1,30.2,30.2,0,0,1-4.05.3c-2.7,0-4.06-1.31-4.06-4.12V37.55l-2.56,0a6.24,6.24,0,0,1-.17-1.62,6.11,6.11,0,0,1,.17-1.56l2.56,0V32c0-2,.61-2.71,2.4-2.71h1.69l.24.21v5l4.09-.07A6.68,6.68,0,0,1,160,36Z"/></g></svg>