<svg id="Calque_1" data-name="Calque 1" xmlns="http://www.w3.org/2000/svg" viewBox="0 0 160 80"><defs><style>.cls-1{fill:#39b54a;}.cls-2{fill:#015cab;}</style></defs><title>bitonic</title><g id="bitonic"><path class="cls-1" d="M25.24,28.76,18.6,39.83,25.24,50.9l6.63-11.07L25.24,28.76"/><path class="cls-2" d="M64.16,40.22v5.46a5.4,5.4,0,0,0,4,2c2,0,3.07-1.7,3.07-4.8s-1-4.77-3.07-4.77a5.35,5.35,0,0,0-4,2.07ZM59.79,28.77h4.37v8a7.81,7.81,0,0,1,5.34-2.13c3.61,0,6.19,2.71,6.19,8.32s-2.57,8.29-6.19,8.29a8,8,0,0,1-5.34-2.07V50.9H59.79V28.76M78.92,50.9V35h4.37V50.9ZM78.8,28.76h4.61v3.8H78.8v-3.8M86.44,35h2.19V31l4.34-.6V35h4.35v3.22H93v7.75c0,1.33.7,1.51,1.37,1.51a8.46,8.46,0,0,0,2.49-.72L98.38,50a13.08,13.08,0,0,1-5.14,1.28c-3,0-4.61-1.64-4.61-5.38V38.18H86.44V35m21.44,3c-2.67,0-3.82,1.86-3.82,4.92s1.15,5,3.82,5S111.71,46,111.71,43,110.52,38,107.88,38Zm0,13.25c-5.34,0-8.26-3.07-8.26-8.32s2.92-8.29,8.26-8.29,8.23,3.09,8.23,8.32-2.92,8.29-8.23,8.29m15.67-14.37a11.22,11.22,0,0,1,6.19-2.24c3.43,0,4.77,2,4.77,5V50.9h-4.37V40.64c0-1.49-.43-2.61-2.09-2.61a7.55,7.55,0,0,0-4.5,2.06V50.9h-4.37V35h4.37v1.91m14.74,14V35h4.37V50.9Zm-.13-22.14h4.62v3.8h-4.62v-3.8m20.08,11a11.91,11.91,0,0,0-4.44-1.43c-2.12,0-3.46,1.79-3.46,4.56s1.34,4.58,3.46,4.58a11.91,11.91,0,0,0,4.44-1.43L160,49.29a16.48,16.48,0,0,1-6.87,2c-3.76,0-7.25-2.62-7.25-8.32s3.49-8.29,7.25-8.29A16.85,16.85,0,0,1,160,36.57l-1.75,3.22m-114.41-11H30.55l2.65,4.43h8l4,6.64-4,6.64h-8L30.55,50.9H43.83l6.64-11.07L43.83,28.76M17.27,46.48h-8l-4-6.64,4-6.64h8l2.65-4.43H6.64L0,39.83,6.64,50.9H19.92l-2.65-4.43"/></g></svg>