<svg id="Calque_1" data-name="Calque 1" xmlns="http://www.w3.org/2000/svg" viewBox="0 0 160 80"><defs><style>.cls-1{fill:#060013;}.cls-2{fill:#c3c4c6;}</style></defs><title>bitsquare</title><g id="bitsquare"><path class="cls-1" d="M85.66,33.33c0-.19,0-.39,0-.58s.08-.35.33-.35h3.58c.36,0,.39.19.39.47,0,1.94,0,3.89,0,5.83,0,.39,0,.78,0,1.16s.12.29.32.2l.52-.26a6.65,6.65,0,0,1,7.57,1.42,7.07,7.07,0,0,1,1.72,3.36,10.39,10.39,0,0,1-.28,5.82,7.31,7.31,0,0,1-6.14,5,16.46,16.46,0,0,1-6.87-.73c-1.15-.31-1.14-.34-1.14-1.55ZM90,47.66v3.58c0,.58,0,.61.56.7a12.83,12.83,0,0,0,1.64.16,3.34,3.34,0,0,0,3.21-2,6.56,6.56,0,0,0,.31-5.31,3,3,0,0,0-3.53-2.08,9.79,9.79,0,0,0-1.64.53.8.8,0,0,0-.56.89C90,45.34,90,46.5,90,47.66Z"/><path class="cls-1" d="M140,61c0,.19,0,.39,0,.58s-.1.29-.3.29H136c-.32,0-.34-.18-.34-.43,0-1.38,0-5.71,0-6.48,0-.44,0-.44-.39-.27a9.06,9.06,0,0,1-2.28.73,6.27,6.27,0,0,1-6.87-3.64,9.64,9.64,0,0,1,.19-8.57,7.09,7.09,0,0,1,5.24-3.82,15,15,0,0,1,6.25.39c.53.12,1.06.29,1.59.45s.57.18.57.81Zm-4.3-13.87c0-1.25,0-2.5,0-3.75,0-.33-.08-.52-.44-.55-.6,0-1.2-.16-1.81-.17a3.37,3.37,0,0,0-3.27,2.13,6.77,6.77,0,0,0-.32,4.79A3.17,3.17,0,0,0,133.52,52a15.23,15.23,0,0,0,1.72-.6.68.68,0,0,0,.47-.76C135.69,49.5,135.7,48.33,135.7,47.17Z"/><path class="cls-1" d="M116.86,39.26a9.92,9.92,0,0,1,4.86,1c.56.28.56.31.28.87s-.64,1.17-.92,1.77c-.15.31-.3.27-.58.16a21.62,21.62,0,0,0-2.36-.76,3,3,0,0,0-1.8.09,1.32,1.32,0,0,0-1,1.12,1.15,1.15,0,0,0,.74,1.19c.89.43,1.84.76,2.73,1.19A13.48,13.48,0,0,1,121,47.14a3.74,3.74,0,0,1,1.5,2.84c.25,2.87-1.37,4.85-4.25,5.39A10.5,10.5,0,0,1,111,54.12c-.56-.31-.56-.33-.27-.87l1-1.9c.12-.24.25-.28.52-.15.59.29,1.21.53,1.83.78a4.88,4.88,0,0,0,2.45.26,2.75,2.75,0,0,0,1.22-.43,1.14,1.14,0,0,0,0-2,10.76,10.76,0,0,0-1.56-.77c-.94-.44-1.92-.84-2.85-1.32a3.83,3.83,0,0,1-1.64-1.6,4.51,4.51,0,0,1,1.79-6A7,7,0,0,1,116.86,39.26Z"/><path class="cls-1" d="M103.48,40.29c0-.63,0-.63.62-.64h3.08c.58,0,.59,0,.59.62,0,1.69,0,11.06,0,14,0,.83.13.79-.81.79h-3c-.48,0-.49,0-.49-.51C103.47,52.18,103.47,42.65,103.48,40.29Z"/><path class="cls-1" d="M108,35.33a2.39,2.39,0,0,1-2.44,2.46,2.36,2.36,0,0,1-2.41-2.39,2.43,2.43,0,1,1,4.85-.07Z"/><path class="cls-2" d="M39.63,36.51c-2.45.2-4.32,5-4.32,7.09,0,3.42-.47,5,3.11,8.28,3.1-.43,11.31,2.46,13.27,7.49.21,1,3.61.78,5.27,2.73,4.22.13,7.3-4.59,18.61,5.55,1.93,0,2-.44,1.9-2.61,0-.69-6.4-9.72-7.42-10-.85-2.55-12.37-.17-14.47-3.52-.1-.16-4.34-3.08-4.84-4.45-.34-.94-4.74-7-6.06-7.66C44.14,39.1,39.64,36.51,39.63,36.51Z"/><path class="cls-1" d="M24.86,12.49a10.22,10.22,0,0,1,4.91-1.34,13.32,13.32,0,0,1,3,.18,17.19,17.19,0,0,1,8.58,4.78,2,2,0,0,1-.12,3A2,2,0,0,1,38.44,19a12.92,12.92,0,0,0-7.1-3.76,6.58,6.58,0,0,0-5.87,1.92,5.73,5.73,0,0,0-.11,7.32,6.11,6.11,0,0,0,4.29,2.1,15.89,15.89,0,0,0,8.17-2.08,13.76,13.76,0,0,1,8.43-1,16.36,16.36,0,0,1,8.27,4.82c2.53,2.57,4.8,5.36,7.38,7.85.31.29.63.6.92.91a3.88,3.88,0,0,1-4,.37c-1.36-.81-2.17-2.23-3.17-3.42a1.36,1.36,0,0,0-1.11-.51,1.3,1.3,0,0,0-.94,1,52.84,52.84,0,0,0-1.74,6.26,7.56,7.56,0,0,0,.39,5.07c.88,1.79,2.57,3,4.15,4.08A6.58,6.58,0,0,0,60,51.32a5.7,5.7,0,0,0,3.72-1.25c1.13-.85,2.25-1.7,3.39-2.52a3.36,3.36,0,0,1,3.3-.44,4.51,4.51,0,0,1,2.2,2.43c1.89,3.93,3.58,7.94,5.47,11.87a10.84,10.84,0,0,0,2.6,3.24c.63.61,1.45,1.26,1.38,2.24a1.89,1.89,0,0,1-1.93,2,16.17,16.17,0,0,1-2.61-.07,9.63,9.63,0,0,1-4.06-3.45c-2-2.49-3.69-5.16-5.57-7.73a5.17,5.17,0,0,0-2.26-1.65,7.3,7.3,0,0,0-1.45-.35,20.11,20.11,0,0,0-3.2-.11,15.94,15.94,0,0,0-2,.06,1.42,1.42,0,0,0-.72.73,3.93,3.93,0,0,0,.14,1.4c.26,1.57.23,4-1.66,4.5a4,4,0,0,1-3.56-.65c-1.56-1.24-2-3.66-2.45-5.51a33.66,33.66,0,0,0-1.91-4.77c-1.61-3.1-3.8-6.08-6.89-7.81A6.57,6.57,0,0,0,41,43a5.8,5.8,0,0,0-2.81-.53c-.49.19-.44.81-.21,1.19.65,1.16,1.4,2.27,2.06,3.42a5.31,5.31,0,0,1,.89,2.65c-.13,1.77-1.52,2.19-3,2.2a5.13,5.13,0,0,1-3.28-1,7.41,7.41,0,0,1-1.53-2.11c-1.09-2-2.17-3.92-3.07-6a6.8,6.8,0,0,1,0-5.24c.85-2.31,1.58-4.69,2.54-7a14.53,14.53,0,0,1-5.5-.33,9.66,9.66,0,0,1-5.9-4.73,10,10,0,0,1-.82-7.24A9.47,9.47,0,0,1,24.86,12.49ZM65.43,34.38c.33-.38.68-.85,1.22-.88a1.29,1.29,0,0,1,1.23.76,18.63,18.63,0,0,1,.9,2.42,24.23,24.23,0,0,1,1,4.75,14.11,14.11,0,0,1-5.19-2.8,16.44,16.44,0,0,1-1.79-1.55A13.92,13.92,0,0,0,65.43,34.38ZM54.16,43a4.73,4.73,0,0,1,2.73-.57A1.44,1.44,0,0,1,58,43.72a3.09,3.09,0,0,1-.19,1.75A4.44,4.44,0,0,1,55.32,45,3.2,3.2,0,0,1,54.16,43Zm8.53.1a1.28,1.28,0,0,1,1.18-.7A5,5,0,0,1,66.3,43a3.34,3.34,0,0,1-1.06,1.94,4.3,4.3,0,0,1-2.56.56A3.06,3.06,0,0,1,62.69,43.06ZM58,47.29a8.73,8.73,0,0,1,4.51,0c-.39.39-.87.66-1.24,1.08s-.57.74-.89,1.11a.2.2,0,0,1-.31,0,9.89,9.89,0,0,0-1.39-1.57C58.47,47.73,58.1,47.61,58,47.29Z"/></g></svg>