<svg id="Calque_1" data-name="Calque 1" xmlns="http://www.w3.org/2000/svg" viewBox="0 0 160 80"><defs><style>.cls-1{fill:#353738;}.cls-2{fill:#a5c88f;}.cls-3{fill:#5c4b51;}</style></defs><title>bitso</title><g id="bitso"><path class="cls-1" d="M61.39,27.68a.39.39,0,0,1,.36-.35h9.66c5.4,0,7.88,2.66,7.88,6.64a5.88,5.88,0,0,1-2.83,5.32v.09C78.14,40,79.73,42,79.73,45c0,4.88-3.27,7.18-8.59,7.18H61.75a.39.39,0,0,1-.36-.36Zm9.39,9.75c2,0,3.28-1.06,3.28-2.92s-1.24-2.84-3.28-2.84H67c-.17,0-.17.09-.17.18v5.31c0,.18.09.18.17.18h3.81ZM67,47.71h4.08c2.22,0,3.37-1.15,3.37-3.1s-1.15-3.1-3.37-3.1H67c-.17,0-.17.08-.17.17v5.76c-.09.18,0,.27.17.27"/><path class="cls-1" d="M82.13,27.59a.38.38,0,0,1,.35-.35h4.61a.38.38,0,0,1,.35.35V51.7a.38.38,0,0,1-.35.35H82.48a.38.38,0,0,1-.35-.35Z"/><path class="cls-1" d="M96.92,52.05a.38.38,0,0,1-.35-.35V32.29c0-.18-.09-.18-.18-.18H90.1a.37.37,0,0,1-.35-.35V27.68a.38.38,0,0,1,.35-.35h18.34a.39.39,0,0,1,.36.35v4.08a.38.38,0,0,1-.36.35h-6.29c-.18,0-.18.09-.18.18V51.7a.38.38,0,0,1-.35.35Z"/><path class="cls-1" d="M109.33,49.13a.52.52,0,0,1-.09-.62L112,45.32a.33.33,0,0,1,.53,0A10.61,10.61,0,0,0,119,47.89c2.57,0,4.07-1.24,4.07-2.93,0-1.42-.88-2.39-3.81-2.74L117.92,42c-5-.71-7.79-3.1-7.79-7.45,0-4.6,3.45-7.62,8.77-7.62a14.22,14.22,0,0,1,8.42,2.57c.17.18.26.27.09.54l-2.22,3.27a.41.41,0,0,1-.53.09,10.11,10.11,0,0,0-5.76-1.86c-2.22,0-3.28,1.15-3.28,2.66s1.06,2.3,3.9,2.75l1.33.17c5.14.71,7.8,3,7.8,7.54s-3.28,7.79-9.75,7.79a14.62,14.62,0,0,1-9.57-3.36"/><path class="cls-1" d="M131.22,46.47c-.54-1.69-.71-3.1-.71-6.74s.17-5,.71-6.73c1.24-4,4.69-6,9-6s7.8,2,9,6c.53,1.68.71,3.1.71,6.73s-.18,5.05-.71,6.74c-1.24,4-4.7,6-9,6s-7.71-2-9-6m12.93-1.42c.27-.89.36-2.13.36-5.32s-.09-4.43-.36-5.31a4.14,4.14,0,0,0-7.8,0,20.66,20.66,0,0,0-.35,5.31,20.81,20.81,0,0,0,.35,5.32,3.82,3.82,0,0,0,3.9,2.75,3.9,3.9,0,0,0,3.9-2.75"/><path class="cls-2" d="M32.33,18.2a19.57,19.57,0,0,0-5.14.62.4.4,0,0,0-.44.27,1.49,1.49,0,0,0-.18.44v13.2s0,.27.09.36.26.09.44-.09a9,9,0,0,1,5.23-1.68,9.11,9.11,0,0,1,9.13,9.12V60.29a.48.48,0,0,0,.08.27c.09.09.18.09.36,0A22.4,22.4,0,0,0,54.75,40.35,22.51,22.51,0,0,0,32.33,18.2"/><path class="cls-3" d="M38,47.8c-.09-.09-.18-.09-.35,0a9.37,9.37,0,0,1-5.32,1.77,9.12,9.12,0,0,1-9.13-9.13V17.76a1.37,1.37,0,0,0-.17-.53,1,1,0,0,0-.45-.09H10.71a.63.63,0,0,0-.71.71V40.53A22.35,22.35,0,0,0,32.33,62.86a21.51,21.51,0,0,0,5.32-.62A1.33,1.33,0,0,0,38,62a.91.91,0,0,0,.18-.53V48.15c-.09,0-.09-.26-.18-.35"/></g></svg>