<svg id="Calque_1" data-name="Calque 1" xmlns="http://www.w3.org/2000/svg" viewBox="0 0 160 80"><defs><style>.cls-1{fill:#282828;}.cls-2{fill:#219e4d;}</style></defs><title>bitstamp</title><g id="bitstamp"><g id="_282828ff" data-name="#282828ff"><path class="cls-1" d="M28.18,22.14a3.21,3.21,0,0,1,3.43.81,3.84,3.84,0,0,1,.49,3,2.78,2.78,0,0,1-2.52,2,3,3,0,0,1-2.88-1.52,4,4,0,0,1-.22-2.33A2.86,2.86,0,0,1,28.18,22.14Z"/><path class="cls-1" d="M0,23.37c4.74,0,9.47,0,14.21,0A8.27,8.27,0,0,1,19.3,25a6.36,6.36,0,0,1,2.31,3.4,19,19,0,0,1,0,3.37,6.26,6.26,0,0,1-3.08,3.76,12.36,12.36,0,0,1,2.06,1.31A6.51,6.51,0,0,1,22.51,40a13.52,13.52,0,0,1,.1,2.62,6.13,6.13,0,0,1-1.85,3.9A8.44,8.44,0,0,1,15,48.74c-5,0-10,0-15,0,0-1.11,0-2.23,0-3.37a3.63,3.63,0,0,0,3.65-3.7,4,4,0,0,0-.83-3.07A4.58,4.58,0,0,0,0,37.23c0-1,0-2.06,0-3.1a3.67,3.67,0,0,0,3.54-4.76A3.77,3.77,0,0,0,0,26.73c0-1.11,0-2.24,0-3.36m7.39,3.78c0,2.32,0,4.63,0,6.93,1.47,0,2.93,0,4.38,0a8.16,8.16,0,0,0,2.46-.19,3.36,3.36,0,0,0,2.59-2.71,3.43,3.43,0,0,0-1.63-3.58,6,6,0,0,0-3.42-.56c-1.45.15-2.93-.18-4.38.09M7.39,45a21.31,21.31,0,0,0,3.83.05c1.45,0,3,.3,4.34-.38a3.75,3.75,0,0,0,1.89-4.73,4,4,0,0,0-3.78-2.45c-2.07,0-4.17,0-6.25,0C7.37,40,7.41,42.48,7.39,45Z"/><path class="cls-1" d="M38.51,24.76h4.87c0,1.81,0,3.6,0,5.41,1.45,0,2.91,0,4.36,0a2.41,2.41,0,0,1,.84.16c0,1.19,0,2.38,0,3.57h-5c-.05,3,0,6,0,9.09a2.3,2.3,0,0,0,2.36,2.35,15.45,15.45,0,0,0,2.52-.29A34.43,34.43,0,0,1,49,48.7a13.09,13.09,0,0,1-4.27.59,6.32,6.32,0,0,1-4.48-1.6,5.83,5.83,0,0,1-1.78-4.49c0-3.09,0-6.16,0-9.25-1.14,0-2.26,0-3.39,0,0-1.25,0-2.49,0-3.73h3.38C38.51,28.38,38.5,26.57,38.51,24.76Z"/><path class="cls-1" d="M71.41,24.85h4.78c0,1.81,0,3.62,0,5.43,1.69,0,3.37,0,5.06,0,0,1.21,0,2.43,0,3.64-1.69,0-3.37,0-5.06,0,0,2.84,0,5.67,0,8.51A2.86,2.86,0,0,0,77.4,45c1.17.72,2.55.2,3.81.07a21.36,21.36,0,0,1,.6,3.72,18,18,0,0,1-4.06.5,6.43,6.43,0,0,1-5-1.9A5.27,5.27,0,0,1,71.41,44c0-3.34,0-6.67,0-10-1.16,0-2.33,0-3.49,0,0-1.19,0-2.39,0-3.57a19.8,19.8,0,0,1,3.53-.18C71.41,28.39,71.41,26.61,71.41,24.85Z"/><path class="cls-1" d="M151.41,29.76a8,8,0,0,1,6,2.51,10,10,0,0,1,2.46,5.28,12.93,12.93,0,0,1-.84,6.74A8.29,8.29,0,0,1,153.71,49a8.2,8.2,0,0,1-5.31-.32,8.88,8.88,0,0,1-2.47-1.75c-.07,3.67,0,7.34,0,11-1.64,0-3.3.19-4.93,0,0-9.25,0-18.49,0-27.74,1.23,0,2.44,0,3.67,0l.25.13a15.1,15.1,0,0,1,.59,2.12,7.43,7.43,0,0,1,5.92-2.68m-2.58,4.07a4.35,4.35,0,0,0-3,3.92c0,1,0,2,0,3a4.41,4.41,0,0,0,3.48,4.58,4.89,4.89,0,0,0,2.46-.23,5.4,5.4,0,0,0,3.06-4,17.83,17.83,0,0,0,0-2.83,5.56,5.56,0,0,0-2.47-4.07A5,5,0,0,0,148.83,33.83Z"/><path class="cls-1" d="M56.81,29.89A18.47,18.47,0,0,1,65.52,31a25.62,25.62,0,0,1-1,3.55,18.28,18.28,0,0,0-4.59-1c-1.08,0-2.36-.18-3.18.69a1.52,1.52,0,0,0,.1,2.33c2.07,1.28,4.71,1.12,6.8,2.4a4.93,4.93,0,0,1,2.38,3,17.21,17.21,0,0,1,0,3,5.65,5.65,0,0,1-3,3.5,9,9,0,0,1-4.27.93,20.75,20.75,0,0,1-7.45-1.42,17.42,17.42,0,0,1,1-3.54c2.3.82,4.72,1.57,7.18,1.18a2.84,2.84,0,0,0,1.34-.8,1.6,1.6,0,0,0-.22-2.43C58.59,41,56,41.1,53.9,39.81a4.8,4.8,0,0,1-2.31-2.93,5.14,5.14,0,0,1,1.21-4.94A7.12,7.12,0,0,1,56.81,29.89Z"/><path class="cls-1" d="M85.13,31.34a20,20,0,0,1,9.48-1.5,7.45,7.45,0,0,1,5.14,3,6.36,6.36,0,0,1,1.16,3.82v7.52a1.37,1.37,0,0,0,.81,1.37,7.49,7.49,0,0,0,1.42,0c.11,1.18.29,2.35.36,3.53a10.4,10.4,0,0,1-3.81.17A4.64,4.64,0,0,1,96.85,47a8.91,8.91,0,0,1-6,2.35,7.19,7.19,0,0,1-5-1.7,5.86,5.86,0,0,1,0-8.43c2.11-1.71,5-2,7.56-1.93a20.85,20.85,0,0,1,2.74.28,4.49,4.49,0,0,0-.3-2.39,3.36,3.36,0,0,0-2.08-1.56,17.45,17.45,0,0,0-3.15,0,23.72,23.72,0,0,0-4.31,1.19c-.43-1.14-.82-2.27-1.25-3.39m4.54,9.91a2.52,2.52,0,0,0-.25,3.41,3.59,3.59,0,0,0,3.64,1.06,4,4,0,0,0,3.11-2.9,12.75,12.75,0,0,0,0-2.47c-.91-.05-1.79-.3-2.72-.28A5.39,5.39,0,0,0,89.67,41.25Z"/><path class="cls-1" d="M110.66,32.55a7.75,7.75,0,0,1,5.88-2.79,6.43,6.43,0,0,1,5.73,2.65c.16.19.28.49.58.44A13.72,13.72,0,0,1,125,31a8.5,8.5,0,0,1,7-.88,6.46,6.46,0,0,1,4.44,6.12V48.76c-1.64,0-3.27,0-4.91,0,0-3.73,0-7.45,0-11.18a3.62,3.62,0,0,0-.67-2.41c-1.52-2-5-1.68-6.32.43a4.25,4.25,0,0,0-.72,2.34c0,3.66,0,7.31,0,11-1.62,0-3.24,0-4.85,0,0-3.76,0-7.54,0-11.31a4,4,0,0,0-1.22-3,4.05,4.05,0,0,0-4.73-.13A4.44,4.44,0,0,0,111,38.11c0,3.55,0,7.09,0,10.63-1.64,0-3.28,0-4.93,0,0-6.12,0-12.27,0-18.39a15.4,15.4,0,0,1,3.66-.14l.28.14C110.32,31.07,110.44,31.83,110.66,32.55Z"/><path class="cls-1" d="M26.84,30.32a36,36,0,0,1,4.88-.15c.08,6.19,0,12.4,0,18.59-1.64,0-3.26,0-4.9,0C26.84,42.6,26.87,36.46,26.84,30.32Z"/></g><g id="_219e4dff" data-name="#219e4dff"><rect class="cls-2" y="54.32" width="139.37" height="3.72"/><rect class="cls-2" x="148.18" y="54.32" width="11.81" height="3.7"/></g></g></svg>