<svg id="Calque_1" data-name="Calque 1" xmlns="http://www.w3.org/2000/svg" viewBox="0 0 160 80"><defs><style>.cls-1{fill:#222b33;}.cls-2{fill:#0082d7;}</style></defs><title>bittrex</title><g id="bittrex"><g id="Symbols"><g id="bittrex-word-mark"><path id="Work-Mark" class="cls-1" d="M51.4,48V40.6h4.8c2.6,0,4.2,1.4,4.2,3.8,0,2.2-1.6,3.6-4.4,3.6Zm4-16.4c2.6,0,4,1.2,4,3.4a3.47,3.47,0,0,1-3.8,3.8H51.2V31.6Zm6.4,3.2c0-3.2-2.4-5-6.4-5H49V50h7c4.2,0,6.8-2,6.8-5.6,0-2.4-1.6-4.2-4.2-4.8A4.59,4.59,0,0,0,61.8,34.8Zm6,15H70v-20H67.8ZM75,31.6h5.6V49.8h2.2V31.6h5.6v-2H74.8v2Zm16.8,0h5.6V49.8h2.4V31.6h5.6v-2H91.8Zm27,10.2c2.6-.6,4.4-2.6,4.4-6,0-3.8-2.6-6.2-7-6.2h-5.8V49.8h2.2V42H117l4.4,7.8H124l-4.6-7.4Zm12.4-1.2h8.4V38.8h-8.4V31.6h9.4v-2H129V49.8h11.8v-2h-9.4l-.2-7.2Zm22.8-1,6-9.8h-2.8l-4.6,8-.2.8-.2-.8-4.6-8h-2.8l6,9.8-6.2,10.2h2.8l4.6-8.2.2-.8.2.8,4.6,8.2h2.8Zm-41.6.6V31.6h4c2.8,0,4.4,1.6,4.4,4.2,0,3-1.8,4.4-4.6,4.4Z"/></g></g><g id="Symbols-2" data-name="Symbols"><g id="bittrex-logo-mark"><path id="Logo-Mark" class="cls-2" d="M7.2,22.4v5.4h3.4v-2H31.2V46.4H10.6V35.2H7.2V50H34.8V22.4ZM0,30V57.6H27.6V52H24.2v2.2H3.4V33.6H24V44.4h3.4V30Z"/></g></g></g></svg>