<svg id="Calque_1" data-name="Calque 1" xmlns="http://www.w3.org/2000/svg" viewBox="0 0 160 80"><defs><style>.cls-1{fill:#42484d;}</style></defs><title>bitz</title><g id="bitz"><path class="cls-1" d="M26.2,40a10.39,10.39,0,0,0-1.26.08V40a9.45,9.45,0,0,0,0-18.9H0V58.9H26.2A9.45,9.45,0,0,0,26.2,40Zm.88,10.7H6.93V46.92L19.48,31.8H6.93V28H26.42l-.52,3.18L13.29,46.92H27.08Z"/><rect class="cls-1" x="51.16" y="17.46" width="2.45" height="45.08"/><path class="cls-1" d="M86.59,38.89A6.2,6.2,0,0,0,84.26,27h-9V52.18H86a6.65,6.65,0,0,0,.57-13.29ZM83.17,30a3.83,3.83,0,0,1,0,7.66h-4.5V30Zm2.54,18.81h-7V41.14h7a3.87,3.87,0,0,1,0,7.69Z"/><path class="cls-1" d="M98.35,35.43h3.35V52.18H98.35ZM100,28.27A1.95,1.95,0,1,0,102,30.21,1.94,1.94,0,0,0,100,28.27Z"/><path class="cls-1" d="M114.69,52.49a5.16,5.16,0,0,1-3.48-1,4.6,4.6,0,0,1-1.43-3.55V38.17h-2.85v-.49l6.24-5.75h0v3.5h5.25v2.74H113v9.32a2.3,2.3,0,0,0,2.23,2.26,6.32,6.32,0,0,0,3.85-.92v2.75C118.69,52,117.39,52.49,114.69,52.49Z"/><rect class="cls-1" x="123.03" y="42.21" width="9.29" height="3.47"/><polygon class="cls-1" points="143.55 49.06 159.79 26.82 156.92 26.82 155.47 26.82 137.69 26.82 137.69 29.95 153.17 29.95 136.77 52.19 140.77 52.19 141.27 52.19 160 52.19 160 49.06 143.55 49.06"/></g></svg>