<svg id="Calque_1" data-name="Calque 1" xmlns="http://www.w3.org/2000/svg" viewBox="0 0 160 80"><defs><style>.cls-1{fill:#0c425d;}.cls-2{fill:#e6362d;}.cls-3{fill:#29a844;}.cls-4{fill:#27732e;}</style></defs><title>bl3p</title><g id="bl3p"><path class="cls-1" d="M33.36,42H27.9v8.09h6.15c4,0,5.86-1.43,5.86-4,0-2.91-2.22-4.11-6.56-4.11M33,29.88H27.9v6.51H33c3.19,0,5.22-1,5.22-3.33,0-2-1.62-3.19-5.18-3.19m2.68,26.3H20V23.82H33.62c8.23,0,12.39,2.73,12.39,7.86a7.15,7.15,0,0,1-5.27,7.21,8.36,8.36,0,0,1,7,8.54c0,5.32-3.65,8.74-12,8.74m90.62-25.83h-5.6v8.27h5.6c3.23,0,5.68-.83,5.68-4.11s-2.45-4.16-5.68-4.16m.46,14.74h-6.06V56.17h-7.9V23.83h14c8.82,0,13.21,3.65,13.21,10.67s-4.39,10.58-13.21,10.58m-63,4.46V23.83h-7.9V56.17H72.15L76,49.54Z"/><path class="cls-2" d="M89.13,40l5.51-9.55h-11l-3.83-6.62h26.33L93,46.62Z"/><path class="cls-3" d="M89.13,40l5.51,9.55h-11l-3.83,6.62h26.33L93,33.38Z"/><path class="cls-4" d="M93,33.37,89.13,40,93,46.62,96.78,40Z"/></g></svg>