<svg id="Calque_1" data-name="Calque 1" xmlns="http://www.w3.org/2000/svg" viewBox="0 0 160 80"><defs><style>.cls-1{fill:#002946;}</style></defs><title>bleutrade</title><g id="bleutrade"><path class="cls-1" d="M6.65,51.15c-1.17,0-2.35,0-3.53-.11A16.32,16.32,0,0,1,0,50.57V29.17l1.49-.24c.53-.07,1.08-.13,1.63-.17s1.09-.08,1.63-.1l1.55,0a21.73,21.73,0,0,1,3.72.3,9.61,9.61,0,0,1,3,1,5.29,5.29,0,0,1,2,1.85,5.4,5.4,0,0,1,.7,2.83,4.66,4.66,0,0,1-.75,2.67,5.27,5.27,0,0,1-2.08,1.78,5.79,5.79,0,0,1,2.95,2,5.45,5.45,0,0,1,1,3.31,5.8,5.8,0,0,1-2.48,5.11Q11.76,51.15,6.65,51.15ZM3.94,37.82H6.77a8.24,8.24,0,0,0,3.6-.65,2.37,2.37,0,0,0,1.3-2.34,2.33,2.33,0,0,0-1.35-2.26,8,8,0,0,0-3.51-.66c-.62,0-1.16,0-1.64,0s-.89,0-1.23.09Zm0,3.15v6.71c.45,0,.93.08,1.43.1l1.4,0a15.14,15.14,0,0,0,2.31-.16,5.94,5.94,0,0,0,1.84-.56A3.22,3.22,0,0,0,12.16,46a3,3,0,0,0,.47-1.72,2.71,2.71,0,0,0-1.37-2.61A8.1,8.1,0,0,0,7.47,41Z"/><path class="cls-1" d="M33.23,47.43v3.46H19.3v-22h4V47.43Z"/><path class="cls-1" d="M34.7,50.89v-22H48.85v3.41H38.7v5.43h9V41h-9v6.46H49.61v3.4Z"/><path class="cls-1" d="M59.63,51.37a10.5,10.5,0,0,1-3.88-.65,7.3,7.3,0,0,1-2.69-1.83,7.43,7.43,0,0,1-1.57-2.77,11.38,11.38,0,0,1-.51-3.5V28.85h4V42.24a8.7,8.7,0,0,0,.33,2.56,4.55,4.55,0,0,0,1,1.74,3.81,3.81,0,0,0,1.46,1,5.35,5.35,0,0,0,1.89.32,5.5,5.5,0,0,0,1.91-.32,3.8,3.8,0,0,0,1.48-1,4.54,4.54,0,0,0,1-1.74,8.36,8.36,0,0,0,.34-2.56V28.85h4V42.62a11.08,11.08,0,0,1-.53,3.5,7.61,7.61,0,0,1-1.59,2.77,7.25,7.25,0,0,1-2.72,1.83A10.71,10.71,0,0,1,59.63,51.37Z"/><path class="cls-1" d="M86.12,28.85v1.88H79.06V50.89H76.9V30.73H69.84V28.85Z"/><path class="cls-1" d="M102.66,35.47a5.63,5.63,0,0,1-1.3,3.91,7.5,7.5,0,0,1-3.44,2.07q.51.63,1.32,1.71c.54.73,1.1,1.52,1.67,2.37s1.14,1.76,1.69,2.69,1,1.83,1.4,2.67h-2.33c-.44-.84-.92-1.69-1.44-2.54s-1-1.67-1.59-2.47-1.07-1.53-1.58-2.21l-1.33-1.78a19.9,19.9,0,0,1-2,.1H90.13v8.9H88V29.27a14.29,14.29,0,0,1,2.68-.46q1.55-.15,2.85-.15c3,0,5.32.57,6.85,1.72A5.93,5.93,0,0,1,102.66,35.47Zm-8.91-4.93c-.8,0-1.51,0-2.11.08l-1.51.14v9.38h3A25.41,25.41,0,0,0,96,40a6.86,6.86,0,0,0,2.32-.64A3.73,3.73,0,0,0,99.83,38a4.76,4.76,0,0,0,.57-2.51A4.66,4.66,0,0,0,99.83,33a4.26,4.26,0,0,0-1.5-1.51,5.89,5.89,0,0,0-2.11-.76A14.19,14.19,0,0,0,93.75,30.54Z"/><path class="cls-1" d="M121.77,50.89c-.42-1.08-.8-2.12-1.16-3.12s-.69-2-1-2.92H108.83c-.36.95-.72,1.93-1.08,2.93s-.72,2-1.11,3.11h-2.26c.83-2.29,1.63-4.43,2.37-6.41s1.47-3.86,2.19-5.63,1.43-3.46,2.13-5.09,1.45-3.27,2.23-4.91h1.9q1.17,2.46,2.22,4.9t2.12,5.1c.72,1.77,1.45,3.64,2.18,5.63s1.55,4.12,2.44,6.41Zm-7.58-19.56q-1.2,2.74-2.33,5.58T109.51,43h9.41c-.82-2.19-1.61-4.22-2.38-6.11S115,33.16,114.19,31.33Z"/><path class="cls-1" d="M143.21,39.86a12.65,12.65,0,0,1-.89,4.93,9.49,9.49,0,0,1-2.5,3.49,10.4,10.4,0,0,1-3.83,2.1,16.16,16.16,0,0,1-4.9.7,27.47,27.47,0,0,1-2.8-.14,17.82,17.82,0,0,1-2.57-.43V29.27a13.47,13.47,0,0,1,2.57-.46,27.58,27.58,0,0,1,2.8-.15,16.48,16.48,0,0,1,4.9.7,10.7,10.7,0,0,1,3.83,2.1,9.53,9.53,0,0,1,2.5,3.5A12.53,12.53,0,0,1,143.21,39.86ZM127.88,49c.13,0,.45.07,1,.13a21.18,21.18,0,0,0,2.5.1,12,12,0,0,0,4.16-.66,7.91,7.91,0,0,0,3-1.86,7.48,7.48,0,0,0,1.81-2.94,12.68,12.68,0,0,0,0-7.77,7.59,7.59,0,0,0-1.81-2.93,8.17,8.17,0,0,0-3-1.86,12.19,12.19,0,0,0-4.16-.65,24.37,24.37,0,0,0-2.5.09l-1,.13Z"/><path class="cls-1" d="M146.45,50.89v-22h12.72v1.88H148.61v7.66H158v1.85h-9.42V49H160v1.87Z"/></g></svg>