<svg id="Calque_1" data-name="Calque 1" xmlns="http://www.w3.org/2000/svg" xmlns:xlink="http://www.w3.org/1999/xlink" viewBox="0 0 160 80"><defs><style>.cls-1{fill:none;}.cls-2{fill:#81b3bc;}.cls-3{opacity:0.7;}.cls-4{clip-path:url(#clip-path);}.cls-5{fill:#e6cc3f;}.cls-6{clip-path:url(#clip-path-2);}.cls-7{fill:#ce876c;}.cls-8{fill:#ebbb94;}.cls-9{fill:#187ab0;}.cls-10{fill:#545455;}</style><clipPath id="clip-path"><rect id="SVGID" class="cls-1" x="4.61" y="35.33" width="3.02" height="3.02"/></clipPath><clipPath id="clip-path-2"><rect id="SVGID-2" data-name="SVGID" class="cls-1" y="30.96" width="2.57" height="2.57"/></clipPath></defs><title>bluebelt</title><g id="bluebelt"><rect class="cls-2" x="11.59" y="33.17" width="5.96" height="5.96"/><g class="cls-3"><g class="cls-4"><rect class="cls-5" x="4.61" y="35.33" width="3.02" height="3.02"/></g></g><g class="cls-3"><g class="cls-6"><rect class="cls-7" y="30.96" width="2.57" height="2.57"/></g></g><rect class="cls-8" x="6.61" y="28.8" width="4.37" height="4.37"/><path class="cls-9" d="M38.55,39.45C41.33,37.57,41.41,34,41.12,32c-1.06-7.58-9.22-8-9.22-8H14.81v7.26h4.65V27h4.36v4.36H31.7a2.37,2.37,0,0,1,0,4.73H19.46V41H14.81V55.89H31.66c10-.45,10.4-8.4,10.4-8.4a9.28,9.28,0,0,0-3.51-8m-7.5,9.38H22.27V43.12h8.78a2.86,2.86,0,0,1,0,5.71"/><path class="cls-10" d="M55.24,40.47a15.08,15.08,0,0,1,4-.65,6.09,6.09,0,0,1,4.48,1.67c1.1,1.1,1.68,2.94,1.68,5.42,0,2.82-.62,5-1.84,6.45s-3.18,2.24-5.87,2.24a23.6,23.6,0,0,1-3.64-.32,17.36,17.36,0,0,1-2.93-.7v-20h4.12v5.92Zm0,11.67a10.22,10.22,0,0,0,1.83.2c1.55,0,2.61-.41,3.18-1.26a5.83,5.83,0,0,0,.9-3.51c0-3-1.1-4.53-3.26-4.53a6.4,6.4,0,0,0-2.69.53v8.57Z"/><path class="cls-10" d="M75.76,55a7.36,7.36,0,0,1-3.06.65,7.63,7.63,0,0,1-2.25-.32,3.6,3.6,0,0,1-1.38-.74,2.66,2.66,0,0,1-.74-1.18A5.07,5.07,0,0,1,68.05,52c0-.36,0-.89,0-1.51V34.59h4.24V50.75A2.31,2.31,0,0,0,72.49,52a1.06,1.06,0,0,0,.94.37,8.67,8.67,0,0,0,1.88-.2Z"/><path class="cls-10" d="M90.81,54.22a22.51,22.51,0,0,1-7.51,1.26,7.14,7.14,0,0,1-4.36-1.3A4.92,4.92,0,0,1,77.23,50V40.1h4.12v9.59a2.43,2.43,0,0,0,.73,2,3.63,3.63,0,0,0,2,.65,10.3,10.3,0,0,0,2.61-.32v-12h4.12V54.22Z"/><path class="cls-10" d="M97.3,48.22v.37a3.42,3.42,0,0,0,1.14,2.85,4.78,4.78,0,0,0,3.1.94,13.73,13.73,0,0,0,4.32-.61l.33,3.06a19,19,0,0,1-5.18.82,7.91,7.91,0,0,1-5.63-2c-1.39-1.31-2.12-3.43-2.12-6.41A8,8,0,0,1,95,41.94a6.59,6.59,0,0,1,5.39-2.12c2.16,0,3.75.53,4.73,1.55a5.76,5.76,0,0,1,1.51,4.2,12.33,12.33,0,0,1-.33,2.61h-9Zm5.22-4.61a2.38,2.38,0,0,0-2-.86,3.55,3.55,0,0,0-1.55.33,2.87,2.87,0,0,0-1,.86,4.84,4.84,0,0,0-.45,1,3.34,3.34,0,0,0-.12.85h5.79a3.35,3.35,0,0,0-.69-2.16"/><path class="cls-9" d="M113.25,40.47a15.14,15.14,0,0,1,4-.65,6.09,6.09,0,0,1,4.48,1.67c1.11,1.1,1.68,2.94,1.68,5.42,0,2.82-.61,5-1.84,6.45s-3.18,2.24-5.87,2.24a23.37,23.37,0,0,1-3.63-.32,17.27,17.27,0,0,1-2.94-.7v-20h4.12v5.92Zm0,11.67a10.22,10.22,0,0,0,1.83.2c1.55,0,2.62-.41,3.19-1.26a5.91,5.91,0,0,0,.89-3.51c0-3-1.1-4.53-3.26-4.53a6.4,6.4,0,0,0-2.69.53v8.57Z"/><path class="cls-9" d="M129.44,48.22v.37a3.42,3.42,0,0,0,1.15,2.85,4.78,4.78,0,0,0,3.1.94,13.73,13.73,0,0,0,4.32-.61l.33,3.06a19,19,0,0,1-5.18.82,7.89,7.89,0,0,1-5.63-2c-1.39-1.31-2.12-3.43-2.12-6.41a8,8,0,0,1,1.75-5.34c1.18-1.43,3-2.12,5.38-2.12,2.17,0,3.76.53,4.74,1.55a5.76,5.76,0,0,1,1.51,4.2,13,13,0,0,1-.33,2.61h-9Zm5.23-4.61a2.39,2.39,0,0,0-2-.86,3.52,3.52,0,0,0-1.55.33,2.78,2.78,0,0,0-1,.86,4.35,4.35,0,0,0-.45,1,3.34,3.34,0,0,0-.12.85h5.79a3.41,3.41,0,0,0-.69-2.16"/><path class="cls-9" d="M149.07,55a7.36,7.36,0,0,1-3.06.65,7.63,7.63,0,0,1-2.25-.32,3.6,3.6,0,0,1-1.38-.74,2.66,2.66,0,0,1-.74-1.18,6.78,6.78,0,0,1-.28-1.35c0-.36,0-.89,0-1.51V34.59h4.24V50.75A2.31,2.31,0,0,0,145.8,52a1.06,1.06,0,0,0,.94.37,8.74,8.74,0,0,0,1.88-.2Z"/><path class="cls-9" d="M151.47,43h-2.65V40.14h2.74V36.68l4.16-.37V40.1H160L159.8,43h-4.12v7.79A1.94,1.94,0,0,0,156,52a1.17,1.17,0,0,0,1,.37,7.85,7.85,0,0,0,2.08-.28l.45,2.93a8.54,8.54,0,0,1-3.34.61,7.35,7.35,0,0,1-1.72-.16,5.42,5.42,0,0,1-1.22-.41,2.2,2.2,0,0,1-.82-.69,2.6,2.6,0,0,1-.49-.82,2.88,2.88,0,0,1-.24-1c0-.44-.08-.77-.12-1V43Z"/></g></svg>