<svg id="Calque_1" data-name="Calque 1" xmlns="http://www.w3.org/2000/svg" viewBox="0 0 160 80"><defs><style>.cls-1{fill:#34a853;}.cls-2{fill:#fbbc05;}.cls-3{fill:#4285f4;}</style></defs><title>braziliex</title><g id="braziliex"><path class="cls-1" d="M16.93,44.16a4.18,4.18,0,0,0-4.13-4.55l.24,0s2.7-.64,2.7-4.3c0-3.42-3.28-5-5.23-5.23v0H0V50H10.51v-.08C13.33,49.64,16.93,48.55,16.93,44.16ZM6.6,34.4h.57c1.36,0,2.47.3,2.47,1.64,0,1.05-.2,1.69-2.38,1.69H5.89V34.4ZM8.08,45.66H5.89v-3.6H8.61c1.9,0,2.56.57,2.56,1.64S10.91,45.66,8.08,45.66Z"/><path class="cls-1" d="M31.5,50h6.21L33.28,40.6s2.5-.7,2.5-4.76A5.73,5.73,0,0,0,30.55,30H20.05V50h5.89V42.06h1.82ZM27.82,34.4c1.27,0,2.3.5,2.3,1.67A2.06,2.06,0,0,1,27.82,38H25.94V34.4Z"/><path class="cls-1" d="M53.65,50h5.89L51.6,30H44.54L37.4,50h5.89l1.47-4.1H52Zm-7.52-7.93,2.07-5.79,2.3,5.79Z"/><polygon class="cls-1" points="79.88 30.01 75.08 30.01 73.03 30.01 60.39 30.01 60.39 34.4 70.06 34.4 59.54 49.99 62.99 49.99 66.19 49.99 79.18 49.99 79.18 45.59 69.2 45.59 79.88 30.01"/><rect class="cls-1" x="81.57" y="30.01" width="5.89" height="19.98"/><polygon class="cls-1" points="97.86 45.59 97.86 30.01 91.96 30.01 91.96 45.59 91.96 49.99 97.86 49.99 107.55 49.99 107.55 45.59 97.86 45.59"/><rect class="cls-2" x="109.55" y="30.01" width="5.89" height="19.98"/><polygon class="cls-3" points="134.72 34.4 134.72 30.01 125.73 30.01 120.64 30.01 119.84 30.01 119.84 49.99 134.72 49.99 134.72 45.59 125.73 45.59 125.73 41.8 134.72 41.8 134.72 37.4 125.73 37.4 125.73 34.4 134.72 34.4"/><polygon class="cls-3" points="160 49.99 151.63 39.75 159.6 30.01 152.37 30.01 148.01 35.34 143.65 30.01 136.42 30.01 144.4 39.75 136.02 49.99 143.25 49.99 148.01 44.17 152.77 49.99 160 49.99"/></g></svg>