<svg id="Calque_1" data-name="Calque 1" xmlns="http://www.w3.org/2000/svg" viewBox="0 0 160 80"><defs><style>.cls-1{fill:#21579b;}.cls-2{fill:#ff433d;}.cls-3{fill:#fff;}</style></defs><title>btc-alpha</title><g id="btcalpha"><circle class="cls-1" cx="97.3" cy="40" r="22.7"/><circle class="cls-2" cx="62.7" cy="40" r="22.7"/><path class="cls-3" d="M49.8,38.38c1.62.21,2.75,1,2.75,2.4a2.57,2.57,0,0,1-1.34,2.3,6.19,6.19,0,0,1-3.1.66h-3.6v-.52c1.13-.09,1.22-.24,1.22-1.5V35.79c0-1.24-.09-1.38-1.15-1.48V33.8h4.16a4.28,4.28,0,0,1,2.45.54A2,2,0,0,1,52,36.05a2.37,2.37,0,0,1-2.21,2.26v.07ZM48,38.19c1.34,0,1.93-.56,1.93-1.88s-.77-1.93-1.53-1.93a.73.73,0,0,0-.58.17c-.12.09-.17.33-.17.7v2.92H48Zm-.35,3.55c0,1.08.26,1.39,1,1.39s1.71-.64,1.71-2.21-.84-2.14-2.39-2.14h-.31Zm13.12-5.48a4.13,4.13,0,0,0-.57-1.5A1.63,1.63,0,0,0,59,34.41h-.71v7.33c0,1.27.12,1.39,1.34,1.48v.52H55v-.52c1.16-.09,1.3-.21,1.3-1.48V34.43h-.57c-.84,0-1.17.12-1.41.4a4.3,4.3,0,0,0-.54,1.46h-.52c.08-1,.17-2.09.17-2.87h.38a.82.82,0,0,0,.82.38H60a.93.93,0,0,0,.8-.38h.37c0,.63.1,1.88.17,2.82Zm9.42,5a21.76,21.76,0,0,1-.73,2.31A10.53,10.53,0,0,1,67,44a4.73,4.73,0,0,1-5-5,5.08,5.08,0,0,1,5.41-5.33,10.43,10.43,0,0,1,2.35.33c.11.84.18,1.55.25,2.39l-.51.12c-.47-1.67-1.37-2.21-2.4-2.21-1.76,0-2.84,2.09-2.84,4.4,0,2.77,1.24,4.7,2.93,4.7,1.11,0,1.88-.85,2.54-2.21l.52.16Zm4.23-.56H71l.21-1.13h3.45Zm6.3,3v-.52c.82-.11.89-.3.66-1.05-.14-.47-.33-1.09-.52-1.6H78.21c-.11.4-.3.89-.47,1.5-.23.82-.16,1,.87,1.15v.52H75.39v-.52c.9-.09,1.13-.26,1.53-1.43l2.92-8,.72-.16c.92,2.68,1.77,5.33,2.71,8,.47,1.39.65,1.55,1.52,1.65v.51H80.73Zm-1.15-7.33h0c-.4,1.15-.71,2.25-1.08,3.36h2.16Zm5.68,7.33v-.47c.85-.12.92-.21.92-1.2v-7c0-.94,0-1-.85-1.1v-.42A24.6,24.6,0,0,0,88.08,33v9.07c0,1,.08,1.11.94,1.2v.47Zm7.88-6.82a1.15,1.15,0,0,1,.7-.23,2.73,2.73,0,0,1,2.59,3A4.26,4.26,0,0,1,93,43.92a2.17,2.17,0,0,1-.89-.18v1.81c0,.94.09,1,1.17,1.12v.47h-4v-.47c.89-.07,1-.16,1-1.1V38.8c0-.92-.07-1-.85-1.08V37.3a23.93,23.93,0,0,0,2.75-.73v1.08l1.06-.71Zm-1.06,5.67a1.65,1.65,0,0,0,1.13.61c.66,0,1.31-.85,1.31-2.77s-.84-2.59-1.57-2.59a1.26,1.26,0,0,0-.85.33v4.42Zm9,1.15v-.47c.66-.12.7-.19.7-1.08V39.37c0-1.13-.42-1.53-1-1.53a1.42,1.42,0,0,0-1,.42v4c0,.92.07,1,.66,1.08v.47H97v-.47c.85-.07.94-.14.94-1.13V35c0-.91-.05-.91-.84-1v-.44c.82-.1,1.81-.31,2.72-.52V37.7a2.91,2.91,0,0,1,1.93-1c1.29,0,2,.89,2,2.49v2.94c0,1,.07,1,.8,1.13v.47h-3.38ZM110,44a1.29,1.29,0,0,1-1.22-.85,3.9,3.9,0,0,1-1.53.85,2,2,0,0,1-2-1.93,1.48,1.48,0,0,1,1.1-1.53,11.25,11.25,0,0,0,2.33-1v-.64c0-.89-.4-1.36-.85-1.36a.63.63,0,0,0-.56.31,2.44,2.44,0,0,0-.38,1c-.09.38-.28.49-.56.49s-1-.3-1-.75c0-.26.17-.47.52-.7a6.4,6.4,0,0,1,2.49-1.11,2.39,2.39,0,0,1,1.5.52,2.22,2.22,0,0,1,.66,1.81v2.77c0,.68.21.9.47.9a1.13,1.13,0,0,0,.47-.1l.14.47Zm-1.31-3.88c-.29.17-.54.33-.83.49a1.11,1.11,0,0,0-.65,1,1,1,0,0,0,.94,1.15.8.8,0,0,0,.54-.21Z"/></g></svg>