<svg id="Calque_1" data-name="Calque 1" xmlns="http://www.w3.org/2000/svg" viewBox="0 0 160 80"><defs><style>.cls-1{fill:#262c33;}.cls-2{fill:#4099f5;}</style></defs><title>btcboxcom</title><g id="boxex"><path class="cls-1" d="M149.88,52.3l-6.36-7.52-.38-.43h0l-2-2.31-3.95-4.67a.7.7,0,0,0-.51-.22h-3.63a.67.67,0,0,0-.54.27.42.42,0,0,0,0,.52l6,7.09-6.48,7.27a.42.42,0,0,0,0,.52.65.65,0,0,0,.55.26H136a.66.66,0,0,0,.5-.2l4.45-5.09,4.29,5.08a.64.64,0,0,0,.51.21h3.69a.65.65,0,0,0,.55-.26A.44.44,0,0,0,149.88,52.3ZM66.13,41.42a8.27,8.27,0,0,0-3.78-2.25,8.7,8.7,0,0,0,3.07-2.58,6.81,6.81,0,0,0,1.21-3.73,5.34,5.34,0,0,0-1-3.1,6.15,6.15,0,0,0-2.93-2.14,23.66,23.66,0,0,0-7.16-.7H47.93a.6.6,0,0,0-.46.17.5.5,0,0,0-.18.39v25a.5.5,0,0,0,.18.39.63.63,0,0,0,.43.17h8.56a17,17,0,0,0,6.95-1,7.94,7.94,0,0,0,3.22-2.72,6.52,6.52,0,0,0,1.13-3.63A6.21,6.21,0,0,0,66.13,41.42Zm-9.26,8H52.3v-8h2.13a14.75,14.75,0,0,1,5.19.67A5.6,5.6,0,0,1,62,43.75a3.44,3.44,0,0,1,.76,2.15,3.16,3.16,0,0,1-1.2,2.42c-.75.72-2.3,1.14-4.72,1.13ZM55.22,37.79H52.3V30.54h4.2a7.28,7.28,0,0,1,4.19.87,2.41,2.41,0,0,1,1.06,2A3.76,3.76,0,0,1,61,35.57a4.68,4.68,0,0,1-2,1.63A9.58,9.58,0,0,1,55.22,37.79Zm30.22,1.37a11.48,11.48,0,0,0-13,0,7,7,0,0,0-2.7,5.89,7,7,0,0,0,2.7,6,11.48,11.48,0,0,0,13,0,7,7,0,0,0,2.71-6A7,7,0,0,0,85.44,39.16ZM79,50.11a4.56,4.56,0,0,1-3.47-1.33,5.51,5.51,0,0,1,0-7.25,5.15,5.15,0,0,1,6.9,0,5.41,5.41,0,0,1,0,7.14A4.56,4.56,0,0,1,79,50.11Zm49.86-.75a.61.61,0,0,0-.43-.17H115.65V40.73h10.2a.61.61,0,0,0,.43-.17.55.55,0,0,0,.19-.4V37.72a.58.58,0,0,0-.19-.4.74.74,0,0,0-.43-.17h-10.2V30.8h12.8a.63.63,0,0,0,.43-.17.52.52,0,0,0,.18-.4V27.48a.5.5,0,0,0-.18-.39.63.63,0,0,0-.43-.17H111.31a.66.66,0,0,0-.44.17.53.53,0,0,0-.18.39v25a.53.53,0,0,0,.18.39.66.66,0,0,0,.44.17h17.14a.63.63,0,0,0,.43-.17.5.5,0,0,0,.18-.39V49.76A.51.51,0,0,0,128.83,49.36ZM107.15,52.3l-6.36-7.52-.37-.43h0l-2-2.31-4-4.67a.7.7,0,0,0-.51-.22H90.31a.68.68,0,0,0-.54.27.42.42,0,0,0,0,.52l6,7.11L89.38,52.3a.45.45,0,0,0,0,.52.65.65,0,0,0,.55.26h3.33a.66.66,0,0,0,.5-.2l4.45-5.09,4.29,5.08a.64.64,0,0,0,.51.21h3.68a.65.65,0,0,0,.55-.26A.43.43,0,0,0,107.15,52.3Z"/><path class="cls-2" d="M143,39.91h0l2.12,2.2h0l.4.41h0l4-4.57a.42.42,0,0,0,0-.52.63.63,0,0,0-.54-.26h-3.31a.66.66,0,0,0-.5.2m-114,15.7H27.63a.63.63,0,0,1-.66-.61h0V37.79a.64.64,0,0,1,.66-.61h3.56a.63.63,0,0,1,.66.61h0V52.46a.63.63,0,0,1-.66.61Zm8.48,0H36.12a.64.64,0,0,1-.67-.61h0V27.53a.64.64,0,0,1,.67-.61h3.55a.64.64,0,0,1,.67.61h0V52.46a.64.64,0,0,1-.67.61Zm-17,0H19.15a.65.65,0,0,1-.69-.59V44a.64.64,0,0,1,.66-.62h3.56a.64.64,0,0,1,.66.61h0v8.46A.63.63,0,0,1,22.7,53.07Zm-8.48,0H10.66a.63.63,0,0,1-.66-.61h0V34.17a.64.64,0,0,1,.66-.62h3.56a.63.63,0,0,1,.61.62V52.46A.63.63,0,0,1,14.22,53.07Zm86.07-13.16h0l2.11,2.2h0l.4.41h0l4-4.57a.42.42,0,0,0,0-.52.65.65,0,0,0-.55-.26h-3.22a.66.66,0,0,0-.5.2"/></g></svg>