<svg id="Calque_1" data-name="Calque 1" xmlns="http://www.w3.org/2000/svg" viewBox="0 0 160 80"><defs><style>.cls-1{fill:#2d2926;}.cls-2{fill:#e10600;}.cls-3{fill:#2cc84d;}.cls-4{fill:#009cde;}</style></defs><title>btcc</title><g id="btcc"><path class="cls-1" d="M50.62,53.38l4.75-27H70c2.38,0,4.15.59,5.3,1.79s1.53,3,1.12,5.36a8.4,8.4,0,0,1-1,2.9A7.45,7.45,0,0,1,74,38.22a5.19,5.19,0,0,1-1.46.94,7,7,0,0,1-1.08.36,6.76,6.76,0,0,1,1.46.49,4.14,4.14,0,0,1,1.49,1.16,5.12,5.12,0,0,1,1,2,7.06,7.06,0,0,1,0,3,8.11,8.11,0,0,1-3.13,5.42,10.41,10.41,0,0,1-6.17,1.73ZM58.13,42,57,48.75h8.77a3.67,3.67,0,0,0,4-3.38c.41-2.24-.52-3.37-2.8-3.37ZM60,31,59,37.37h7.76a4.06,4.06,0,0,0,2.6-.75,4,4,0,0,0,1.26-2.42,2.79,2.79,0,0,0-.41-2.42A3.11,3.11,0,0,0,67.8,31ZM84.63,53.38l3.9-22.27H79.75l.85-4.71h23l-.85,4.71H94.05l-3.9,22.27Zm28.52,0q-6.75,0-9.39-3.27t-1.42-10.22q1.22-6.87,5-10.18t10.48-3.31H126l-.86,4.71h-6.94a15.59,15.59,0,0,0-4.07.47,7,7,0,0,0-2.88,1.52,8,8,0,0,0-1.93,2.72,16.91,16.91,0,0,0-1.16,4.07,14.65,14.65,0,0,0-.28,4.06,5.12,5.12,0,0,0,1,2.72,4.48,4.48,0,0,0,2.36,1.53,13.8,13.8,0,0,0,3.9.46h7.11l-.81,4.72Zm24,0c-4.5,0-7.62-1.09-9.39-3.27s-2.23-5.59-1.42-10.22,2.49-8,5-10.18,6-3.31,10.48-3.31H150l-.85,4.71h-7a15.51,15.51,0,0,0-4.06.47,7.08,7.08,0,0,0-2.89,1.52,8.14,8.14,0,0,0-1.93,2.72,16.91,16.91,0,0,0-1.16,4.07,14.65,14.65,0,0,0-.28,4.06,5.2,5.2,0,0,0,1,2.72,4.52,4.52,0,0,0,2.36,1.53,13.8,13.8,0,0,0,3.9.46h7.11l-.81,4.72Z"/><path class="cls-2" d="M35.6,24.68a16.88,16.88,0,0,0-2.51-1.21S31,24.61,29.86,25.3s-3.33,2.3-3.33,2.3-2.05-1.52-3.32-2.3S20,23.47,20,23.47a16.88,16.88,0,0,0-2.51,1.21,12.47,12.47,0,0,0-2.54,1.89s3.81,3.05,5.81,4.83,5.79,5.3,5.79,5.3,3.8-3.52,5.8-5.3,5.81-4.83,5.81-4.83A12.47,12.47,0,0,0,35.6,24.68Z"/><path class="cls-3" d="M17.47,55.32A16.88,16.88,0,0,0,20,56.53s2.11-1.14,3.23-1.83,3.32-2.3,3.32-2.3,2.06,1.52,3.33,2.3,3.23,1.83,3.23,1.83a16.88,16.88,0,0,0,2.51-1.21,12.47,12.47,0,0,0,2.54-1.89s-3.81-3-5.81-4.83-5.8-5.3-5.8-5.3-3.79,3.52-5.79,5.3-5.81,4.83-5.81,4.83A12.47,12.47,0,0,0,17.47,55.32Z"/><path class="cls-4" d="M41.86,49.08a18.28,18.28,0,0,0,1.21-2.51s-1.15-2.11-1.84-3.24S38.93,40,38.93,40s1.53-2,2.3-3.32,1.84-3.24,1.84-3.24a18.28,18.28,0,0,0-1.21-2.51A12,12,0,0,0,40,28.41s-3.05,3.8-4.82,5.81S29.83,40,29.83,40s3.53,3.79,5.31,5.8S40,51.62,40,51.62A12.29,12.29,0,0,0,41.86,49.08Z"/><path class="cls-1" d="M11.21,30.94A18.28,18.28,0,0,0,10,33.45s1.15,2.11,1.84,3.24S14.14,40,14.14,40s-1.53,2.05-2.3,3.32S10,46.57,10,46.57a18.28,18.28,0,0,0,1.21,2.51,12.47,12.47,0,0,0,1.89,2.54s3-3.81,4.83-5.81S23.24,40,23.24,40s-3.53-3.79-5.31-5.79-4.83-5.81-4.83-5.81A12.22,12.22,0,0,0,11.21,30.94Z"/></g></svg>