<svg id="Calque_1" data-name="Calque 1" xmlns="http://www.w3.org/2000/svg" viewBox="0 0 160 80"><defs><style>.cls-1{fill:#f0df99;}.cls-2{fill:#4a7089;}.cls-3{fill:#008cba;}</style></defs><title>btctradeua</title><g id="btctradeua"><circle class="cls-1" cx="14.02" cy="40" r="14.02"/><path class="cls-2" d="M20.34,40.4a3,3,0,0,0-1.79-1,2.49,2.49,0,0,0,1.37-2.67,2,2,0,0,0-.4-1.21,3,3,0,0,0-.9-.81,3.06,3.06,0,0,0-1.21-.49c-.4-.09-.89-.16-1.46-.25V31.34H14.34v2.59H13V31.34H11.42V34H8.26v1.7H9.4a.82.82,0,0,1,.89.74v3h0v4.21c-.08.32-.24.57-.56.57H8.59l-.32,2h3.24v2.67h1.61V46.18h1.3v2.59H16V46.08a10.4,10.4,0,0,0,1.54-.16,3.48,3.48,0,0,0,1.3-.41,4.17,4.17,0,0,0,1-.65A3.46,3.46,0,0,0,20.5,44a3.41,3.41,0,0,0,.32-1.3,3.22,3.22,0,0,0-.48-2.27Zm-7.22-4.69h1.53c.25,0,.49.09.65.09a1.53,1.53,0,0,1,.57.16.79.79,0,0,1,.49.32.8.8,0,0,1,.32.4,1.52,1.52,0,0,1,.16.65,1.22,1.22,0,0,1-.09.56.94.94,0,0,1-.32.41,1.4,1.4,0,0,0-.4.32,1.12,1.12,0,0,1-.49.15,1.47,1.47,0,0,1-.57.09c-.16,0-.32.09-.56.09h-1.3V35.71Zm4.38,7.13a2.1,2.1,0,0,1-.25.41,1.75,1.75,0,0,1-.4.32l-.49.24a2.66,2.66,0,0,1-.57.16c-.24,0-.4.09-.56.09H13.12V40.49H15c.32,0,.56.09.81.09a2,2,0,0,1,.65.16c.24.08.49.15.56.31s.24.32.4.49a1.42,1.42,0,0,1,.16.65.82.82,0,0,1-.08.65Z"/><path class="cls-3" d="M43.14,40.85a3.11,3.11,0,0,1,.93,2.53,4,4,0,0,1-1.59,3.45A8.19,8.19,0,0,1,38.1,47.9H33.86V32.34h3.71a8.24,8.24,0,0,1,4.37.92,3.17,3.17,0,0,1,1.59,2.92,2.81,2.81,0,0,1-.79,2.12,5.15,5.15,0,0,1-2,1.2A10.11,10.11,0,0,1,43.14,40.85Zm-6.52-6.24v4.25H38a2.59,2.59,0,0,0,1.87-.54,2.15,2.15,0,0,0,.66-1.59,1.94,1.94,0,0,0-.66-1.59,4.32,4.32,0,0,0-2.12-.53Zm3.59,10.62A2.09,2.09,0,0,0,41,43.36c0-1.74-.92-2.53-2.79-2.53H36.75v4.91h1.33A3.22,3.22,0,0,0,40.21,45.23ZM55,32.47l-.26,2.25H51.12V48H48.2V34.74H44.47V32.47Zm8.49,0a5.44,5.44,0,0,1,1.87,1.2L63.86,35.4a4.26,4.26,0,0,0-2.53-1.07A2.5,2.5,0,0,0,59,35.66,9,9,0,0,0,58,40,7.57,7.57,0,0,0,59,44.41a2.53,2.53,0,0,0,2.38,1.33,4.82,4.82,0,0,0,1.46-.26c.4-.25.79-.53,1.33-.92l1.33,1.74a10.17,10.17,0,0,1-1.87,1.33,4.51,4.51,0,0,1-2.38.53,5.74,5.74,0,0,1-3.32-.92,5,5,0,0,1-2.13-2.79A11.07,11.07,0,0,1,55,39.93a10.69,10.69,0,0,1,.79-4.38A7,7,0,0,1,58,32.76a5.29,5.29,0,0,1,3.19-.92A20.26,20.26,0,0,1,63.45,32.47Zm18.06,0-.26,2.25H77.67V48H74.75V34.74H71V32.47Zm6.11,9.17H86v6.24H83.12V32.34h4.11c3.86,0,5.84,1.46,5.84,4.52a5,5,0,0,1-.67,2.53A4.45,4.45,0,0,1,90.28,41l3.58,6.77H90.67Zm-.26-2A2.35,2.35,0,0,0,90,37a2.64,2.64,0,0,0-.66-1.86,3.11,3.11,0,0,0-2.13-.54H86v5l1.33,0ZM103,47.88l-.79-3.58H97.72l-.79,3.58H94l4.25-15.54h3.58l4.25,15.54Zm-4.78-5.7h3.45L100,34.74ZM114.86,33a5.27,5.27,0,0,1,2.53,2.25,9.31,9.31,0,0,1,.92,4.79c0,2.91-.67,4.91-1.87,6.11a6.92,6.92,0,0,1-4.91,1.73h-4V32.34h3.59A14.68,14.68,0,0,1,114.86,33Zm-4.38,1.61V45.76h1.2a3.2,3.2,0,0,0,2.66-1.2c.66-.79.92-2.25.92-4.38a8.19,8.19,0,0,0-.53-3.45,2.7,2.7,0,0,0-1.33-1.59,4.71,4.71,0,0,0-2-.4h-.92Zm18.59-2.14-.26,2.12h-5V39h4.38v2.14h-4.38v4.65h5.45v2.12h-8.36V32.34h8.23l0,.13Zm17.65,10.76a5,5,0,0,1-.66,2.53,4.1,4.1,0,0,1-1.87,1.74,6.29,6.29,0,0,1-2.91.66,5.42,5.42,0,0,1-4-1.33A4.82,4.82,0,0,1,136,43.25V32.36h2.92V43.12a3.1,3.1,0,0,0,.53,2.12c.41.54.93.67,1.87.67a2.6,2.6,0,0,0,1.86-.67,3.3,3.3,0,0,0,.54-2.12V32.34h2.92V43.23ZM157,47.88l-.79-3.58h-4.52l-.8,3.58h-2.92l4.25-15.54h3.58L160,47.88Zm-4.78-5.7h3.45l-1.73-7.44Z"/></g></svg>