<svg id="Calque_1" data-name="Calque 1" xmlns="http://www.w3.org/2000/svg" viewBox="0 0 160 80"><defs><style>.cls-1{fill:#3eac5f;}.cls-2{fill:#2a2725;}.cls-3{fill:#3ba350;}</style></defs><title>btcturk</title><g id="btcturk"><path class="cls-1" d="M42.05,52.18H31.53V28.07h9.36a14.36,14.36,0,0,1,4.23.58,6,6,0,0,1,2.69,1.57,6.28,6.28,0,0,1,1.62,4.23,5,5,0,0,1-1.83,4.22,5.89,5.89,0,0,1-.87.63c-.16.08-.45.2-.87.41a6.25,6.25,0,0,1,3.57,2,5.69,5.69,0,0,1,1.32,3.81A6.35,6.35,0,0,1,49,50C47.69,51.43,45.37,52.18,42.05,52.18ZM36.91,37.85h2.57a8.36,8.36,0,0,0,3.32-.5,2.08,2.08,0,0,0,1.07-2.07,2.15,2.15,0,0,0-1-2.12,8.25,8.25,0,0,0-3.4-.49H36.91Zm0,9.77H40.6A8.29,8.29,0,0,0,44.08,47a2.2,2.2,0,0,0,1.16-2.23A2.11,2.11,0,0,0,44,42.61a10.17,10.17,0,0,0-3.9-.54H36.91Z"/><path class="cls-1" d="M63.14,32.75V52.22H57.75V32.75H50.92V28.07H70v4.64H63.14Z"/><path class="cls-1" d="M83.23,47.42a8,8,0,0,0,6.51-3.15l3.43,3.56a12.61,12.61,0,0,1-9.69,4.64A12.49,12.49,0,0,1,74.32,49a11.9,11.9,0,0,1-3.6-8.87,12.06,12.06,0,0,1,3.69-8.95,12.3,12.3,0,0,1,9-3.6,12.76,12.76,0,0,1,9.94,4.52L90,35.86a7.81,7.81,0,0,0-6.33-3.19,7.28,7.28,0,0,0-5.18,2A6.85,6.85,0,0,0,76.31,40a7.22,7.22,0,0,0,2,5.39A6.61,6.61,0,0,0,83.23,47.42Z"/><path class="cls-2" d="M105.31,33.62V52.18h-5.13V33.62H93.67V29.19h18.15v4.43Z"/><path class="cls-2" d="M123.21,44V34.49h5V52.18h-5V49.86a5.62,5.62,0,0,1-4.76,2.61,6.58,6.58,0,0,1-6.88-7.25V34.49h5v9.65c0,2.74,1,4.06,3,4.06a3.6,3.6,0,0,0,2.57-1.07A3.93,3.93,0,0,0,123.21,44Z"/><path class="cls-2" d="M140.53,38.84a3.73,3.73,0,0,0-3.27,1.57,7.21,7.21,0,0,0-1.08,4.15v7.66h-4.93V34.49h4.93v2.32a8.31,8.31,0,0,1,2.4-1.82,6.2,6.2,0,0,1,2.9-.79l0,4.64Z"/><path class="cls-2" d="M148,52.18H143.1V27.78H148V40.33l5.51-5.84h6.21L153,41.62l7,10.56h-5.84l-4.52-6.79L148,47Z"/><path class="cls-3" d="M24.07,27.53h-8v3.4h1.58L3.48,47.33,0,51.31a1.47,1.47,0,0,0,.75,1L4.85,49,22,35.4v1.29h3.48V28.9A1.38,1.38,0,0,0,24.07,27.53Z"/><path class="cls-2" d="M3.48,46.5V32.29a1.38,1.38,0,0,1,1.37-1.36H15.54v-3.4H1.37A1.38,1.38,0,0,0,0,28.9V50.52Z"/><path class="cls-2" d="M22,37.22V47.71a1.38,1.38,0,0,1-1.37,1.36H5.72l-4.31,3.4H24.07a1.41,1.41,0,0,0,1.41-1.37V37.22Z"/></g></svg>