<svg id="Calque_1" data-name="Calque 1" xmlns="http://www.w3.org/2000/svg" viewBox="0 0 160 80"><defs><style>.cls-1{fill:#4f90ff;}.cls-2{fill:#210e4a;}</style></defs><title>buda</title><g id="buda"><path id="Fill-1" class="cls-1" d="M19.11,45.34l-5.29,2.92a.39.39,0,0,1-.39,0L6.89,44.68A.79.79,0,0,1,6.48,44V37.16a.77.77,0,0,1,.42-.69l3.32-1.77a1,1,0,0,1,1.47.88v4.33l7.42,4a.79.79,0,0,1,0,1.39m7.91-5-9.15-5s0,0,0,0V24.85a.8.8,0,0,0-1.16-.71L.88,32.06A1.59,1.59,0,0,0,0,33.48V47.82a.81.81,0,0,0,.4.69l12.79,7.23a1.61,1.61,0,0,0,1.55,0L27,49.1a1.58,1.58,0,0,0,.84-1.39V41.78A1.59,1.59,0,0,0,27,40.39"/><path id="Fill-4" class="cls-2" d="M138.38,37.72c0,.42,0,.85,0,1.3V49.84h2.72V40c0-.35,0-.72,0-1.1s0-.69,0-1a7.77,7.77,0,0,1,1.52-.43,8.56,8.56,0,0,1,1.59-.16,5,5,0,0,1,2.22.39,2.06,2.06,0,0,1,1.06,1.2,5.84,5.84,0,0,1,.3,2v9h2.69v-9.3c0-.44,0-.87-.07-1.29a6.54,6.54,0,0,0-.23-1.2,9,9,0,0,1,1.82-.6,8.12,8.12,0,0,1,1.66-.19,5,5,0,0,1,2.22.39,2,2,0,0,1,1.09,1.2,5.45,5.45,0,0,1,.27,2v9H160v-9.3a7.69,7.69,0,0,0-.37-2.65A3.51,3.51,0,0,0,158,36a7.37,7.37,0,0,0-3.58-.73,17.19,17.19,0,0,0-2.92.3,12.87,12.87,0,0,0-2.55.76,4.21,4.21,0,0,0-1.59-.76,8.45,8.45,0,0,0-2.42-.3,20.34,20.34,0,0,0-3.48.36,16.83,16.83,0,0,0-3.05.87c0,.42,0,.84-.07,1.26m-6.16,4.92a11.15,11.15,0,0,1-.37,3.22,2.8,2.8,0,0,1-1.32,1.66A5.25,5.25,0,0,1,128,48a5.44,5.44,0,0,1-2.56-.43,2.66,2.66,0,0,1-1.32-1.62,10.07,10.07,0,0,1-.37-3.29,10,10,0,0,1,.37-3.29,2.66,2.66,0,0,1,1.32-1.66,6.15,6.15,0,0,1,2.56-.43,5.48,5.48,0,0,1,2.55.49,2.68,2.68,0,0,1,1.32,1.66,11,11,0,0,1,.37,3.23m2.05-4.29A4.59,4.59,0,0,0,132.05,36a9.44,9.44,0,0,0-4.07-.73,9.75,9.75,0,0,0-4.12.73,4.32,4.32,0,0,0-2.18,2.36,11,11,0,0,0-.7,4.32,11.12,11.12,0,0,0,.7,4.31,4.29,4.29,0,0,0,2.18,2.36A9.75,9.75,0,0,0,128,50a9.12,9.12,0,0,0,4.07-.76,4.59,4.59,0,0,0,2.22-2.39,11.26,11.26,0,0,0,.67-4.25,11.56,11.56,0,0,0-.67-4.29m-15.58-.8.2-1.86q-.77-.19-1.65-.33a14.72,14.72,0,0,0-2.09-.13,9,9,0,0,0-4.31.83,4.27,4.27,0,0,0-2.09,2.46,12.25,12.25,0,0,0-.5,3.95,13.42,13.42,0,0,0,.43,3.75A5,5,0,0,0,110.51,49,6.29,6.29,0,0,0,114.45,50a20,20,0,0,0,2.42-.13c.73-.09,1.41-.2,2.06-.33l-.24-2c-.42.09-.86.17-1.32.23a10.94,10.94,0,0,1-4.15-.23,3,3,0,0,1-1.49-1,3.8,3.8,0,0,1-.63-1.73,15.9,15.9,0,0,1-.1-2.39,11.75,11.75,0,0,1,.27-3.06,2.6,2.6,0,0,1,1.42-1.66,8.1,8.1,0,0,1,3.32-.46,12.94,12.94,0,0,1,1.39.07l1.29.19m-13.42,9.57a1.67,1.67,0,0,0-3,1.3,1.9,1.9,0,0,0,.33,1.26A1.87,1.87,0,0,0,104,50a1.84,1.84,0,0,0,1.29-.36,1.77,1.77,0,0,0,.33-1.3,1.69,1.69,0,0,0-.33-1.26"/><path id="Fill-7" class="cls-2" d="M95.19,42.84V45q0,.47,0,1c0,.33,0,.65-.07,1a5.3,5.3,0,0,1-1.39.3,7.4,7.4,0,0,1-1.39.07,3.82,3.82,0,0,1-2-.37,1.68,1.68,0,0,1-.7-1.56,2.38,2.38,0,0,1,.43-1.56,2.68,2.68,0,0,1,1.49-.63,13.64,13.64,0,0,1,1.79-.23c.65,0,1.26-.08,1.86-.1m3.85-3a4.53,4.53,0,0,0-.9-2.89,4.62,4.62,0,0,0-2.32-1.4,13.53,13.53,0,0,0-3.25-.36c-1.17,0-2.27.09-3.31.2s-2,.23-2.85.36l.33,2.66c.79-.09,1.68-.16,2.65-.23s1.93-.13,2.88-.13a3.48,3.48,0,0,1,2.22.56,2.27,2.27,0,0,1,.7,1.83c-.86,0-1.71.06-2.55.13s-1.67.12-2.49.23a5.57,5.57,0,0,0-3.38,1.53,4.24,4.24,0,0,0-1,3.06,4.09,4.09,0,0,0,1.39,3.45c1,.78,2.51,1.16,4.67,1.16a21.21,21.21,0,0,0,3.91-.33,10,10,0,0,0,3.15-1c0-.44.08-.88.1-1.33s0-.9,0-1.39V39.88M78.12,38.15c.4.07.76.15,1.09.23v7.51a8.55,8.55,0,0,1-.1.93,4.89,4.89,0,0,1-1.12.3,8.6,8.6,0,0,1-1.33.1,3.77,3.77,0,0,1-2.39-.66,3,3,0,0,1-1-1.7,9.88,9.88,0,0,1-.16-2.22,10.72,10.72,0,0,1,.16-2.36,2.56,2.56,0,0,1,1-1.63A4.88,4.88,0,0,1,77,38.09c.33,0,.69,0,1.09.06m5-8.3h-4v5.68a14.08,14.08,0,0,0-1.49-.2,11.62,11.62,0,0,0-1.52-.1,10.27,10.27,0,0,0-4,.66,4.8,4.8,0,0,0-2.29,2.33,11.1,11.1,0,0,0-.73,4.42A10.66,10.66,0,0,0,70,47.05a4.7,4.7,0,0,0,2.42,2.33,11.73,11.73,0,0,0,4.28.66A17.38,17.38,0,0,0,80,49.71a10.16,10.16,0,0,0,3-1c0-.44.07-.88.09-1.33s0-.9,0-1.39V29.85m-38,8.8a2.53,2.53,0,0,1,1,1.63,11.32,11.32,0,0,1,.17,2.36,10.48,10.48,0,0,1-.17,2.22,2.91,2.91,0,0,1-1,1.7,3.75,3.75,0,0,1-2.39.66,9.18,9.18,0,0,1-1.36-.1,4.35,4.35,0,0,1-1.09-.3,8.55,8.55,0,0,1-.1-.93V38.38c.31-.08.67-.16,1.09-.23s.77-.06,1.1-.06a4.86,4.86,0,0,1,2.68.56m-8.78,8.7c0,.45,0,.89.1,1.33a10,10,0,0,0,3,1,17.2,17.2,0,0,0,3.31.33,11.73,11.73,0,0,0,4.28-.66,4.7,4.7,0,0,0,2.42-2.33,10.5,10.5,0,0,0,.76-4.41,10.93,10.93,0,0,0-.73-4.42,4.8,4.8,0,0,0-2.29-2.33,10.25,10.25,0,0,0-4-.66,11.23,11.23,0,0,0-1.53.1,12.8,12.8,0,0,0-1.49.2V29.85H36.38V46c0,.49,0,.95,0,1.39m30,0c0-.44,0-.9,0-1.39V35.43H62.54v9.4c0,.33,0,.66,0,1s0,.65-.07,1a5.74,5.74,0,0,1-1.13.26,7.84,7.84,0,0,1-1.29.1,5.29,5.29,0,0,1-2-.29,1.49,1.49,0,0,1-.89-.93,4.16,4.16,0,0,1-.2-1.63V35.43H53V44.6a11.33,11.33,0,0,0,.2,2.16A3.64,3.64,0,0,0,54,48.48a4,4,0,0,0,1.89,1.13,11.81,11.81,0,0,0,3.35.43,21.5,21.5,0,0,0,3.88-.33,11.76,11.76,0,0,0,3.18-1c0-.44.08-.88.1-1.33"/></g></svg>