<svg id="Calque_1" data-name="Calque 1" xmlns="http://www.w3.org/2000/svg" viewBox="0 0 160 80"><defs><style>.cls-1{fill:#2e51a1;}.cls-2{fill:#3b6bb4;}</style></defs><title>bxinth</title><g id="bxinth"><path class="cls-1" d="M27.23,25.73v1.34h10.2a17,17,0,0,1,12.32,5,16.32,16.32,0,0,1,5.14,12.15,16.46,16.46,0,0,1-5.16,12.2,17,17,0,0,1-12.3,5.06,16.93,16.93,0,0,1-12.29-5.06A16.48,16.48,0,0,1,20,44.23V18.5a7.27,7.27,0,0,1,7.23,7.23Zm20.35,18.5a10.06,10.06,0,0,0-2.95-7.29,9.71,9.71,0,0,0-7.23-3H27.23V44.23a10.23,10.23,0,0,0,2.95,7.34,10,10,0,0,0,14.45,0A10.27,10.27,0,0,0,47.58,44.23Z"/><path class="cls-1" d="M92.45,61.49H85.23V57.61a10.2,10.2,0,0,0-3-7.31,10,10,0,0,0-14.42,0,10.18,10.18,0,0,0-3,7.33v3.88H57.65V57.61a16.67,16.67,0,0,1,1.87-7.76,17.09,17.09,0,0,1,5.22-6.09,17.29,17.29,0,0,1-5.22-6.07A16.56,16.56,0,0,1,57.65,30V27.58h7.22V30a10.18,10.18,0,0,0,3,7.33,10,10,0,0,0,14.42,0,10.2,10.2,0,0,0,3-7.31V27.58h7.22V30a16.68,16.68,0,0,1-1.86,7.74,17.51,17.51,0,0,1-5.19,6.07,17.29,17.29,0,0,1,5.19,6.11,16.86,16.86,0,0,1,1.86,7.74Z"/><path class="cls-2" d="M37.43,27.07H27.23V25.73A7.27,7.27,0,0,0,20,18.5V44.23c0,.28,0,.55,0,.82a31.62,31.62,0,0,0,8.19,3.71,10.34,10.34,0,0,1-1-4.53V33.91H37.4a9.71,9.71,0,0,1,7.23,3,10.1,10.1,0,0,1,2.95,7.29,10.44,10.44,0,0,1-.94,4.41,31.91,31.91,0,0,0,8.23-3.9c0-.17,0-.34,0-.51a16.32,16.32,0,0,0-5.14-12.15A17,17,0,0,0,37.43,27.07Z"/><path class="cls-2" d="M64.87,30V27.58H57.65V30a16.56,16.56,0,0,0,1.87,7.74,16,16,0,0,0,1.25,2,32.41,32.41,0,0,0,4.62-6.45A10.64,10.64,0,0,1,64.87,30Z"/><path class="cls-1" d="M96.78,61.49a2.2,2.2,0,0,1-2.18-2.18v-.75a2.19,2.19,0,0,1,2.18,2.19Z"/><path class="cls-1" d="M100,61.49a2.19,2.19,0,0,1-2.18-2.18v-8.2a2.05,2.05,0,0,1,1.53.64,2.1,2.1,0,0,1,.65,1.54Z"/><path class="cls-1" d="M109.42,56.32a3.07,3.07,0,0,0-.89-2.21,3,3,0,0,0-4.35,0,3.07,3.07,0,0,0-.89,2.22v3a2.2,2.2,0,0,1-2.18,2.18V56.32a5,5,0,0,1,1.54-3.68,5.25,5.25,0,0,1,7.41,0,5,5,0,0,1,1.55,3.68v5.17a2.19,2.19,0,0,1-2.18-2.18v-3Z"/><path class="cls-1" d="M114.8,61.49a2.19,2.19,0,0,1-2.18-2.18v-.75a2.2,2.2,0,0,1,2.18,2.19Z"/><path class="cls-1" d="M115.86,48.53A2.19,2.19,0,0,1,118,50.71v5.61a3.07,3.07,0,0,0,.89,2.2,2.91,2.91,0,0,0,2.18.91h1a2,2,0,0,1,1.46.61,2,2,0,0,1,.61,1.46H121.1A5.14,5.14,0,0,1,117.4,60a5,5,0,0,1-1.54-3.67V48.53Zm3.79,4.83a1,1,0,0,0-.31.74,1,1,0,0,0,1,1h.47a2,2,0,0,0,1.46-.6,2,2,0,0,0,.61-1.46h-2.54A1,1,0,0,0,119.65,53.36Z"/><path class="cls-1" d="M129.75,51.11a5.07,5.07,0,0,1,3.7,1.53A5,5,0,0,1,135,56.32v5.17a2.05,2.05,0,0,1-1.53-.64,2.1,2.1,0,0,1-.65-1.53v-3a3.07,3.07,0,0,0-.89-2.21,3,3,0,0,0-4.35,0,3.07,3.07,0,0,0-.89,2.22v3a2.2,2.2,0,0,1-2.19,2.18v-13a2.2,2.2,0,0,1,2.19,2.18v1.35A4.37,4.37,0,0,1,129.75,51.11Z"/><polygon class="cls-1" points="105.2 48.81 102.7 45.33 98.32 48.78 91.93 41.52 93.55 40.09 98.59 45.82 103.14 42.23 105.5 45.52 118.69 32.87 124.33 42.27 138.41 27.11 140 28.59 123.95 45.84 118.23 36.31 105.2 48.81"/></g></svg>