<svg id="Calque_1" data-name="Calque 1" xmlns="http://www.w3.org/2000/svg" xmlns:xlink="http://www.w3.org/1999/xlink" viewBox="0 0 160 80"><defs><style>.cls-1,.cls-2,.cls-3,.cls-4,.cls-5{stroke:#000;stroke-width:0.28px;}.cls-1,.cls-3,.cls-4,.cls-5{stroke-linecap:round;stroke-linejoin:round;}.cls-1{fill:url(#Dégradé_sans_nom_4);}.cls-2{fill:url(#Dégradé_sans_nom_6);}.cls-3{fill:url(#Dégradé_sans_nom_4-2);}.cls-4{fill:url(#Dégradé_sans_nom_4-3);}.cls-5{fill:url(#Dégradé_sans_nom_5);}</style><linearGradient id="Dégradé_sans_nom_4" x1="186.61" y1="754.18" x2="215.92" y2="754.18" gradientTransform="matrix(1, 0, 0, -1, -151.67, 794.41)" gradientUnits="userSpaceOnUse"><stop offset="0.41"/><stop offset="1" stop-color="#919396"/></linearGradient><linearGradient id="Dégradé_sans_nom_6" x1="217.04" y1="754.41" x2="246.24" y2="754.41" gradientTransform="matrix(1, 0, 0, -1, -151.67, 794.41)" gradientUnits="userSpaceOnUse"><stop offset="0.41" stop-color="#0072bc"/><stop offset="1" stop-color="#c7eafb"/></linearGradient><linearGradient id="Dégradé_sans_nom_4-2" x1="249.07" y1="754.28" x2="260.04" y2="754.28" xlink:href="#Dégradé_sans_nom_4"/><linearGradient id="Dégradé_sans_nom_4-3" x1="258.9" y1="754.28" x2="276.72" y2="754.28" xlink:href="#Dégradé_sans_nom_4"/><linearGradient id="Dégradé_sans_nom_5" x1="85.02" y1="1167.11" x2="72.85" y2="1167.11" gradientTransform="matrix(1, 0, 0, -1, -14.86, 1207.19)" gradientUnits="userSpaceOnUse"><stop offset="0" stop-color="#fff"/><stop offset="1"/></linearGradient></defs><title>ccex</title><g id="ccex"><path class="cls-1" d="M61,49.75a12.7,12.7,0,1,1,0-19A17.49,17.49,0,0,1,64.2,27a17.61,17.61,0,1,0,0,26.47A17.49,17.49,0,0,1,61,49.75Z"/><path class="cls-2" d="M91.37,49.53a12.7,12.7,0,1,1,0-19.06,17.73,17.73,0,0,1,3.2-3.71A17.6,17.6,0,0,0,88,23.12V20.2H84.59v2.27c-.53,0-1.07-.08-1.61-.08s-1.07,0-1.6.08V20.2H78v2.92a17.61,17.61,0,0,0,0,33.76V59.8h3.4V57.53c.53,0,1.06.08,1.6.08s1.08,0,1.61-.08V59.8H88V56.88a17.6,17.6,0,0,0,6.59-3.64A17.73,17.73,0,0,1,91.37,49.53Z"/><polygon class="cls-3" points="97.46 30.16 108.32 30.16 108.32 33.84 101.21 33.84 101.21 38.24 106.13 38.24 106.13 41.92 101.21 41.92 101.21 46.38 108.32 46.38 108.32 50.09 97.46 50.09 97.46 30.16"/><polygon class="cls-4" points="107.67 30.16 111.97 30.16 116.15 36.56 120.35 30.16 124.65 30.16 118.3 39.85 125 50.09 120.7 50.09 116.15 43.14 111.6 50.09 107.29 50.09 114 39.85 107.67 30.16"/><rect class="cls-5" x="58.38" y="38.24" width="4.52" height="3.68"/></g></svg>