<svg id="Calque_1" data-name="Calque 1" xmlns="http://www.w3.org/2000/svg" viewBox="0 0 160 80"><defs><style>.cls-1{fill:#69581e;}.cls-2{fill:#d7a938;}.cls-3{fill:none;stroke:#000;stroke-miterlimit:10;stroke-width:1.12px;}.cls-4{fill:#9f8129;}</style></defs><title>ccrb</title><g id="ccrb"><path class="cls-1" d="M80,46.09a6.6,6.6,0,0,0,5.43-2.62l2.87,3a10.83,10.83,0,0,1-15.71,1,9.91,9.91,0,0,1-3-7.4,9.85,9.85,0,0,1,3.08-7.45,10.3,10.3,0,0,1,7.5-3,10.61,10.61,0,0,1,8.3,3.77l-2.82,3.18a6.51,6.51,0,0,0-5.28-2.67,6.12,6.12,0,0,0-4.33,1.66A5.73,5.73,0,0,0,74.24,40,6.11,6.11,0,0,0,76,44.48,5.67,5.67,0,0,0,80,46.09Z"/><path class="cls-2" d="M101.12,46.09a6.62,6.62,0,0,0,5.44-2.62l2.86,3a10.82,10.82,0,0,1-15.7,1,9.88,9.88,0,0,1-3-7.4,9.84,9.84,0,0,1,3.07-7.45,10.3,10.3,0,0,1,7.5-3,10.64,10.64,0,0,1,8.31,3.77l-2.82,3.18a6.51,6.51,0,0,0-5.29-2.67,6.12,6.12,0,0,0-4.33,1.66A5.73,5.73,0,0,0,95.33,40,6.11,6.11,0,0,0,97,44.48a5.7,5.7,0,0,0,4.08,1.61Zm28.19-9.46c0,3.22-1.26,5.28-3.83,6.24l5.09,7.2H125l-4.48-6.45h-3.12v6.45H113V29.93h7.65c3.12,0,5.39.51,6.7,1.56A6.41,6.41,0,0,1,129.31,36.63ZM123.87,39a3.05,3.05,0,0,0,.86-2.36,2.54,2.54,0,0,0-.86-2.22,5.44,5.44,0,0,0-3-.6h-3.37V39.8h3.27A4.73,4.73,0,0,0,123.87,39Zm18.83,11h-8.81V29.93h7.85a10.47,10.47,0,0,1,3.53.51,4.72,4.72,0,0,1,2.21,1.3,5.25,5.25,0,0,1,1.36,3.53,4.14,4.14,0,0,1-1.51,3.52c-.35.25-.6.45-.7.51s-.36.2-.71.35a4.93,4.93,0,0,1,3,1.66A4.57,4.57,0,0,1,150,44.48a5.52,5.52,0,0,1-1.46,3.73c-1.11,1.25-3.07,1.86-5.84,1.86Zm-4.33-12h2.12a7.23,7.23,0,0,0,2.76-.41,1.69,1.69,0,0,0,.91-1.76,1.79,1.79,0,0,0-.86-1.76,6.37,6.37,0,0,0-2.81-.45h-2.17v4.38Zm0,8.2h3.07a7.23,7.23,0,0,0,2.92-.45,1.85,1.85,0,0,0,1-1.86,1.89,1.89,0,0,0-1-1.87,8.72,8.72,0,0,0-3.27-.45h-2.67Z"/><path class="cls-3" d="M33.21,25.75l-2.57,1.46Z"/><path class="cls-1" d="M45.49,32.85l-12.28-7.1v2.92L43,34.31l2.57,1.51V32.9Z"/><path class="cls-4" d="M23.39,31.39l-2.47,1.46h-.05V47l2.52-1.46V34.26l9.82-5.59V25.75Z"/><path class="cls-1" d="M20.87,47V32.85l-2.51-1.46V48.61h.05l15.1,8.61v-3"/><path class="cls-4" d="M33.51,54.25v3l14.55-8.51V45.79Z"/><path class="cls-2" d="M46.9,45.24l-1.21-.56-12.08,6.7L23.39,45.49,20.87,47l2.52,1.46,10.12,5.84,14.55-8.46ZM45.54,29.93l-12.33-7.1L18.36,31.39l2.51,1.46,12.34-7.1,12.28,7.1h0l2.52-1.46Z"/><path class="cls-4" d="M45.54,32.85l2.52-1.46v3l-2.52,1.46Z"/><path class="cls-2" d="M52.54,24.24,33.16,13.07,10,26.46l4,2.31L33.21,17.7,52.49,28.82l0-.05,3.93-2.26Z"/><path class="cls-1" d="M52.49,28.82V51.18L33.21,62.35,14,51.23V28.77l-4-2.31V53.54L33.16,66.93,52.54,55.76l3.93-2.27v-27Z"/></g></svg>