<svg id="Calque_1" data-name="Calque 1" xmlns="http://www.w3.org/2000/svg" xmlns:xlink="http://www.w3.org/1999/xlink" viewBox="0 0 160 80"><defs><style>.cls-1{fill:#0a5b83;}.cls-2{fill:#005a85;}.cls-3{fill:url(#Dégradé_sans_nom_2);}.cls-4{fill:url(#Dégradé_sans_nom_2-2);}.cls-5{fill:url(#Dégradé_sans_nom_2-3);}</style><linearGradient id="Dégradé_sans_nom_2" x1="-151.04" y1="750.25" x2="-144.39" y2="750.74" gradientTransform="matrix(2.33, 0, 0, -31.41, 449.57, 23610.04)" gradientUnits="userSpaceOnUse"><stop offset="0" stop-color="#20bcc5"/><stop offset="1" stop-color="#00b69f"/></linearGradient><linearGradient id="Dégradé_sans_nom_2-2" x1="-260.01" y1="749.53" x2="-259.34" y2="750.18" gradientTransform="matrix(31.65, 0, 0, -32.44, 8345.07, 24367.56)" xlink:href="#Dégradé_sans_nom_2"/><linearGradient id="Dégradé_sans_nom_2-3" x1="-186.83" y1="912.83" x2="-186.18" y2="913.48" gradientTransform="matrix(3.44, 0, 0, -3.44, 737.94, 3179.41)" xlink:href="#Dégradé_sans_nom_2"/></defs><title>cexio</title><g id="cexio"><g id="cex"><g id="Layer_1" data-name="Layer 1"><g id="Group"><path id="Shape" class="cls-1" d="M45.3,50.42a14.82,14.82,0,0,1-10.49,4.32C25.1,54.74,20,48,20,40.16s4.94-14.9,14.81-14.9A14.82,14.82,0,0,1,45.3,29.58L43.78,30.9a12.61,12.61,0,0,0-9-3.67c-8.39,0-12.71,5.93-12.67,12.85.08,6.75,4.36,12.6,12.67,12.6a12.91,12.91,0,0,0,9-3.66l1.48,1.4Z"/><polygon id="Shape-2" data-name="Shape" class="cls-2" points="51.01 38.92 67.88 38.92 67.88 40.95 51.01 40.95 51.01 52.24 69.2 52.24 69.2 54.38 48.77 54.38 48.77 25.59 69.61 25.59 69.61 27.73 51.01 27.73 51.01 38.92"/><polygon id="Shape-3" data-name="Shape" class="cls-1" points="91.85 25.59 94.2 25.59 94.2 25.65 84.43 39.61 95.02 54.35 95.02 54.38 92.38 54.38 83.08 41.2 73.78 54.38 71.13 54.38 71.13 54.35 81.72 39.61 71.95 25.65 71.95 25.59 74.36 25.59 83.08 37.9 91.85 25.59"/><polygon id="Shape-4" data-name="Shape" class="cls-3" points="104.77 54.41 104.77 25.59 106.91 25.59 106.91 54.38 104.77 54.38 104.77 54.41"/><path id="Shape-5" data-name="Shape" class="cls-4" d="M140,40c0,7.58-4.86,14.86-14.52,14.86S111,47.56,111,39.94s4.81-14.82,14.52-14.82S140,32.24,140,40Zm-26.86,0c0,6.5,4.15,12.84,12.34,12.84S137.86,46.48,137.86,40c0-6.67-4.11-12.81-12.38-12.81s-12.39,6-12.34,12.81Z"/><circle id="Oval" class="cls-5" cx="96.73" cy="40" r="1.58"/></g></g></g></g></svg>