<svg id="Calque_1" data-name="Calque 1" xmlns="http://www.w3.org/2000/svg" viewBox="0 0 160 80"><defs><style>.cls-1{fill:#71d9c2;}.cls-2{fill:#42ccad;}.cls-3{fill:#13bf99;}</style></defs><title>cobinhood</title><g id="cobinhood"><path class="cls-1" d="M9.91,46.29H3.3L6.61,52Z"/><path class="cls-2" d="M3.3,46.29H9.91l-3.3-5.72Z"/><path class="cls-3" d="M10.9,46.87,7.6,52.59h6.6Z"/><path class="cls-1" d="M17.51,46.87,14.2,52.59h6.61Z"/><path class="cls-2" d="M14.2,52.59l3.31-5.72H10.9Z"/><path class="cls-3" d="M18.5,46.29,21.8,52l3.3-5.73Z"/><path class="cls-1" d="M21.8,40.57l3.3,5.72,3.31-5.72Z"/><path class="cls-2" d="M25.1,46.29l-3.3-5.72-3.3,5.72Z"/><path class="cls-3" d="M21.8,39.43h6.61L25.1,33.71Z"/><path class="cls-1" d="M18.5,33.71h6.6L21.8,28Z"/><path class="cls-2" d="M25.1,33.71H18.5l3.3,5.72Z"/><path class="cls-3" d="M17.51,33.13l3.3-5.72H14.2Z"/><path class="cls-1" d="M10.9,33.13l3.3-5.72H7.6Z"/><path class="cls-2" d="M14.2,27.41l-3.3,5.72h6.61Z"/><path class="cls-3" d="M9.91,33.71,6.61,28,3.3,33.71Z"/><path class="cls-1" d="M6.61,39.43,3.3,33.71,0,39.43Z"/><path class="cls-2" d="M3.3,33.71l3.31,5.72,3.3-5.72Z"/><polygon class="cls-3" points="6.61 40.57 0 40.57 3.3 46.29 6.61 40.57"/><path class="cls-3" d="M80.23,47.32H81V33.83h-.72ZM97,33.83V46.18L87.6,33.83h-.72V47.32h.72V35L97,47.32h.72V33.83Zm-43.63,0h0a6.75,6.75,0,1,0,6.74,6.74A6.75,6.75,0,0,0,53.33,33.83Zm0,12.77a6,6,0,1,1,6-6A6,6,0,0,1,53.33,46.6Zm18.43-6.24a3.55,3.55,0,0,0-1.92-6.53H63.52V47.32h7.22a3.56,3.56,0,0,0,1-7Zm-7.52-5.81h5.6a2.83,2.83,0,0,1,0,5.66h-5.6Zm6.5,12.05h-6.5V40.93h6.5a2.84,2.84,0,0,1,0,5.67Zm41.8-12.77v6.38h-9.36V33.83h-.72V47.32h.72V40.93h9.36v6.39h.72V33.83Zm40.71,0h-4V47.32h4a6.75,6.75,0,1,0,0-13.49Zm0,12.77h-3.33V34.55h3.33a6,6,0,1,1,0,12.05Zm-115.38,0a6,6,0,1,1,5.75-7.83h.75a6.75,6.75,0,1,0,0,3.6h-.75a6,6,0,0,1-5.75,4.23m85.57-12.77h0a6.75,6.75,0,1,0,6.75,6.74A6.75,6.75,0,0,0,123.44,33.83Zm0,12.77a6,6,0,1,1,6-6A6,6,0,0,1,123.44,46.6ZM139,33.83h0a6.75,6.75,0,1,0,6.75,6.74A6.75,6.75,0,0,0,139,33.83Zm0,12.77a6,6,0,1,1,6-6A6,6,0,0,1,139,46.6Z"/></g></svg>