<svg id="Calque_1" data-name="Calque 1" xmlns="http://www.w3.org/2000/svg" viewBox="0 0 160 80"><defs><style>.cls-1{fill:#0e7dff;}.cls-2{fill:#101922;}.cls-3{fill:#bcbfc3;}</style></defs><title>coinbasepro</title><g id="coinbasepro"><path class="cls-1" d="M10.74,44.92a9.65,9.65,0,0,0,1.53,2.36,8.85,8.85,0,0,1-4.32,1c-4.61,0-7.95-3-7.95-7.89a7.61,7.61,0,0,1,8-7.93,8.16,8.16,0,0,1,4.07,1A10,10,0,0,0,10.59,36a6,6,0,0,0-2.34-.44,4.59,4.59,0,0,0-4.84,4.92,4.68,4.68,0,0,0,5,4.92,6.3,6.3,0,0,0,2.35-.44ZM20,32.51a7.54,7.54,0,0,1,7.81,7.93A7.53,7.53,0,0,1,20,48.33a7.52,7.52,0,0,1-7.78-7.89A7.53,7.53,0,0,1,20,32.51Zm0,2.9c-2.53,0-4.37,2-4.37,5s1.84,5,4.37,5,4.4-2,4.4-5S22.6,35.41,20,35.41ZM30,48V32.85h3.37V48ZM29.52,28.2a2.12,2.12,0,0,1,4.23,0,2.12,2.12,0,1,1-4.23,0Zm6.77,5.61a20.2,20.2,0,0,1,6.92-1.3c3.86,0,6.31,1.47,6.31,5.74V48H46.18V38.56c0-2.19-1.36-3-3.24-3a11.38,11.38,0,0,0-3.27.45V48H36.29V33.81Zm16.06-9.06h3.38v8.51a8.2,8.2,0,0,1,3.44-.75c4.37,0,7.64,2.8,7.64,7.65S63.57,48.33,58,48.33a16.65,16.65,0,0,1-5.63-1V24.75Zm3.38,20.37a8.31,8.31,0,0,0,2.35.31c3.1,0,5.32-1.71,5.32-5.2a4.45,4.45,0,0,0-4.64-4.68,6.21,6.21,0,0,0-3,.72Zm20.84-7.28c0-1.64-1.23-2.39-2.9-2.39a8.48,8.48,0,0,0-4.37,1.23V33.74a10.08,10.08,0,0,1,4.91-1.23c3.31,0,5.66,1.36,5.66,5.16v10a22.15,22.15,0,0,1-5.18.62c-3.92,0-6.79-1.2-6.79-4.62,0-3.07,2.63-4.57,7-4.57h1.68V37.84Zm0,3.52H75.13c-2.35,0-3.89.68-3.89,2.22s1.44,2.19,3.48,2.19a12.71,12.71,0,0,0,1.85-.17V41.36Zm5.76,2.53a7.91,7.91,0,0,0,4.6,1.71c1.51,0,2.5-.51,2.5-1.71s-.89-1.68-2.84-2.19c-3.13-.72-4.46-2-4.46-4.61,0-3.08,2.32-4.58,5.39-4.58a7.82,7.82,0,0,1,4.33,1.16v3.11a7,7,0,0,0-4.23-1.54c-1.47,0-2.25.72-2.25,1.71s.64,1.5,2.38,2c3.45.75,5,2,5,4.79,0,3.18-2.42,4.61-5.7,4.61a8.79,8.79,0,0,1-4.67-1.23V43.89Zm15-2.7v.07a4.63,4.63,0,0,0,4.88,4.17A8.58,8.58,0,0,0,107.28,44v3a9.56,9.56,0,0,1-5.32,1.4c-4.71,0-7.91-3-7.91-7.79s3.13-8,7.3-8c4.39,0,6.48,2.83,6.48,7v1.71ZM104.65,39c-.06-2.36-1.22-3.66-3.41-3.66-1.94,0-3.37,1.37-3.82,3.66Z"/><path class="cls-2" d="M120.48,24.12h0a.61.61,0,0,1,.61.61V55.27a.61.61,0,0,1-.61.61h0a.61.61,0,0,1-.61-.61V24.73A.61.61,0,0,1,120.48,24.12Z"/><path class="cls-3" d="M134.59,42.36V48H133V32.86a20.46,20.46,0,0,1,2.67-.23c4.17,0,5.93,1.94,5.93,4.79,0,3.24-2.27,5-6.05,5-.28,0-.64,0-1,0Zm0-8.33v7c.28,0,.56,0,.81,0,3.13,0,4.61-1.19,4.61-3.64,0-2-1.15-3.44-4.4-3.44C135.3,34,135,34,134.59,34Zm9.86,4.72V48h-1.53V37.93a7.82,7.82,0,0,1,4.12-1.2,8.09,8.09,0,0,1,1.86.23v1.51a6.34,6.34,0,0,0-2-.28,5,5,0,0,0-2.49.56Zm4.42,3.72c0-3.44,2.26-5.81,5.56-5.81S160,39,160,42.47s-2.26,5.8-5.57,5.8S148.87,45.9,148.87,42.47Zm9.58,0c0-2.7-1.68-4.49-4-4.49s-4,1.79-4,4.49,1.68,4.48,4,4.48S158.45,45.17,158.45,42.47Z"/></g></svg>