<svg id="Calque_1" data-name="Calque 1" xmlns="http://www.w3.org/2000/svg" viewBox="0 0 160 80"><defs><style>.cls-1{fill:#4175e2;}.cls-2{fill:#2a2b30;}</style></defs><title>coinsbank</title><g id="coinsbank"><path class="cls-1" d="M10.88,46.77l2-2a5.75,5.75,0,0,0,2.74.64,5.45,5.45,0,0,0,2.66-.64l1.93,1.93,2.1-2.1-1.94-1.93A5.23,5.23,0,0,0,21.12,40a6.51,6.51,0,0,0-.73-2.74l2-2-2.1-2.09-2,2a5.45,5.45,0,0,0-2.66-.56,6.81,6.81,0,0,0-2.66.56L11,33.31l-2.17,2.1,1.85,1.85A5.62,5.62,0,0,0,10,40a5.33,5.33,0,0,0,.73,2.66l-2,2Zm4.68-9.11a2.35,2.35,0,0,1,2.33,2.42,2.34,2.34,0,1,1-4.67,0A2.36,2.36,0,0,1,15.56,37.66ZM0,24.52v31H31.19v-31ZM27.73,52.09H3.47V28H27.73Z"/><path class="cls-2" d="M132.11,44.51V35.65h-2.9V37c-.08-.41-.89-.89-1.85-1.21a8.19,8.19,0,0,0-1.94-.32,6.37,6.37,0,1,0,0,12.73,6.28,6.28,0,0,0,4.68-2,4.14,4.14,0,0,0,3.14,1.69V45.24C132.68,45.24,132.11,44.92,132.11,44.51Zm-6.77.89a3.53,3.53,0,0,1-3.55-3.55,3.58,3.58,0,0,1,3.55-3.54,3.55,3.55,0,1,1,0,7.09ZM64,35.49a6.45,6.45,0,1,0,6.61,6.44A6.45,6.45,0,0,0,64,35.49Zm0,9.83a3.34,3.34,0,0,1-3.47-3.47A3.39,3.39,0,0,1,64,38.39a3.44,3.44,0,0,1,3.47,3.46A3.39,3.39,0,0,1,64,45.32Zm8.62,2.74h3.15V35.73H72.62ZM85.36,35.49a5.15,5.15,0,0,0-3.79,1.69l-.16-1.45h-2.9V48.06h3.06v-8.3a4.21,4.21,0,0,1,3.15-1.45,2.32,2.32,0,0,1,2.49,2.5v7.33h3.07v-7.5A4.68,4.68,0,0,0,85.36,35.49ZM95.6,39.11c0-.64.8-1,1.61-1a4,4,0,0,1,2.9,1l1.29-2a7.33,7.33,0,0,0-4.19-1.53c-2.58,0-4.76,1.37-4.76,3.87,0,4.19,6.45,3.3,6.45,5.23,0,.89-1.21,1-2.17,1a3.79,3.79,0,0,1-3.15-1.29l-1.37,2.26a8.36,8.36,0,0,0,4.52,1.77c3.46.08,5.23-1.77,5.23-4C102,40.16,95.6,40.73,95.6,39.11Zm19.5-.32A4.41,4.41,0,0,0,117,35.32c0-2.9-2.1-4.75-6-4.75h-6.12V48.14h6.85c3.71,0,6-1.93,6-5A4.74,4.74,0,0,0,115.1,38.79Zm-7.25-5.4h3.06c1.86,0,2.9.81,2.9,2.1,0,1.53-1,2.33-2.9,2.33h-3.06Zm3.46,11.77h-3.46V40.48h3.22c2.42,0,3.31.89,3.31,2.34S113.33,45.16,111.31,45.16Zm30.39-9.67a5.15,5.15,0,0,0-3.79,1.69l-.16-1.45h-2.9V48.06h3.06v-8.3a4.21,4.21,0,0,1,3.15-1.45,2.33,2.33,0,0,1,2.5,2.5v7.33h3.06v-7.5A4.71,4.71,0,0,0,141.7,35.49Zm18.3.16h-3.63l-4.59,5.88V35.65h-3.15V48.14h3.15v-6l4.59,6H160l-4.84-6.37Zm-85.84-5a1.94,1.94,0,1,0,1.93,1.93A2,2,0,0,0,74.16,30.65ZM48.93,45.08a5.65,5.65,0,1,1,4.67-8.87l2.66-1.93a9.11,9.11,0,0,0-7.33-3.79,8.95,8.95,0,1,0,7.41,14L53.6,42.66A5.66,5.66,0,0,1,48.93,45.08Z"/></g></svg>