<svg id="Calque_1" data-name="Calque 1" xmlns="http://www.w3.org/2000/svg" viewBox="0 0 160 80"><defs><style>.cls-1{fill:#1ab6ff;}.cls-2{fill:#22272f;}</style></defs><title>coinfalcon</title><g id="coinfalcon"><path class="cls-1" d="M43.93,30.6,37.35,40,26.6,43.49l3.22,3.09L21.9,49.4l-7.79-2.82,3.22-3.09L6.58,40,0,30.6H11.55L22,43,32.38,30.6ZM24.85,37.85l-3,3.49-3-3.49Z"/><path class="cls-2" d="M54.81,45.51a5.93,5.93,0,0,1-6-6h0a6,6,0,0,1,6-6.18,5.63,5.63,0,0,1,5,2.42l-2.42,1.88a3.25,3.25,0,0,0-2.55-1.34A2.9,2.9,0,0,0,52,39.33h0a2.91,2.91,0,0,0,2.82,3.09,3.28,3.28,0,0,0,2.69-1.48l2.42,1.75A5.73,5.73,0,0,1,54.81,45.51Zm11.82,0a6.09,6.09,0,0,1-6.31-6h0a6.32,6.32,0,0,1,12.63,0h0A6.26,6.26,0,0,1,66.63,45.51Zm0-3a3,3,0,0,0,3-3.09h0a3,3,0,0,0-3-3.22,3,3,0,0,0-2.95,3.09h0A3,3,0,0,0,66.63,42.55Zm7.66,2.69V33.55h3.22V45.24Zm5.11,0V33.55h3.09l4.83,6.18V33.55h3.23V45.24H87.72l-5-6.45v6.45Zm12.76,0V33.55h9.4v2.82H95.38v2h5.51v2.68H95.38v4.17Zm8.33,0,5-11.82h3.09l5,11.82H110l-.81-2.15h-4.43L104,45.24Zm5.24-4.7h2.68l-1.34-3.36Zm8.73,4.7V33.55h3.22v8.87h5.64v2.82Zm14.91.27a5.94,5.94,0,0,1-6.05-6h0a6.08,6.08,0,0,1,6.18-6.18,5.66,5.66,0,0,1,5,2.42l-2.42,1.88a3.26,3.26,0,0,0-2.56-1.34,2.9,2.9,0,0,0-2.82,3.09h0a2.91,2.91,0,0,0,2.82,3.09,3.27,3.27,0,0,0,2.69-1.48l2.42,1.75A6.12,6.12,0,0,1,129.37,45.51Zm11.82,0a6.09,6.09,0,0,1-6.31-6h0a6.32,6.32,0,0,1,12.63,0h0A6.17,6.17,0,0,1,141.19,45.51Zm0-3a3,3,0,0,0,3-3.09h0a3,3,0,0,0-3-3.22,3,3,0,0,0-2.95,3.09h0A3,3,0,0,0,141.19,42.55Zm7.66,2.69V33.55h3.09l4.84,6.18V33.55H160V45.24h-2.82l-5-6.45v6.45Z"/></g></svg>