<svg id="Calque_1" data-name="Calque 1" xmlns="http://www.w3.org/2000/svg" viewBox="0 0 160 80"><title>coinswitch</title><g id="coinswitch"><path d="M0,40.26v0A8.44,8.44,0,0,1,8.42,31.5a8.67,8.67,0,0,1,6.5,2.67l-1.29,1.4A7.18,7.18,0,0,0,8.4,33.26c-3.69,0-6.45,3-6.45,6.91v0c0,3.9,2.79,7,6.45,7a7.22,7.22,0,0,0,5.38-2.43L15,46a8.62,8.62,0,0,1-6.66,3A8.36,8.36,0,0,1,0,40.27Zm38.22,8.38V31.79H40.1V48.64ZM45,31.79h1.76L57.23,45.3V31.79h1.83V48.64h-1.5L46.8,34.82V48.64H45V31.79Zm32.7,0H81.6L85.05,43.2l3.73-11.46h3.14L95.66,43.2l3.45-11.41h3.83l-5.69,17H94.06l-3.76-11-3.75,11H83.36l-5.69-17Zm28.15,16.85V31.79h3.66V48.64Zm11.71-13.43h-5.07V31.79h13.8v3.42h-5.07V48.64h-3.66V35.21ZM32.12,40.27v-.05a6.67,6.67,0,0,0-6.57-7A6.59,6.59,0,0,0,19,40.17v0a6.66,6.66,0,0,0,6.57,7,6.58,6.58,0,0,0,6.52-6.9m-15,0v-.05a8.5,8.5,0,1,1,17,0v0a8.5,8.5,0,1,1-17,.05Zm110.53,0v-.05a9,9,0,0,1,15.26-6.12l-2.33,2.72a6.13,6.13,0,0,0-4.26-1.9,5,5,0,0,0-4.83,5.25v0c0,2.89,2,5.29,4.83,5.29a6,6,0,0,0,4.37-2L143,45.92a8.76,8.76,0,0,1-15.37-5.65Zm18.3-8.48h3.67v6.67h6.75V31.79H160V48.64h-3.67V41.88h-6.75v6.76h-3.67ZM67.05,47.35l0,0a1.44,1.44,0,0,1-.31.19h0a2,2,0,0,1-.73.22h0l-.2,0h0a2.14,2.14,0,0,1,0-4.27h0a2.11,2.11,0,0,1,2.05,2c0,.05,0,.09,0,.13a1.84,1.84,0,0,1,0,.41,1,1,0,0,1,0,.16,1.87,1.87,0,0,1-.07.22c0,.07-.07.14-.1.2l-.08.13a2,2,0,0,1-.17.23l-.06.07a1.79,1.79,0,0,1-.25.22Zm4-13.38a2.1,2.1,0,0,1,0-.36,1.57,1.57,0,0,1,0-.37.36.36,0,0,1,0-.1,1.71,1.71,0,0,1,.09-.3l.06-.12a1.28,1.28,0,0,1,.11-.2l.1-.15.08-.09a1.53,1.53,0,0,1,.29-.28l0,0,.21-.14a2.1,2.1,0,0,1,1.06-.29h0a2.13,2.13,0,0,1,0,4.26h0a2.11,2.11,0,0,1-2-1.51,2.82,2.82,0,0,1-.07-.31Zm-.19,4.28c3.36,1,5.23,2.23,5.18,5.16v.05A4.74,4.74,0,0,1,73.12,48h0c-1.35.77-4.59.86-6.29.86a3.36,3.36,0,0,0,2.23-3.09v-.2a10.19,10.19,0,0,0,2.05-.37h0a1.51,1.51,0,0,0,1.27-1.4v0c0-.94-.54-1.43-3.31-2.21-3.34-.93-5.49-1.92-5.42-5.26v0a4.72,4.72,0,0,1,2.7-4.28h0a10,10,0,0,1,4.71-.82,3.36,3.36,0,0,0-1.23,2.52,3.54,3.54,0,0,0,.07.73,6.34,6.34,0,0,0-1.71.4,1.32,1.32,0,0,0-.88,1.2v0c0,1.11.68,1.49,3.55,2.29Z"/></g></svg>