<svg id="Calque_1" data-name="Calque 1" xmlns="http://www.w3.org/2000/svg" viewBox="0 0 160 80"><title>coinroom</title><g id="coinroom"><circle cx="95.17" cy="40" r="10.43"/><path d="M27.22,29.57A10.43,10.43,0,1,0,37.65,40,10.42,10.42,0,0,0,27.22,29.57Zm0,16.59A6.16,6.16,0,1,1,33.39,40,6.17,6.17,0,0,1,27.22,46.16Z"/><path d="M14.45,44.67a6.16,6.16,0,1,1,0-9.34,13.49,13.49,0,0,1,2.11-3.76,10.43,10.43,0,1,0,0,16.86A13.49,13.49,0,0,1,14.45,44.67Z"/><path d="M114.13,29.57a10.37,10.37,0,0,0-7.44,3.13,13.79,13.79,0,0,1,0,14.6,10.43,10.43,0,1,0,7.44-17.73Z"/><path d="M81,29.65c-5.86,0-8.86,3.18-8.86,7.71v.08h0V50.09h4.64V38.25h0a4.22,4.22,0,0,1,4.55-4.49A5.64,5.64,0,0,1,83,34h0a10.16,10.16,0,0,1,2.47-3.53A11.47,11.47,0,0,0,81,29.65Z"/><path d="M68.43,37.64c0-4.15-3.17-8-9.74-8s-9.74,4-9.74,8c0,0,0,.06,0,.09h0V50.09h4.27v-11c0-1.81.9-5.34,5.34-5.34,4.86,0,5.34,3.45,5.34,5.34v5.24h0v5.72h4.51V37.83h0C68.42,37.77,68.43,37.7,68.43,37.64Z"/><path d="M160,37.64c0-5.4-3.18-8-8.73-8a8.48,8.48,0,0,0-7.37,3.51c-1.4-2-3.88-3.51-7.49-3.51-6.25,0-8.87,3.44-8.87,8,0,0,0,.06,0,.09h0V50.09h4.56v-11c0-2,.37-5.34,4.53-5.34s4.86,2.83,4.86,5.34v11h4.59V39.28c0-.05,0-.1,0-.15,0-2.51,1-5.34,5-5.34s4.45,3.36,4.45,5.34v11H160V37.73h0Z"/><rect x="40.66" y="29.65" width="4.3" height="20.44"/></g></svg>