<svg id="Calque_1" data-name="Calque 1" xmlns="http://www.w3.org/2000/svg" xmlns:xlink="http://www.w3.org/1999/xlink" viewBox="0 0 160 80"><defs><style>.cls-1{fill:url(#Dégradé_sans_nom_30);}.cls-2{fill:#04558a;}</style><linearGradient id="Dégradé_sans_nom_30" x1="33.11" y1="63.12" x2="33.11" y2="16.88" gradientUnits="userSpaceOnUse"><stop offset="0" stop-color="#04558a"/><stop offset="1" stop-color="#0470a8"/></linearGradient></defs><title>coinut</title><g id="coinut"><path class="cls-1" d="M55,50.13,25.74,62.94A2.11,2.11,0,0,1,23,61.87L10.18,32.62a2.09,2.09,0,0,1,1.07-2.76l29.23-12.8a2.11,2.11,0,0,1,2.77,1.07L56.06,47.36A2.12,2.12,0,0,1,55,50.13ZM33.33,46.54a6.18,6.18,0,0,1-6.18-6.18V38.3a6.18,6.18,0,0,1,6.18-6.18h9.11a1.9,1.9,0,0,0,1.9-1.9V28.57a1.9,1.9,0,0,0-1.9-1.9h-10a10.51,10.51,0,0,0-10.5,10.51v4.29A10.5,10.5,0,0,0,32.39,52h10a1.9,1.9,0,0,0,1.9-1.9V48.43a1.9,1.9,0,0,0-1.9-1.9Z"/><path class="cls-2" d="M68,28.43a9.78,9.78,0,0,0-7.51,3.06,11.5,11.5,0,0,0-2.68,7.88C57.79,44.64,61,50.31,68,50.31a9.53,9.53,0,0,0,7.7-3.46,11.88,11.88,0,0,0,2.49-7.48,11.53,11.53,0,0,0-2.68-7.88A9.78,9.78,0,0,0,68,28.43Zm0,19c-4.39,0-6.9-2.92-6.9-8,0-4.86,2.71-8,6.9-8s6.9,3.15,6.9,8C74.88,44.46,72.37,47.38,68,47.38ZM82.55,28.93h3.27V49.81H82.55Zm22.19,0H108V49.81h-3.58L94.49,33.89V49.81H91.22v-21h3.57l9.95,15.85Zm21.56,0h3.27V42.38A7.9,7.9,0,0,1,127.5,48a8.62,8.62,0,0,1-6.38,2.36A8.12,8.12,0,0,1,115,48a7.59,7.59,0,0,1-1.93-5.26V28.93h3.27V42c0,4.65,3,5.35,4.87,5.35s5.1-.69,5.1-5.3Zm23.7-.07V31.8h-6.9V49.74h-3.27V31.87h-6.9v-3Z"/></g></svg>