<svg id="Calque_1" data-name="Calque 1" xmlns="http://www.w3.org/2000/svg" xmlns:xlink="http://www.w3.org/1999/xlink" viewBox="0 0 160 80"><defs><style>.cls-1{fill:#0b7cf2;}.cls-2{fill:url(#Dégradé_sans_nom_29);}</style><linearGradient id="Dégradé_sans_nom_29" x1="132.18" y1="-219.29" x2="133.26" y2="-219.29" gradientTransform="matrix(30.57, 0, 0, -30.58, -4041.23, -6665.49)" gradientUnits="userSpaceOnUse"><stop offset="0" stop-color="#0062eb"/><stop offset="1" stop-color="#15c6fe"/></linearGradient></defs><title>coinegg</title><g id="coinegg"><path class="cls-1" d="M150.43,50.26a9.63,9.63,0,0,1-5.83-4.6,9.29,9.29,0,0,1-1.11-4.53,9.17,9.17,0,0,1,2.86-6.58,9.61,9.61,0,0,1,3.25-2.08,11.63,11.63,0,0,1,4.05-.67,13.84,13.84,0,0,1,3.07.36,16.68,16.68,0,0,1,3.14,1.09v2.84a15.71,15.71,0,0,0-3.24-1.38,10,10,0,0,0-3-.45,7.32,7.32,0,0,0-5.28,2,7,7,0,0,0,0,9.94,7.21,7.21,0,0,0,5.18,2,8.44,8.44,0,0,0,1.87-.21,10.29,10.29,0,0,0,2-.62V43.81h-3.43V41.39H160v7.72a21.48,21.48,0,0,1-3.41,1.18,13.18,13.18,0,0,1-3.07.39A10.77,10.77,0,0,1,150.43,50.26Zm-19.46,0a9.63,9.63,0,0,1-5.83-4.6A9.3,9.3,0,0,1,124,41.13a9.1,9.1,0,0,1,.76-3.56,9,9,0,0,1,2.11-3,9.67,9.67,0,0,1,3.25-2.08,11.63,11.63,0,0,1,4.05-.67,13.71,13.71,0,0,1,3.07.36,16.53,16.53,0,0,1,3.15,1.09v2.84a15.49,15.49,0,0,0-3.25-1.38,10,10,0,0,0-3-.45,7.33,7.33,0,0,0-5.28,2,7,7,0,0,0,0,9.94,7.11,7.11,0,0,0,5.17,2,8.38,8.38,0,0,0,1.87-.21,10.06,10.06,0,0,0,1.95-.62V43.81h-3.43V41.39h6.09v7.72a21.48,21.48,0,0,1-3.41,1.18,13.16,13.16,0,0,1-3.06.39A10.84,10.84,0,0,1,131,50.26ZM64.54,50a9.9,9.9,0,0,1-3.15-2,9.4,9.4,0,0,1-2.13-3.09,8.91,8.91,0,0,1-.73-3.67,8.82,8.82,0,0,1,.75-3.54,9.44,9.44,0,0,1,2.11-3,9.66,9.66,0,0,1,6.84-2.76,10.33,10.33,0,0,1,3.77.7,9.06,9.06,0,0,1,3.15,2.06A9.12,9.12,0,0,1,78,41.31a9,9,0,0,1-.72,3.59,9.1,9.1,0,0,1-2.11,3A9.64,9.64,0,0,1,72,50a10.06,10.06,0,0,1-3.75.7A9.41,9.41,0,0,1,64.54,50Zm1.11-15.16a7.36,7.36,0,0,0-2.29,1.53,6.64,6.64,0,0,0-1.5,2.24,6.53,6.53,0,0,0-.55,2.68,6.81,6.81,0,0,0,2,4.89,6.57,6.57,0,0,0,2.24,1.51,6.79,6.79,0,0,0,2.67.52A7.38,7.38,0,0,0,71,47.64a6.79,6.79,0,0,0,2.26-1.51,7.14,7.14,0,0,0,1.51-2.24,6.53,6.53,0,0,0,.52-2.65,6.88,6.88,0,0,0-.52-2.65A7.13,7.13,0,0,0,73.2,36.3a6.74,6.74,0,0,0-7.55-1.51ZM47,50.26A10.15,10.15,0,0,1,44.27,49a9.49,9.49,0,0,1-3.17-3.4A9.21,9.21,0,0,1,40,41.14a9.27,9.27,0,0,1,2.86-6.59,10,10,0,0,1,3.28-2.08,11.08,11.08,0,0,1,4-.67,12.9,12.9,0,0,1,3,.36,15.91,15.91,0,0,1,3.17,1.12v2.83a15.54,15.54,0,0,0-3.25-1.37,9.93,9.93,0,0,0-3-.45,7.32,7.32,0,0,0-5.28,2,7,7,0,0,0,0,9.94,7.16,7.16,0,0,0,5.15,2,10.14,10.14,0,0,0,3.23-.55A14.31,14.31,0,0,0,56.52,46V49a15.53,15.53,0,0,1-3.27,1.28,12.75,12.75,0,0,1-3.31.44A10.1,10.1,0,0,1,47,50.26Zm61.44.08V32.08h13.42V34.4H111v5.54h10.59V42.3H111V48h11.1v2.34Zm-6.22,0-12-14.17V50.34H87.61V32.08h2.26l12,14.18V32.08h2.6V50.34ZM81,50.34V32.08h2.6V50.34Z"/><path class="cls-2" d="M32.9,38.64a.28.28,0,0,0-.28-.26H10.69a.31.31,0,0,1-.3-.31s0-.06,0-.08a6.43,6.43,0,0,1,8.14-4,6.37,6.37,0,0,1,2.63,1.7.36.36,0,0,0,.21.11h3.28a.3.3,0,0,0,.3-.3.28.28,0,0,0,0-.15,9.65,9.65,0,1,0,0,9.41.29.29,0,0,0-.11-.4.42.42,0,0,0-.15,0H21.38a.26.26,0,0,0-.21.11A6.43,6.43,0,0,1,10.4,42.05a.31.31,0,0,1,.21-.38H29.5a13.12,13.12,0,1,1-.68-6.15.31.31,0,0,0,.29.21H32a.29.29,0,0,0,.3-.29.16.16,0,0,0,0-.1A16.46,16.46,0,1,0,33,40C33,39.55,32.93,39.08,32.9,38.64Z"/></g></svg>