<svg id="Calque_1" data-name="Calque 1" xmlns="http://www.w3.org/2000/svg" viewBox="0 0 160 80"><defs><style>.cls-1{fill:#0f61bd;}</style></defs><title>coinbase</title><g id="coinbase"><path class="cls-1" d="M15.9,48.44a16,16,0,0,0,2.26,3.48,13.52,13.52,0,0,1-6.43,1.56C5,53.48,0,49,0,41.75S5.21,30,11.82,30a12.89,12.89,0,0,1,6.08,1.47,13.21,13.21,0,0,0-2.08,3.57,9.44,9.44,0,0,0-3.48-.7c-4.08,0-7.21,2.61-7.21,7.3,0,4.43,3,7.3,7.38,7.3a8.56,8.56,0,0,0,3.39-.52ZM29.64,30c6.69,0,11.55,4.78,11.55,11.73S36.33,53.4,29.64,53.4,18.08,48.62,18.08,41.75,23,30,29.64,30Zm0,4.34c-3.74,0-6.44,2.87-6.44,7.48s2.7,7.38,6.44,7.38,6.51-2.86,6.51-7.38-2.6-7.48-6.51-7.48ZM44.41,53V30.54h5V53ZM43.8,23.67a3.13,3.13,0,0,1,6.26,0,3.25,3.25,0,0,1-3.13,3.22,3.32,3.32,0,0,1-3.13-3.22Zm10,8.26A29.68,29.68,0,0,1,64.05,30c5.74,0,9.39,2.17,9.39,8.51V53h-5V39c0-3.22-2-4.43-4.78-4.43a16.56,16.56,0,0,0-4.86.69V53h-5v-21ZM77.61,18.54h5V31.15A12.83,12.83,0,0,1,87.78,30c6.43,0,11.3,4.17,11.3,11.29S94.3,53.4,86,53.4a25.65,25.65,0,0,1-8.34-1.48V18.54Zm5,30.16a14.14,14.14,0,0,0,3.48.44c4.6,0,7.91-2.52,7.91-7.65a6.63,6.63,0,0,0-6.87-7,9.9,9.9,0,0,0-4.52,1V48.7ZM113.5,37.93c0-2.44-1.82-3.57-4.26-3.57a12.4,12.4,0,0,0-6.43,1.83V31.84a14.89,14.89,0,0,1,7.3-1.82c4.87,0,8.43,2,8.43,7.64V52.53a34.85,34.85,0,0,1-7.64.87c-5.83,0-10.09-1.74-10.09-6.87,0-4.52,3.92-6.78,10.35-6.78h2.52V37.93Zm0,5.21h-2.08c-3.48,0-5.74,1-5.74,3.3s2.09,3.22,5.13,3.22a15.18,15.18,0,0,0,2.69-.26V43.14Zm8.61,3.74A11.74,11.74,0,0,0,129,49.4c2.26,0,3.65-.78,3.65-2.52s-1.3-2.52-4.17-3.22c-4.69-1-6.6-2.95-6.6-6.86,0-4.52,3.47-6.78,8-6.78a11.38,11.38,0,0,1,6.43,1.73v4.61A10.61,10.61,0,0,0,130,34.1c-2.18,0-3.31,1-3.31,2.52s1,2.26,3.57,3c5.12,1.13,7.3,3,7.3,7.12,0,4.7-3.57,6.87-8.43,6.87a13.13,13.13,0,0,1-7-1.83V46.88Zm22.25-4V43c.26,4,3.73,6.17,7.21,6.17A12.7,12.7,0,0,0,159.13,47V51.4a14.51,14.51,0,0,1-7.91,2.08c-6.95,0-11.73-4.43-11.73-11.56S144.18,30,150.35,30c6.52,0,9.65,4.17,9.65,10.34v2.52Zm10.86-3.22c-.09-3.47-1.83-5.38-5-5.38-2.87,0-5,2-5.65,5.38Z"/></g></svg>