<svg id="Calque_1" data-name="Calque 1" xmlns="http://www.w3.org/2000/svg" xmlns:xlink="http://www.w3.org/1999/xlink" viewBox="0 0 160 80"><defs><style>.cls-1{fill:#fff;}.cls-2{mask:url(#mask);}.cls-3{fill:url(#Dégradé_sans_nom_24);}.cls-4{fill:url(#Dégradé_sans_nom_22);}</style><mask id="mask" x="0" y="23.97" width="160" height="32.05" maskUnits="userSpaceOnUse"><g id="b"><path id="a" class="cls-1" d="M0,56H160V24H0Z"/></g></mask><linearGradient id="Dégradé_sans_nom_24" x1="-260.16" y1="132.11" x2="-260.16" y2="131.38" gradientTransform="matrix(31.48, 0, 0, -26.3, 8207.68, 3504.75)" gradientUnits="userSpaceOnUse"><stop offset="0" stop-color="#fff"/><stop offset="1"/></linearGradient><linearGradient id="Dégradé_sans_nom_22" x1="-260.16" y1="132.11" x2="-260.16" y2="131.38" gradientTransform="matrix(31.48, 0, 0, -26.3, 8207.68, 3504.75)" gradientUnits="userSpaceOnUse"><stop offset="0" stop-color="#7fffff"/><stop offset="1" stop-color="#66d4ec"/></linearGradient></defs><title>coindeal</title><g id="coindeal"><path d="M53.78,45.69a8.22,8.22,0,0,1-3.07,2.21,9.61,9.61,0,0,1-3.77.75A9.06,9.06,0,0,1,43.49,48a8.54,8.54,0,0,1-4.7-4.64,8.9,8.9,0,0,1-.69-3.51,8.65,8.65,0,0,1,.69-3.46,8.87,8.87,0,0,1,1.87-2.8,8.49,8.49,0,0,1,2.8-1.87A9,9,0,0,1,46.94,31a9.68,9.68,0,0,1,3.63.69,8.1,8.1,0,0,1,3,2.12l-2.81,2.87a5.46,5.46,0,0,0-1.56-1.39A4.17,4.17,0,0,0,47,34.77a4.24,4.24,0,0,0-1.82.4,5.06,5.06,0,0,0-2.53,2.7,5.35,5.35,0,0,0-.38,2,5.31,5.31,0,0,0,1.39,3.58,4.94,4.94,0,0,0,1.51,1.09,4.28,4.28,0,0,0,1.83.4,4.36,4.36,0,0,0,2.26-.59,5,5,0,0,0,1.62-1.52Z"/><path d="M67.23,39.84a5.31,5.31,0,0,0-.38-2,5,5,0,0,0-1-1.62,4.71,4.71,0,0,0-1.52-1.09,4.52,4.52,0,0,0-1.85-.39,4.45,4.45,0,0,0-1.85.39,4.67,4.67,0,0,0-1.51,1.09,5.19,5.19,0,0,0-1,1.62,5.45,5.45,0,0,0,0,4,5.19,5.19,0,0,0,1,1.62,4.67,4.67,0,0,0,1.51,1.09,4.58,4.58,0,0,0,3.7,0,4.71,4.71,0,0,0,1.52-1.09,5,5,0,0,0,1-1.62,5.3,5.3,0,0,0,.38-2m4.17,0a8.58,8.58,0,0,1-2.61,6.28A9.22,9.22,0,0,1,59,48a8.83,8.83,0,0,1-2.84-1.87,8.76,8.76,0,0,1-1.9-9.69A8.92,8.92,0,0,1,62.45,31a9.08,9.08,0,0,1,3.49.68,9,9,0,0,1,2.85,1.85,8.38,8.38,0,0,1,1.92,2.8,8.82,8.82,0,0,1,.69,3.48"/><g class="cls-2"><path d="M72.91,48.22h4.23V31.43H72.91Zm21.56,0H90.3v-10A4.05,4.05,0,0,0,90,36.64a3.13,3.13,0,0,0-.74-1.13,3,3,0,0,0-1.06-.67A3.51,3.51,0,0,0,87,34.63a5.57,5.57,0,0,0-1.89.33A4.74,4.74,0,0,0,83.4,36v12.2H79.23V31.46H83.4l0,1.25a4.49,4.49,0,0,1,.93-.69,6.25,6.25,0,0,1,1.14-.54,6.68,6.68,0,0,1,1.22-.33,6.11,6.11,0,0,1,1.2-.12,7.45,7.45,0,0,1,2.45.41,5.83,5.83,0,0,1,2.09,1.24,6,6,0,0,1,1.46,2.17A8.25,8.25,0,0,1,94.47,38v10.2Zm12.94-8.49a6.2,6.2,0,0,1-.36,2,4.7,4.7,0,0,1-.94,1.54,4.19,4.19,0,0,1-1.47,1,4.93,4.93,0,0,1-2,.37h-2.19V34.8h2.19a5.16,5.16,0,0,1,2,.38,4.24,4.24,0,0,1,1.49,1.06,4.59,4.59,0,0,1,.93,1.56,5.43,5.43,0,0,1,.31,1.93m3.46-3.14a8.22,8.22,0,0,0-1.64-2.66,7.94,7.94,0,0,0-2.5-1.8,7.56,7.56,0,0,0-3.2-.68H96.46V48.2h7.07a7.66,7.66,0,0,0,5.7-2.48,8.15,8.15,0,0,0,1.63-2.65,8.93,8.93,0,0,0,.59-3.25,9.16,9.16,0,0,0-.58-3.23m15.5,1.6a5.08,5.08,0,0,0-1.76-2.57,4.53,4.53,0,0,0-2.85-1,4.42,4.42,0,0,0-2.81,1,5.11,5.11,0,0,0-1.74,2.57Zm4.37,1.62a8.13,8.13,0,0,1,0,.84c0,.29-.06.59-.1.9H117.21a5.44,5.44,0,0,0,.65,1.38,4.61,4.61,0,0,0,1,1.13,4.82,4.82,0,0,0,1.37.75,4.89,4.89,0,0,0,1.7.28,7.2,7.2,0,0,0,2.26-.39,5.59,5.59,0,0,0,1.88-1.06l2.64,2.64a10.77,10.77,0,0,1-6.92,2.37,9,9,0,0,1-6.37-2.58,8.76,8.76,0,0,1-1.89-2.8,8.74,8.74,0,0,1,1.91-9.66,9.22,9.22,0,0,1,2.84-1.89,8.79,8.79,0,0,1,3.48-.69,9.09,9.09,0,0,1,3.39.65,9.36,9.36,0,0,1,2.87,1.81,8.46,8.46,0,0,1,2.69,6.32ZM141.62,44v-3.1H139.7a10.72,10.72,0,0,0-1.64.12,4.52,4.52,0,0,0-1.33.39,2.39,2.39,0,0,0-.9.71,1.68,1.68,0,0,0-.33,1,1.74,1.74,0,0,0,.68,1.42,2.68,2.68,0,0,0,1.75.55,5.85,5.85,0,0,0,1.84-.29A8.34,8.34,0,0,0,141.62,44Zm4.17,4.18h-4.17v-.9a7,7,0,0,1-2.34,1,10.31,10.31,0,0,1-2.54.29,6.39,6.39,0,0,1-2.2-.36,5.11,5.11,0,0,1-1.71-1,4.77,4.77,0,0,1-1.12-1.61,5.48,5.48,0,0,1-.39-2.06A4.76,4.76,0,0,1,132,41.1a5.48,5.48,0,0,1,1.69-1.77,8,8,0,0,1,2.51-1,12.72,12.72,0,0,1,3.09-.35h2.4a3,3,0,0,0-.95-2.35,4,4,0,0,0-2.76-.87,5.66,5.66,0,0,0-1.8.32,5.49,5.49,0,0,0-1.85,1.16l-2.46-2.49a9.4,9.4,0,0,1,3.08-2,9.73,9.73,0,0,1,3.61-.69,8.16,8.16,0,0,1,3.1.55A6.16,6.16,0,0,1,143.8,33a6.08,6.08,0,0,1,1.54,2.46,11.31,11.31,0,0,1,.45,3.48v9.28Zm6.37-3.57V31.36h-4.23V48.72H160V44.65Z"/></g><g class="cls-2"><path d="M32.05,40A16,16,0,1,1,16,24a16,16,0,0,1,16,16"/></g><path id="e" class="cls-3" d="M6.3,39.87a9.62,9.62,0,0,0,9.54,9.68,9.49,9.49,0,0,0,7-3.06L19.91,43.6a5.48,5.48,0,0,1-4.07,1.84,5.57,5.57,0,0,1,0-11.13,5.45,5.45,0,0,1,4.07,1.84l2.89-2.89a9.5,9.5,0,0,0-7-3.07A9.63,9.63,0,0,0,6.3,39.87Zm14.37,0,4.4,4.4,4.4-4.4-4.4-4.4Z"/><path id="e-2" data-name="e" class="cls-4" d="M6.3,39.87a9.62,9.62,0,0,0,9.54,9.68,9.49,9.49,0,0,0,7-3.06L19.91,43.6a5.48,5.48,0,0,1-4.07,1.84,5.57,5.57,0,0,1,0-11.13,5.45,5.45,0,0,1,4.07,1.84l2.89-2.89a9.5,9.5,0,0,0-7-3.07A9.63,9.63,0,0,0,6.3,39.87Zm14.37,0,4.4,4.4,4.4-4.4-4.4-4.4Z"/></g></svg>