<svg id="Calque_1" data-name="Calque 1" xmlns="http://www.w3.org/2000/svg" viewBox="0 0 160 80"><defs><style>.cls-1{fill:#ffce06;}.cls-2{fill:#023c5a;}</style></defs><title>coinfloor</title><g id="coinfloor"><path class="cls-1" d="M30.2,19.24a3.13,3.13,0,0,1,2.44,0c.71.34.71.91,0,1.25a2.93,2.93,0,0,1-2.49,0C29.5,20.15,29.5,19.58,30.2,19.24Z"/><path class="cls-1" d="M34.18,21.27a3,3,0,0,1,2.52,0c.74.37.79.95.12,1.33a3.09,3.09,0,0,1-2.56,0C33.51,22.22,33.51,21.64,34.18,21.27Z"/><path class="cls-1" d="M38.44,23.42a3.18,3.18,0,0,1,2.6,0c.79.38.87,1,.21,1.45a2.94,2.94,0,0,1-2.65,0C37.82,24.46,37.78,23.84,38.44,23.42Z"/><path class="cls-1" d="M43,25.74a3.09,3.09,0,0,1,2.69,0c.83.41,1,1.12.33,1.53a3.19,3.19,0,0,1-2.77,0C42.45,26.86,42.33,26.15,43,25.74Z"/><path class="cls-1" d="M47.91,28.22a3,3,0,0,1,2.77,0c.91.46,1.12,1.2.46,1.66a3.19,3.19,0,0,1-2.86,0C47.37,29.42,47.21,28.68,47.91,28.22Z"/><path class="cls-1" d="M53.13,30.87a3.25,3.25,0,0,1,2.89,0c.95.5,1.24,1.28.58,1.78a3.13,3.13,0,0,1-3,0C52.71,32.15,52.46,31.37,53.13,30.87Z"/><path class="cls-1" d="M58.79,33.77a3.21,3.21,0,0,1,3,0c1,.54,1.37,1.36.75,1.9a3.07,3.07,0,0,1-3.06,0C58.42,35.13,58.13,34.26,58.79,33.77Z"/><path class="cls-1" d="M26.15,21.27a3,3,0,0,1,2.52,0c.71.37.66.95,0,1.33a3.09,3.09,0,0,1-2.56,0C25.36,22.22,25.4,21.64,26.15,21.27Z"/><path class="cls-1" d="M30.12,23.42a3.21,3.21,0,0,1,2.61,0c.74.38.74,1,0,1.45a2.94,2.94,0,0,1-2.65,0C29.38,24.46,29.38,23.84,30.12,23.42Z"/><path class="cls-1" d="M34.38,25.74a3.09,3.09,0,0,1,2.69,0c.79.41.83,1.12.13,1.53a3.22,3.22,0,0,1-2.78,0C33.68,26.86,33.64,26.15,34.38,25.74Z"/><path class="cls-1" d="M39,28.22a3,3,0,0,1,2.78,0c.82.46,1,1.2.25,1.66a3.2,3.2,0,0,1-2.86,0C38.31,29.42,38.23,28.68,39,28.22Z"/><path class="cls-1" d="M43.86,30.87a3.25,3.25,0,0,1,2.89,0c.91.5,1.08,1.28.38,1.78a3.14,3.14,0,0,1-3,0C43.28,32.15,43.15,31.37,43.86,30.87Z"/><path class="cls-1" d="M49.15,33.77a3.21,3.21,0,0,1,3,0c1,.54,1.2,1.36.5,1.9a3.08,3.08,0,0,1-3.06,0C48.62,35.13,48.45,34.26,49.15,33.77Z"/><path class="cls-1" d="M54.86,36.87a3.24,3.24,0,0,1,3.15,0c1,.58,1.36,1.49.7,2.07a3.2,3.2,0,0,1-3.23,0C54.45,38.36,54.16,37.41,54.86,36.87Z"/><path class="cls-1" d="M21.8,23.42a3.2,3.2,0,0,1,2.61,0c.7.38.62,1-.16,1.45a2.94,2.94,0,0,1-2.65,0C20.89,24.46,21,23.84,21.8,23.42Z"/><path class="cls-1" d="M25.78,25.74a3.09,3.09,0,0,1,2.69,0c.74.41.7,1.12-.09,1.53a3.2,3.2,0,0,1-2.77,0C24.91,26.86,25,26.15,25.78,25.74Z"/><path class="cls-1" d="M30,28.22a3,3,0,0,1,2.77,0,.89.89,0,0,1,0,1.66,3.18,3.18,0,0,1-2.85,0C29.21,29.42,29.25,28.68,30,28.22Z"/><path class="cls-1" d="M34.59,30.87a3.28,3.28,0,0,1,2.9,0c.82.5.91,1.28.12,1.78a3.15,3.15,0,0,1-3,0A1,1,0,0,1,34.59,30.87Z"/><path class="cls-1" d="M39.55,33.77a3.23,3.23,0,0,1,3,0c.91.54,1,1.36.29,1.9a3.09,3.09,0,0,1-3.06,0C38.85,35.13,38.77,34.26,39.55,33.77Z"/><path class="cls-1" d="M44.85,36.87a3.24,3.24,0,0,1,3.14,0c1,.58,1.2,1.49.42,2.07a3.21,3.21,0,0,1-3.23,0C44.23,38.36,44.11,37.41,44.85,36.87Z"/><path class="cls-1" d="M50.64,40.22a3.28,3.28,0,0,1,3.27,0c1.08.62,1.37,1.62.62,2.24a3.07,3.07,0,0,1-3.35,0C50.11,41.84,49.9,40.84,50.64,40.22Z"/><path class="cls-1" d="M17.13,25.74a3.09,3.09,0,0,1,2.69,0c.66.41.58,1.12-.25,1.53a3.2,3.2,0,0,1-2.77,0C16.18,26.86,16.3,26.15,17.13,25.74Z"/><path class="cls-1" d="M21.1,28.22a3,3,0,0,1,2.77,0c.75.46.66,1.2-.16,1.66a3.2,3.2,0,0,1-2.86,0C20.15,29.42,20.27,28.68,21.1,28.22Z"/><path class="cls-1" d="M25.36,30.87a3.28,3.28,0,0,1,2.9,0c.78.5.74,1.28-.08,1.78a3.15,3.15,0,0,1-3,0C24.41,32.15,24.49,31.37,25.36,30.87Z"/><path class="cls-1" d="M29.91,33.77a3.23,3.23,0,0,1,3,0,1,1,0,0,1,0,1.9,3.11,3.11,0,0,1-3.07,0A1,1,0,0,1,29.91,33.77Z"/><path class="cls-1" d="M34.88,36.87a3.24,3.24,0,0,1,3.14,0c.91.58,1,1.49.17,2.07a3.21,3.21,0,0,1-3.23,0A1.14,1.14,0,0,1,34.88,36.87Z"/><path class="cls-1" d="M40.22,40.22a3.27,3.27,0,0,1,3.26,0c1,.62,1.16,1.62.34,2.24a3.09,3.09,0,0,1-3.36,0C39.47,41.84,39.39,40.84,40.22,40.22Z"/><path class="cls-1" d="M46.05,43.86a3.14,3.14,0,0,1,3.39,0c1.08.67,1.33,1.78.5,2.44a3.1,3.1,0,0,1-3.48,0C45.39,45.64,45.22,44.53,46.05,43.86Z"/><path class="cls-1" d="M12.16,28.22a3,3,0,0,1,2.78,0c.66.46.49,1.2-.38,1.66a3.17,3.17,0,0,1-2.85,0C11.05,29.42,11.25,28.68,12.16,28.22Z"/><path class="cls-1" d="M16.09,30.87a3.28,3.28,0,0,1,2.9,0c.75.5.62,1.28-.29,1.78a3.14,3.14,0,0,1-3,0C15,32.15,15.18,31.37,16.09,30.87Z"/><path class="cls-1" d="M20.31,33.77a3.22,3.22,0,0,1,3,0c.79.54.71,1.36-.2,1.9a3.09,3.09,0,0,1-3.06,0C19.24,35.13,19.4,34.26,20.31,33.77Z"/><path class="cls-1" d="M24.87,36.87a3.25,3.25,0,0,1,3.14,0,1.15,1.15,0,0,1-.08,2.07,3.22,3.22,0,0,1-3.23,0A1.15,1.15,0,0,1,24.87,36.87Z"/><path class="cls-1" d="M29.79,40.22a3.29,3.29,0,0,1,3.27,0,1.26,1.26,0,0,1,0,2.24,3.08,3.08,0,0,1-3.35,0A1.26,1.26,0,0,1,29.79,40.22Z"/><path class="cls-1" d="M35.17,43.86a3.15,3.15,0,0,1,3.39,0,1.41,1.41,0,0,1,.21,2.44,3.11,3.11,0,0,1-3.48,0A1.4,1.4,0,0,1,35.17,43.86Z"/><path class="cls-1" d="M41,47.88a3.24,3.24,0,0,1,3.56,0c1.08.74,1.28,1.94.37,2.69a3.12,3.12,0,0,1-3.64,0C40.22,49.78,40.09,48.58,41,47.88Z"/><path class="cls-1" d="M6.83,30.87a3.25,3.25,0,0,1,2.89,0c.66.5.46,1.28-.49,1.78a3.13,3.13,0,0,1-3,0C5.58,32.15,5.83,31.37,6.83,30.87Z"/><path class="cls-1" d="M10.67,33.77a3.22,3.22,0,0,1,3,0c.71.54.54,1.36-.45,1.9a3.08,3.08,0,0,1-3.06,0C9.47,35.13,9.72,34.26,10.67,33.77Z"/><path class="cls-1" d="M14.85,36.87a3.26,3.26,0,0,1,3.15,0c.78.58.62,1.49-.33,2.07a3.21,3.21,0,0,1-3.23,0C13.65,38.36,13.86,37.41,14.85,36.87Z"/><path class="cls-1" d="M19.36,40.22a3.29,3.29,0,0,1,3.27,0c.83.62.75,1.62-.25,2.24a3.08,3.08,0,0,1-3.35,0C18.2,41.84,18.37,40.84,19.36,40.22Z"/><path class="cls-1" d="M24.29,43.86a3.15,3.15,0,0,1,3.39,0,1.4,1.4,0,0,1-.12,2.44,3.11,3.11,0,0,1-3.48,0A1.41,1.41,0,0,1,24.29,43.86Z"/><path class="cls-1" d="M29.67,47.88a3.22,3.22,0,0,1,3.55,0,1.59,1.59,0,0,1,.05,2.69,3.14,3.14,0,0,1-3.65,0A1.55,1.55,0,0,1,29.67,47.88Z"/><path class="cls-1" d="M35.5,52.22a3.25,3.25,0,0,1,3.72,0,1.77,1.77,0,0,1,.25,2.94,3.29,3.29,0,0,1-3.85,0A1.79,1.79,0,0,1,35.5,52.22Z"/><path class="cls-1" d="M1.07,33.77a3.2,3.2,0,0,1,3,0c.67.54.38,1.36-.66,1.9a3.07,3.07,0,0,1-3.06,0C-.33,35.13,0,34.26,1.07,33.77Z"/><path class="cls-1" d="M4.84,36.87a3.23,3.23,0,0,1,3.14,0c.71.58.46,1.49-.62,2.07a3.18,3.18,0,0,1-3.22,0C3.47,38.36,3.81,37.41,4.84,36.87Z"/><path class="cls-1" d="M8.94,40.22a3.26,3.26,0,0,1,3.26,0c.79.62.54,1.62-.49,2.24a3.07,3.07,0,0,1-3.35,0C7.61,41.84,7.86,40.84,8.94,40.22Z"/><path class="cls-1" d="M13.4,43.86a3.16,3.16,0,0,1,3.4,0c.82.67.66,1.78-.42,2.44a3.09,3.09,0,0,1-3.47,0C12.08,45.64,12.33,44.53,13.4,43.86Z"/><path class="cls-1" d="M18.29,47.88a3.24,3.24,0,0,1,3.56,0,1.61,1.61,0,0,1-.29,2.69,3.13,3.13,0,0,1-3.65,0A1.59,1.59,0,0,1,18.29,47.88Z"/><path class="cls-1" d="M23.58,52.22a3.26,3.26,0,0,1,3.73,0,1.78,1.78,0,0,1-.13,2.94,3.29,3.29,0,0,1-3.85,0A1.82,1.82,0,0,1,23.58,52.22Z"/><path class="cls-1" d="M29.46,57a3.28,3.28,0,0,1,3.93,0,2,2,0,0,1,.08,3.27,3.23,3.23,0,0,1-4,0A2,2,0,0,1,29.46,57Z"/><path class="cls-2" d="M67,42.25a7.84,7.84,0,0,1,.41-2.61,6.53,6.53,0,0,1,1.24-2.11,6,6,0,0,1,1.95-1.4,6.48,6.48,0,0,1,2.6-.5,8.36,8.36,0,0,1,3.36.66L76,38.65c-.34-.12-.71-.25-1.16-.37a6.51,6.51,0,0,0-1.37-.13,3.28,3.28,0,0,0-2.61,1.08,4.74,4.74,0,0,0-.86,3,5.06,5.06,0,0,0,.82,3,3.35,3.35,0,0,0,2.86,1.07,8.6,8.6,0,0,0,1.45-.12,4.56,4.56,0,0,0,1.24-.37l.41,2.4a5.66,5.66,0,0,1-1.45.41,10.25,10.25,0,0,1-2,.21,7.47,7.47,0,0,1-2.82-.5,5.69,5.69,0,0,1-2-1.36,5.29,5.29,0,0,1-1.16-2.11A10.13,10.13,0,0,1,67,42.25Z"/><path class="cls-2" d="M90.2,42.25A8.23,8.23,0,0,1,89.78,45a5.75,5.75,0,0,1-1.24,2.11,5.68,5.68,0,0,1-1.9,1.37,6,6,0,0,1-2.48.49,5.84,5.84,0,0,1-2.44-.49,5.72,5.72,0,0,1-1.91-1.37A6,6,0,0,1,78.57,45a8.23,8.23,0,0,1-.45-2.73,7.82,7.82,0,0,1,.45-2.69,5.86,5.86,0,0,1,1.24-2.07,5.09,5.09,0,0,1,1.91-1.32,5.84,5.84,0,0,1,2.44-.46,6.58,6.58,0,0,1,2.44.46,5.65,5.65,0,0,1,1.9,1.32,6.08,6.08,0,0,1,1.24,2.07A7.82,7.82,0,0,1,90.2,42.25Zm-3,0a5.28,5.28,0,0,0-.79-3,2.52,2.52,0,0,0-2.23-1.08A2.7,2.7,0,0,0,82,39.27a5,5,0,0,0-.78,3,5.08,5.08,0,0,0,.78,3,2.61,2.61,0,0,0,2.24,1.12,2.58,2.58,0,0,0,2.23-1.12A5.52,5.52,0,0,0,87.22,42.25Z"/><path class="cls-2" d="M96,32.28a1.55,1.55,0,0,1-.54,1.28,1.82,1.82,0,0,1-1.24.5,1.84,1.84,0,0,1-1.28-.5,1.6,1.6,0,0,1-.54-1.28A1.66,1.66,0,0,1,92.89,31a1.83,1.83,0,0,1,1.28-.49,1.67,1.67,0,0,1,1.24.49A1.72,1.72,0,0,1,96,32.28Zm-.33,16.3h-3V35.92h3Z"/><path class="cls-2" d="M98.76,36.37a16.54,16.54,0,0,1,2.24-.45,22.72,22.72,0,0,1,3-.21,6.49,6.49,0,0,1,2.56.42,4.18,4.18,0,0,1,1.66,1.15,4.57,4.57,0,0,1,.91,1.83,10.42,10.42,0,0,1,.29,2.35v7.12h-3V41.92a11.13,11.13,0,0,0-.12-1.74,3.06,3.06,0,0,0-.46-1.16,2,2,0,0,0-.83-.66,3.84,3.84,0,0,0-1.28-.21,9.06,9.06,0,0,0-1.16.09c-.41,0-.7.08-.91.12V48.54h-3l0-12.17Z"/><path class="cls-2" d="M116.72,29.88a6.47,6.47,0,0,1,1.66.16,4.78,4.78,0,0,1,.82.29l-.33,1.37a4.23,4.23,0,0,0-.78-.25,6,6,0,0,0-1.33-.12,3,3,0,0,0-2.36.82,4.33,4.33,0,0,0-.66,2.69v1.33h4.93v1.36h-4.93v11h-1.57V34.76a5.17,5.17,0,0,1,1.12-3.64A4.39,4.39,0,0,1,116.72,29.88Zm7.61,18.87a4.42,4.42,0,0,1-1.36-.21,3,3,0,0,1-1-.54,3.37,3.37,0,0,1-.67-1,4.77,4.77,0,0,1-.24-1.49V30.17l1.57-.29v15.6a4.58,4.58,0,0,0,.12.91,1.39,1.39,0,0,0,.33.54,1.13,1.13,0,0,0,.58.28,3.68,3.68,0,0,0,.83.17Z"/><path class="cls-2" d="M137,42.33a7.57,7.57,0,0,1-.41,2.65,6,6,0,0,1-1.16,2,5.58,5.58,0,0,1-1.78,1.32,5.21,5.21,0,0,1-2.27.46,5.73,5.73,0,0,1-2.28-.46A5.18,5.18,0,0,1,127.27,47a5.89,5.89,0,0,1-1.16-2,7.76,7.76,0,0,1-.41-2.65,7.6,7.6,0,0,1,.41-2.65,6.77,6.77,0,0,1,1.16-2.06,5.61,5.61,0,0,1,1.78-1.33,5.22,5.22,0,0,1,2.28-.45,5.71,5.71,0,0,1,2.27.45,5.11,5.11,0,0,1,1.78,1.33,5.53,5.53,0,0,1,1.16,2.06A7.6,7.6,0,0,1,137,42.33Zm-1.65,0a6,6,0,0,0-1.08-3.72,3.51,3.51,0,0,0-2.94-1.37,3.56,3.56,0,0,0-2.93,1.37,5.9,5.9,0,0,0-1.08,3.72A5.83,5.83,0,0,0,128.35,46a3.5,3.5,0,0,0,2.93,1.36A3.56,3.56,0,0,0,134.22,46,5.91,5.91,0,0,0,135.3,42.33Z"/><path class="cls-2" d="M150.44,42.33A7.57,7.57,0,0,1,150,45a6,6,0,0,1-1.16,2,5.58,5.58,0,0,1-1.78,1.32,5.23,5.23,0,0,1-2.28.46,5.71,5.71,0,0,1-2.27-.46A5.18,5.18,0,0,1,140.76,47a5.73,5.73,0,0,1-1.16-2,7.76,7.76,0,0,1-.41-2.65,7.6,7.6,0,0,1,.41-2.65,6.56,6.56,0,0,1,1.16-2.06,5.61,5.61,0,0,1,1.78-1.33,5.21,5.21,0,0,1,2.27-.45,5.72,5.72,0,0,1,2.28.45,5.2,5.2,0,0,1,1.78,1.33A5.53,5.53,0,0,1,150,39.68,7.6,7.6,0,0,1,150.44,42.33Zm-1.65,0a6,6,0,0,0-1.08-3.72,3.83,3.83,0,0,0-5.87,0,5.9,5.9,0,0,0-1.08,3.72A5.83,5.83,0,0,0,141.84,46a3.5,3.5,0,0,0,2.93,1.36A3.57,3.57,0,0,0,147.71,46,5.67,5.67,0,0,0,148.79,42.33Z"/><path class="cls-2" d="M157.6,35.88a8.51,8.51,0,0,1,1.45.12,4.34,4.34,0,0,1,.95.25l-.33,1.37a2.49,2.49,0,0,0-.79-.21,7.7,7.7,0,0,0-1.53-.13,9.1,9.1,0,0,0-1.65.13,3.48,3.48,0,0,0-.83.25V48.58H153.3V36.71a10.6,10.6,0,0,1,1.69-.54A9.4,9.4,0,0,1,157.6,35.88Z"/></g></svg>