<svg id="Calque_1" data-name="Calque 1" xmlns="http://www.w3.org/2000/svg" xmlns:xlink="http://www.w3.org/1999/xlink" viewBox="0 0 160 80"><defs><style>.cls-1{fill:url(#Dégradé_sans_nom_21);}.cls-2{fill:#4a4a4a;}.cls-3{fill:url(#Dégradé_sans_nom_21-2);}</style><linearGradient id="Dégradé_sans_nom_21" x1="438.36" y1="131.33" x2="437.19" y2="131.33" gradientTransform="matrix(31.93, 0, 0, -32.93, -13948.53, 4365.35)" gradientUnits="userSpaceOnUse"><stop offset="0" stop-color="#22e6b8"/><stop offset="1" stop-color="#00c1ce"/></linearGradient><linearGradient id="Dégradé_sans_nom_21-2" x1="354.96" y1="137.1" x2="353.79" y2="137.1" gradientTransform="matrix(4.42, 0, 0, -4.37, -1473.23, 629.26)" xlink:href="#Dégradé_sans_nom_21"/></defs><title>coinex</title><g id="coinex"><path class="cls-1" d="M35,35a7.68,7.68,0,0,0-10.74,0,7.54,7.54,0,0,0,0,10.7,7.67,7.67,0,0,0,10.78,0l.62-.68L32.1,41.47l-.58.66a2.6,2.6,0,0,1-3.67,0,2.54,2.54,0,0,1,0-3.6,2.58,2.58,0,0,1,3.63,0L41,48.06a14.42,14.42,0,0,1-11.76,6.15A14.21,14.21,0,1,1,40.68,31.53q-.63.73-3.24,3.67L41,38.69l5.87-6.56a19.26,19.26,0,1,0-17.57,27.1A18.75,18.75,0,0,0,42,54.4a20.64,20.64,0,0,0,5.25-7.19Z"/><path class="cls-2" d="M114.11,42.6v9.22h-3.8V42.4a4.71,4.71,0,0,0-9.27.1v9.32h-3.8V35.09l2.91,1.83a8.56,8.56,0,0,1,5.53-2,8.4,8.4,0,0,1,8.44,7.7ZM74.23,33a11.67,11.67,0,0,0-3.33,2.56,7.67,7.67,0,1,0-2.46,11.12,11.43,11.43,0,0,0,2,3.7A11.8,11.8,0,1,1,74.23,33Zm5.65,18.85a8.35,8.35,0,1,1,8.45-8.34,8.4,8.4,0,0,1-8.45,8.34Zm0-3.71a4.64,4.64,0,1,0-4.69-4.63A4.66,4.66,0,0,0,79.88,48.11Zm10.79-13h3.75V51.82H90.67Zm40.8-3H120.74v6.06h10.42V42H120.74v6h10.73v3.77H116.7V28.42h14.77v3.76Zm7.89,11.26-5.77-8.31h4.77c.15.24.35.56.62,1,.66,1,1.32,2,2,3,.32.47.54.82.67,1l.2.33,3.43-5.31h4.54l-5.67,8.17L150,51.82h-4.72l-3.62-5.46-.2.29-.71,1.09-1,1.55-1,1.55c-.27.42-.48.74-.62,1h-4.51Z"/><path class="cls-3" d="M90,30.71a2.43,2.43,0,0,1,.75-1.78,2.6,2.6,0,0,1,3.65,0,2.43,2.43,0,0,1,.76,1.79,2.47,2.47,0,0,1-.76,1.81,2.45,2.45,0,0,1-1.82.75,2.54,2.54,0,0,1-1.83-.75A2.45,2.45,0,0,1,90,30.71Z"/></g></svg>