<svg id="Calque_1" data-name="Calque 1" xmlns="http://www.w3.org/2000/svg" viewBox="0 0 160 80"><defs><style>.cls-1{fill:#344950;}.cls-2{fill:#61a0b5;}.cls-3{fill:#306476;}.cls-4{fill:#518191;}.cls-5{fill:#77ab41;}.cls-6{fill:#5b8f3f;}.cls-7{fill:#8ac642;}.cls-8{fill:#9fce5c;}</style></defs><title>coincap</title><g id="coincap"><g id="Cap"><polygon class="cls-1" points="87.69 43.84 87.69 47.69 87.69 55.39 87.69 59.23 99.23 59.23 99.23 55.39 91.53 55.39 91.53 47.69 99.23 47.69 99.23 43.84 91.53 43.84 87.69 43.84"/><path class="cls-1" d="M110.77,43.84h-7.69V59.22h3.84V55.38h3.85v3.84h3.84V43.84Zm0,7.7h-3.85V47.7h3.85Z"/><path class="cls-1" d="M126.16,43.84h-7.69V59.22h3.84V55.38H130V43.84Zm0,7.7h-3.85V47.7h3.85Z"/></g><g id="bot1"><rect class="cls-1" x="80" y="40" width="3.84" height="19.23"/></g><g id="bot2"><rect class="cls-2" x="76.16" y="40" width="3.84" height="23.08"/></g><g id="bot3"><rect class="cls-3" x="72.3" y="40" width="3.84" height="15.39"/></g><g id="bot4"><rect class="cls-1" x="68.46" y="40" width="3.84" height="19.23"/></g><g id="bot5"><rect class="cls-2" x="64.61" y="40" width="3.84" height="11.54"/></g><g id="bot6"><rect class="cls-4" x="60.77" y="40" width="3.84" height="7.69"/></g><g id="bot7"><rect class="cls-1" x="56.92" y="40" width="3.84" height="15.39"/></g><g id="bot8"><rect class="cls-4" x="53.08" y="40" width="3.84" height="11.54"/></g><g id="bot9"><rect class="cls-3" x="49.22" y="40" width="3.84" height="19.23"/></g><g id="bot10"><rect class="cls-2" x="45.38" y="40" width="3.84" height="23.08"/></g><g id="bot11"><rect class="cls-4" x="41.53" y="40" width="3.84" height="15.39"/></g><g id="bot12"><rect class="cls-1" x="37.69" y="40" width="3.84" height="19.23"/></g><g id="bot13"><rect class="cls-3" x="33.84" y="40" width="3.84" height="11.54"/></g><g id="bot14"><rect class="cls-1" x="30" y="40" width="3.84" height="7.69"/></g><g id="Coin"><polygon class="cls-5" points="30 20.77 30 24.61 30 32.31 30 36.16 41.53 36.16 41.53 32.31 33.84 32.31 33.84 24.61 41.53 24.61 41.53 20.77 33.84 20.77 30 20.77"/><path class="cls-5" d="M49.22,20.77H45.38V36.15H56.92V20.77h-7.7Zm3.86,11.54H49.23v-7.7h3.85Z"/><rect class="cls-5" x="60.77" y="20.77" width="3.84" height="15.39"/><polygon class="cls-5" points="72.3 20.77 68.46 20.77 68.46 24.61 68.46 36.16 72.3 36.16 72.3 24.61 76.16 24.61 76.16 36.16 80 36.16 80 24.61 80 20.77 76.16 20.77 72.3 20.77"/></g><g id="top1"><rect class="cls-6" x="83.84" y="28.46" width="3.84" height="11.54"/></g><g id="top2"><rect class="cls-5" x="87.69" y="24.61" width="3.84" height="15.39"/></g><g id="top3"><rect class="cls-7" x="91.53" y="20.77" width="3.84" height="19.23"/></g><g id="top4"><rect class="cls-6" x="95.39" y="28.46" width="3.84" height="11.54"/></g><g id="top5"><rect class="cls-5" x="99.23" y="24.61" width="3.84" height="15.39"/></g><g id="top6"><rect class="cls-8" x="103.08" y="20.77" width="3.84" height="19.23"/></g><g id="top7"><rect class="cls-7" x="106.92" y="24.61" width="3.84" height="15.39"/></g><g id="top8"><rect class="cls-5" x="110.77" y="16.92" width="3.84" height="23.08"/></g><g id="top9"><rect class="cls-8" x="114.61" y="20.77" width="3.84" height="19.23"/></g><g id="top10"><rect class="cls-6" x="118.47" y="28.46" width="3.84" height="11.54"/></g><g id="top11"><rect class="cls-8" x="122.31" y="24.61" width="3.84" height="15.39"/></g><g id="top12"><rect class="cls-5" x="126.16" y="32.31" width="3.84" height="7.69"/></g></g></svg>