<svg id="Calque_1" data-name="Calque 1" xmlns="http://www.w3.org/2000/svg" viewBox="0 0 160 80"><title>coinsquare</title><g id="coinsquare"><g id="Group"><path d="M42.87,40.83A3.09,3.09,0,0,0,46,44.17a2.81,2.81,0,0,0,2.71-1.87l3.27,1a6.12,6.12,0,0,1-6,4,6.45,6.45,0,1,1,0-12.89,6.13,6.13,0,0,1,6,4l-3.27,1A2.85,2.85,0,0,0,46,37.49a3.1,3.1,0,0,0-3.08,3.34"/><path d="M56,40.83a3.08,3.08,0,1,0,6.13,0,3.08,3.08,0,1,0-6.13,0m-3.49,0a6.57,6.57,0,1,1,6.57,6.45,6.38,6.38,0,0,1-6.57-6.45"/><path d="M69.29,28.25a2.24,2.24,0,0,1,2.25,2.24,2.24,2.24,0,0,1-4.47,0A2.23,2.23,0,0,1,69.29,28.25ZM71.19,47H67.71v-9.3H66V34.71h5.2Z"/><path d="M80.58,34.39a4.28,4.28,0,0,1,4.56,4.55v8H81.65V39.82a2,2,0,0,0-2.09-2.19A3.4,3.4,0,0,0,77,39V47H73.48V34.71h3.4v.48c0,.43,0,1,0,1a4.84,4.84,0,0,1,3.75-1.77"/><path d="M94.57,38.45a4.47,4.47,0,0,0-3-1.25c-.91,0-1.23.45-1.23.83s.27.72.91.93l2,.64c2.52.83,3.37,2.2,3.37,3.8,0,1.79-1.52,3.87-4.87,3.87a8,8,0,0,1-5.42-1.92L88.19,43a6.16,6.16,0,0,0,3.62,1.52c.83,0,1.34-.43,1.34-.91s-.4-.88-1.39-1.18l-2.09-.61a3.62,3.62,0,0,1-2.84-3.58c0-2,1.82-3.8,4.77-3.8a7.3,7.3,0,0,1,5,1.82Z"/><path d="M101,40.83a3.14,3.14,0,1,0,3.13-3.34A3.14,3.14,0,0,0,101,40.83Zm6.19,4.57a4.44,4.44,0,0,1-3.84,1.88c-3.37,0-6-2.7-6-6.45s2.55-6.44,5.93-6.44a4.48,4.48,0,0,1,3.91,1.9c0-.13,0-.37,0-1v-.56h3.48V51.63h-3.48Z"/><path d="M112.83,42.46V34.71h3.49v7.11a2.36,2.36,0,0,0,4.71,0V34.71h3.46v7.75c0,2.57-2,4.81-5.81,4.81s-5.85-2.24-5.85-4.81"/><path d="M133.49,42.57v-.88a1.56,1.56,0,0,1-1.08.27H131.1c-1.1,0-1.74.48-1.74,1.33s.67,1.45,1.74,1.45A2.13,2.13,0,0,0,133.49,42.57Zm0-3.77c0-.88-.7-1.44-2-1.44a8.3,8.3,0,0,0-3.7,1.15l-1.37-2.62a10.53,10.53,0,0,1,5.26-1.5c2.78,0,5.33,1.29,5.33,4.52v8h-3.48V45.81a4.16,4.16,0,0,1-3.43,1.47,4,4,0,0,1-4.29-3.85c0-2.33,1.71-3.77,4.45-3.77h2.41c.59,0,.86-.27.86-.72Z"/><path d="M146.72,38.13h-1.47c-1.77,0-2.58.83-2.58,3V47h-3.48V34.71h3.38v1.95a3.23,3.23,0,0,1,3.19-2.11,3.93,3.93,0,0,1,1,.11Z"/><path d="M150.78,39.52h5.49a2.65,2.65,0,0,0-2.7-2.24A2.73,2.73,0,0,0,150.78,39.52ZM160,41.85h-9.14a2.77,2.77,0,0,0,2.81,2.46,2.8,2.8,0,0,0,2.64-1.53l3.39.79c-1.1,2.62-3.35,3.71-6.08,3.71a6.25,6.25,0,0,1-6.43-6.45,6.21,6.21,0,0,1,6.38-6.44c3.37,0,6.43,2.19,6.43,7.33Z"/></g><path d="M30.05,36h.54V24.7H19.32v.54A15.25,15.25,0,0,1,30.05,36"/><path d="M0,40A15.28,15.28,0,0,0,15.3,55.3V24.7A15.28,15.28,0,0,0,0,40Z"/><path d="M30.05,44h.54V55.3H19.32v-.54A15.25,15.25,0,0,0,30.05,44"/></g></svg>