<svg id="Calque_1" data-name="Calque 1" xmlns="http://www.w3.org/2000/svg" viewBox="0 0 160 80"><defs><style>.cls-1{fill:#1aa2a0;}</style></defs><title>crex24</title><g id="crex24"><path id="CREX" class="cls-1" d="M59.06,38.41l2.74-3.32a7.91,7.91,0,0,0-3.43-2.29,9.68,9.68,0,0,0-4-.8,10.6,10.6,0,0,0-5,1.26,9.12,9.12,0,0,0-4.81,8.24,10.13,10.13,0,0,0,1.26,4.92,9,9,0,0,0,3.43,3.44,10.16,10.16,0,0,0,4.92,1.26,10.27,10.27,0,0,0,4.12-.92,11,11,0,0,0,3.55-2.52l-2.86-3a10,10,0,0,1-2.17,1.6,5.81,5.81,0,0,1-2.41.57,4.65,4.65,0,0,1-2.51-.68,5,5,0,0,1-1.84-2,5.86,5.86,0,0,1,0-5.49,4.94,4.94,0,0,1,1.84-1.95,4.87,4.87,0,0,1,2.51-.69,4.24,4.24,0,0,1,2.41.69,4.77,4.77,0,0,1,2.29,1.6ZM82.52,50.66l-3.89-6.07a6,6,0,0,0,2.4-2.4,7.1,7.1,0,0,0,.8-3.55,5.94,5.94,0,0,0-2.06-4.81,8.55,8.55,0,0,0-5.72-1.71H65.69V50.54H70.5V45.39h3.55l2.63,5.15,5.84.12ZM70.84,36h3.55a3.41,3.41,0,0,1,2.29.69,2.44,2.44,0,0,1,.8,2.06,2.85,2.85,0,0,1-.8,2.17,3.41,3.41,0,0,1-2.29.69H70.84ZM87.21,50.66h14.88V46.77h-10V43.33h8.81V39.56H92.13V36.12h9.73v-4H87.21V50.66Zm24.72-9.5-6.52,9.5H111l3.89-5.72,3.89,5.72h5.72L117.88,41,124,32.23h-5.72l-3.44,5.27-3.43-5.27h-5.61ZM134,46.77,137.8,43a15.4,15.4,0,0,0,2.63-3.2,6,6,0,0,0,.91-3,3.86,3.86,0,0,0-.8-2.52,4.82,4.82,0,0,0-2.29-1.71,8.06,8.06,0,0,0-3.31-.58,13.13,13.13,0,0,0-7.67,2.75l1.83,3.55a13.07,13.07,0,0,1,2.63-1.72,5.33,5.33,0,0,1,2.52-.57,2.38,2.38,0,0,1,1.6.46,1.41,1.41,0,0,1,.57,1.14A2.73,2.73,0,0,1,136,39a9.15,9.15,0,0,1-1.26,1.61L128,47.45v3.21H142V46.77ZM157.6,43V39.1h-4.47V43H149.7l4.92-10.87H150l-5.26,11.21v3.32h8.35v4h4.47v-4H160V43Z"/><path id="CREX24-2" data-name="CREX24" class="cls-1" d="M30.1,27.43h0a5.16,5.16,0,0,0-4-1C23,26.85,23,28.8,23,28.8s0,.11-1,1a4.62,4.62,0,0,0-1.25,2.52l3.09-.23a2.56,2.56,0,0,1,2.51,1.37c.35.46,0,1.6,0,1.6a.45.45,0,0,1,.35-.11c.11,0,0,.34-.23.69A4.07,4.07,0,0,1,25.18,37a12.15,12.15,0,0,0-1.37,1.26,11.52,11.52,0,0,0-1.26,1.26s1.48-.23.91.57-4,2.29-6.75-.57c-3.32-3.32-4-6.76-3.89-10.53.23-5.38,3.32-6.64,3.32-6.64a4.77,4.77,0,0,0-2.75,1.37c-.69.58-3.2,3.21-2,9.73A4.88,4.88,0,0,1,10,30.63c-1.15-4.69.34-7.1.34-7.1S6.75,27.2,8,31.43A27.69,27.69,0,0,0,10.07,36s-2.86-2.63-3.43-4.92a15.29,15.29,0,0,1-.35-4.58s-3.77,5.38-.11,10.76a19.78,19.78,0,0,0,3.2,3.66,13.71,13.71,0,0,1-4.57-3.32,12,12,0,0,1-2.52-6.18S.8,36.24,2.4,38.87c1.83,2.86,5.61,5,5.95,5.26C8,43.91,4.92,42.19,3,42.19S0,39,0,39s.23,4.12,2.4,6.76,3.67,3.55,5.38,3.32a9.76,9.76,0,0,1,3.55.57,12.86,12.86,0,0,0-3.78,0c-1.37.34-4.23-.34-4.69-.46-.23-.11-.57-.23-.8-.34a17.9,17.9,0,0,0,33.3-9.16A14.32,14.32,0,0,0,30.1,27.43Z"/></g></svg>