<svg id="Calque_1" data-name="Calque 1" xmlns="http://www.w3.org/2000/svg" viewBox="0 0 160 80"><defs><style>.cls-1{fill:#666;}</style></defs><title>cryptopia</title><g id="cryptopia"><path class="cls-1" d="M33.6,20.72c.87,1.4,1.61,2.87,2.53,4.24.29.44.49.93.77,1.39.69,1.13,1.29,2.32,1.92,3.49a4,4,0,0,1,.2.58L33.55,39.9H22.64c-.29-.42-.65-.89-.95-1.4-.58-1-1.12-2-1.69-3s-1.23-2.09-1.84-3.13c-.42-.72-.83-1.45-1.2-2.11.53-1,1-1.84,1.49-2.7.6-1,1.26-2,1.82-3,.31-.57.66-1.12,1-1.7s.83-1.38,1.17-2.11Zm-10.51,1.2a15.31,15.31,0,0,1-.78,1.57c-.87,1.3-1.57,2.69-2.39,4-.53.87-1,1.78-1.54,2.71a2.33,2.33,0,0,0,.13.31c.55,1,1.13,2.07,1.72,3.08s1.28,2.28,2,3.36a10,10,0,0,0,1.06,1.76h9.49c1.73-2.78,3.3-5.69,5-8.47l-4.83-8.33Z"/><path class="cls-1" d="M0,39.72A5.26,5.26,0,0,0,1.17,38c.9-1.71,2-3.3,2.84-5,.42-.83,1-1.61,1.44-2.41H16.59c.37.59.83,1.23,1.2,1.92s.84,1.52,1.3,2.26.74,1.29,1.11,1.94c.58,1,1.14,2.06,1.72,3.08a2,2,0,0,0,.24.25c-1.91,3.15-3.64,6.39-5.52,9.52H5.48c-.29-.42-.6-.82-.85-1.26-.38-.67-.69-1.39-1.07-2.05-.59-1-1.23-2-1.83-3-.33-.56-.6-1.15-.94-1.71C.56,41,.27,40.69,0,40.32Zm20.72.3-4.91-8.47H6.22L1.35,40l4.89,8.49H15.8Z"/><path class="cls-1" d="M63.88,42.62l4.06,4.06H64.43L61,42.92H55.83l0-1.06V40.72h3.91c.57,0,1.13,0,1.7,0a2.92,2.92,0,0,0,2.52-1c.1-.31.2-.57.27-.84s.29-.76.16-1-.08-.64-.17-.94a2.38,2.38,0,0,0-.42-.72,5.08,5.08,0,0,0-.56-.57,5.44,5.44,0,0,0-2.56-.31H54V46.49l-2.37-2.38V32.72h4.61c1.53,0,3.07.05,4.6,0a16.17,16.17,0,0,1,2.51.25,4.72,4.72,0,0,1,1.42.64l.28.14c.22.28.41.53.63.76a3.56,3.56,0,0,1,.76,1.29,6.51,6.51,0,0,1,.33,3.14,3.89,3.89,0,0,1-.77,2A7.19,7.19,0,0,1,65,42,6.25,6.25,0,0,1,63.88,42.62Z"/><path class="cls-1" d="M128,35.32V46.69h-2.54v-14h.88c2.87,0,5.73,0,8.6,0a7.84,7.84,0,0,1,2.11.21,4.18,4.18,0,0,1,2.57,1.81c.19.32.52.62.57,1a4.93,4.93,0,0,1,.23,1.62,3.72,3.72,0,0,0,0,1,4.25,4.25,0,0,1-.71,2.4,3.83,3.83,0,0,1-1.8,1.64,5,5,0,0,1-2.27.57c-2,0-4,0-6,0v-2.4h2.46c1.13,0,2.27,0,3.4,0a2.33,2.33,0,0,0,1.77-.76A2.89,2.89,0,0,0,137.4,36a3.66,3.66,0,0,0-1.81-.7C133.09,35.33,130.59,35.32,128,35.32Z"/><path class="cls-1" d="M50.38,32.72v2.6h-1.6c-2,0-4,0-6,0a4.82,4.82,0,0,0-2.65.82,4.71,4.71,0,0,0-1.33,1.74c-.06.1-.09.22-.16.33a6.5,6.5,0,0,1-.2,1.11,1.23,1.23,0,0,0,.16,1.21c-.1.82.44,1.41.78,2.07a3.68,3.68,0,0,0,2,1.52,3.39,3.39,0,0,0,1.32.22c2.83,0,5.66,0,8.44,0l2.36,2.36c-.2,0-.45,0-.7,0-3.57,0-7.13,0-10.7,0a5.08,5.08,0,0,1-3.25-1.06,6.94,6.94,0,0,1-2.36-2.91A6.08,6.08,0,0,1,36,40.58c0-.63,0-1.26,0-1.9a6.3,6.3,0,0,1,1.17-3.21,4.91,4.91,0,0,1,.92-1.12,3.77,3.77,0,0,1,1.17-.77,12.49,12.49,0,0,1,2.12-.68,27.25,27.25,0,0,1,4.42-.18C47.3,32.7,48.8,32.72,50.38,32.72Z"/><path class="cls-1" d="M148.16,43.32l1.3-2h4.22c-1-1.67-1.93-3.27-2.88-4.86,0-.07-.16-.09-.25-.13l-6.15,10.4h-2.85c.14-.3.23-.55.36-.78.51-.85,1-1.7,1.55-2.55.75-1.22,1.54-2.42,2.25-3.67.46-.81,1-1.6,1.43-2.4.75-1.29,1.47-2.6,2.28-3.85a1.65,1.65,0,0,1,1.63-.92,5.5,5.5,0,0,1,1.76,2.28c.76,1.25,1.55,2.49,2.31,3.74.47.77.88,1.57,1.35,2.34.64,1.06,1.32,2.11,2,3.18.52.85,1,1.71,1.56,2.61-1,.1-2.08,0-3.06,0l-2-3.4Z"/><path class="cls-1" d="M98.2,35.12a1.53,1.53,0,0,0,.08.37,5.57,5.57,0,0,1,.51,2.77A6.65,6.65,0,0,1,98,40.81a4.91,4.91,0,0,1-1.26,1.27,3.91,3.91,0,0,1-1.33.64,5.2,5.2,0,0,1-1.31.21c-2,0-4,0-6,0v-2.4h4.6a4.88,4.88,0,0,0,2.4-.34l1-1c.38-.71.11-1.48.19-2A2.41,2.41,0,0,0,94,35.31H77.54l2.11-2.59h1.09c4.19,0,8.39,0,12.58,0a19.43,19.43,0,0,1,2.13.21l1.55.78.62.72C97.82,34.66,98,34.89,98.2,35.12Z"/><path class="cls-1" d="M22.44,59.28,17,49.84a7.09,7.09,0,0,1,.48-1.06c1-1.5,1.86-3.09,2.75-4.66.68-1.18,1.36-2.37,2.05-3.55a2.91,2.91,0,0,1,.43-.43H33.55L39,49.62c.08.58-.47,1.13-.79,1.76s-.68,1.18-1,1.77c-.62,1.05-1.25,2.08-1.86,3.13-.33.56-.62,1.15-.94,1.71s-.54.85-.83,1.29Zm15.31-9.51c-.23-.37-.5-.79-.75-1.22-.38-.68-.7-1.38-1.11-2-.89-1.43-1.73-2.88-2.54-4.35a7.82,7.82,0,0,0-.6-.83H23.28c-.09.09-.2.15-.23.24-.46,1.22-1.41,2.19-1.85,3.42-1,1.35-1.67,2.92-2.6,4.32a3.77,3.77,0,0,0-.23.54c.49.82,1,1.55,1.38,2.32.61,1.15,1.3,2.26,2,3.37.5.82.92,1.68,1.39,2.55h9.81Z"/><path class="cls-1" d="M97.2,33.52v-.7c.9-.15,9.26-.2,13.2-.08v2.47l-.06.07-.08,0H105.2V46.7h-2.6V35.33H98.68l-.28-.41A2.83,2.83,0,0,0,97.2,33.52Z"/><path class="cls-1" d="M74.22,39.18l2.89-3.43H80.4l-5,5.77v5.15a6.61,6.61,0,0,1-1.26,0H72.83V41.47A19.65,19.65,0,0,1,71,39.18a2.44,2.44,0,0,0-.27-.29,32.9,32.9,0,0,1-2.25-2.48c-.81-1.08-1.81-2-2.57-3.12a4.2,4.2,0,0,0-.52-.54h3.47Z"/><path class="cls-1" d="M117.79,42.35l.82,2.12a4.73,4.73,0,0,0-.4,2.15,6,6,0,0,1-4.87-1.08,6.54,6.54,0,0,1-2.74-3.94,7.37,7.37,0,0,1,.6-5.18.94.94,0,0,1,.56-.25l-.17.48c1.41.12,1.47.12,2-.13a2.68,2.68,0,0,1,.77,2.27l1.08,1.37.25-.52c0,.25.08.43.11.61a1.63,1.63,0,0,0,1.19.47l1.14.87Z"/><path class="cls-1" d="M117.44,35.72h.48l.36-.79.31,0,.88.83.28-.26-.89-.88c0-.17,0-.2,0-.21a2.13,2.13,0,0,1,.21-.22,1.5,1.5,0,0,1,1.37,1.49l1.06.9a1.77,1.77,0,0,1,1.8-.63,7,7,0,0,1,1.09,4.84,6.14,6.14,0,0,1-1,2.69,6.76,6.76,0,0,1-3.15,2.71c-.39.15-.76.43-1.24.32.28-.64.28-.64,1.35-1.2a3.52,3.52,0,0,1,.1-.51,2.32,2.32,0,0,1,.22-.41l.72-.33.84-1.36-2.09-1.58-2.08-.26-.64-.45-.06-.5-.54.17-.43-.32.73-.4,1,.24.06-.54a4.36,4.36,0,0,1,2.06-1.45l.65.13L119.63,36l-1.19-.25-.06.58h-1Z"/><path class="cls-1" d="M143.57,42.57l-2.42,4-.15,0V33.55c0-.29-.08-.62.32-.81h2.25Z"/><path class="cls-1" d="M83.64,35.74h2.53v11H83.64Z"/><path class="cls-1" d="M119.34,33.48l-.61.61-1.91.31-.2.26c-.88.19-1.68-.17-2.42.26a15.44,15.44,0,0,0-2.27.42A6.38,6.38,0,0,1,115.64,33a6.55,6.55,0,0,1,4.79.53Zm-2.06.4.75,0,.64-.45L118.5,33Zm-1.88-.15v.18l.1.26.87-.33,0-.11Z"/><path class="cls-1" d="M23.59,37.68c-1.51-2.36-2.82-5-4.36-7.42l4.36-7.53h8.86c.69,1.14,1.39,2.27,2.07,3.42.32.53.58,1.09.88,1.63.47.84,1,1.67,1.42,2.5l-4.28,7.4Z"/><path class="cls-1" d="M19.84,40l-4.35,7.47H6.57L2.22,40l4.36-7.49h8.9Z"/><path class="cls-1" d="M32.5,57.3H23.58l-4.35-7.52c1.51-2.44,2.85-5,4.36-7.45h8.93l4.29,7.4c-.56,1-1.19,2-1.77,3.1S33.75,55,33.2,56.06C33,56.48,32.74,56.87,32.5,57.3Z"/></g></svg>