<svg id="Calque_1" data-name="Calque 1" xmlns="http://www.w3.org/2000/svg" viewBox="0 0 160 80"><defs><style>.cls-1{fill:#212a45;}</style></defs><title>cryptonit</title><g id="cryptonit"><path class="cls-1" d="M27.44,40.43a2.8,2.8,0,0,0-.43-.6,3,3,0,0,0-1.38-.95,5,5,0,0,0-1.54-.34,5.82,5.82,0,0,0-2.41.51A5.22,5.22,0,0,0,19.18,42a8.34,8.34,0,0,0-.51,2.15,1.59,1.59,0,0,0-.86-1,8.62,8.62,0,0,1,.51-2.06c.78-1.81,2.15-2.93,2.58-4.13a3.3,3.3,0,0,0,.26-1.29,3.47,3.47,0,0,0-.08-1c-.61-2.41-3.27-6.79-3.45-7a.58.58,0,0,0-.34-.17h0a.42.42,0,0,0-.34.17,28.45,28.45,0,0,0-3.44,7.05,3.74,3.74,0,0,0-.09,1A3.49,3.49,0,0,0,13.68,37c.51,1.38,1.63,2.06,2.49,4.13a8.91,8.91,0,0,1,.6,2.06,1.59,1.59,0,0,0-.86,1A8.34,8.34,0,0,0,15.4,42a5.3,5.3,0,0,0-2.5-2.93,5.82,5.82,0,0,0-2.41-.51A3.31,3.31,0,0,0,9,38.88a3,3,0,0,0-1.38.95A2.83,2.83,0,0,0,6.88,42a2.31,2.31,0,0,0,.52,1.46A2.15,2.15,0,0,0,9,44.13a1.35,1.35,0,0,0,1.11-.52c.26-.34.26-.6.61-.94a2.08,2.08,0,0,1,.6-.35,2.83,2.83,0,0,1,2.49.35,2.8,2.8,0,0,1,.86,1.2,3.3,3.3,0,0,1,.26,1.29h0a3.83,3.83,0,0,1-.26,1.46l-.25.52a2.05,2.05,0,0,1-.61.6.7.7,0,0,1-.6,0c-.26-.17-.34-.43-.69-.51a.76.76,0,0,0-.6.08,1,1,0,0,0-.52.86v.6a1.37,1.37,0,0,0,.69.86,2.19,2.19,0,0,0,1.81.09,2.76,2.76,0,0,0,1-.77,6.44,6.44,0,0,0,1.11-3.53v-.34a1.46,1.46,0,0,0,.86.86c-.25,1.11-.51,2.23-.86,3.35a1.55,1.55,0,0,0-.08.6v.26A4.12,4.12,0,0,0,17,52.3a.42.42,0,0,0,.52,0,4.49,4.49,0,0,0,1.2-2.15v-.26a1.34,1.34,0,0,0-.08-.6c-.35-1.12-.61-2.24-.86-3.35a1.75,1.75,0,0,0,.86-.86v.34A6.45,6.45,0,0,0,19.87,49a2.68,2.68,0,0,0,.95.77,2.6,2.6,0,0,0,1.8-.09,1.31,1.31,0,0,0,.69-.86.69.69,0,0,0,0-.6,1.47,1.47,0,0,0-.51-.86,1.61,1.61,0,0,0-.61-.08c-.34.08-.43.43-.68.51a.72.72,0,0,1-.61,0,1,1,0,0,1-.6-.6L20,46.62a2.75,2.75,0,0,1-.26-1.46h0A4.8,4.8,0,0,1,20,44a2.21,2.21,0,0,1,.94-1.21,2.59,2.59,0,0,1,2.5-.34,1.31,1.31,0,0,1,.6.34c.34.35.26.6.6,1a1.41,1.41,0,0,0,1.12.52,2,2,0,0,0,1.55-.69,2.37,2.37,0,0,0,.51-1.47A3.46,3.46,0,0,0,27.44,40.43Z"/><path class="cls-1" d="M34.41,40A17.21,17.21,0,1,1,17.2,22.8,17.25,17.25,0,0,1,34.41,40ZM17.2,24.34A15.66,15.66,0,1,0,32.86,40,15.71,15.71,0,0,0,17.2,24.34Z"/><path class="cls-1" d="M45.08,40a7.25,7.25,0,0,1,2-5.08,7.41,7.41,0,0,1,5.17-2.15,6.36,6.36,0,0,1,5.41,2.93l-1.72.95a4.94,4.94,0,0,0-3.69-2.07,5,5,0,0,0-3.7,1.64,5.73,5.73,0,0,0,0,7.56,5,5,0,0,0,3.7,1.64,4.33,4.33,0,0,0,3.69-2.07l1.72.95a6.42,6.42,0,0,1-5.33,2.93,7,7,0,0,1-5.25-2.07,7.59,7.59,0,0,1-2-5.16Z"/><path class="cls-1" d="M68.3,47l-3.44-5.42H62.37V47h-2V33h5.67a4.09,4.09,0,0,1,4.39,4.3A3.89,3.89,0,0,1,67,41.38L70.71,47Zm.09-9.72a2.34,2.34,0,0,0-.78-1.81,2.18,2.18,0,0,0-1.89-.6H62.28v4.9h3.44a2.4,2.4,0,0,0,2.58-2.23.32.32,0,0,0,.09-.26Z"/><path class="cls-1" d="M77.59,47V41L72.09,33h2.4l4.13,6.28L82.75,33h2.41L79.66,41V47Z"/><path class="cls-1" d="M87.31,47V33H93a4,4,0,0,1,3.18,1.2,4.37,4.37,0,0,1,1.29,3.1,4.08,4.08,0,0,1-1.29,3.09A4.23,4.23,0,0,1,93,41.46H89.38v5.42Zm8-9.72a2.62,2.62,0,0,0-.69-1.81,2.56,2.56,0,0,0-1.89-.69H89.29v4.91h3.44A2.31,2.31,0,0,0,94.62,39a1.78,1.78,0,0,0,.69-1.72Z"/><path class="cls-1" d="M103.57,47V34.84h-4.3V33h10.67v1.89h-4.31V47Z"/><path class="cls-1" d="M112.17,40c0-4.3,2.93-7.23,7-7.23a6.85,6.85,0,0,1,7,7.23,6.85,6.85,0,0,1-7,7.23C115,47.23,112.17,44.3,112.17,40ZM124,40c0-3-1.81-5.42-4.91-5.42s-4.9,2.32-4.9,5.42,1.81,5.42,4.9,5.42S124,43,124,40Z"/><path class="cls-1" d="M138.92,47l-7.74-10.58V47h-2V33h2l7.66,10.4V33h2V47Z"/><path class="cls-1" d="M144.52,47V33h2V47Z"/><path class="cls-1" d="M153.63,47V34.84h-4.3V33H160v1.89h-4.3V47Z"/></g></svg>