<svg id="Calque_1" data-name="Calque 1" xmlns="http://www.w3.org/2000/svg" viewBox="0 0 160 80"><defs><style>.cls-1{fill:#0089c4;}.cls-2{fill:#1f4e79;}</style></defs><title>cryptobridge</title><g id="cryptobridge"><path class="cls-1" d="M20.72,37.08a1.41,1.41,0,0,1-1.41-2.44,1.41,1.41,0,0,1,1.93.51h0a1.42,1.42,0,0,1-.52,1.92m-1,1.64v2.56a2.88,2.88,0,0,0-2.61,3.11,3,3,0,0,0,.31,1.06l-2.2,1.27a2.88,2.88,0,0,0-4-.86,3,3,0,0,0-.89.92L8.19,45.51a2.86,2.86,0,0,0-1.11-3.89,2.94,2.94,0,0,0-1.3-.36V38.72a2.87,2.87,0,0,0,2.78-3,3.07,3.07,0,0,0-.32-1.22l2.2-1.27a2.87,2.87,0,0,0,4,.86,3,3,0,0,0,.82-.8l2.2,1.28a2.88,2.88,0,0,0,1.35,3.83,2.8,2.8,0,0,0,1,.27m-5.52-7a1.41,1.41,0,1,1-1.41-1.41,1.41,1.41,0,0,1,1.41,1.41h0M6.88,36.56a1.41,1.41,0,1,1-.51-1.92,1.42,1.42,0,0,1,.51,1.92h0m0,6.88A1.41,1.41,0,1,1,5,42.93H5a1.42,1.42,0,0,1,1.92.52m4.55,4.84a1.41,1.41,0,1,1,1.4,1.41,1.4,1.4,0,0,1-1.4-1.41h0m7.37-4.84a1.4,1.4,0,1,1,.51,1.92,1.4,1.4,0,0,1-.51-1.92m6.71-10.75a1.33,1.33,0,0,0-1.83-.5h0a1.34,1.34,0,0,0-.55,1.69l-.71.41a2.87,2.87,0,0,0-3.94-.87,3,3,0,0,0-.9.93l-2.21-1.28A2.85,2.85,0,0,0,13,28.85V28a1.33,1.33,0,1,0-1.49-1.31A1.33,1.33,0,0,0,12.69,28v.82A2.84,2.84,0,0,0,10.28,33L8.06,34.28a2.84,2.84,0,0,0-3.93-.85,2.79,2.79,0,0,0-.86.85l-.72-.41A1.33,1.33,0,0,0,2,32.19a1.35,1.35,0,0,0-1.84.48,1.35,1.35,0,0,0,.49,1.84,1.33,1.33,0,0,0,1.74-.36l.72.41A2.84,2.84,0,0,0,4.34,38.4a2.75,2.75,0,0,0,1.14.32v2.56a2.86,2.86,0,0,0-2.67,3,3,3,0,0,0,.32,1.14l-.72.41a1.33,1.33,0,1,0,.16.27l.72-.41a2.86,2.86,0,0,0,3.83.92A2.68,2.68,0,0,0,8,45.78l2.22,1.28a2.86,2.86,0,0,0,1.33,3.81,3,3,0,0,0,1.1.28V52a1.34,1.34,0,1,0,.3,0v-.82a2.85,2.85,0,0,0,2.72-3A2.89,2.89,0,0,0,15.39,47l2.22-1.28a2.73,2.73,0,0,0,1,.92,2.87,2.87,0,0,0,3.84-.92l.71.41a1.36,1.36,0,1,0,.16-.27l-.72-.41a2.84,2.84,0,0,0-1.21-3.84,2.77,2.77,0,0,0-1.29-.32V38.72a2.85,2.85,0,0,0,2.5-4.16l.72-.41a1.34,1.34,0,0,0,2.23-1.46"/><path class="cls-2" d="M14.25,40a1.41,1.41,0,1,1-1.41-1.41A1.41,1.41,0,0,1,14.25,40h0m2.81,0a4.22,4.22,0,1,0-4.22,4.21h0A4.22,4.22,0,0,0,17.07,40h0"/><path class="cls-1" d="M153.32,38.89v0a2.37,2.37,0,0,1,.39-1.45,1.35,1.35,0,0,1,1.15-.52,1.39,1.39,0,0,1,1.15.52,2.32,2.32,0,0,1,.41,1.45v0Zm1.56,6.32a6.54,6.54,0,0,0,2.59-.47,4.51,4.51,0,0,0,1.68-1.17,2,2,0,0,0,.58-1.19.33.33,0,0,0-.13-.26.46.46,0,0,0-.3-.11h-2.55a.78.78,0,0,0-.34.05,1,1,0,0,0-.29.24,2.63,2.63,0,0,1-.53.47,1.42,1.42,0,0,1-.75.19,1.28,1.28,0,0,1-1.11-.54,2.39,2.39,0,0,1-.41-1.4V40.9h6.18a.49.49,0,0,0,.5-.48v-.49a6,6,0,0,0-.57-2.68,4.23,4.23,0,0,0-1.74-1.86,5.51,5.51,0,0,0-2.83-.68A5.11,5.11,0,0,0,151.17,36a5,5,0,0,0-1.44,3.62v.61a4.63,4.63,0,0,0,5.13,5m-12.27-3.06a1.39,1.39,0,0,1-1.33-.63,3.51,3.51,0,0,1-.37-1.74v-.43a2.43,2.43,0,0,1,.43-1.43,1.46,1.46,0,0,1,1.25-.52,1.49,1.49,0,0,1,1.24.5,2.17,2.17,0,0,1,.47,1.29,5.81,5.81,0,0,1,0,.59,5.61,5.61,0,0,1,0,.58,2.24,2.24,0,0,1-.47,1.29,1.49,1.49,0,0,1-1.24.5m.15,7.16a5.59,5.59,0,0,0,3.79-1.18,4.24,4.24,0,0,0,1.34-3.4V35.44a.51.51,0,0,0-.51-.51H145a.48.48,0,0,0-.49.51v.7a4,4,0,0,0-1.27-1,3.8,3.8,0,0,0-1.75-.37,3.72,3.72,0,0,0-3.11,1.34,5.87,5.87,0,0,0-1.06,3.73v.53a5.12,5.12,0,0,0,1.14,3.36,3.89,3.89,0,0,0,3,1.14,3.79,3.79,0,0,0,2.82-1.07v1.3a2,2,0,0,1-.41,1.4,1.63,1.63,0,0,1-1.24.42,1.55,1.55,0,0,1-1-.25,1.6,1.6,0,0,1-.5-.67.81.81,0,0,0-.22-.3.56.56,0,0,0-.31-.09H138a.57.57,0,0,0-.35.14.42.42,0,0,0-.16.33,2.65,2.65,0,0,0,.51,1.32,4.32,4.32,0,0,0,1.68,1.4,6.74,6.74,0,0,0,3,.6m-12.48-6.8a1.45,1.45,0,0,1-1.26-.52,2.68,2.68,0,0,1-.44-1.43V39.41A2.7,2.7,0,0,1,129,38a1.45,1.45,0,0,1,1.26-.52,1.52,1.52,0,0,1,1.23.5,2.08,2.08,0,0,1,.47,1.26c0,.34,0,.57,0,.72a6.2,6.2,0,0,1,0,.74,2.35,2.35,0,0,1-.47,1.35,1.48,1.48,0,0,1-1.24.54m-1.14,2.71a3.69,3.69,0,0,0,3-1.29v.53a.5.5,0,0,0,.46.47h2.34a.54.54,0,0,0,.36-.14.51.51,0,0,0,.15-.35V31.67a.51.51,0,0,0-.15-.36.49.49,0,0,0-.36-.13h-2.52a.47.47,0,0,0-.34.13.43.43,0,0,0-.14.36v4.14a3.71,3.71,0,0,0-2.83-1.12,3.76,3.76,0,0,0-3,1.21,5.16,5.16,0,0,0-1.17,3.34v1.39A5.15,5.15,0,0,0,126.1,44a3.81,3.81,0,0,0,3,1.19m-9-.2h2.43a.5.5,0,0,0,.37-.13.52.52,0,0,0,.14-.35V35.37a.48.48,0,0,0-.14-.35.5.5,0,0,0-.37-.14h-2.43a.52.52,0,0,0-.35.14.48.48,0,0,0-.14.35v9.15a.51.51,0,0,0,.47.47m0-11.54h2.43a.47.47,0,0,0,.37-.14.55.55,0,0,0,.14-.37V31.13a.5.5,0,0,0-.5-.5h-2.44a.43.43,0,0,0-.34.15.47.47,0,0,0-.15.35v1.81a.55.55,0,0,0,.14.37.46.46,0,0,0,.35.14M111.1,45h2.58a.54.54,0,0,0,.36-.14.43.43,0,0,0,.14-.35V39.61a1.7,1.7,0,0,1,.42-1.2,1.58,1.58,0,0,1,1.2-.43h2a.47.47,0,0,0,.35-.15.48.48,0,0,0,.14-.34V35.37a.47.47,0,0,0-.47-.47H117a3.76,3.76,0,0,0-2.91,1.25v-.74a.48.48,0,0,0-.48-.5h-2.4a.5.5,0,0,0-.35.14.54.54,0,0,0-.14.36v9.11a.51.51,0,0,0,.47.47m-10.39-2.63V39.3h2.66a1.54,1.54,0,0,1,1.17.44,1.61,1.61,0,0,1,0,2.18,1.52,1.52,0,0,1-1.18.44Zm0-5.6V34h2.44a1.53,1.53,0,0,1,1.12.38,1.3,1.3,0,0,1,.38,1,1.33,1.33,0,0,1-.39,1,1.46,1.46,0,0,1-1.11.39ZM97.6,45h6.2a5.6,5.6,0,0,0,3.71-1.09,3.75,3.75,0,0,0,1.29-3.06,3.26,3.26,0,0,0-1.89-3,3.3,3.3,0,0,0,1.11-1,2.67,2.67,0,0,0,.49-1.62,3.51,3.51,0,0,0-1.21-2.88,5.59,5.59,0,0,0-3.68-1h-6a.47.47,0,0,0-.35.15.54.54,0,0,0-.14.36V44.52a.51.51,0,0,0,.49.49"/><path class="cls-2" d="M89.83,42.75a1.41,1.41,0,0,1-1.19-.5,2.74,2.74,0,0,1-.46-1.52V39.16a2.71,2.71,0,0,1,.46-1.51,1.65,1.65,0,0,1,2.33,0,.12.12,0,0,1,0,0,2.64,2.64,0,0,1,.47,1.51v1.57A2.67,2.67,0,0,1,91,42.25a1.39,1.39,0,0,1-1.19.5m0,2.46a5.57,5.57,0,0,0,3.77-1.14A4.43,4.43,0,0,0,95,40.8c0-.33,0-.63,0-.87a7.17,7.17,0,0,0,0-.88,4.43,4.43,0,0,0-1.47-3.23,6.64,6.64,0,0,0-7.47,0,4.39,4.39,0,0,0-1.47,3.23V40.8a4.46,4.46,0,0,0,1.43,3.27,5.61,5.61,0,0,0,3.77,1.14M81,45H82.9a.47.47,0,0,0,.36-.14.49.49,0,0,0,.11-.35V42.73a.52.52,0,0,0-.13-.36.51.51,0,0,0-.36-.15H81.35a.94.94,0,0,1-.83-.35,1.86,1.86,0,0,1-.25-1V37.52h2.44a.54.54,0,0,0,.36-.14.46.46,0,0,0,.14-.35V35.36a.46.46,0,0,0-.14-.35.54.54,0,0,0-.36-.14H80.27V31.66a.47.47,0,0,0-.46-.47h-2.4a.49.49,0,0,0-.34.14.47.47,0,0,0-.15.35V34.9H75.38A.44.44,0,0,0,75,35a.46.46,0,0,0-.14.35v1.68a.49.49,0,0,0,.14.34.49.49,0,0,0,.34.15h1.54v3.6q0,3.87,4.14,3.87M68.62,42.51A1.49,1.49,0,0,1,67.39,42a2,2,0,0,1-.47-1.26V39.3a2.4,2.4,0,0,1,.47-1.36,1.76,1.76,0,0,1,2.5,0,2.77,2.77,0,0,1,.42,1.42v1.21A2.68,2.68,0,0,1,69.87,42a1.45,1.45,0,0,1-1.26.52m-4.69,6.22h2.51a.47.47,0,0,0,.47-.47V43.92a3.26,3.26,0,0,0,2.83,1.29,3.78,3.78,0,0,0,3-1.21,5,5,0,0,0,1.17-3.31V39.23a5,5,0,0,0-1.16-3.36,3.82,3.82,0,0,0-3-1.18,3.58,3.58,0,0,0-3,1.4v-.7a.46.46,0,0,0-.46-.47H63.9a.5.5,0,0,0-.35.14.44.44,0,0,0-.15.35V48.27a.44.44,0,0,0,.15.35.5.5,0,0,0,.35.14m-10.3,0h2.26a.64.64,0,0,0,.6-.41L62,35.59a1.15,1.15,0,0,0,0-.26.36.36,0,0,0-.12-.28.43.43,0,0,0-.3-.13H59.3a.63.63,0,0,0-.58.41L56.5,40.82l-2.17-5.53a.57.57,0,0,0-.56-.41H51.43a.43.43,0,0,0-.3.13.61.61,0,0,0-.16.32.73.73,0,0,0,.06.21l3.73,8.87-1.54,3.66a.73.73,0,0,0,0,.25.42.42,0,0,0,.12.3.39.39,0,0,0,.29.11M43.19,45h2.57a.5.5,0,0,0,.36-.14.45.45,0,0,0,.15-.35V39.61a1.65,1.65,0,0,1,.41-1.2A1.59,1.59,0,0,1,47.91,38h2a.47.47,0,0,0,.35-.15.43.43,0,0,0,.13-.34V35.38a.46.46,0,0,0-.46-.47H49a4,4,0,0,0-1.63.32,3.9,3.9,0,0,0-1.27.93v-.74a.51.51,0,0,0-.15-.36.47.47,0,0,0-.36-.14H43.21a.48.48,0,0,0-.35.14.46.46,0,0,0-.14.36v9.1a.45.45,0,0,0,.15.34.47.47,0,0,0,.34.15m-8.4.19a8.08,8.08,0,0,0,3.11-.56A5.1,5.1,0,0,0,40.09,43a4.34,4.34,0,0,0,.84-2.53.39.39,0,0,0-.13-.29.42.42,0,0,0-.3-.12H37.75a.55.55,0,0,0-.62.5,2.29,2.29,0,0,1-.83,1.33,2.54,2.54,0,0,1-1.47.39c-1.47,0-2.24-.82-2.28-2.46V36.55c0-1.64.81-2.46,2.28-2.45a2.48,2.48,0,0,1,1.47.38,2.29,2.29,0,0,1,.83,1.33.88.88,0,0,0,.22.4.64.64,0,0,0,.4.11h2.76a.43.43,0,0,0,.31-.12.35.35,0,0,0,.12-.29,4.31,4.31,0,0,0-.83-2.54,5,5,0,0,0-2.18-1.63,7.93,7.93,0,0,0-3.08-.56,6.51,6.51,0,0,0-4.36,1.37,5.21,5.21,0,0,0-1.71,3.91v3.47a5.09,5.09,0,0,0,1.69,3.93,6.61,6.61,0,0,0,4.38,1.35"/></g></svg>