<svg id="Calque_1" data-name="Calque 1" xmlns="http://www.w3.org/2000/svg" viewBox="0 0 160 80"><defs><style>.cls-1{fill:#f8b616;}</style></defs><title>dobitrade</title><g id="dobi"><path class="cls-1" d="M51.53,30.54a14.65,14.65,0,0,0-4.69-2.92,16.32,16.32,0,0,0-6-1.06H30V54.39H40.85a16.4,16.4,0,0,0,6-1.07,14.72,14.72,0,0,0,4.69-3,12.79,12.79,0,0,0,3-4.41,14.1,14.1,0,0,0,1.08-5.48V40.4a13.94,13.94,0,0,0-1.08-5.47A13.2,13.2,0,0,0,51.53,30.54Zm-2.27,10A9,9,0,0,1,48.65,44a7.73,7.73,0,0,1-1.71,2.62,7.09,7.09,0,0,1-2.64,1.71,9.4,9.4,0,0,1-3.41.59H36.11V32.11h4.74a9.19,9.19,0,0,1,3.41.61,7.51,7.51,0,0,1,2.64,1.72,8,8,0,0,1,1.71,2.67,9.22,9.22,0,0,1,.61,3.37v.1Z"/><path class="cls-1" d="M85.29,30.28a14.75,14.75,0,0,0-4.67-3.07,16.18,16.18,0,0,0-11.88,0A14.33,14.33,0,0,0,64,30.32,14.56,14.56,0,0,0,61,34.89a13.92,13.92,0,0,0-1.12,5.59v.08a14.17,14.17,0,0,0,1.1,5.58A13.59,13.59,0,0,0,64,50.67a14.8,14.8,0,0,0,4.68,3.07,15.25,15.25,0,0,0,5.93,1.14,15.5,15.5,0,0,0,6-1.14,14.29,14.29,0,0,0,4.69-3.11,14.59,14.59,0,0,0,3.09-4.57,13.84,13.84,0,0,0,1.12-5.58V40.4a14.26,14.26,0,0,0-1.1-5.59A13.82,13.82,0,0,0,85.29,30.28ZM83,40.58a9.23,9.23,0,0,1-.61,3.35,8.56,8.56,0,0,1-1.71,2.76,7.59,7.59,0,0,1-2.64,1.87,8.35,8.35,0,0,1-3.37.67,8,8,0,0,1-3.39-.69,8.58,8.58,0,0,1-2.66-1.89,8.1,8.1,0,0,1-1.75-2.78,9.28,9.28,0,0,1-.61-3.37v-.08a9.08,9.08,0,0,1,.61-3.36,8.47,8.47,0,0,1,1.7-2.76,8,8,0,0,1,2.63-1.87,8.44,8.44,0,0,1,3.39-.67,8.13,8.13,0,0,1,3.37.69,8.44,8.44,0,0,1,2.68,1.89,8.56,8.56,0,0,1,1.75,2.79A9.46,9.46,0,0,1,83,40.5v.08Z"/><rect class="cls-1" x="123.89" y="26.56" width="6.11" height="27.83"/><path class="cls-1" d="M115,39a6.07,6.07,0,0,0,2.82-5.47c0-4.22-3.41-6.72-9.1-6.72h-.12V23h-5.73v3.88H94.62v26.3h8.22V57h5.73V53.15h.49c3.11,0,5.52-.67,7.19-2a7,7,0,0,0,2.56-5.73C118.81,41.31,116.37,39.64,115,39Zm-6.22,8.89h-8.41v-16h7.56c1.73,0,4.31,1,4.31,2.57a2.88,2.88,0,0,1-2.81,2.83h-6.86v4.65h5.7c1.73,0,4.62.39,4.62,3C112.86,46.92,110.22,47.93,108.75,47.93Z"/></g></svg>