<svg id="Calque_1" data-name="Calque 1" xmlns="http://www.w3.org/2000/svg" viewBox="0 0 160 80"><defs><style>.cls-1{fill:#3725d3;}</style></defs><title>dsx</title><g id="dsx"><path id="logo" class="cls-1" d="M44.28,27.26a12.74,12.74,0,0,1,0,25.48H30V27.26H44.27m41.2,9.94a7.27,7.27,0,0,1,7.3,7v.22a8.27,8.27,0,0,1-8.34,8.19H64.56L70,46.21H83.64a1.76,1.76,0,1,0,0-3.52H71a7.28,7.28,0,0,1-7.32-6.94v-.29A8.26,8.26,0,0,1,72,27.27H92l-6.54,6.42H72.84a1.76,1.76,0,0,0-1.76,1.76,2.28,2.28,0,0,0,0,.26,1.78,1.78,0,0,0,1.78,1.5H85.47m35.64,15.54-6.46-7-6.06,7H99.7l11.19-12.9L100,27.26h8.57l6,6.93,6.4-6.93h8.73L118.05,39.84l12,12.9Zm-76.83-6.4a6.34,6.34,0,0,0,0-12.68H36.4V46.35h7.88"/></g></svg>