<svg id="Calque_1" data-name="Calque 1" xmlns="http://www.w3.org/2000/svg" viewBox="0 0 160 80"><defs><style>.cls-1{fill:#1f69ab;}.cls-2{fill:#fab800;}</style></defs><title>ethexindia</title><g id="ethexindia"><path class="cls-1" d="M7,38.45c4,0,6.14,2.91,6.14,6.58,0,.41-.08,1.28-.08,1.28H3.53A4,4,0,0,0,7.69,50a6.31,6.31,0,0,0,3.89-1.55L13,50.87A8.42,8.42,0,0,1,7.45,53,7.1,7.1,0,0,1,0,45.71C0,41.44,2.88,38.45,7,38.45Zm2.61,5.47A2.7,2.7,0,0,0,7,41.12a3.32,3.32,0,0,0-3.4,2.8Z"/><path class="cls-1" d="M16.58,41.52H14.79V38.78h1.87V35H20v3.78h3.15v2.74H20v5.6a2.46,2.46,0,0,0,2.75,2.61,3.35,3.35,0,0,0,.62,0v3a5.71,5.71,0,0,1-1.06.09c-1.93,0-5.76-.58-5.76-5.22Z"/><path class="cls-1" d="M26.31,36.88a.53.53,0,0,0-.6-.6H24.62V33.34h3.29c1.28,0,1.85.57,1.85,1.82V40c0,.68-.05,1.17-.05,1.17h.05a5.3,5.3,0,0,1,4.76-2.75c3.1,0,4.84,1.61,4.84,5.27v5.41a.54.54,0,0,0,.59.6H41v2.91H37.75c-1.28,0-1.82-.54-1.82-1.85V44.43c0-1.68-.46-2.82-2.2-2.82A3.89,3.89,0,0,0,30,44.49a6.32,6.32,0,0,0-.22,1.79v6.36H26.31Z"/><path class="cls-1" d="M49.47,38.45c4,0,6.14,2.91,6.14,6.58,0,.41-.08,1.28-.08,1.28H46A4,4,0,0,0,50.12,50,6.31,6.31,0,0,0,54,48.48l1.44,2.39A8.43,8.43,0,0,1,49.87,53a7.1,7.1,0,0,1-7.44-7.26C42.43,41.44,45.31,38.45,49.47,38.45Zm2.61,5.47a2.7,2.7,0,0,0-2.61-2.8,3.32,3.32,0,0,0-3.4,2.8Z"/><path class="cls-1" d="M61.51,45.63l-2.29-3.45c-.27-.41-.49-.47-1.06-.47h-1V38.78h2.42a2.13,2.13,0,0,1,2.25,1.3l1.36,2.29c.19.35.44.89.44.89h0s.25-.54.44-.89l1.35-2.29a2.13,2.13,0,0,1,2.26-1.3h2.39v2.93h-1c-.57,0-.78.06-1.06.47l-2.31,3.45,4.54,7H66.48l-2.42-3.86a4.7,4.7,0,0,1-.38-.73h0s-.22.43-.41.73l-2.39,3.86H57Z"/><path class="cls-1" d="M71.64,49.62h1.93V36.36H71.64v-3h7.23v3H76.94V49.62h1.93v3H71.64Z"/><path class="cls-1" d="M82.16,42.31a.53.53,0,0,0-.6-.6H80.48V38.78h3.18c1.22,0,1.82.57,1.82,1.55v.41a3.47,3.47,0,0,1-.06.59h.06a5.32,5.32,0,0,1,4.89-2.88c3.07,0,4.84,1.61,4.84,5.27v5.41a.55.55,0,0,0,.6.6h1.08v2.91H93.6c-1.3,0-1.84-.54-1.84-1.85V44.43c0-1.68-.44-2.82-2.18-2.82a3.79,3.79,0,0,0-3.72,2.82,5.87,5.87,0,0,0-.27,1.85v6.36H82.16Z"/><path class="cls-1" d="M104.56,38.45c3,0,4,1.69,4,1.69h.06s0-.36,0-.82V36.88a.53.53,0,0,0-.6-.6H106.9V33.34h3.28c1.28,0,1.85.57,1.85,1.85V49.13a.55.55,0,0,0,.6.6h1.06v2.91h-3.18c-1.25,0-1.71-.6-1.71-1.41v-.52h-.06A4.76,4.76,0,0,1,104.42,53c-3.75,0-6.17-3-6.17-7.26S100.89,38.45,104.56,38.45Zm4.1,7.23c0-2.15-1.11-4.26-3.42-4.26-1.9,0-3.48,1.54-3.48,4.29s1.38,4.35,3.42,4.35C107,50.06,108.66,48.75,108.66,45.68Z"/><path class="cls-1" d="M116.65,42.31a.53.53,0,0,0-.59-.6H115V38.78h3.29c1.27,0,1.82.57,1.82,1.85v8.5a.55.55,0,0,0,.6.6h1.08v2.91h-3.29c-1.27,0-1.82-.54-1.82-1.85Zm.17-9h3v3.18h-3Z"/><path class="cls-1" d="M131.55,43.94H132v-.11c0-2-.79-2.71-2.55-2.71-.63,0-1.85.16-1.85.92v.73h-3.21V41.31c0-2.59,3.64-2.86,5.08-2.86,4.62,0,6,2.42,6,5.52v5.16a.55.55,0,0,0,.6.6h1.09v2.91H134c-1.28,0-1.77-.71-1.77-1.52a5.35,5.35,0,0,1,0-.6h-.05A4.52,4.52,0,0,1,128,53c-2.47,0-4.73-1.55-4.73-4.33C123.31,44.3,129.29,43.94,131.55,43.94Zm-2.67,6.34c1.85,0,3.16-2,3.16-3.65v-.32h-.6c-1.8,0-4.65.24-4.65,2.17A1.85,1.85,0,0,0,128.88,50.28Z"/><rect class="cls-2" x="134.65" y="27.03" width="25.35" height="10.96" rx="5" ry="5"/><path d="M137.54,30.13a.2.2,0,0,0-.22-.22h-.4V28.83h1.21c.47,0,.68.21.68.68V31c0,.25,0,.43,0,.43h0a1.81,1.81,0,0,1,1.53-.71c1.38,0,2.26,1.09,2.26,2.67a2.41,2.41,0,0,1-2.34,2.68,1.81,1.81,0,0,1-1.52-.73h0a2.73,2.73,0,0,1,0,.35v.26h-1.2ZM140,35c.69,0,1.28-.57,1.28-1.58s-.52-1.6-1.27-1.6-1.28.48-1.28,1.61C138.77,34.2,139.19,35,140,35Z"/><path d="M145.85,30.71a2.21,2.21,0,0,1,2.26,2.42c0,.15,0,.47,0,.47h-3.52A1.47,1.47,0,0,0,146.09,35a2.32,2.32,0,0,0,1.43-.57l.53.89a3.1,3.1,0,0,1-2.05.77,2.62,2.62,0,0,1-2.74-2.68A2.52,2.52,0,0,1,145.85,30.71Zm1,2a1,1,0,0,0-1-1,1.22,1.22,0,0,0-1.25,1Z"/><path d="M149.36,31.84h-.66v-1h.69V29.44h1.24v1.39h1.16v1h-1.16V33.9a.91.91,0,0,0,1,1,1.17,1.17,0,0,0,.23,0V36a2.34,2.34,0,0,1-.39,0,1.87,1.87,0,0,1-2.12-1.93Z"/><path d="M155.54,32.73h.16v0c0-.73-.29-1-.94-1-.23,0-.68.06-.68.34v.27H152.9v-.54c0-1,1.34-1.05,1.87-1.05,1.71,0,2.21.89,2.21,2v1.9a.2.2,0,0,0,.22.22h.4v1.08h-1.14c-.48,0-.66-.26-.66-.56,0-.14,0-.23,0-.23h0a1.66,1.66,0,0,1-1.54.91,1.62,1.62,0,0,1-1.74-1.6C152.51,32.86,154.71,32.73,155.54,32.73Zm-1,2.33a1.31,1.31,0,0,0,1.16-1.34V33.6h-.22c-.66,0-1.71.09-1.71.8A.68.68,0,0,0,154.56,35.06Z"/></g></svg>