<svg id="Calque_1" data-name="Calque 1" xmlns="http://www.w3.org/2000/svg" viewBox="0 0 160 80"><defs><style>.cls-1{fill:#39f;}.cls-2{fill:#343535;}.cls-3{fill:#828384;}.cls-4{fill:#fff;}.cls-5{fill:#06c;}.cls-6{fill:#131313;}.cls-7{fill:#2f3030;}</style></defs><title>etherdelta</title><g id="etherdelta"><polygon class="cls-1" points="1.04 49.52 0.31 25.48 8.42 38.04 1.04 49.52"/><polyline class="cls-2" points="8.37 37.98 15.41 48.88 1 49.45"/><polyline class="cls-3" points="1.92 50.87 16.33 50.3 21.84 58.84"/><polygon class="cls-4" points="3.35 47.94 2.96 29.59 10.93 41.93 3.35 47.94"/><polyline class="cls-4" points="8.37 37.98 15.8 49.48 3.35 47.94"/><polyline class="cls-4" points="3.35 47.94 14.03 46.74 21.84 58.84"/><rect class="cls-4" x="11.75" y="21.72" width="0.3" height="43.41" transform="translate(-21.65 13.39) rotate(-32.83)"/><polygon class="cls-1" points="5 44.06 10.5 20.65 15.09 34.88 5 44.06"/><polyline class="cls-2" points="15.06 34.81 19.04 47.16 4.97 43.98"/><polyline class="cls-3" points="5.49 45.59 19.55 48.77 22.67 58.44"/><polygon class="cls-4" points="7.63 43.13 12.01 25.31 16.5 39.29 7.63 43.13"/><polyline class="cls-4" points="15.06 34.81 19.26 47.84 7.63 43.13"/><polyline class="cls-4" points="7.63 43.13 18.26 44.74 22.67 58.44"/><rect class="cls-4" x="16.9" y="19.28" width="0.3" height="43.41" transform="translate(-11.79 7.24) rotate(-17.93)"/><polygon class="cls-1" points="10.21 39.79 21.59 18.6 22.34 33.54 10.21 39.79"/><polyline class="cls-2" points="22.33 33.46 22.97 46.42 10.21 39.71"/><polyline class="cls-3" points="10.29 41.4 23.06 48.12 23.56 58.26"/><polygon class="cls-4" points="13 39.58 21.84 23.5 22.56 38.17 13 39.58"/><polyline class="cls-4" points="22.33 33.46 23.01 47.14 13 39.58"/><polyline class="cls-4" points="13 39.58 22.85 43.88 23.56 58.26"/><rect class="cls-4" x="22.51" y="18.24" width="0.3" height="43.41" transform="matrix(1, -0.05, 0.05, 1, -1.93, 1.16)"/><polygon class="cls-1" points="16.35 37.01 32.82 19.48 29.67 34.1 16.35 37.01"/><polyline class="cls-2" points="29.69 34.03 26.95 46.72 16.36 36.93"/><polyline class="cls-3" points="16.01 38.58 26.6 48.37 24.46 58.3"/><polygon class="cls-4" points="19.09 37.52 31.79 24.27 28.7 38.63 19.09 37.52"/><polyline class="cls-4" points="29.69 34.03 26.8 47.41 19.09 37.52"/><polyline class="cls-4" points="19.09 37.52 27.49 44.23 24.46 58.3"/><rect class="cls-4" x="6.62" y="40.22" width="43.41" height="0.3" transform="translate(-17.11 59.55) rotate(-77.84)"/><polygon class="cls-1" points="22.96 35.88 43.41 23.22 36.58 36.52 22.96 35.88"/><polygon class="cls-5" points="43.41 23.22 36.58 36.52 45.05 47.21 43.41 23.22"/><polyline class="cls-2" points="36.62 36.45 30.69 48 22.99 35.81"/><polyline class="cls-6" points="36.62 36.45 30.69 48 45.09 47.14"/><polyline class="cls-3" points="22.22 37.31 29.92 49.51 25.28 58.55"/><polyline class="cls-7" points="29.92 49.51 25.28 58.55 44.32 48.65"/><path d="M59.16,45.78V30.94h8.71v.88H60.18v5.79h7.19v.88H60.18V44.9h7.94v.88Z"/><path d="M71.7,43.43v-6.6h-2v-.75h2V33.21h1v2.87h2.76v.75H72.65V43c0,1.66.69,2.14,1.69,2.14a2.68,2.68,0,0,0,1-.21l0,.73A4.15,4.15,0,0,1,74,45.9C73,45.9,71.7,45.48,71.7,43.43Z"/><path d="M85.22,45.78V40.43c0-2.15-.63-3.79-2.92-3.79-1.67,0-3.2,1.39-3.2,4.19v5h-.94V29.94h.94v7.88h.42a3.36,3.36,0,0,1,3.14-1.91c2.33,0,3.5,1.51,3.5,3.92v6Z"/><path d="M90.6,41c.08,2.43,1.65,4.23,3.83,4.23a3.9,3.9,0,0,0,3.21-1.65l.67.54A4.75,4.75,0,0,1,94.43,46a4.86,4.86,0,0,1-4.81-5.15c0-3,2-5.16,4.69-5.16,2.91,0,4.46,2.16,4.46,4.84a3.7,3.7,0,0,1,0,.46Zm0-.69h7.19c-.11-2.3-1.32-3.85-3.5-3.85A3.86,3.86,0,0,0,90.62,40.33Z"/><path d="M107.15,36.66a4.92,4.92,0,0,0-.8-.06c-1.67,0-3.1,1.3-3.1,4.15v5h-.94V38c0-.5,0-1.34-.08-2h.9c0,.51.06,1.14.06,1.76h.42a3.26,3.26,0,0,1,3-2,6.74,6.74,0,0,1,.68,0Z"/><path class="cls-5" d="M109.35,30.94h5.26c3.87,0,8.19,1.85,8.19,7.42,0,5.2-4.32,7.42-8.19,7.42h-5.26Zm4.84,12.53c2.72,0,5.78-1.11,5.78-5.11,0-4.25-3.06-5.15-5.78-5.15H112V43.47Z"/><path class="cls-5" d="M134.8,41.54h-7.65A2.81,2.81,0,0,0,130,44a3,3,0,0,0,2.67-1.3l1.67,1.34a5.48,5.48,0,0,1-9.72-3.25A5.14,5.14,0,0,1,130,35.43c2.79,0,4.86,1.84,4.86,5.45C134.82,41.11,134.82,41.31,134.8,41.54Zm-2.49-1.8a2.25,2.25,0,0,0-2.37-2.43,2.66,2.66,0,0,0-2.79,2.43Z"/><path class="cls-5" d="M137.29,29.94h2.52V45.78h-2.52Z"/><path class="cls-5" d="M141.42,37.73v-2h1.76V32.81h2.47v2.91h2.52v2h-2.52V42.4c0,.91.21,1.56,1.32,1.56a2.8,2.8,0,0,0,1.07-.21l.08,2a5.12,5.12,0,0,1-1.67.28c-2.66,0-3.27-1.64-3.27-3.56v-4.7Z"/><path class="cls-5" d="M156.23,44.5h-.06A3.52,3.52,0,0,1,153.05,46c-1.6,0-3.77-.78-3.77-3.12,0-3,3.79-3.42,6.91-3.42v-.25c0-1.26-1.05-1.84-2.31-1.84a4,4,0,0,0-2.74,1.15L149.84,37a6.26,6.26,0,0,1,4.25-1.59c3.59,0,4.49,2.22,4.49,4.23v6.12h-2.35Zm0-3.31h-.57c-1.59,0-3.83.19-3.83,1.68,0,.94.92,1.25,1.76,1.25a2.37,2.37,0,0,0,2.64-2.58Z"/></g></svg>