<svg id="Calque_1" data-name="Calque 1" xmlns="http://www.w3.org/2000/svg" viewBox="0 0 160 80"><defs><style>.cls-1{fill:#191f32;}.cls-2{fill:#b4b8cf;}.cls-3{fill:#9b9fbf;}</style></defs><title>ethfinex</title><g id="ethfinex"><path class="cls-1" d="M11.35,41.21h-8v5.95H12.7v2.72H0V30.45H12.61v2.73H3.38v5.36h8Z"/><path class="cls-1" d="M29.75,33.18H23.7v16.7H20.35V33.18h-6V30.45H29.75Z"/><path class="cls-1" d="M47.72,49.88H44.36V41.26H35.68v8.62H32.3V30.45h3.38v8.09h8.68V30.45h3.36Z"/><path class="cls-1" d="M62.91,41.67H55.09v8.21H51.71V30.45H64.05v2.73h-9V39h7.82v2.72Z"/><path class="cls-1" d="M70.28,49.88H66.92V30.45h3.36Z"/><path class="cls-1" d="M89.84,49.88H86.47L77.81,36.1V49.88H74.43V30.45h3.38l8.68,13.84V30.45h3.35V49.88Z"/><path class="cls-1" d="M105.18,41.21h-8v5.95h9.32v2.72H93.83V30.45h12.61v2.73H97.21v5.36h8v2.67Z"/><path class="cls-1" d="M116,37.47l4.08-7h3.9l-5.87,9.64,6,9.79h-3.93L116,42.75l-4.19,7.13h-3.92l6-9.79L108,30.45h3.9Z"/><polygon class="cls-2" points="154.06 40.35 150.72 35.59 154.12 31.24 160 40.27 150.12 49.47 149.21 49.47 154.06 40.35"/><polygon class="cls-2" points="135.09 40.35 138.43 35.59 135.03 31.24 129.15 40.27 139.94 49.47 140.85 49.47 135.09 40.35"/><polygon class="cls-3" points="137.23 40.35 144.73 30.12 152.23 40.35 147.65 49.47 142.32 49.47 137.23 40.35"/></g></svg>