<svg id="Calque_1" data-name="Calque 1" xmlns="http://www.w3.org/2000/svg" viewBox="0 0 160 80"><defs><style>.cls-1{fill:#1a4ef8;}</style></defs><title>exmo</title><g id="exmo"><path class="cls-1" d="M46,29l-9,24.8-.06.15L35.3,50.55l-3.44,1.6,9-24.95,3.44-1.6Zm22.45.58-9,24.84L57.81,51l-3.44,1.6.21-.59,9-24.83L67,25.6,68.62,29ZM49.22,51l5.28-14.6L51.06,38l-1.64-3.38-5.3,14.6,1.64,3.38ZM20.65,36.64H4.87L7.56,39.2,4.87,41.8H20.63l2.68-2.6Zm-18,10.82h25.5l-2.68,2.59,2.68,2.57H2.69L0,50.05Zm7.82-21.65H36l-2.67,2.58L36,31H10.51L7.82,28.39Z"/><path class="cls-1" d="M139.34,40.8a9.85,9.85,0,0,1,6.19-9.24,10.77,10.77,0,0,1,4.16-.8,11,11,0,0,1,4.16.8,10,10,0,0,1,3.27,2.15,9.87,9.87,0,0,1,2.1,3.2,10.11,10.11,0,0,1-2.12,11,10,10,0,0,1-3.3,2.18,10.82,10.82,0,0,1-4.17.8,10.65,10.65,0,0,1-5.33-1.36,9.53,9.53,0,0,1-3.67-3.65,10,10,0,0,1-1.29-5ZM82.4,39H92.8V42.4H82.4v4.7H93.34v3.39H78.54V31.06H93.18v3.4H82.4ZM95.2,50.49l6.9-9.88-6.65-9.55h4.46l4.8,6.89,4.8-6.89h4.36l-6.67,9.5,6.86,9.93H109.6l-5-7.28L99.5,50.49Zm21.26,0V31.06h4.09l6,8.68,6-8.68h4.07V50.49H132.8V37.08l-6.23,8.42h-.17l-6.19-8.36V50.5ZM143.2,40.8a7.06,7.06,0,0,0,.8,3.37,6.55,6.55,0,0,0,8.91,2.52l.11-.07a6.1,6.1,0,0,0,2.3-2.4,7.11,7.11,0,0,0,.8-3.39,6.91,6.91,0,0,0-.8-3.36,6.55,6.55,0,0,0-8.9-2.53l-.13.08a6.1,6.1,0,0,0-2.3,2.4A7.07,7.07,0,0,0,143.2,40.8Z"/></g></svg>