<svg id="Calque_1" data-name="Calque 1" xmlns="http://www.w3.org/2000/svg" viewBox="0 0 160 80"><defs><style>.cls-1{fill:#212b36;}.cls-2{fill:#22c7a9;}</style></defs><title>exscudo</title><g id="exscudo"><path id="a1" class="cls-1" d="M55.18,30.86l-.91,1.05H44.45v6.91h8v2.4h-8v6.89H55.18v2.4H41.12v-21H55.18Z"/><path id="b2" class="cls-1" d="M65.41,42.11l-5,8.4H57.25V49l6.2-9.14L57.7,31V29.51h3.18l4.52,8.4h.15l4.55-8.4h3.16V31l-5.73,8.85L73.73,49v1.51H70.55l-5-8.41Z"/><path id="c3" class="cls-1" d="M79.35,40.46c-2.42-.57-3.93-2.1-3.93-4.65V34c0-2.73,1.79-4.5,5.14-4.5h8.76v1.35l-.91,1.05H80.85A2.06,2.06,0,0,0,78.73,34v1.8a2.18,2.18,0,0,0,1.8,2.1l5.76,1.36c2.42.57,3.92,2.1,3.92,4.65V46c0,2.72-1.79,4.5-5.13,4.5H75.42V48.12h9.36A2.07,2.07,0,0,0,86.9,46V43.9a2.18,2.18,0,0,0-1.8-2.1l-5.74-1.34Z"/><path id="d4" class="cls-1" d="M93,34c0-2.73,1.79-4.5,5.14-4.5h9.22v1.35l-.92,1.05h-8A2.06,2.06,0,0,0,96.28,34V46a2.06,2.06,0,0,0,2.12,2.1h8.92v2.4H98.11C94.76,50.52,93,48.75,93,46V34Z"/><path id="e5" class="cls-1" d="M122.18,29.51h3.33V46.3c0,2.73-1.79,4.51-5.14,4.51h-5.75c-3.35,0-5.14-1.78-5.14-4.51V29.51h3.33V46.3a2.06,2.06,0,0,0,2.12,2.1h5.14a2.06,2.06,0,0,0,2.12-2.1V29.51Z"/><path id="f6" class="cls-1" d="M142.53,46c0,2.73-1.79,4.51-5.14,4.51H127.11v-21h10.28c3.35,0,5.14,1.77,5.14,4.5Zm-12.1-14.11v16.2h6.65A2.07,2.07,0,0,0,139.2,46V34a2.07,2.07,0,0,0-2.12-2.11h-6.65v0Z"/><path id="g7" class="cls-1" d="M144.29,33.72c0-2.73,1.79-4.51,5.14-4.51h5.43c3.35,0,5.14,1.78,5.14,4.51v12.6c0,2.73-1.79,4.5-5.14,4.5h-5.43c-3.35,0-5.14-1.77-5.14-4.5V33.72Zm3.33,12.6a2.06,2.06,0,0,0,2.12,2.1h4.84a2.06,2.06,0,0,0,2.12-2.1V33.71a2.06,2.06,0,0,0-2.12-2.1h-4.84a2.06,2.06,0,0,0-2.12,2.1Z"/><path id="h8" class="cls-2" d="M33,42.27a1.11,1.11,0,0,0-.6-1L30.4,40l2-1.25a1.16,1.16,0,0,0,.61-1V34.36a1.11,1.11,0,0,0-.6-1L18,24.31a3,3,0,0,0-2.93,0l-14.42,9a1.12,1.12,0,0,0-.63.93v3.55a1.11,1.11,0,0,0,.61.92l13.08,8.17,2.84,1.78L20,50.9l-2,1.26a3,3,0,0,1-2.93,0L13,50.9l2.49-1.56L12.7,47.56l-2.49,1.56L2,44,4.5,42.44,1.65,40.65l-1,.63A1.12,1.12,0,0,0,0,42.2v3.54a1.11,1.11,0,0,0,.62.92l9.56,6,4.86,3a3,3,0,0,0,2.93,0l4.86-3,9.56-6a1.16,1.16,0,0,0,.61-.95V42.19a.19.19,0,0,1,0,.08Zm-5.45-4.05-8.19-5.13,3.44-2.17L31,36.05l-3.45,2.17ZM18,27.86l2,1.27-3.45,2.18L13,29.12l2-1.25a3.12,3.12,0,0,1,2.94,0Zm4.89,21.25-3.5-2.19,7.21-4.51-2.84-1.78-7.21,4.53L8.32,40l7.23-4.52L12.7,33.72,5.49,38.24,2,36.06l8.29-5.2v.07l3.45,2.15,2.83,1.77L24.73,40l.5.32L31.05,44l-8.19,5.16Z"/></g></svg>