<svg id="Calque_1" data-name="Calque 1" xmlns="http://www.w3.org/2000/svg" viewBox="0 0 160 80"><defs><style>.cls-1{fill:#f8aa1b;}.cls-2{fill:#002;}</style></defs><title>exx</title><g id="exx"><path class="cls-1" d="M60.58,29.47H47.1a10.54,10.54,0,0,0,0,21.08H62l-5.64,6.56H47.1a17.11,17.11,0,0,1,0-34.22h9.26L62,29.47Zm7.66,7.26H46.64v6.56h21.6L71.06,40Z"/><path class="cls-1" d="M103.54,23.45h-9.3l-6.7,7.8c-.16.18-.32.36-.48.52a2.16,2.16,0,0,1-1.48.62,2.08,2.08,0,0,1-1.44-.58,4.41,4.41,0,0,1-.48-.56l-6.72-7.8H67.66L79.6,37.37h0l.32.34a2.23,2.23,0,0,1,.36,1.2,1.94,1.94,0,0,1-.42,1.24,4.68,4.68,0,0,1-.5.6L65.78,56.57h9.28l8.6-10A4.89,4.89,0,0,1,84.2,46a2.12,2.12,0,0,1,1.42-.54,2.15,2.15,0,0,1,1.44.58l9.06,10.54h9.3L91.72,40.65c-.1-.14-.22-.26-.32-.4a2,2,0,0,1-.5-1.34,2.06,2.06,0,0,1,.5-1.34l.3-.36Z"/><path class="cls-2" d="M128.16,23.49H119l-6.6,7.68c-.14.16-.32.36-.46.5a2.08,2.08,0,0,1-2.88,0c-.14-.14-.34-.38-.48-.54l-.44-.52L103.6,36l1,1.2h0l.28.36a1.92,1.92,0,0,1,.38,1.16,2.1,2.1,0,0,1-.42,1.24c-.12.16-.34.42-.48.58l-1,1.14L108,47l.62-.74a7.27,7.27,0,0,1,.54-.56,2.07,2.07,0,0,1,1.4-.54,2,2,0,0,1,1.42.56l8.92,10.38H130L116.54,40.41c-.1-.14-.22-.26-.32-.4a2.06,2.06,0,0,1-.48-1.32,2.14,2.14,0,0,1,.48-1.32c.1-.1.22-.24.3-.34Z"/></g></svg>