<svg id="Calque_1" data-name="Calque 1" xmlns="http://www.w3.org/2000/svg" viewBox="0 0 160 80"><defs><style>.cls-1{fill:#405e6e;}.cls-2{fill:#00b07c;}</style></defs><title>fcoin</title><g id="fcoin"><path class="cls-1" d="M63.83,29.23v1.58H46.28V29.23ZM46.28,40V52h1.59V41.59h16V40H46.28Z"/><path class="cls-1" d="M90,47.89a10.37,10.37,0,0,1-6.78,2.49A10,10,0,0,1,73,40.6a10,10,0,0,1,10.19-9.79A10.34,10.34,0,0,1,90.67,34l1.13-1.13a11.94,11.94,0,0,0-8.59-3.59A11.58,11.58,0,0,0,71.43,40.6,11.58,11.58,0,0,0,83.21,52,12,12,0,0,0,91.12,49Z"/><path class="cls-1" d="M109.93,29.23A11.58,11.58,0,0,0,98.16,40.6a11.78,11.78,0,0,0,23.55,0A11.58,11.58,0,0,0,109.93,29.23Zm0,21.15A10,10,0,0,1,99.75,40.6a10.19,10.19,0,0,1,20.37,0A10,10,0,0,1,109.93,50.38Z"/><rect class="cls-1" x="129.68" y="29.23" width="1.59" height="22.74"/><polygon class="cls-1" points="158.41 29.23 158.41 50.09 140.84 29.23 139.25 29.23 139.25 51.97 140.84 51.97 140.84 31.11 158.41 51.97 160 51.97 160 29.23 158.41 29.23"/><circle class="cls-2" cx="3.59" cy="25.63" r="3.59"/><circle class="cls-2" cx="13.96" cy="25.63" r="2.94"/><circle class="cls-2" cx="24.12" cy="25.63" r="2"/><circle class="cls-2" cx="34.39" cy="25.63" r="1.4"/><circle class="cls-2" cx="13.96" cy="35.6" r="2.94"/><circle class="cls-2" cx="24.13" cy="35.61" r="1.99"/><circle class="cls-2" cx="34.39" cy="35.61" r="1.39"/><circle class="cls-2" cx="13.96" cy="45.58" r="1.99"/><circle class="cls-2" cx="24.21" cy="45.58" r="1.21"/><circle class="cls-2" cx="3.59" cy="35.61" r="3.59"/><circle class="cls-2" cx="3.59" cy="45.46" r="3.06"/><circle class="cls-2" cx="3.59" cy="55.96" r="2"/><circle class="cls-2" cx="13.96" cy="55.96" r="1.2"/></g></svg>