<svg id="Calque_1" data-name="Calque 1" xmlns="http://www.w3.org/2000/svg" viewBox="0 0 160 80"><defs><style>.cls-1{fill:#577fad;}</style></defs><title>flowbtc</title><g id="flowbtc"><path class="cls-1" d="M45.68,53.07h-4.9v-26h4.9v26M0,27.1V51.25L21.25,31.44,1.86,53.07H26v-26H0M88.63,34,87.3,39.79l-1.49,6.45-1.49-6.45L83,34H77.86l-1.32,5.75-1.49,6.45-1.49-6.45L72.23,34H66.86l5.31,19H77.6l1.34-5.77,1.49-6.44,1.48,6.44,1.34,5.78h5.44L94,34H88.63m49.05-6.94h-21v4.61h7.77V53.07h5.39V31.71h7.81V27.1M37.47,31.28h1.29V27.09H36.13A6.45,6.45,0,0,0,33,28.34a6.8,6.8,0,0,0-2.27,3,13.55,13.55,0,0,0-.1,2v.3H27.88v3.88H30.7V53.07h4.9V37.53h3.15V33.65H35.64v-.3c.13-2,1.12-2,1.83-2.07M62.2,44.78a4.77,4.77,0,0,1-9.5,0v-3a4.77,4.77,0,0,1,9.5,0ZM57.45,33.53a9.76,9.76,0,1,0,9.76,9.76,9.76,9.76,0,0,0-9.76-9.76m50.34,15.19-5.8,0h-2V41.81h2.48s3.51,0,5.35,0a3.47,3.47,0,0,1,0,6.94Zm-7.82-17h7.6a2.92,2.92,0,0,1,0,5.83c-1.58,0-4-.07-4-.07H100V31.68Zm12.47,7.44a6.54,6.54,0,0,0-2.89-12v0H95V53h4.38v.06h9.38v0h.2a7.5,7.5,0,0,0,7.63-7.36,7.33,7.33,0,0,0-4.13-6.54m42.13,5c0,.08,0,.16,0,.23a5.29,5.29,0,0,1-5.55,5,5.68,5.68,0,0,1-4.89-2.62,17.8,17.8,0,0,1-1.33-4.38,24.64,24.64,0,0,1,0-4.38,19.92,19.92,0,0,1,1.14-4,5.59,5.59,0,0,1,5.08-3,5.32,5.32,0,0,1,5.53,4.7H160c-.09-5.12-4.94-9.25-10.92-9.25-4.81,0-8.89,2.68-10.35,6.39a22.38,22.38,0,0,0-1,3,29.69,29.69,0,0,0-.38,4.23,29.82,29.82,0,0,0,.38,4.23,18.11,18.11,0,0,0,1.17,3.49c1.61,3.47,5.55,5.91,10.15,5.91,6,0,10.92-4.21,10.92-9.4V44.1h-5.43"/></g></svg>