<svg id="Calque_1" data-name="Calque 1" xmlns="http://www.w3.org/2000/svg" xmlns:xlink="http://www.w3.org/1999/xlink" viewBox="0 0 160 80"><defs><style>.cls-1{fill:url(#Dégradé_sans_nom_17);}.cls-2{fill:url(#Dégradé_sans_nom_17-2);}.cls-3{fill:url(#Dégradé_sans_nom_17-3);}.cls-4{fill:#1d3b4e;}</style><linearGradient id="Dégradé_sans_nom_17" x1="10" y1="37.13" x2="28.99" y2="37.13" gradientUnits="userSpaceOnUse"><stop offset="0" stop-color="#ea673c"/><stop offset="1" stop-color="#ca5d52"/></linearGradient><linearGradient id="Dégradé_sans_nom_17-2" x1="26.82" y1="45" x2="57.58" y2="45" xlink:href="#Dégradé_sans_nom_17"/><linearGradient id="Dégradé_sans_nom_17-3" x1="58.17" y1="37.03" x2="84.6" y2="37.03" xlink:href="#Dégradé_sans_nom_17"/></defs><title>foxbit</title><g id="foxbit"><polygon class="cls-1" points="28.99 29.89 28.99 24.6 10 24.6 10 24.6 10 29.89 10 49.66 16.07 49.66 16.07 41.05 26.25 41.05 26.25 35.56 16.07 35.56 16.07 29.89 28.99 29.89"/><path class="cls-2" d="M51.71,54.56c-3.53-1-6.47.19-9.6,1.17-7.83,2.35-9.79-2.74-8.42-6.46a3.7,3.7,0,0,1,1.85-2.09,13.34,13.34,0,1,0-1.88-2A8.36,8.36,0,0,0,27.23,52c-2.15,9.4,4.5,14.88,11.75,14.1,4.7-.39,6.66-4.11,11.36-6.27,1.76-.78,3.52-1.17,5.28-.19.59.19,1,.59,1.57.78C57,57.89,54.45,55.34,51.71,54.56ZM48.57,60a16.44,16.44,0,0,0-2,1.37c.19-1.57,1.76-2.35,2.15-3.33a4.77,4.77,0,0,0-2.94.39c0-1,1.57-1.76,2.55-2.35,0-.19.19,0-.2-.19s-1.76-.59-2.15-.79a12.08,12.08,0,0,1,6.46.4,5.82,5.82,0,0,1,3.72,3.72C53.27,57.89,51.71,58.08,48.57,60Z"/><polygon class="cls-3" points="84.6 28.52 79.9 23.82 71.48 32.43 62.87 23.82 58.17 28.52 66.78 36.94 58.17 45.75 62.87 50.25 71.48 41.83 79.9 50.25 84.6 45.75 75.99 37.13 84.6 28.52"/><path class="cls-4" d="M108.69,36.35a9.46,9.46,0,0,0,1-4.31,7.29,7.29,0,0,0-7.44-7.44H88.71V49.66H103a7.77,7.77,0,0,0,7.83-8,9.08,9.08,0,0,0-2-5.28h-.19ZM94.78,29.49h7A2.41,2.41,0,0,1,104,32a2.22,2.22,0,0,1-2.16,2.35h-7Zm8,15.08h-8V39.28h8a2.75,2.75,0,0,1,0,5.49h0Z"/><polygon class="cls-4" points="114.95 24.6 114.95 49.66 121.02 49.66 121.02 24.6 114.95 24.6"/><polygon class="cls-4" points="150 24.6 124.94 24.6 124.94 29.89 134.53 29.89 134.53 49.66 140.6 49.66 140.6 29.89 150 29.89 150 24.6"/></g></svg>