<svg id="Calque_1" data-name="Calque 1" xmlns="http://www.w3.org/2000/svg" viewBox="0 0 160 80"><defs><style>.cls-1{fill:#de5959;}</style></defs><title>gateio</title><g id="gateio"><path class="cls-1" d="M102.83,45.93a2.28,2.28,0,0,0-1.67.7,2.25,2.25,0,0,0-.69,1.65,2.35,2.35,0,0,0,4,1.7,2.3,2.3,0,0,0,.69-1.68,2.25,2.25,0,0,0-.69-1.67,2.28,2.28,0,0,0-1.67-.69Zm-38-18H63a1.38,1.38,0,0,0-1.38,1.38v1a8.65,8.65,0,0,0-6.38-2.93,8.88,8.88,0,0,0-6.86,3.05,11,11,0,0,0-2.73,7.64,11.3,11.3,0,0,0,2.75,7.78,9,9,0,0,0,13.24.33v1.95a1.72,1.72,0,0,0,1.72,1.71h3V29.51a1.58,1.58,0,0,0-1.58-1.58Zm-4.46,15a5.38,5.38,0,0,1-4.22,1.79A5.16,5.16,0,0,1,52,42.83a7.09,7.09,0,0,1-1.57-4.77,6.8,6.8,0,0,1,1.61-4.61,5.25,5.25,0,0,1,4.07-1.84,5.33,5.33,0,0,1,4.19,1.82A6.94,6.94,0,0,1,62,38.15a7,7,0,0,1-1.61,4.73ZM45.66,31.37v-2a1.42,1.42,0,0,0-1.42-1.43H42.38A1.42,1.42,0,0,0,41,29.36v.88a8.19,8.19,0,0,0-6.4-2.87,8.65,8.65,0,0,0-7.07,3.3A11.78,11.78,0,0,0,25,38.25a11.14,11.14,0,0,0,2.68,7.63,8.67,8.67,0,0,0,6.82,3A8.81,8.81,0,0,0,41,46v2.84q0,6.35-5.18,6.34a5.06,5.06,0,0,1-4.27-1.9,4.17,4.17,0,0,1-.62-1.21A1.66,1.66,0,0,0,29.31,51H27.55a1.38,1.38,0,0,0-1.34,1.72A8.55,8.55,0,0,0,29,57.24a10.13,10.13,0,0,0,6.71,2.19,9.52,9.52,0,0,0,7.59-3.18,8.63,8.63,0,0,0,2-4c.11-.56.19-1.2.26-1.94s.09-1.58.09-2.54v-3a11.58,11.58,0,0,1-2-6.8,11.25,11.25,0,0,1,2-6.68Zm-6,11.35a5.15,5.15,0,0,1-4.26,2,5.07,5.07,0,0,1-4.23-1.94,7.15,7.15,0,0,1-1.4-4.56,7.25,7.25,0,0,1,1.4-4.6,5.07,5.07,0,0,1,4.23-2,5.28,5.28,0,0,1,4.12,1.82,6.87,6.87,0,0,1,1.59,4.75,7,7,0,0,1-1.45,4.57ZM84.78,28v0H75V22a1.39,1.39,0,0,0-1.39-1.39H71.72A1.41,1.41,0,0,0,70.32,22v5.95h-2v4.39h2V49.83H73a2,2,0,0,0,2-2V32.32h4.83a9.81,9.81,0,0,1,1.39-2A8.69,8.69,0,0,1,84.77,28Zm24-7.38a3,3,0,0,0-2.16.9,2.91,2.91,0,0,0-.9,2.13,3.07,3.07,0,0,0,3.08,3.1,2.89,2.89,0,0,0,2.15-.9,2.94,2.94,0,0,0,.9-2.18,2.84,2.84,0,0,0-.9-2.15A3,3,0,0,0,108.8,20.57Zm1,9.67H108a1.59,1.59,0,0,0-1.59,1.59v15a2.22,2.22,0,0,1,.54,1.49,2.29,2.29,0,0,1-.54,1.51v.84h3a1.68,1.68,0,0,0,1.68-1.68V31.66a1.42,1.42,0,0,0-1.41-1.42Zm22.11,2.89a11.12,11.12,0,0,0-15.43,0,10.09,10.09,0,0,0-3.16,7.5,10.58,10.58,0,0,0,3.09,7.79A10.38,10.38,0,0,0,124,51.53a10.79,10.79,0,0,0,7.8-3.07A10.29,10.29,0,0,0,135,40.79a10.35,10.35,0,0,0-3.14-7.66Zm-3.32,12.42a6.34,6.34,0,0,1-8.83,0,6.84,6.84,0,0,1-1.63-4.83,6.56,6.56,0,0,1,1.67-4.64,6.27,6.27,0,0,1,8.79,0,6.69,6.69,0,0,1,1.65,4.74,6.72,6.72,0,0,1-1.65,4.75Zm-42-.82a6.16,6.16,0,0,1-1.63-4H98.39a1.14,1.14,0,0,0,1.13-1.11q0-5-2.6-7.89a10.2,10.2,0,0,0-14.26.09A11.3,11.3,0,0,0,80,39.65a11,11,0,0,0,2.76,7.82,9,9,0,0,0,4.73,2.66,9.26,9.26,0,0,0,2.42.27l9.6.21v-.49a2.32,2.32,0,0,1-.62-1.61,2.25,2.25,0,0,1,.63-1.59v-.59c-2.64-.06-9-.12-9.3-.12a5,5,0,0,1-3.7-1.46Zm-.65-9.41a5.23,5.23,0,0,1,1.06-1.18,4.46,4.46,0,0,1,1.37-.75,4.73,4.73,0,0,1,1.61-.26,4.5,4.5,0,0,1,4.75,3.76H85.21a5.72,5.72,0,0,1,.67-1.57Z"/></g></svg>