<svg id="Calque_1" data-name="Calque 1" xmlns="http://www.w3.org/2000/svg" viewBox="0 0 160 80"><defs><style>.cls-1{fill:#dd8107;}.cls-2{fill:#013449;}</style></defs><title>gatecoin</title><g id="gatecoin"><g id="icon"><path class="cls-1" d="M21.16,61.16A21.16,21.16,0,1,1,42.31,40,21.18,21.18,0,0,1,21.16,61.16Zm0-40.27A19.11,19.11,0,1,0,40.27,40,19.13,19.13,0,0,0,21.16,20.89Z"/><path class="cls-1" d="M24.56,24.79a1.36,1.36,0,0,0-1.65,1.32v.47h0V39.73h0A1.3,1.3,0,0,0,24.21,41H34.65a13.53,13.53,0,0,1-8.26,11.44,1,1,0,0,1-1.42-1v-2.4a1,1,0,0,0-1-1h0a1,1,0,0,0-1,1v5.17a1,1,0,0,0,1.21,1,15.58,15.58,0,0,0,.45-30.51Zm2.36,3a13.56,13.56,0,0,1,5.71,5.05H25V29A1.35,1.35,0,0,1,26.92,27.77ZM25,34.87h8.7a13.67,13.67,0,0,1,1,4.1H26.28a1.3,1.3,0,0,1-1.3-1.3v-2.8Z"/><path class="cls-1" d="M5.57,40A15.61,15.61,0,0,0,18.19,55.31a1,1,0,0,0,1.21-1h0a1,1,0,0,0-.82-1A13.57,13.57,0,0,1,7.67,41H18.11a1.29,1.29,0,0,0,1.29-1.29h0V26.58h0v-.47a1.35,1.35,0,0,0-1.65-1.32A15.61,15.61,0,0,0,5.57,40Zm2.1-1a13.29,13.29,0,0,1,1-4.1h8.7v2.8A1.3,1.3,0,0,1,16.05,39Zm9.67-6.17H9.7a13.62,13.62,0,0,1,5.7-5.06A1.36,1.36,0,0,1,17.34,29Z"/></g><g id="text"><path class="cls-2" d="M59.77,33.28h1.78v11A13,13,0,0,1,61,48.55a5.57,5.57,0,0,1-2.43,2.93,8,8,0,0,1-4.16,1,9.62,9.62,0,0,1-3.19-.5A6.56,6.56,0,0,1,49,50.67a8,8,0,0,1-1.64-2.48h1.93a5.07,5.07,0,0,0,2,2,7.41,7.41,0,0,0,6.16,0,4.18,4.18,0,0,0,1.79-1.71,7.63,7.63,0,0,0,.53-3.31v-.71a6.76,6.76,0,0,1-2.45,2,7.26,7.26,0,0,1-3.09.68,7.09,7.09,0,0,1-3.58-1,6.62,6.62,0,0,1-2.59-2.55,7.19,7.19,0,0,1,0-7.09,7.23,7.23,0,0,1,6.2-3.58,6.74,6.74,0,0,1,2.89.63,8,8,0,0,1,2.59,2.11v-2.4Zm-5.24,1.36a5.58,5.58,0,0,0-2.81.73,5.28,5.28,0,0,0-2,2,5.49,5.49,0,0,0-.74,2.79,5.06,5.06,0,0,0,1.52,3.76,6,6,0,0,0,7.9,0,5.24,5.24,0,0,0,1.5-3.88,5.6,5.6,0,0,0-.69-2.79,5,5,0,0,0-2-1.93A5.36,5.36,0,0,0,54.53,34.64Z"/><path class="cls-2" d="M79.13,33.28V47.1H77.38V44.73a7.55,7.55,0,0,1-2.51,2.05,7,7,0,0,1-8.06-1.44,7.16,7.16,0,0,1-2.07-5.18,7,7,0,0,1,2.1-5.11,6.85,6.85,0,0,1,5-2.12,6.54,6.54,0,0,1,3.08.72,7.1,7.1,0,0,1,2.43,2.17V33.28ZM72,34.64a5.34,5.34,0,0,0-4.73,2.78,5.53,5.53,0,0,0,0,5.58,5.51,5.51,0,0,0,2,2.08,5.34,5.34,0,0,0,2.71.74,5.6,5.6,0,0,0,2.77-.73,5.22,5.22,0,0,0,2-2,5.63,5.63,0,0,0,.7-2.83,5.51,5.51,0,0,0-1.57-4A5.31,5.31,0,0,0,72,34.64Z"/><path class="cls-2" d="M84.69,28.15h1.78v5.13h2.82v1.54H86.47V47.1H84.69V34.82H82.27V33.28h2.42Z"/><path class="cls-2" d="M103.59,42.52l1.5.78a8.29,8.29,0,0,1-1.71,2.34A6.78,6.78,0,0,1,101.21,47a7.57,7.57,0,0,1-2.74.46,6.57,6.57,0,0,1-5.28-2.22,7.55,7.55,0,0,1-.3-9.7,6.6,6.6,0,0,1,5.49-2.62A6.79,6.79,0,0,1,104,35.6a7.58,7.58,0,0,1,1.53,4.72H93.11a5.61,5.61,0,0,0,1.54,4,4.88,4.88,0,0,0,3.68,1.54,6,6,0,0,0,2-.37,5.45,5.45,0,0,0,1.71-1A8.25,8.25,0,0,0,103.59,42.52Zm0-3.72a6.1,6.1,0,0,0-1-2.28,5,5,0,0,0-1.8-1.37,5.63,5.63,0,0,0-2.35-.52,5.09,5.09,0,0,0-3.5,1.31,5.91,5.91,0,0,0-1.62,2.86Z"/><path class="cls-2" d="M122.28,36.16l-1.41.87a5.89,5.89,0,0,0-5-2.42,5.77,5.77,0,0,0-4.19,1.62,5.31,5.31,0,0,0-1.67,4,5.63,5.63,0,0,0,.76,2.84,5.32,5.32,0,0,0,2.11,2.07,6.11,6.11,0,0,0,3,.73,6,6,0,0,0,5-2.42l1.41.93a6.65,6.65,0,0,1-2.66,2.31,8.36,8.36,0,0,1-3.8.83,7.49,7.49,0,0,1-5.44-2.08,6.78,6.78,0,0,1-2.16-5.07,7.21,7.21,0,0,1,1-3.73A7.09,7.09,0,0,1,112,33.91,8,8,0,0,1,116,33a8.23,8.23,0,0,1,2.66.42,7.41,7.41,0,0,1,2.16,1.09A5.66,5.66,0,0,1,122.28,36.16Z"/><path class="cls-2" d="M132.24,32.93a6.86,6.86,0,0,1,5.3,2.31,7.42,7.42,0,0,1-.11,10.06,7.32,7.32,0,0,1-10.38,0,7.41,7.41,0,0,1-.11-10A6.81,6.81,0,0,1,132.24,32.93Zm0,1.73a5.1,5.1,0,0,0-3.81,1.64,5.46,5.46,0,0,0-1.6,4,5.6,5.6,0,0,0,.73,2.8,5.12,5.12,0,0,0,2,2,5.43,5.43,0,0,0,2.72.7,5.54,5.54,0,0,0,2.72-.7,5.12,5.12,0,0,0,2-2,5.71,5.71,0,0,0,.73-2.8,5.44,5.44,0,0,0-1.6-4A5.15,5.15,0,0,0,132.23,34.66Z"/><path class="cls-2" d="M143.35,27.59a1.38,1.38,0,0,1,1,.43,1.44,1.44,0,0,1,.43,1,1.48,1.48,0,0,1-.43,1,1.39,1.39,0,0,1-1,.42,1.41,1.41,0,0,1-1-.42,1.46,1.46,0,0,1-.43-1,1.44,1.44,0,0,1,.43-1A1.41,1.41,0,0,1,143.35,27.59Zm-.88,5.69h1.77V47.1h-1.77Z"/><path class="cls-2" d="M147.94,33.28h1.78v2.48a7.34,7.34,0,0,1,2.36-2.13,5.84,5.84,0,0,1,2.82-.7,4.89,4.89,0,0,1,2.75.78,4.73,4.73,0,0,1,1.78,2.12A11.51,11.51,0,0,1,160,40V47.1h-1.78V40.51a16.5,16.5,0,0,0-.19-3.18,3.25,3.25,0,0,0-3.48-2.76,4.42,4.42,0,0,0-2.9,1.06A5,5,0,0,0,150,38.28a18.45,18.45,0,0,0-.25,3.76V47.1h-1.78Z"/></g></g></svg>