<svg id="Calque_1" data-name="Calque 1" xmlns="http://www.w3.org/2000/svg" viewBox="0 0 160 80"><defs><style>.cls-1{fill:#0075be;}.cls-2{fill:#0080a4;}.cls-3{fill:#00a0dd;}.cls-4{fill:#085587;}</style></defs><title>globitex</title><g id="globitex"><rect class="cls-1" x="21.81" y="28.82" width="6.88" height="15.94" transform="translate(-18.62 28.63) rotate(-44.99)"/><rect class="cls-2" x="4.63" y="35.24" width="6.88" height="15.94" transform="translate(-28.19 18.36) rotate(-44.99)"/><rect class="cls-3" x="11.9" y="45.15" width="15.94" height="6.88" transform="translate(-28.54 28.28) rotate(-44.99)"/><rect class="cls-4" x="5.48" y="27.97" width="15.94" height="6.88" transform="translate(-18.27 18.71) rotate(-45)"/><path class="cls-4" d="M58.33,48.81A9.36,9.36,0,0,1,45.21,49c-2.39-2.4-2.36-5.11-2.36-9.8s0-7.4,2.36-9.8a8.76,8.76,0,0,1,6.41-2.6,8.57,8.57,0,0,1,8.87,7.57H56.76a5,5,0,0,0-5.14-4.25A4.93,4.93,0,0,0,48,31.61c-1.19,1.3-1.47,2.67-1.47,7.57s.27,6.31,1.47,7.61a4.88,4.88,0,0,0,3.6,1.47,5.17,5.17,0,0,0,4-1.71,5.47,5.47,0,0,0,1.24-3.84V41.33H51.62V38.18h8.91v3.74c0,3.15-.59,5.17-2.19,6.88"/><path class="cls-4" d="M69.54,51.37c-3.33,0-4.76-2.23-4.76-4.8V27h3.49V46.37c0,1.33.48,2,1.88,2h1.54v3Z"/><path class="cls-4" d="M88.51,42.67c0-2.91-.41-5.1-2.05-6.82a7,7,0,0,0-5.21-2.05,7,7,0,0,0-5.17,2.05C74.43,37.56,74,39.76,74,42.67s.41,5.14,2.06,6.85a7,7,0,0,0,5.17,2.06,7,7,0,0,0,5.21-2.06h0C88.1,47.81,88.51,45.62,88.51,42.67Zm-4.69,4.76a3.53,3.53,0,0,1-2.57,1,3.44,3.44,0,0,1-2.53-1c-1.06-1.06-1.2-2.88-1.2-4.76s.13-3.7,1.2-4.76a3.41,3.41,0,0,1,2.53-1,3.52,3.52,0,0,1,2.57,1h0C84.88,39,85,40.79,85,42.67S84.88,46.37,83.82,47.43Z"/><path class="cls-4" d="M104.13,35.34a5.88,5.88,0,0,0-4.21-1.54,5.36,5.36,0,0,0-4.56,2V27H91.87V51.37h3.42V49.52a5.36,5.36,0,0,0,4.59,2.06A6.07,6.07,0,0,0,104.13,50h0c1.75-1.74,2-4.72,2-7.36S105.88,37.09,104.13,35.34ZM99,48.46c-3.15,0-3.63-2.71-3.63-5.79s.48-5.76,3.63-5.76,3.6,2.68,3.6,5.76S102.14,48.46,99,48.46Z"/><path class="cls-4" d="M109.34,26.88H113v3.69h-3.7V26.88Zm.1,7.12h3.5V51.37h-3.49V34Z"/><path class="cls-4" d="M123.66,51.37a4.52,4.52,0,0,1-4.77-4.26,5.42,5.42,0,0,1,0-.57V37h-2V34.31h2V29h3.5v5.28h3.35V37h-3.35v9.39a1.77,1.77,0,0,0,1.48,2,2.14,2.14,0,0,0,.44,0h1.43v3h-2.08Z"/><path class="cls-4" d="M143.25,43.7V42.16c0-4.93-2.71-8.36-7.37-8.36-4.45,0-7.36,3.26-7.36,8.87,0,6.62,3.46,8.91,7.81,8.91a8.14,8.14,0,0,0,6.51-2.71l-2.23-2.09a5.17,5.17,0,0,1-4.21,1.78c-2.84,0-4.42-1.88-4.42-4.86h11.27Zm-10.83-4.8a3.65,3.65,0,0,1,3.46-2.19,3.59,3.59,0,0,1,3.43,2.19h0a5.53,5.53,0,0,1,.48,2.37H132A5.52,5.52,0,0,1,132.42,38.9Z"/><polygon class="cls-1" points="152.17 45.47 154.07 42.5 152.22 39.56 148.72 34 144.5 34 150.22 42.54 152.17 45.47"/><path class="cls-4" d="M154.07,42.5l5.69-8.5h-4.21l-3.33,5.56Zm-1.9,3,3.62,5.9H160l-5.93-8.87Z"/><polygon class="cls-3" points="149.67 43.07 151.63 46 148.49 51.36 144.27 51.36 149.67 43.07"/></g></svg>