<svg id="Calque_1" data-name="Calque 1" xmlns="http://www.w3.org/2000/svg" viewBox="0 0 160 80"><defs><style>.cls-1{fill:#ffba00;}.cls-2{fill:#171b23;}</style></defs><title>gopax</title><g id="gopax"><path class="cls-1" d="M145.32,24.1,124.23,52.27c0,.17-.16.17-.32.17H12.54c-.17,0-.17,0-.33.16l-2.15,2.8c-.16.33,0,.66.33.66H126.05c.16,0,.16,0,.33-.16l23.56-31.14c.16-.33,0-.66-.33-.66h-3.79c-.17-.16-.33,0-.5,0"/><path class="cls-2" d="M53.28,23.94A12.1,12.1,0,0,0,40.92,36.13a11.93,11.93,0,0,0,12.19,12A12.11,12.11,0,0,0,65.47,36a11.92,11.92,0,0,0-12.19-12m0,19.93a7.49,7.49,0,0,1-7.58-7.74,7.58,7.58,0,1,1,15.15,0,7.59,7.59,0,0,1-7.57,7.74M84,24H74.48a.36.36,0,0,0-.33.33V47.67a.35.35,0,0,0,.33.33h3.79a.35.35,0,0,0,.33-.33V39.93a.35.35,0,0,1,.33-.33h4.78c5.1,0,9.39-3.29,9.39-7.91.16-4.44-4-7.74-9.06-7.74M78.76,35.32V28.4a.35.35,0,0,1,.33-.33h4.62c2.63,0,4.94,1.65,4.94,4s-2.31,3.79-4.94,3.79H79.09c-.16,0-.33-.16-.33-.49m-44.48-.66h-8.4c-.16,0-.16,0-.33.16l-2.14,2.8c-.17.33,0,.66.33.66h5.6c.33,0,.49.33.33.5a7.34,7.34,0,0,1-7.08,4.94,6.58,6.58,0,0,1-3.13-.66A7.53,7.53,0,0,1,15,36a7.58,7.58,0,0,1,13.18-5.27.51.51,0,0,0,.66,0l2.3-3a.3.3,0,0,0,0-.49,12.26,12.26,0,0,0-8.4-3.13A12.1,12.1,0,0,0,10.39,36.31a11.6,11.6,0,0,0,6.43,10.54,13,13,0,0,0,5.77,1.32A12.1,12.1,0,0,0,34.94,36V35c-.33-.17-.49-.33-.66-.33m72.49,3.13L109.41,31c.16-.33.66-.33.66,0l2.63,6.75c.17.33-.16.49-.33.49h-5.43a.69.69,0,0,1-.17-.49m10.55,10.38h4.11c.33,0,.5-.33.33-.5L112,24.28c0-.16-.16-.16-.33-.16h-3.46a.6.6,0,0,0-.33.16L98.2,47.67c-.16.33,0,.5.33.5h4a.59.59,0,0,0,.33-.17l2.3-5.76c0-.17.17-.17.33-.17h8.9a.59.59,0,0,1,.33.17L117,48a.55.55,0,0,0,.33.17M132.14,24h-3.79c-.33,0-.49.33-.33.66L135.77,35l2.47-3.13-5.77-7.74a.59.59,0,0,1-.33-.17M145.8,48.19h3.79c.33,0,.49-.33.33-.66L142,37l-2.47,3.13L145.47,48a.56.56,0,0,1,.33.16"/></g></svg>