<svg id="Calque_1" data-name="Calque 1" xmlns="http://www.w3.org/2000/svg" viewBox="0 0 160 80"><defs><style>.cls-1{fill:#454e72;}.cls-2{fill:#24aae3;}</style></defs><title>hadax</title><g id="hadax"><path class="cls-1" d="M52.84,31v9.85H43.1V32.24A1.27,1.27,0,0,0,41.83,31H38.54V54.53a1.27,1.27,0,0,0,1.27,1.28H43.1v-11h9.74v9.72a1.27,1.27,0,0,0,1.27,1.28H57.4V32.24A1.27,1.27,0,0,0,56.13,31Zm88.65,12.68,7.94-12h-4.65a1.33,1.33,0,0,0-1.14.64L138.91,40l-4.7-7.67a1.34,1.34,0,0,0-1.14-.64h-4.65l7.94,12-8.47,12.61h4.66a1.36,1.36,0,0,0,1.14-.63l5.22-8.3,5.25,8.3a1.36,1.36,0,0,0,1.14.63H150ZM92.37,51.93h-3.3V35.64H92c4.22,0,7.27,3,7.27,8.46,0,4.41-2.87,7.83-6.91,7.83m.39-20.39H85.49a1.34,1.34,0,0,0-1.33,1.33V56.24a2.35,2.35,0,0,1,.47,0H93c6.41,0,11.28-5.41,11.28-12.77,0-8.15-5.91-11.89-11.53-11.89m-25,15.07,3.12-9.24L74,46.61Zm9.41,9.63h4.61l-8-23.83a1.22,1.22,0,0,0-1.16-.83H68.23L60,56.24H64.6l2-6h8.56Zm34.9-9.63,3.12-9.24,3.12,9.24Zm9.41,9.63h4.61l-8-23.83a1.22,1.22,0,0,0-1.17-.83h-4.42l-8.25,24.66h4.62l2-6h8.57ZM24.42,33.49c0-4.85-2.36-9-4.15-10.39,0,0-.13-.08-.12.12h0C20,32.6,15.23,35.14,12.61,38.57a11.52,11.52,0,0,0,5.3,18.17c3.21.9-.74-1.59-1.25-6.83-.61-6.33,7.76-11.17,7.76-16.42"/><path class="cls-2" d="M27.56,36.69a.08.08,0,0,0-.13,0c-.11,1.18-1.39,3.7-3,6-5.51,7.87-2.37,11.66-.6,13.7,1,1.18,0,0,2.56-1.21a10.91,10.91,0,0,0,5.51-8.4,11.83,11.83,0,0,0-4.33-10.13"/></g></svg>