<svg id="Calque_1" data-name="Calque 1" xmlns="http://www.w3.org/2000/svg" viewBox="0 0 160 80"><defs><style>.cls-1{fill:#094451;}.cls-2,.cls-3{fill:#42acdb;}.cls-3{opacity:0.62;isolation:isolate;}.cls-4{fill:#00abe7;}.cls-5{fill:#34aee3;}.cls-6{fill:#56b9e4;}.cls-7{fill:#008dbd;}.cls-8{fill:#08a0ca;}.cls-9{fill:#79cdf1;}.cls-10{fill:#0076a7;}.cls-11{fill:#8adaff;}.cls-12{fill:#009de1;}.cls-13{fill:#00698d;}.cls-14{fill:#005371;}</style></defs><title>hitbtc</title><g id="hitbtc"><polygon class="cls-1" points="19.81 52.13 19.81 59.06 14.48 59.06 14.48 52.13 10 52.13 10 70.09 14.48 70.09 14.48 63.17 19.81 63.17 19.81 70.09 24.29 70.09 24.29 52.13 19.81 52.13"/><polygon class="cls-1" points="44.04 57.31 42.54 57.31 42.54 52.95 38.46 52.95 38.46 57.31 36.92 57.31 36.92 61.13 38.46 61.13 38.46 70.09 42.54 70.09 42.54 61.13 44.04 61.13 44.04 57.31"/><path class="cls-2" d="M59.56,60.69s2-.66,2-3.95c0-2.57-2.11-4.28-4.72-4.56v0H48.07v18H57.2a5.19,5.19,0,0,0,4.72-5.33A4.44,4.44,0,0,0,59.56,60.69Zm-3.42-4.48a1.27,1.27,0,0,1,1.22,1.42A1.24,1.24,0,0,1,56.14,59H52.47V56.21Zm.16,9.73H52.47V62.8H56.3s1.55.21,1.55,1.63A1.51,1.51,0,0,1,56.3,65.94Z"/><polygon class="cls-2" points="77.6 52.13 64.2 52.13 64.2 56.21 68.8 56.21 68.8 70.09 73.24 70.09 73.24 56.21 77.6 56.21 77.6 52.13"/><path class="cls-3" d="M93,64.68a5.16,5.16,0,0,1-3.66,1.54A5.09,5.09,0,1,1,93,57.67L95.84,55A9.16,9.16,0,1,0,89,70.3a9.07,9.07,0,0,0,6.76-3Z"/><g id="Layer_1"><g id="_2228384404800" data-name=" 2228384404800"><polygon class="cls-4" points="144.14 16.91 146.95 16.46 148.74 17.48 138.64 23.47 140.39 19.44 144.14 16.91"/><path class="cls-5" d="M105.9,34.1l-.82,7-4.43,4.19c-5-2.85-10-5.62-15-8.51l11.2-4Z"/><path class="cls-6" d="M108.91,22.33l.12,5.94-3.17,5.87,9.2-6.68,10.51-2.93-.61,5.9L120,34.05l-6.8,1.71-7.33-1.71L85.7,36.74C93.4,31.94,101.13,27,108.91,22.33Z"/><path class="cls-7" d="M105.9,34.1,120,34.05l-2.36,7.09-4.73,4.52-5.25-4.76ZM120,34.05l7.17.17,5.17,2.89v0l1.87,12.66L132.45,62l-9.73-16.94Z"/><polygon class="cls-6" points="132.33 37.11 134.4 40.53 138.44 45.29 142.47 53.8 139.09 54.38 134.44 47.66 132.33 37.11"/><path class="cls-8" d="M133.59,29.53l.57,4.32-1.83,3.22L120,34l7.57-4.27Zm-1.26,7.58,6.76,17.26L132.37,62Z"/><polygon class="cls-6" points="127.28 21.59 134.28 17.85 135.91 22.77 133.59 29.54 128.66 26.24 127.28 21.59"/><path class="cls-9" d="M134.4,40.53H139c1.14,4.44,2.32,8.84,3.46,13.27Z"/><path class="cls-9" d="M125.57,24.53l1.75-2.94,6.11,7.7.2.29L120.07,34.1l5.5-9.57-17.64,8.59-2,1,3-11.77Z"/><polygon class="cls-9" points="134.28 17.85 144.09 16.95 133.59 29.54 134.28 17.85"/><polygon class="cls-9" points="144.14 16.91 150 9.7 148.74 17.48 144.14 16.91"/><polygon class="cls-10" points="139.09 54.38 141.86 55.96 132.41 61.99 135.3 55.84 139.09 54.38"/><polygon class="cls-11" points="133.59 29.54 139.82 39.88 132.33 37.11 133.59 29.54"/><polygon class="cls-10" points="120.03 34.05 121.41 42.52 119.46 48.43 115.59 48.92 112.94 45.66 114.98 55.39 114.49 69.93 100.65 45.29 106.14 43.22 112.94 45.66 120.03 34.05"/><path class="cls-12" d="M105.9,34.1c2.36,3.82,4.68,7.73,7,11.56l-12.29-.37Z"/><polygon class="cls-13" points="120.03 34.05 132.41 61.99 119.46 48.43 120.03 34.05"/><polygon class="cls-14" points="112.94 45.66 119.46 48.43 114.49 69.93 112.94 45.66"/></g></g><ellipse class="cls-1" cx="31.42" cy="54.37" rx="2.4" ry="2.12"/><polygon class="cls-1" points="33.29 58.45 31.26 59.59 29.26 58.45 29.26 70.09 33.29 70.09 33.29 58.45"/></g></svg>