<svg id="Calque_1" data-name="Calque 1" xmlns="http://www.w3.org/2000/svg" xmlns:xlink="http://www.w3.org/1999/xlink" viewBox="0 0 160 80"><defs><style>.cls-1{fill:#fff;}.cls-2{fill:#484e70;}.cls-3{mask:url(#mask);}.cls-4{fill:#18b4f1;}</style><mask id="mask" x="0" y="24.92" width="12.85" height="30.15" maskUnits="userSpaceOnUse"><g id="mask-2"><polygon id="path-1" class="cls-1" points="0 24.92 12.85 24.92 12.85 55.08 0 55.08 0 24.92"/></g></mask></defs><title>huobipro</title><g id="huobipro"><path id="Fill-1" class="cls-2" d="M38.17,31.94v8.78H29.49V33.08a1.13,1.13,0,0,0-1.13-1.14H25.43V53a1.14,1.14,0,0,0,1.14,1.14h2.92V44.28h8.68V53a1.14,1.14,0,0,0,1.14,1.14h2.93v-21a1.14,1.14,0,0,0-1.14-1.14Z"/><path id="Fill-3" class="cls-2" d="M55.4,37.43V48a2.7,2.7,0,0,1-1.31,2.34,3,3,0,0,1-4.68-2.53v-9.2a1.14,1.14,0,0,0-1.13-1.14h-3V48.14a6.27,6.27,0,0,0,6.24,6.27h1.67a6.27,6.27,0,0,0,6.23-6.27V38.57a1.14,1.14,0,0,0-1.13-1.14Z"/><path id="Fill-5" class="cls-2" d="M99.83,54.09h2.93V39.18A1.14,1.14,0,0,0,101.63,38H98.7V53a1.13,1.13,0,0,0,1.13,1.14"/><path id="Fill-7" class="cls-2" d="M100.73,36.47a2.28,2.28,0,1,0-2.27-2.28,2.27,2.27,0,0,0,2.27,2.28"/><path id="Fill-9" class="cls-2" d="M73.63,47.36a3.68,3.68,0,0,1-7.33,0V44.47a3.68,3.68,0,0,1,7.33,0ZM70,37.42a7.43,7.43,0,0,0-7.75,7.35v2.31c0,4.28,3.49,7.33,7.75,7.33s7.74-3,7.74-7.33V44.77A7.42,7.42,0,0,0,70,37.42Z"/><path id="Fill-11" class="cls-2" d="M155.92,47.36a3.68,3.68,0,0,1-7.33,0V44.47a3.68,3.68,0,0,1,7.33,0Zm-3.67-9.94a7.42,7.42,0,0,0-7.74,7.35v2.31c0,4.28,3.48,7.33,7.74,7.33s7.75-3,7.75-7.33V44.77A7.43,7.43,0,0,0,152.25,37.42Z"/><path id="Fill-13" class="cls-2" d="M91.87,47.36a3.67,3.67,0,0,1-7.32,0V44.47a3.67,3.67,0,0,1,7.32,0Zm-3.66-9.94a8.3,8.3,0,0,0-3.68.84V33.1A1.14,1.14,0,0,0,83.39,32H80.46V47.08c0,4.28,3.49,7.33,7.75,7.33s7.75-3,7.75-7.33V44.77A7.43,7.43,0,0,0,88.21,37.42Z"/><g id="Group-17"><g class="cls-3"><path id="Fill-15" class="cls-2" d="M12.85,34.2c0-4.33-2.1-8.05-3.7-9.26,0,0-.12-.07-.11.1H9c-.13,8.36-4.38,10.62-6.72,13.67a10.28,10.28,0,0,0,4.73,16.2c2.86.79-.66-1.42-1.11-6.09-.55-5.64,6.91-9.95,6.91-14.63"/></g></g><path id="Fill-18" class="cls-4" d="M15.65,37.05a.08.08,0,0,0-.12,0c-.09,1.06-1.23,3.31-2.68,5.38-4.91,7-2.11,10.39-.54,12.2.91,1,0,0,2.28-1.08a9.7,9.7,0,0,0,4.92-7.48,10.57,10.57,0,0,0-3.86-9"/><path id="Fill-20" class="cls-2" d="M138.65,37.49c-4.38,0-6.14,3.19-6.14,6.54v9.14a1.22,1.22,0,0,0,1.21,1.22h2.95V44.78c0-1.64.43-2.64,1.22-3.15.63-.49,1.85-.83,4.22.08V38.89c0-.54-.9-1.4-3.46-1.4"/><path id="Fill-22" class="cls-2" d="M125.36,41.8c0,2-1.76,3.37-3.9,3.37s-3.9-1.35-3.9-3.37V38.91c0-2,1.75-3.38,3.9-3.38s3.9,1.35,3.9,3.38Zm-3.9-9.94a9.3,9.3,0,0,0-4.16,1,1.17,1.17,0,0,0-1.15-1h-3V50.37h0v2.76a1.17,1.17,0,0,0,1.17,1.17h3.15V48a9.19,9.19,0,0,0,3.92.85c4.53,0,8.24-3.07,8.24-7.35V39.19C129.7,34.9,126,31.86,121.46,31.86Z"/></g></svg>