<svg id="Calque_1" data-name="Calque 1" xmlns="http://www.w3.org/2000/svg" viewBox="0 0 160 80"><defs><style>.cls-1{fill:#333;}.cls-2{fill:#004b6a;}</style></defs><title>idex</title><g id="idex"><path id="_2" data-name="2" class="cls-1" d="M28.67,21.33A18.67,18.67,0,1,1,10,40v-.2A18.68,18.68,0,0,1,28.67,21.33Zm.39,1.36a17.3,17.3,0,1,0-.39,34.59,16.73,16.73,0,0,0,12.18-5,16.75,16.75,0,0,0,5-13.81,16.65,16.65,0,0,0-5-10.64,16.89,16.89,0,0,0-11.86-5.1Z"/><path id="_1" data-name="1" class="cls-2" d="M45.44,38.17a16.18,16.18,0,0,0-4.79-10,16.42,16.42,0,0,0-12-5,16.87,16.87,0,0,0-.11,33.74,16.25,16.25,0,0,0,12-4.91A16.35,16.35,0,0,0,45.44,38.17ZM36,26.87a.51.51,0,0,1,.51.52.52.52,0,1,1-1,0h0A.51.51,0,0,1,36,26.87Zm-2.3-1.08a.53.53,0,0,1,.52.53.51.51,0,0,1-.52.5.49.49,0,0,1-.51-.49v0A.53.53,0,0,1,33.65,25.79Zm-2.44-.66a.6.6,0,0,1,.53.51.56.56,0,0,1-.57.52.5.5,0,0,1-.49-.52A.53.53,0,0,1,31.21,25.13Zm-2.54-.21a.52.52,0,1,1-.51.52A.52.52,0,0,1,28.67,24.92Zm-2.52.22a.54.54,0,0,1,.51.5.51.51,0,0,1-.52.51h0a.5.5,0,0,1-.5-.51h0a.53.53,0,0,1,.52-.51Zm-2.46.65a.53.53,0,0,1,.51.52.5.5,0,0,1-.49.51h0a.51.51,0,0,1-.53-.5v0A.55.55,0,0,1,23.69,25.79Zm-2.31,1.08a.51.51,0,0,1,.55.48.52.52,0,0,1-.48.55h-.07a.52.52,0,0,1-.48-.55A.52.52,0,0,1,21.38,26.87Zm-2.06,1.45a.53.53,0,0,1,.51.52.51.51,0,0,1-.51.51.49.49,0,0,1-.52-.47v0a.51.51,0,0,1,.49-.53Zm-1.79,1.79a.53.53,0,0,1,.5.53.53.53,0,0,1-.52.51.54.54,0,0,1-.52-.52.55.55,0,0,1,.54-.52ZM16.06,32.2a.5.5,0,0,1,.51.49v0a.51.51,0,0,1-.5.52.53.53,0,0,1-.53-.53.52.52,0,0,1,.52-.5ZM15,34.5a.52.52,0,0,1,.52.52h0A.52.52,0,1,1,15,34.5Zm-.67,2.44a.54.54,0,0,1,.53.53.52.52,0,0,1-.52.5.49.49,0,0,1-.5-.49h0a.51.51,0,0,1,.49-.52ZM13.59,40a.53.53,0,0,1,.51-.52.51.51,0,0,1,.52.51h0a.5.5,0,0,1-.48.52.06.06,0,0,1-.06,0A.52.52,0,0,1,13.59,40Zm.24,2.52a.51.51,0,0,1,.51-.51.52.52,0,0,1,.52.53.5.5,0,0,1-.52.49.49.49,0,0,1-.51-.48v0Zm1.17,3a.52.52,0,0,1-.52-.5.52.52,0,1,1,.51.49Zm1.07,2.3a.52.52,0,0,1-.52-.51.51.51,0,0,1,.52-.51h0a.48.48,0,0,1,.5.48v0a.51.51,0,0,1-.51.51h0Zm0-4,0-.09h5.46c1.41,0,1.41,0,1.41-1.44,0-1.19,0-2.39,0-3.59,0-.39.05-.57.52-.55,1,0,2.06,0,3.09,0,.35,0,.47.11.47.46q0,3,0,6c0,.38-.12.58-.52.54a2,2,0,0,0-.35,0c-.47,0-.62-.13-.62-.58,0-1.46,0-2.91,0-4.36,0-.4-.13-.58-.56-.58s-.57.13-.56.56c0,1.45,0,2.9,0,4.35,0,.48-.15.62-.61.61-1.47,0-2.94.07-4.4,0a7.53,7.53,0,0,1-2-.7c-.45-.18-.9-.41-1.36-.62Zm1.51,6.11a.53.53,0,0,1-.58-.47.19.19,0,0,1,0-.08.56.56,0,0,1,.54-.52.54.54,0,0,1,0,1.07Zm1.73,1.78a.5.5,0,0,1-.5-.5v0a.51.51,0,0,1,.52-.51.53.53,0,0,1,.51.52.51.51,0,0,1-.52.51h0Zm2.1,1.45a.49.49,0,0,1-.52-.48v0a.51.51,0,0,1,.5-.53h0a.53.53,0,0,1,.51.52.5.5,0,0,1-.5.51h0Zm2.3,1.07a.52.52,0,0,1-.55-.48v0a.55.55,0,0,1,.53-.51.51.51,0,0,1,.51.51.5.5,0,0,1-.49.51h0Zm-1.95-7.77c-.45-.18-.89-.41-1.33-.62l.05-.15h7c1.08,0,.94.1.94-1,0-3.13,0-6.25,0-9.38,0-.51.14-.67.66-.65,1,0,2,0,3,0,.36,0,.52.1.52.48q0,5.8,0,11.6c0,.42-.18.55-.56.48a2.76,2.76,0,0,0-.4-.06c-.64,0-.64,0-.64-.64V37c0-.26.1-.6-.34-.67s-.66,0-.66.57v9.73c0,.66,0,.66-.68.66-1.69,0-3.38,0-5.07,0a5.89,5.89,0,0,1-2.48-.83Zm4.39,8.43a.51.51,0,0,1-.53-.5h0a.52.52,0,1,1,.53.51Zm2.52.24a.54.54,0,0,1-.52-.54.52.52,0,0,1,1,0A.53.53,0,0,1,28.67,55.08Zm2.49-.24a.51.51,0,0,1-.48-.53.52.52,0,1,1,.5.53Zm2.48-.66a.49.49,0,0,1-.5-.49v0a.52.52,0,0,1,.5-.51.55.55,0,0,1,.53.53A.52.52,0,0,1,33.64,54.18ZM36,53.11a.51.51,0,0,1-.52-.5h0a.52.52,0,0,1,.52-.53.51.51,0,0,1,.51.52.49.49,0,0,1-.49.51Zm.44-4.94c.07-.76,0-11.45,0-14.7,0-.31,0-.6-.44-.59s-.48.14-.48.5c0,1.69,0,14.29,0,14.29v1.58a4.35,4.35,0,0,1-.48,0c-2.19,0-4.38,0-6.57,0a4.85,4.85,0,0,1-1.64-.59,10.71,10.71,0,0,1-1.78-.92c.15,0,.29,0,.43,0l7.34,0c1.13,0,1.11,0,1.11-1.08V31.89c0-.41.1-.61.57-.59,1.06,0,2.12,0,3.19,0,.35,0,.47.12.47.48V48.61c0,.69,0,.69-.7.69-1.09,0-1.07,0-1-1.12ZM38,51.65a.5.5,0,0,1-.51-.5.53.53,0,0,1,.53-.53.52.52,0,0,1,.5.53.48.48,0,0,1-.48.5Zm0-22.3a.51.51,0,0,1-.53-.5h0a.52.52,0,0,1,.51-.52.51.51,0,0,1,.51.51.49.49,0,0,1-.46.52Zm1.77,20.51a.51.51,0,1,1,0-1h0a.51.51,0,1,1,0,1Zm0-18.71a.52.52,0,0,1-.52-.52.53.53,0,0,1,.52-.52.52.52,0,0,1,.52.52.52.52,0,0,1-.52.52Zm3.7,6.32A.52.52,0,0,1,43,38h0a.53.53,0,0,1-.52-.51.54.54,0,0,1,.55-.53h0A.53.53,0,0,1,43.51,37.47Zm-2.24-5.26a.52.52,0,0,1,.52.51.55.55,0,0,1-.53.52.51.51,0,0,1-.5-.53.5.5,0,0,1,.48-.51h0Zm0,15.58a.51.51,0,0,1-.51-.51h0a.49.49,0,0,1,.48-.51h0a.51.51,0,0,1,.53.5h0a.53.53,0,0,1-.52.51ZM42.34,34.5a.51.51,0,1,1,0,1,.52.52,0,0,1-.52-.52A.51.51,0,0,1,42.34,34.5Zm0,11a.53.53,0,0,1-.06-1,.5.5,0,0,1,.56.47.15.15,0,0,1,0,.07A.51.51,0,0,1,42.36,45.48ZM43,43a.53.53,0,0,1-.51-.51A.54.54,0,0,1,43,42a.53.53,0,0,1,.48.53.5.5,0,0,1-.5.5Zm.24-2.53a.49.49,0,0,1-.51-.47v0a.47.47,0,0,1,.42-.52h0a.55.55,0,0,1,.58.51v0a.5.5,0,0,1-.5.5h0Z"/><g id="text"><path id="_Compound_Path_3" data-name=" Compound Path 3" class="cls-2" d="M56.8,54.84H51.94V28H56.8Z"/><path id="_Compound_Path_4" data-name=" Compound Path 4" class="cls-2" d="M89.24,43.62a11.67,11.67,0,0,1-.85,4.52A10.57,10.57,0,0,1,82.49,54a11.78,11.78,0,0,1-4.47.83H64.9a2.52,2.52,0,0,1-1-.19,2.37,2.37,0,0,1-1.29-1.29,2.49,2.49,0,0,1-.18-1V30.48a2.39,2.39,0,0,1,.7-1.74,2.26,2.26,0,0,1,.77-.53,2.71,2.71,0,0,1,1-.19H78a11.8,11.8,0,0,1,4.47.85,10.52,10.52,0,0,1,5.9,5.88,11.9,11.9,0,0,1,.85,4.49Zm-4.86-4.37a7.2,7.2,0,0,0-.46-2.6,5.71,5.71,0,0,0-1.3-2,6,6,0,0,0-2-1.29A7.18,7.18,0,0,0,78,32.89H67.3V50H78a7.09,7.09,0,0,0,2.58-.46,5.87,5.87,0,0,0,2-1.29,5.76,5.76,0,0,0,1.3-2,7.25,7.25,0,0,0,.46-2.61Z"/><path id="_Compound_Path_5" data-name=" Compound Path 5" class="cls-1" d="M118.24,54.84H100.7a7.57,7.57,0,0,1-2.21-.36,6.41,6.41,0,0,1-3.91-3.28A6.63,6.63,0,0,1,93.9,48V30.48a2.39,2.39,0,0,1,.7-1.74,2.26,2.26,0,0,1,.77-.53,2.7,2.7,0,0,1,1-.19h21.9v4.87H98.75V48a2,2,0,0,0,.51,1.46,2,2,0,0,0,1.47.51h17.51Zm-2.19-11H100.7V39h15.35Z"/><path id="_Compound_Path_6" data-name=" Compound Path 6" class="cls-1" d="M135.16,37.61,143.35,28H150L138.47,41.47l11.46,13.37h-6.6l-8.17-9.5-8.1,9.5h-6.62l11.44-13.37L120.4,28H127Z"/></g></g></svg>