<svg id="Calque_1" data-name="Calque 1" xmlns="http://www.w3.org/2000/svg" viewBox="0 0 160 80"><defs><style>.cls-1{fill:#3b3735;}.cls-2{fill:#fcbc00;}</style></defs><title>itbit</title><g id="itbit"><path class="cls-1" d="M40,53.75h4V41.19H40.06V37.47h8.42V53.75h3.88v3.89H40Z"/><path class="cls-1" d="M51.27,37.47h3.87V25.92l4.51-3.43v15h5v3.72h-5s0,8.66,0,9.1c0,3.85,2.07,3.46,5,3.46v3.86c-4,0-9.48.68-9.48-7.3V41.19H51.27Z"/><path class="cls-1" d="M106.66,37.47h3.87V25.92l4.5-3.43v15h5v3.72h-5s0,8.66,0,9.1c0,3.85,2.07,3.46,5,3.46v3.86c-4,0-9.48.68-9.48-7.3V41.19h-3.86Z"/><path class="cls-1" d="M71.47,53.74V26.3H67V22.36l14.76,0c8.44,0,11.42,4.45,11.42,9.11a8.1,8.1,0,0,1-4.87,7.62,9,9,0,0,1,6.55,8.68c0,4.2-2.47,9.81-13.43,9.81H67V53.75Zm9.84-16.27c5.09,0,6.86-2.65,6.86-5.66,0-3.66-2.07-5.49-7.59-5.49l-4.23,0V37.47Zm.1,16.3c6.15,0,8.37-2.31,8.37-6.27,0-3.14-2-6.31-8.19-6.31H76.35c0,.73,0,12.55,0,12.55Z"/><path class="cls-2" d="M42.43,28a3,3,0,1,1,3,3A3,3,0,0,1,42.43,28Z"/><path class="cls-1" d="M95.51,53.75h3.91V41.19H95.54V37.47H104V53.75h3.88v3.89H95.51Z"/><path class="cls-2" d="M97.91,28a3,3,0,1,1,3,3A3,3,0,0,1,97.91,28Z"/></g></svg>