<svg id="Calque_1" data-name="Calque 1" xmlns="http://www.w3.org/2000/svg" xmlns:xlink="http://www.w3.org/1999/xlink" viewBox="0 0 160 80"><defs><style>.cls-1{fill:url(#Dégradé_sans_nom_9);}.cls-2{fill:url(#Dégradé_sans_nom_9-2);}.cls-3{fill:url(#Dégradé_sans_nom_9-3);}.cls-4{fill:url(#Dégradé_sans_nom_9-4);}.cls-5{fill:url(#Dégradé_sans_nom_9-5);}.cls-6{fill:url(#Dégradé_sans_nom_9-6);}.cls-7{fill:url(#Dégradé_sans_nom_9-7);}.cls-8{fill:url(#Dégradé_sans_nom_9-8);}.cls-9{fill:url(#Dégradé_sans_nom_9-9);}.cls-10{fill:#6a6969;}</style><linearGradient id="Dégradé_sans_nom_9" x1="-10252.59" y1="6583.19" x2="-10434.27" y2="6531.87" gradientTransform="matrix(0.07, 0, 0, -0.07, 753.13, 488.89)" gradientUnits="userSpaceOnUse"><stop offset="0" stop-color="#06aacf"/><stop offset="1" stop-color="#39d5ed"/></linearGradient><linearGradient id="Dégradé_sans_nom_9-2" x1="-10426.21" y1="6457.71" x2="-10553.95" y2="6352.35" xlink:href="#Dégradé_sans_nom_9"/><linearGradient id="Dégradé_sans_nom_9-3" x1="-10422.71" y1="6120.06" x2="-10557.35" y2="6231.12" xlink:href="#Dégradé_sans_nom_9"/><linearGradient id="Dégradé_sans_nom_9-4" x1="-10257.03" y1="5998.62" x2="-10429.84" y2="6047.44" xlink:href="#Dégradé_sans_nom_9"/><linearGradient id="Dégradé_sans_nom_9-5" x1="-10052.1" y1="6096.2" x2="-10168.84" y2="5954.65" xlink:href="#Dégradé_sans_nom_9"/><linearGradient id="Dégradé_sans_nom_9-6" x1="-9932.86" y1="6260.67" x2="-9982.94" y2="6083.42" xlink:href="#Dégradé_sans_nom_9"/><linearGradient id="Dégradé_sans_nom_9-7" x1="-9932.25" y1="6317.68" x2="-9983.57" y2="6499.35" xlink:href="#Dégradé_sans_nom_9"/><linearGradient id="Dégradé_sans_nom_9-8" x1="-10063.28" y1="6498.23" x2="-10157.66" y2="6612.01" xlink:href="#Dégradé_sans_nom_9"/><linearGradient id="Dégradé_sans_nom_9-9" x1="39.64" y1="40.01" x2="7.22" y2="40.01" gradientTransform="matrix(1, 0, 0, 1, 0, 0)" xlink:href="#Dégradé_sans_nom_9"/></defs><title>korbit</title><g id="korbit"><g id="Groupe"><path class="cls-1" d="M7.66,22.64A23.36,23.36,0,0,1,22.3,16.57V20.2a19.68,19.68,0,0,0-12.07,5Z"/><path class="cls-2" d="M0,38.87A23.34,23.34,0,0,1,6.06,24.23L8.62,26.8a19.72,19.72,0,0,0-5,12.07Z"/><path class="cls-3" d="M6.06,55.77A23.32,23.32,0,0,1,0,41.13H3.63a19.78,19.78,0,0,0,5,12.08Z"/><path class="cls-4" d="M22.3,63.43A23.31,23.31,0,0,1,7.66,57.36l2.57-2.55a19.72,19.72,0,0,0,12.07,5Z"/><path class="cls-5" d="M39.2,57.38a23.42,23.42,0,0,1-14.64,6V59.8a19.74,19.74,0,0,0,12.07-5Z"/><path class="cls-6" d="M46.86,41.13a23.33,23.33,0,0,1-6.07,14.64l-2.56-2.56a19.67,19.67,0,0,0,5-12.08Z"/><path class="cls-7" d="M40.79,24.23a23.35,23.35,0,0,1,6.07,14.64H43.23a19.73,19.73,0,0,0-5-12.07Z"/><path class="cls-8" d="M24.56,16.57A23.38,23.38,0,0,1,39.2,22.64l-2.57,2.57a19.7,19.7,0,0,0-12.07-5Z"/><path class="cls-9" d="M23.43,23.79A16.22,16.22,0,1,0,39.64,40,16.2,16.2,0,0,0,23.43,23.79Zm0,30.62A14.41,14.41,0,1,1,37.84,40,14.41,14.41,0,0,1,23.43,54.41Z"/></g><path class="cls-10" d="M90.68,31.55a7.8,7.8,0,1,0,7.8,7.8A7.8,7.8,0,0,0,90.68,31.55Zm0,14.1a6.3,6.3,0,1,1,6.3-6.3A6.3,6.3,0,0,1,90.68,45.65Z"/><path class="cls-10" d="M122.34,46.85v-15h2c1.46,0,2.93-.05,4.39,0a8.24,8.24,0,0,1,2.31.46,3.27,3.27,0,0,1,2.32,2.85,3.42,3.42,0,0,1-1.63,3.55c-.14.08-.26.19-.49.36a8.18,8.18,0,0,0,.74.45,3.32,3.32,0,0,1,2.16,3.23,3.51,3.51,0,0,1-2.14,3.4,6.74,6.74,0,0,1-2.5.7C127.16,46.91,124.82,46.85,122.34,46.85Zm1.56-1.31c1.76,0,3.43,0,5.09,0a5.61,5.61,0,0,0,1.69-.39,2.55,2.55,0,0,0-.41-5,40.86,40.86,0,0,0-6.37-.22Zm0-7c1.77,0,3.44,0,5.11,0a3.77,3.77,0,0,0,1-.22,2.48,2.48,0,0,0,1.92-2.59,2.38,2.38,0,0,0-2-2.38c-2-.46-4-.16-6-.23Z"/><path class="cls-10" d="M106.3,46.84h-1.5v-15c2.41.08,4.83-.3,7.21.21a4.72,4.72,0,0,1,.71,9.09l-.88.34,4.61,5.34h-1.92L110,41.61H106.3Zm0-6.75c1.47,0,2.8,0,4.13,0A3.7,3.7,0,0,0,114,38a3.31,3.31,0,0,0-3-4.67c-1.56-.15-3.14,0-4.76,0Z"/><polygon class="cls-10" points="160 31.87 147.28 31.87 147.28 33.26 152.92 33.26 152.92 46.81 154.51 46.81 154.51 33.26 160 33.26 160 31.87"/><rect class="cls-10" x="140.66" y="31.88" width="1.51" height="14.96"/><path class="cls-10" d="M71.24,39.83l-2.89,3.1V46.8H66.87V31.88h1.41v8.91l8.59-8.95h1.87l-6.36,6.84,7.15,8.14h-2Z"/></g></svg>