<svg id="Calque_1" data-name="Calque 1" xmlns="http://www.w3.org/2000/svg" viewBox="0 0 160 80"><defs><style>.cls-1{fill:#050708;}.cls-2{fill:#4f6e89;}</style></defs><title>kraken</title><g id="kraken"><path class="cls-1" d="M85.53,48.41a10.9,10.9,0,0,1-8.3,3.64,6.83,6.83,0,0,1-6.65-9c.9-3,3.33-4.13,6.08-4.65,2.1-.37,4.21-.61,6.32-.85,1.09-.13,2.06-.37,2.39-1.58a3.7,3.7,0,0,0-1.14-3.85c-1.7-1.26-5.79-1.34-7.53-.12a3.66,3.66,0,0,0-1.58,2.67c-.08.69-.36.81-1,.77a7,7,0,0,0-1.58,0c-1.18.2-1.22-.41-1.09-1.3.4-3.2,2.34-5,5.34-5.83a13.51,13.51,0,0,1,8.22.29c3,1.05,4.17,2.75,4.17,5.91V46.63c0,1.86.08,1.94,1.91,1.94.48,0,.6.12.64.61.13,2.23-.12,2.51-2.39,2.55S86.34,51,85.53,48.41Zm-.08-8.71a14,14,0,0,1-4.38,1.18,20,20,0,0,0-4.37.81,3.58,3.58,0,0,0,.49,6.92,7.71,7.71,0,0,0,2.71,0q5.52-.91,5.51-6.52C85.45,41.36,85.45,40.59,85.45,39.7Z"/><path class="cls-1" d="M128.17,41.08c-2.43,0-4.9,0-7.33,0-.73,0-.93.24-.81.93a21.43,21.43,0,0,0,.61,2.79,5.49,5.49,0,0,0,5.46,4.05A5.86,5.86,0,0,0,132,45.21c.36-.89.77-1.22,1.66-1.05a1.61,1.61,0,0,0,.44,0c2.43,0,2.43,0,1.38,2.31-2,4.21-6.12,6.31-11,5.62a10.1,10.1,0,0,1-8.43-8.86,16,16,0,0,1,1.18-9.4,10.18,10.18,0,0,1,14.94-4.09c2.87,1.86,3.85,4.7,4.13,7.9.12,1.13.49,2.59,0,3.32s-2.07.2-3.16.2C131.53,41.12,129.83,41.08,128.17,41.08Zm-1.82-3h5.46c.33,0,.73.16.77-.48a6.22,6.22,0,1,0-12.43-.25c0,.65.16.77.73.77C122.7,38,124.53,38,126.35,38Z"/><path class="cls-1" d="M145.06,31.4c.32,0,.4-.28.56-.49,2.64-2.91,6-3.56,9.6-2.63a5.81,5.81,0,0,1,4.33,4.7,15.8,15.8,0,0,1,.41,3.4c0,4.66,0,9.32,0,14,0,.81-.28,1-1,.93a11.92,11.92,0,0,0-2.07,0c-.85.09-1-.28-1-1.05,0-4.29,0-8.54,0-12.84V36.26c-.08-1.86-.4-3.68-2.31-4.49a5.92,5.92,0,0,0-5.87.72,6.42,6.42,0,0,0-2.59,5.59c0,4.05,0,8.1,0,12.15,0,.89-.28,1.05-1.09,1.05-2.76,0-2.76,0-2.76-2.75v-19c0-.81.16-1.1,1-1.1,2.64,0,2.64,0,2.6,2.6C145,31.12,144.85,31.32,145.06,31.4Z"/><path class="cls-1" d="M113.67,50.43c-2.71-4.21-5.38-8.46-8.14-12.67a1.05,1.05,0,0,1,.16-1.58c2.43-2.55,4.78-5.18,7.17-7.78-1,0-2,0-3,0a2.21,2.21,0,0,0-1.79.73c-2.71,2.76-5.46,5.43-8.18,8.14-.2.21-.36.61-.81.57V31.08c0-2.68,0-2.64-2.63-2.68-.81,0-1.09.17-1,1.06,0,6.31,0,12.67,0,19,0,2.87,0,2.87,2.83,2.79.77,0,.89-.28.85-.93,0-1.42.13-2.83,0-4.25a5.85,5.85,0,0,1,2.47-5.87c.73-.57.81-.33,1.18.24,2,3.36,4.09,6.68,6.15,10,.21.33.33.81.85.81H114C114.08,50.84,113.83,50.68,113.67,50.43Z"/><path class="cls-1" d="M52.56,28.44c-2.3,2.47-4.77,5.23-7.33,7.9-.48.49-.48.73-.12,1.3,2.92,4.45,5.75,9,8.75,13.6H49.32c-.52,0-.64-.48-.85-.85-2.18-3.52-4.33-7.08-6.76-11-.93,1.09-1.74,2.1-2.63,3a1.4,1.4,0,0,0-.33,1.17c0,2.31,0,4.58,0,6.88,0,.73-.2.89-.89.89-2.79,0-2.79,0-2.79-2.71V29.5c0-.85.16-1.1,1-1.1,2.71,0,2.71,0,2.71,2.72v6.72c.09,0,.17.12.25.16.56-.61,1.13-1.25,1.74-1.86,2.39-2.39,4.78-4.74,7.13-7.09a1.76,1.76,0,0,1,1.49-.61C50.62,28.48,51.88,28.44,52.56,28.44Z"/><path class="cls-1" d="M60.58,32.29a10.89,10.89,0,0,1,2.35-2.87,5.36,5.36,0,0,1,2.39-1.34c2.23-.61,2.71-.24,2.71,2v.25c0,1.58,0,1.58-1.58,1.66-3.36.16-5.62,2.63-5.67,6.19q-.06,6.08,0,12.15c0,.81-.24,1-1,1-2.79,0-2.79,0-2.79-2.83v-19c0-.77.12-1.06,1-1,2.71,0,2.71,0,2.67,2.76A6.94,6.94,0,0,0,60.58,32.29Z"/><path id="_Tracé_" data-name="&lt;Tracé&gt;" class="cls-2" d="M13.65,28.44A14.87,14.87,0,0,1,21,29.9,14.71,14.71,0,0,1,28.23,38a14.23,14.23,0,0,1,.85,4.82v6.12a4.35,4.35,0,0,1,0,.72,2,2,0,0,1-1.14,1.42,2.36,2.36,0,0,1-1.29.16,2.06,2.06,0,0,1-1.66-2V43.59A2.65,2.65,0,0,0,24.66,42a2.05,2.05,0,0,0-3.85,1v5.75a2.86,2.86,0,0,1-.08,1.06,2.16,2.16,0,0,1-1.41,1.41,2.09,2.09,0,0,1-2.35-1,2.84,2.84,0,0,1-.29-1.66V42.86a2.11,2.11,0,0,0-1.78-2,2.1,2.1,0,0,0-2.39,2.06v5.55a4,4,0,0,1-.12,1.38,2,2,0,0,1-1.9,1.33,2.1,2.1,0,0,1-2-1.37,3.38,3.38,0,0,1-.12-1.26V42.82a2.07,2.07,0,0,0-1.66-2,2,2,0,0,0-2.18,1,1.9,1.9,0,0,0-.29,1v6.24a2.08,2.08,0,0,1-.73,1.58,2.13,2.13,0,0,1-2.59.08A1.71,1.71,0,0,1,0,49.22V42.94A14.51,14.51,0,0,1,5.47,31.6,14.79,14.79,0,0,1,13.65,28.44Z"/></g></svg>