<svg id="Calque_1" data-name="Calque 1" xmlns="http://www.w3.org/2000/svg" viewBox="0 0 160 80"><defs><style>.cls-1{fill:#141927;}.cls-2{fill:#31cb9e;}</style></defs><title>kybernetwork</title><g id="kybernetwork"><g id="Group"><path id="Shape" class="cls-1" d="M84.07,38.07a2.28,2.28,0,0,1-1.11.25,9.93,9.93,0,0,1-1-.07V39.8a5.4,5.4,0,0,0,1.44.17,3,3,0,0,0,1.88-.58,4.56,4.56,0,0,0,1.33-1.81L90.82,28l-2,0-2.57,6.27L83.75,28h-2l3.48,8.2-.36.82A2.25,2.25,0,0,1,84.07,38.07Z"/><path id="Shape-2" data-name="Shape" class="cls-1" d="M94,35.46a3.31,3.31,0,0,0,1.27,1,4.28,4.28,0,0,0,1.77.37,3.93,3.93,0,0,0,3-1.29,4.54,4.54,0,0,0,1.21-3.2,4.43,4.43,0,0,0-1.23-3.2A4.07,4.07,0,0,0,97,27.89l.07,0a3.6,3.6,0,0,0-2.93,1.24V23.53H92.24V36.64H94V35.46Zm.8-5.15a2.62,2.62,0,0,1,1.86-.74,2.57,2.57,0,0,1,1.92.78,2.72,2.72,0,0,1,.76,2,2.75,2.75,0,0,1-.76,2,2.49,2.49,0,0,1-1.88.81h0A2.53,2.53,0,0,1,94,32.41,2.71,2.71,0,0,1,94.78,30.31Z"/><path id="Shape-3" data-name="Shape" class="cls-1" d="M77.4,48.49h0a3.47,3.47,0,0,0-2.61,1v-.85H73v8.63H74.9V52.16a1.91,1.91,0,0,1,.55-1.42,2,2,0,0,1,1.44-.56,1.89,1.89,0,0,1,1.39.56,2,2,0,0,1,.53,1.45v5.13h1.87V51.94a3.49,3.49,0,0,0-.87-2.48A3.15,3.15,0,0,0,77.4,48.49Z"/><path id="Shape-4" data-name="Shape" class="cls-1" d="M86.87,48.48A4.49,4.49,0,0,0,82.36,53a4.28,4.28,0,0,0,1.33,3.2A4.62,4.62,0,0,0,87,57.49a5,5,0,0,0,3.48-1.38l-.88-1.26a3.75,3.75,0,0,1-2.54,1,3,3,0,0,1-1.92-.6,2.53,2.53,0,0,1-1-1.68h6.49a4.4,4.4,0,0,0,.17-1.16,3.78,3.78,0,0,0-1.15-2.83A3.9,3.9,0,0,0,86.87,48.48Zm-2.6,3.68a2.66,2.66,0,0,1,.91-1.53,2.48,2.48,0,0,1,1.6-.59,2.25,2.25,0,0,1,1.57.59A2,2,0,0,1,89,52.16Z"/><path id="Shape-5" data-name="Shape" class="cls-1" d="M107.64,36.87a5,5,0,0,0,3.48-1.38l-.88-1.25a3.79,3.79,0,0,1-2.54,1,3,3,0,0,1-1.92-.6,2.58,2.58,0,0,1-1-1.68h6.5a4.06,4.06,0,0,0,.17-1.15A3.85,3.85,0,0,0,110.34,29a3.94,3.94,0,0,0-2.87-1.12A4.49,4.49,0,0,0,103,32.37a4.28,4.28,0,0,0,1.33,3.2A4.58,4.58,0,0,0,107.64,36.87ZM105.76,30a2.47,2.47,0,0,1,1.6-.58,2.31,2.31,0,0,1,1.58.58,2.09,2.09,0,0,1,.65,1.54h-4.74A2.71,2.71,0,0,1,105.76,30Z"/><path id="Shape-6" data-name="Shape" class="cls-1" d="M97.12,55.81a2,2,0,0,1-1.27-.33,1.37,1.37,0,0,1-.42-1.15v-4H98V48.69H95.43V46.44H93.55v2.25H92.14v1.59h1.41v4.2a2.82,2.82,0,0,0,.85,2.24,3.53,3.53,0,0,0,2.36.74,7.31,7.31,0,0,0,1.54-.2V55.71a11.26,11.26,0,0,1-1.16.1Z"/><polygon id="Shape-7" data-name="Shape" class="cls-1" points="109.69 54.23 107 48.49 106.37 48.49 103.73 54.3 101.43 48.69 99.45 48.69 103.32 57.46 103.96 57.46 106.69 51.75 109.41 57.46 110.06 57.46 113.92 48.69 111.94 48.69 109.69 54.23"/><path id="Shape-8" data-name="Shape" class="cls-1" d="M119,48.49a4.48,4.48,0,0,0-3.26,1.3,4.48,4.48,0,0,0,0,6.37,4.71,4.71,0,0,0,6.52,0,4.22,4.22,0,0,0,1.35-3.2,4.27,4.27,0,0,0-1.38-3.19A4.52,4.52,0,0,0,119,48.49ZM120.93,55a2.74,2.74,0,0,1-3.85,0A2.8,2.8,0,0,1,119,50.17h0A2.67,2.67,0,0,1,121.71,53,2.75,2.75,0,0,1,120.93,55Z"/><path id="Shape-9" data-name="Shape" class="cls-1" d="M127.1,49.8V48.67h-1.74V57.3h1.87V52.69a2.21,2.21,0,0,1,.72-1.75,2.67,2.67,0,0,1,1.8-.63h.56V48.69a2.4,2.4,0,0,0-.69-.09A3,3,0,0,0,127.1,49.8Z"/><path id="Shape-10" data-name="Shape" class="cls-1" d="M115.07,32.09a2.25,2.25,0,0,1,.72-1.76,2.7,2.7,0,0,1,1.81-.62h.56V28.08a2.84,2.84,0,0,0-.69-.08,3.05,3.05,0,0,0-2.54,1.21V28.08H113.2V36.7h1.86V32.09Z"/><rect id="Rectangle-path" class="cls-1" x="132.05" y="44.15" width="1.86" height="13.16"/><polygon id="Shape-11" data-name="Shape" class="cls-1" points="136.16 52.46 139.67 48.69 137.37 48.69 133.97 52.45 137.76 57.3 140 57.3 136.16 52.46"/><polygon id="Shape-12" data-name="Shape" class="cls-1" points="80.66 28.07 78.35 28.07 74.96 31.84 78.76 36.7 80.99 36.7 77.15 31.86 80.66 28.07"/><rect id="Rectangle-path-2" data-name="Rectangle-path" class="cls-1" x="73.04" y="23.54" width="1.86" height="13.16"/></g><path id="Shape-13" data-name="Shape" class="cls-2" d="M38.91,40,62.57,53.54a1.24,1.24,0,0,0,1.86-1.07V27.53a1.24,1.24,0,0,0-1.86-1.07Z"/><path id="Shape-14" data-name="Shape" class="cls-2" d="M62,20.46,45.88,8.59a1.28,1.28,0,0,0-2,.72L38,35.75,61.9,22.51A1.21,1.21,0,0,0,62,20.46"/><path id="Shape-15" data-name="Shape" class="cls-2" d="M45.87,71.42,62,59.54a1.21,1.21,0,0,0-.13-2L38,44.25l5.9,26.45a1.28,1.28,0,0,0,2,.72"/><path id="Shape-16" data-name="Shape" class="cls-2" d="M32.76,39.53l6.12-28.75a1.22,1.22,0,0,0-1.94-1.24L21.27,21.61A3.3,3.3,0,0,0,20,24.21V54.84a3.27,3.27,0,0,0,1.27,2.6L36.94,69.52a1.23,1.23,0,0,0,1.94-1.25Z"/></g></svg>