<svg id="Calque_1" data-name="Calque 1" xmlns="http://www.w3.org/2000/svg" viewBox="0 0 160 80"><defs><style>.cls-1{fill:#e1771d;}.cls-2{fill:#231f20;}</style></defs><title>lakebtc</title><g id="lakebtc"><path class="cls-1" d="M14.66,39.1a3.93,3.93,0,0,0,1.95-4.05c-.34-2.51-3.31-3.46-5.69-3.66V27.6H8.58v3.74H7V27.6H4.68v3.74H0v2.42H1.75c.78,0,1.17.23,1.17.86V45c0,.86-.43,1.13-.89,1.13H.23L.15,48.58H4.68V52.4H7V48.58H8.58V52.4h2.34V48.58h.51c4.79,0,6.39-2.34,6.39-5.54A4.15,4.15,0,0,0,14.66,39.1ZM7,33.92H8.7c1.17,0,3.47.19,3.47,2.1a2.35,2.35,0,0,1-2.05,2.48H7Zm2.57,12H7v-5h3c.7,0,3.28.23,3.28,2.1S12.09,45.89,9.59,45.89Z"/><path class="cls-2" d="M34.12,48.59H24.39V31.68H27V46h7.12Z"/><path class="cls-2" d="M36.8,37h7.52l2.19,2.09v9.65H43.93v-.34l-.38.34H38.34l-2-2.13V42.8l1.94-2.13h5.64v-.42c-.23-.2-.38-.45-.63-.65H36.8Zm7.13,7.92V43.25H39.46l-.52.54v1.82a2.09,2.09,0,0,0,.14.17v0l.33.37h3.2c.22-.2.55-.55.79-.75S43.7,45.09,43.93,44.91Z"/><path class="cls-2" d="M48.74,48.59V31.68h2.58v8.44l4.86-4.39,1.74,1.91-5.09,4.59,5.09,4.59-1.74,1.94-4.86-4.42v4.25Z"/><path class="cls-2" d="M71.62,46.5,69.39,49H62.46l-2.31-2.65v-7l2.29-2.73H69l2.28,2.73v4.71l-7.84-.07V41.49l5.11-.08v-.94c-.3-.35-.57-.67-.87-1h-4c-.1.12-.22.29-.32.39v0a6,6,0,0,0-.52.62v5c.07.1.17.2.24.3s.33.32.57.62h4.45l1.44-1.59Z"/><path class="cls-2" d="M84.65,40.49l.85.52V46.8l-2.88,1.79H73.85V31.68h8.77l2.88,1.79V40Zm-8.19-6.23V39.2h5.36l1.07-.69V34.93c-.37-.22-.65-.42-1-.67Zm0,7.52V46h5.36a4,4,0,0,0,.55-.32l.52-.32V42.48L82.24,42c-.15-.1-.17-.13-.34-.23Z"/><path class="cls-2" d="M92.37,48.59V34.29H87.73V31.71H99.57v2.58H95v14.3Z"/><path class="cls-2" d="M112.65,34.29h-6.58c-.55.54-1.09,1-1.66,1.59v8.59c.59.54,1,1,1.61,1.53h6.63v2.59H105l-3.23-3V34.78l3.2-3.07h7.65Z"/><path class="cls-2" d="M116.84,45.85l2,2-2,2-2-2Z"/><path class="cls-2" d="M130.07,39.62h-5.68c-.08.13-.23.25-.33.38s-.22.25-.42.49v4.82l.75.82h5.68v2.6h-6.95l-2.06-2.53V39.68l2-2.66h7Z"/><path class="cls-2" d="M135,48.73l-2.71-3.17V40.3L135,37h5.43l2.71,3.31v5.26l-2.71,3.17Zm4.24-2.6c.25-.28.42-.52.65-.77a7.59,7.59,0,0,0,.67-.75v-3.4l0-.05c-.47-.54-.8-.91-1.29-1.56h-3c-.44.52-.89,1.07-1.34,1.59v3.4c.18.2.28.35.45.52.32.35.52.62.87,1Z"/><path class="cls-2" d="M157.42,48.73V41.31c-.2-.25-.35-.52-.52-.74s-.35-.52-.67-1h-.6c-.44.35-1.07.82-1.64,1.25v7.86h-2.58V40.84l-1.61-1.22h-.6c-.39.55-.82,1.1-1.21,1.64v7.47h-2.61V40.42l2.51-3.4h2.8l2,1.59c.7-.5,1.42-1.09,2.09-1.59h2.75l2.46,3.4v8.31Z"/></g></svg>