<svg id="Calque_1" data-name="Calque 1" xmlns="http://www.w3.org/2000/svg" viewBox="0 0 160 80"><defs><style>.cls-1{fill:#161f37;}</style></defs><title>latoken</title><g id="latoken"><path class="cls-1" d="M44.75,30.83h3.83v15h9.13V49.1H44.78V30.83Z"/><path class="cls-1" d="M65.2,30.83h4.31L76,49.1H71.84l-1.2-3.76H63.9L62.67,49.1h-4ZM65,42.19h4.69L67.36,35Z"/><path class="cls-1" d="M89.46,30.83v3.25H84V49.13H80.15V34.08h-5.5V30.83Z"/><path class="cls-1" d="M105.06,47.49c-1.37,1.44-3.39,2.12-6,2.12a8,8,0,0,1-6-2.12c-1.85-1.74-2.78-4.24-2.78-7.52s.93-5.85,2.78-7.53c1.36-1.44,3.38-2.12,6-2.12a8.06,8.06,0,0,1,6,2.12c1.85,1.68,2.77,4.17,2.77,7.53S106.91,45.75,105.06,47.49Zm-2.36-2.77A7.48,7.48,0,0,0,104,40a7.49,7.49,0,0,0-1.33-4.76,4.32,4.32,0,0,0-3.59-1.68,4.43,4.43,0,0,0-3.63,1.68A7.49,7.49,0,0,0,94.15,40a7.4,7.4,0,0,0,1.33,4.75,4.39,4.39,0,0,0,3.63,1.68A4.52,4.52,0,0,0,102.7,44.72Z"/><path class="cls-1" d="M110.57,30.83h3.76v7.53l7-7.53h4.92l-7.49,7.53,7.87,10.74h-4.89l-5.65-8L114.3,43v6.12h-3.77V30.83Z"/><path class="cls-1" d="M142.11,34.08h-9.68V38h8.86v3.18h-8.86v4.69h10.12V49.1H128.7V30.83h13.41v3.25Z"/><path class="cls-1" d="M145.19,30.83h4l7.25,12.73V30.83H160V49.1h-3.83l-7.43-13v13h-3.55Z"/><polygon class="cls-1" points="21.11 41.74 24.97 41.74 23.06 36.37 21.11 41.74"/><path class="cls-1" d="M19.05,21A19.05,19.05,0,1,0,38.11,40,19.08,19.08,0,0,0,19.05,21ZM27.57,49l-1.3-3.66H19.81L18.51,49H6.88l6.46-18h3.87L12,45.37h3.87L21.07,31H25l6.5,18Z"/></g></svg>