<svg id="Calque_1" data-name="Calque 1" xmlns="http://www.w3.org/2000/svg" viewBox="0 0 160 80"><defs><style>.cls-1{fill:#d7bd5e;}</style></defs><title>lbank</title><g id="lbank"><g id="_Groupe_" data-name="&lt;Groupe&gt;"><path id="_Tracé_transparent_" data-name="&lt;Tracé transparent&gt;" class="cls-1" d="M12.57,27.43A12.57,12.57,0,1,0,25.14,40,12.68,12.68,0,0,0,12.57,27.43Zm1.14,14.63a1.6,1.6,0,0,1,.58,1.25A1.76,1.76,0,0,1,12.57,45a1.86,1.86,0,0,1-1.26-.57,3.34,3.34,0,0,0-4.34,0l-.11.11A2.06,2.06,0,0,1,5.71,45a1.48,1.48,0,0,1-1.14-.46l-.23-.23v-.11l-.11-.12c0-.11-.12-.22-.12-.34S4,43.43,4,43.31H4c0-.22,0-.34.11-.45s.12-.23.12-.35a.11.11,0,0,1,.11-.11v-.11c.23,0,.23,0,.23-.12l.12-.11h0A3.33,3.33,0,0,0,5.49,40a2.76,2.76,0,0,0-.8-2.06,2.43,2.43,0,0,1-.46-1.37,1.76,1.76,0,0,1,1.71-1.71,1.66,1.66,0,0,1,1.6,1.71A1.84,1.84,0,0,1,7,37.83a3.34,3.34,0,0,0,0,4.34l.12.12h0a3.3,3.3,0,0,0,2.05.8,2.76,2.76,0,0,0,2.06-.8c0-.12.11-.12.23-.23h0a3.27,3.27,0,0,0,.8-2.06,2.76,2.76,0,0,0-.8-2.06,1.9,1.9,0,0,1-.57-1.37,1.72,1.72,0,0,1,3.43,0,1.81,1.81,0,0,1-.58,1.26,3.4,3.4,0,0,0-.8,2.17A2.76,2.76,0,0,0,13.71,42.06Zm2.18-.46a1.72,1.72,0,1,1,1.71-1.71A1.68,1.68,0,0,1,15.89,41.6Zm4.45.46h0c.12.23.23.23.23.23v.11l.12.11c0,.12.11.23.11.35s.11.34.11.45h0c0,.23,0,.35-.11.46s-.11.23-.11.34a.12.12,0,0,1-.12.12v.11l-.23.23A2,2,0,0,1,19.2,45a1.47,1.47,0,0,1-1.14-.46l-.23-.23v-.11l-.12-.12c0-.11-.11-.22-.11-.34s-.11-.34-.11-.46h0c0-.22,0-.34.11-.45s.11-.23.11-.35a.11.11,0,0,1,.12-.11v-.11l.11-.12.12-.11a3.33,3.33,0,0,0,.8-2.06,2.76,2.76,0,0,0-.8-2.06,1.8,1.8,0,0,1-.57-1.25,1.71,1.71,0,1,1,3.42,0,1.8,1.8,0,0,1-.57,1.25,3.4,3.4,0,0,0-.8,2.17A3.29,3.29,0,0,0,20.34,42.06Z"/><path id="_Tracé_" data-name="&lt;Tracé&gt;" class="cls-1" d="M36,49.37V30.51h4.8V45.6h8.46v3.77Z"/><polygon id="_Tracé_2" data-name="&lt;Tracé&gt;" class="cls-1" points="133.03 49.37 123.66 40 133.03 30.63 126.17 30.63 120.23 36.57 120.23 30.51 115.43 30.51 115.43 49.37 120.23 49.37 120.23 43.43 126.17 49.37 133.03 49.37"/><path id="_Tracé_3" data-name="&lt;Tracé&gt;" class="cls-1" d="M78.29,45.71l-1.15,3.66h-5l6.52-18.86H85l6.51,18.86h-5l-1.14-3.66-1.14-3.54-2.4-7.88-2.52,7.88Z"/><path id="_Tracé_4" data-name="&lt;Tracé&gt;" class="cls-1" d="M99.31,37V49.37H94.74V30.51h6l7.08,12.92V30.51h4.57V49.37H106.4Z"/><path id="_Tracé_transparent_2" data-name="&lt;Tracé transparent&gt;" class="cls-1" d="M68.57,42.06a6.75,6.75,0,0,0-.91-1.49,4.25,4.25,0,0,0-1.37-.91,7.09,7.09,0,0,0-1.49-.46,6.14,6.14,0,0,0,1.37-.46,3.9,3.9,0,0,0,1.14-.8A2.17,2.17,0,0,0,68,36.69a3.62,3.62,0,0,0,.23-1.6A9.12,9.12,0,0,0,68,33.37a3.18,3.18,0,0,0-1-1.48,4.06,4.06,0,0,0-1.83-1,10.17,10.17,0,0,0-2.85-.35H52.34V49.37H63A6.19,6.19,0,0,0,67.31,48a4.74,4.74,0,0,0,1.49-3.77A4.59,4.59,0,0,0,68.57,42.06ZM57.26,33.6h5a3.25,3.25,0,0,1,1.14.23,1.82,1.82,0,0,1,.8.46,2.34,2.34,0,0,1,.46.68,1.76,1.76,0,0,1,.11.8,2.21,2.21,0,0,1-.57,1.49c-.34.45-1,.57-1.94.57h-5ZM64.8,45.37c-.34.46-1,.57-1.94.57h-5.6V41.71h5.6a3.49,3.49,0,0,1,1.14.23,1.92,1.92,0,0,1,.8.46,2.51,2.51,0,0,1,.46.69,2.41,2.41,0,0,1-.46,2.28Z"/></g><g id="_Groupe_2" data-name="&lt;Groupe&gt;"><path id="_Tracé_5" data-name="&lt;Tracé&gt;" class="cls-1" d="M135.89,47.89a.84.84,0,0,1,.22.68.82.82,0,0,1-.34.69.83.83,0,0,1-.68.23,1.26,1.26,0,0,1-.69-.23.84.84,0,0,1-.23-.69,1.22,1.22,0,0,1,.23-.68.84.84,0,0,1,.69-.23A1.61,1.61,0,0,1,135.89,47.89Z"/><path id="_Tracé_transparent_3" data-name="&lt;Tracé transparent&gt;" class="cls-1" d="M139.43,40.46a1,1,0,0,1-.12,1.37.82.82,0,0,1-.68.23,1.29,1.29,0,0,1-.69-.23.84.84,0,0,1-.23-.69,1.22,1.22,0,0,1,.23-.68.84.84,0,0,1,.69-.23A1.61,1.61,0,0,1,139.43,40.46Zm0,2.51V49.6h-1.49V43Z"/><path id="_Tracé_6" data-name="&lt;Tracé&gt;" class="cls-1" d="M147.2,45.49V49.6h-1.49v-4c0-1.14-.45-1.6-1.48-1.6a1.31,1.31,0,0,0-.92.34c-.34.23-.45.69-.57,1.26v4h-1.48V43h1.48v.8a1.75,1.75,0,0,1,.92-.68,3.2,3.2,0,0,1,1.14-.23C146.29,42.74,147.2,43.66,147.2,45.49Z"/><path id="_Tracé_7" data-name="&lt;Tracé&gt;" class="cls-1" d="M152.69,40.34V41.6h-1.26c-.23,0-.34,0-.46.11s-.11.23-.11.46v.69h1.71V44h-1.71v5.49h-1.49V44h-1.48V42.86h1.48v-.69a1.62,1.62,0,0,1,1.83-1.83Z"/><path id="_Tracé_transparent_4" data-name="&lt;Tracé transparent&gt;" class="cls-1" d="M159.09,43.77a3.93,3.93,0,0,1,0,5,3.12,3.12,0,0,1-2.4,1,2.94,2.94,0,0,1-2.4-1,3.9,3.9,0,0,1,0-5,3,3,0,0,1,2.4-1A3.15,3.15,0,0,1,159.09,43.77Zm-3.89.92a3.25,3.25,0,0,0-.46,1.6,2.45,2.45,0,0,0,.46,1.6,1.72,1.72,0,0,0,2.74,0,3.32,3.32,0,0,0,.46-1.6,2.36,2.36,0,0,0-.46-1.6,1.62,1.62,0,0,0-1.37-.69A1.39,1.39,0,0,0,155.2,44.69Z"/></g></g></svg>