<svg id="Calque_1" data-name="Calque 1" xmlns="http://www.w3.org/2000/svg" viewBox="0 0 160 80"><defs><style>.cls-1{fill:#202020;}.cls-2,.cls-3{fill:#1a78ff;}.cls-2{opacity:0.6;isolation:isolate;}</style></defs><title>liqui</title><g id="liqui"><path id="Liqui-2" data-name="Liqui" class="cls-1" d="M10,55.25H27.4v-4h-13V30.45H10Zm21.68,0H36V36.54H31.68Zm24,5.67H60V36.54H55.67v2.91a7.75,7.75,0,0,0-6.38-3.3c-4.46,0-8.68,3.51-8.68,9.71s4.29,9.78,8.68,9.78a7.49,7.49,0,0,0,6.38-3.51Zm-5.35-9c-2.91,0-5.39-2.38-5.39-6,0-3.79,2.45-6.06,5.39-6.06s5.42,2.38,5.42,6-2.55,6.06-5.42,6.06Zm21.43,3.72a6.73,6.73,0,0,0,5.85-3.3v2.91h4.28V36.54H77.6V47.1c0,2.91-1.74,4.64-4.22,4.64s-4-1.66-4-4.57V36.54H65.09V48.45c0,4.35,2.45,7.19,6.66,7.19Zm15.77-.39H91.8V36.54H87.52Z"/><polygon id="Star" class="cls-2" points="121.74 34.56 127.12 19.08 132.5 34.56 121.74 34.56"/><polygon id="Star-2" data-name="Star" class="cls-2" points="125.64 50.08 135.24 43.44 140.57 60.47 125.64 50.08"/><polygon id="Star-3" data-name="Star" class="cls-3" points="113.67 60.47 118.42 44.79 105.72 34.58 150 34.58 113.67 60.47"/><circle id="Oval" class="cls-1" cx="33.68" cy="31.63" r="2.95"/><circle id="Oval-2" data-name="Oval" class="cls-1" cx="89.48" cy="31.63" r="2.95"/></g></svg>