<svg id="Calque_1" data-name="Calque 1" xmlns="http://www.w3.org/2000/svg" viewBox="0 0 160 80"><defs><style>.cls-1{fill:#ed711e;}.cls-2{fill:#266bb2;}.cls-3{fill:#ed701f;}.cls-4{fill:#266ab2;}</style></defs><title>localbitcoins</title><g id="localbitcoins"><g id="_f37216fe" data-name="#f37216fe"><path class="cls-1" d="M83.75,33.21c1.23-1.22,3,1,1.51,1.89C84.13,36.14,82.52,34.06,83.75,33.21Z"/><path class="cls-1" d="M115.27,33.07c1.13-.85,2.69,1,1.51,1.94C115.65,36.37,113.71,33.92,115.27,33.07Z"/><path class="cls-1" d="M141.32,40.76a2.76,2.76,0,0,1,3.58,1.14c-1,.37-1.84-1.09-2.92-.62a2,2,0,0,0-.71,3.73c1.08.8,2.26,0,3.3-.52.57.47-.33.9-.66,1.18a3,3,0,0,1-4-1.13A2.78,2.78,0,0,1,141.32,40.76Z"/><path class="cls-1" d="M147.45,40.76c2-1.08,4.43,1.37,3.59,3.4a2.65,2.65,0,0,1-4.39,1.09,2.78,2.78,0,0,1,.8-4.49m.28.66a2.08,2.08,0,0,0-.56,3.35,1.94,1.94,0,0,0,3.2-.75C151,42.51,149.24,40.62,147.73,41.42Z"/><path class="cls-1" d="M152.36,40.39l.75.75a2.34,2.34,0,0,1,3.3.28,7.12,7.12,0,0,1,1.66-.94c.84-.14,1.36.66,1.93,1.18v4.48c-1.79-1.13.52-4.48-1.89-5-2.36.56-1.18,3.49-1.88,5.24-.57-1.47-.33-3-.52-4.53a1.32,1.32,0,0,0-2.41.33,29.2,29.2,0,0,0-.38,4.1C151.79,44.54,152.45,42.37,152.36,40.39Z"/><path class="cls-1" d="M136.64,44.11a1,1,0,0,1,.62,1.94A1,1,0,0,1,136.64,44.11Z"/></g><g id="_186bbeff" data-name="#186bbeff"><path class="cls-2" d="M71.06,33.12h1.79q-.07,6.38,0,12.74H71.06Q71.13,39.49,71.06,33.12Z"/><path class="cls-2" d="M88.75,33.17c.57,0,1.13,0,1.7,0v3.26h1.84c0,.38-.05,1.18-.05,1.56-.42,0-1.32,0-1.74-.05.14,2.17-.47,4.48.47,6.51l1.46-.61c0,.66-.09,1.27-.14,1.93-1.18.1-2.83.24-3.3-1.18a48.8,48.8,0,0,1-.14-6.51l-1.61-.19c0-.38,0-1.08,0-1.46.51,0,1.08,0,1.65-.1C88.75,35.34,88.75,34.25,88.75,33.17Z"/><path class="cls-2" d="M31.57,33.45c.61,0,1.22,0,1.84-.05,0,3.54,0,7.08-.1,10.62,1.51,0,3.07,0,4.58,0v1.79H31.52C31.57,41.71,31.57,37.6,31.57,33.45Z"/><path class="cls-2" d="M74.83,33.4c1.89.14,4.2-.47,5.76,1A3.38,3.38,0,0,1,80.5,39a3.61,3.61,0,0,1-1.28,6.79c-1.46.14-2.92.1-4.39.1,0-4.2,0-8.36,0-12.51m1.8,1.65c0,1.14,0,2.22,0,3.35,1.23,0,3-.18,3.11-1.74s-1.93-1.46-3.06-1.61m0,5.05v4a14.23,14.23,0,0,0,2.78-.19A1.85,1.85,0,0,0,80.26,41C79.32,40,77.85,40.2,76.63,40.1Z"/><path class="cls-2" d="M41.8,36.47a4.78,4.78,0,0,1,5.76,2.26c1.65,2.84-.19,7.08-3.58,7.27a4.68,4.68,0,0,1-5.15-3.21,5,5,0,0,1,3-6.32m.34,1.75a3.3,3.3,0,0,0-.85,5.33,3.06,3.06,0,0,0,5-1.32C47.23,39.91,44.49,37,42.14,38.22Z"/><path class="cls-2" d="M49.21,40.86a5.07,5.07,0,0,1,5.57-4.58,5.6,5.6,0,0,1,4.11,2.31c-.43.29-.9.57-1.33.8-1.27-1-2.92-2.07-4.57-1.22a3.24,3.24,0,0,0-.9,5.42c1.61,1.47,4.11.81,5.33-.8.47.28,1,.62,1.47.9A5.61,5.61,0,0,1,54.26,46,4.81,4.81,0,0,1,49.21,40.86Z"/><path class="cls-2" d="M61.29,37.55a4.68,4.68,0,0,1,6.37-.09c0-.28,0-.8,0-1.09.56.05,1.13.05,1.7.1,0,3.07,0,6.18,0,9.25l-1.74.14c0-.28,0-.8,0-1.09a4.72,4.72,0,0,1-6.42-.14,4.85,4.85,0,0,1,0-7.08m2,.67a3.3,3.3,0,0,0-.61,5.52c1.84,1.69,5.05.09,5-2.36A3.13,3.13,0,0,0,63.32,38.22Z"/><path class="cls-2" d="M83.7,36.42c.62,0,1.23,0,1.84.1-.09,3.11,0,6.18,0,9.29-.43,0-1.32.1-1.75.14C83.66,42.79,83.75,39.58,83.7,36.42Z"/><path class="cls-2" d="M94.84,37.6a5.5,5.5,0,0,1,8.07,1c-.47.33-1,.62-1.42.95a3.7,3.7,0,0,0-5.42-.76,3.25,3.25,0,0,0,.75,5.33,3.74,3.74,0,0,0,4.63-1.27c.47.28,1,.61,1.46.94-1.8,2.55-5.85,3.21-8.12,1A4.91,4.91,0,0,1,94.84,37.6Z"/><path class="cls-2" d="M107.3,36.42c3.82-1.32,7.59,3.16,5.8,6.7-1.18,3.21-5.95,3.92-8.07,1.28a5.05,5.05,0,0,1,2.27-8m.37,1.75a3.31,3.31,0,0,0-1.18,5.24,3.07,3.07,0,0,0,5.05-.9C112.67,40.2,110.13,37.08,107.67,38.17Z"/><path class="cls-2" d="M115,36.52c.61,0,1.22-.05,1.79-.05,0,3.16,0,6.32,0,9.44-.61,0-1.23,0-1.79-.1C115.08,42.7,115.08,39.58,115,36.52Z"/><path class="cls-2" d="M118.62,36.42c.8,0,1.79-.23,1.93.9,1.84-1.79,5.48-1.23,6,1.46.38,2.31.1,4.72.24,7.08h-1.7c-.14-2.36.38-4.81-.38-7.08-1.08-1.84-3.87-.61-4.2,1.23a48.84,48.84,0,0,0-.14,5.8c-.42,0-1.32.1-1.74.14C118.57,42.74,118.67,39.58,118.62,36.42Z"/><path class="cls-2" d="M128.91,40.34a2.66,2.66,0,0,1,1.74-4.06c1.32-.28,2.36.66,3.4,1.32-.38.43-.76.85-1.09,1.28-.85-.57-2-1.61-2.83-.38-.14,1.32,1.7,1.65,2.5,2.4a2.79,2.79,0,0,1,0,4.68c-1.56,1-3.45.18-4.67-.95.37-.47.75-.89,1.17-1.37.67.48,1.28,1.23,2.18,1.09a6.14,6.14,0,0,0,1.27-1.18C131.6,41.94,129.9,41.57,128.91,40.34Z"/></g><g id="_2228489818192" data-name=" 2228489818192"><path class="cls-3" d="M12.93,23.73a12.33,12.33,0,0,1,2.69.28l-.71,2.6a9.49,9.49,0,0,0-2-.19,9.18,9.18,0,0,0-2,.19L10.24,24A12.94,12.94,0,0,1,12.93,23.73Zm4,.61A13.25,13.25,0,0,1,21.61,27L19.72,29a10.47,10.47,0,0,0-3.44-2ZM22.55,28a12.4,12.4,0,0,1,2.69,4.67l-2.59.71a10.52,10.52,0,0,0-2-3.44Zm3.07,6a12.59,12.59,0,0,1,.28,2.69,12.17,12.17,0,0,1-.28,2.68L23,38.69a9.48,9.48,0,0,0,.18-2,9.65,9.65,0,0,0-.18-2Zm-.38,6.7a13.1,13.1,0,0,1-2.69,4.67l-1.88-1.94a9.64,9.64,0,0,0,2-3.49Zm-3.63,5.66a13.25,13.25,0,0,1-4.67,2.69l-.71-2.6a9.72,9.72,0,0,0,3.45-2Zm-5.95,3a12.84,12.84,0,0,1-2.68.28,12.59,12.59,0,0,1-2.69-.28l.7-2.6A9.52,9.52,0,0,0,13,47a9.24,9.24,0,0,0,2-.19ZM9,49.07a13.25,13.25,0,0,1-4.67-2.69l1.89-1.94a10.41,10.41,0,0,0,3.45,2ZM3.35,45.39A12.53,12.53,0,0,1,.66,40.72L3.26,40a11.1,11.1,0,0,0,2,3.49Zm-3.07-6A13,13,0,0,1,0,36.71,12.26,12.26,0,0,1,.28,34l2.6.7a9.64,9.64,0,0,0-.19,2,9.18,9.18,0,0,0,.19,2Zm.33-6.75A13.25,13.25,0,0,1,3.3,28L5.19,30a9.55,9.55,0,0,0-2,3.44Zm3.68-5.61A12.53,12.53,0,0,1,9,24.39L9.67,27a9.8,9.8,0,0,0-3.44,2Z"/><path class="cls-4" d="M11.94,27.74a9.1,9.1,0,0,1,6.13,1.51,9,9,0,0,1,.19,14.67,8.19,8.19,0,0,1-3.68,1.56,9.6,9.6,0,0,1-2.27.1,9,9,0,0,1-6.79-4A8.76,8.76,0,0,1,4,37a9.27,9.27,0,0,1,1.13-4.77A9.2,9.2,0,0,1,11.94,27.74Zm.37,2.69c0,.57,0,1.08,0,1.6H9.11v1.75h1.22v5.8H9.11v1.75h3.16c0,.52,0,1.08,0,1.6h1.33v-1.6a3.69,3.69,0,0,0,2.54-1.09,2.63,2.63,0,0,0,.52-2.5,2.34,2.34,0,0,0-1.27-1.41,2.49,2.49,0,0,0,.85-1.09,2.2,2.2,0,0,0-.38-2.31,3.37,3.37,0,0,0-2.26-.9v-1.6Zm0,3.4a4,4,0,0,1,1.51.09.93.93,0,0,1,0,1.56,2.83,2.83,0,0,1-1.51.19Zm0,3.63a4.8,4.8,0,0,1,1.84.19,1,1,0,0,1,0,1.79,5.66,5.66,0,0,1-1.8.19ZM6.13,48.93a13.42,13.42,0,0,0,4.44,1.55,14,14,0,0,0,7.93-.94A13.35,13.35,0,0,1,19.72,49a10.3,10.3,0,0,1-1.13,1.37c-1.42,1.65-2.83,3.35-4.34,4.91a6.26,6.26,0,0,1-1.18,1c-.19.09-.38-.05-.52-.14A9.62,9.62,0,0,1,11.37,55C9.53,53,7.79,51,6.13,48.93Z"/></g></g></svg>