<svg id="Calque_1" data-name="Calque 1" xmlns="http://www.w3.org/2000/svg" viewBox="0 0 160 80"><defs><style>.cls-1{fill:#12326b;}</style></defs><title>luno</title><g id="luno"><path class="cls-1" d="M69.4,26.4a1.92,1.92,0,0,0-1.9,2v14c0,4.9-3.5,8.3-8.5,8.3h0a8.09,8.09,0,0,1-8.5-8.3v-14a1.9,1.9,0,1,0-3.8,0V42.6c0,3.7,1.2,6.8,3.6,8.9a13.07,13.07,0,0,0,8.4,3.1h.8a12.73,12.73,0,0,0,8.2-3.1,11.67,11.67,0,0,0,3.5-8.9V28.4A1.84,1.84,0,0,0,69.4,26.4Z"/><path class="cls-1" d="M38.3,50.4h-6a8.14,8.14,0,0,1-8.5-8.3v-14a1.9,1.9,0,1,0-3.8,0V42.3c0,3.7,1.2,6.8,3.6,8.9A13.07,13.07,0,0,0,32,54.3h6.3a1.92,1.92,0,0,0,1.9-2A1.9,1.9,0,0,0,38.3,50.4Z"/><path class="cls-1" d="M102.1,53.5a1.92,1.92,0,0,1-1.9-2v-14c0-4.9-3.5-8.3-8.5-8.3h0c-5,0-8.4,3.4-8.5,7.9v14c0,1.5-.9,2.4-1.9,2.4a2,2,0,0,1-1.9-2V37.4c0-3.7,1.2-6.8,3.6-8.9a12.1,12.1,0,0,1,8.3-3.1h.9a12.73,12.73,0,0,1,8.2,3.1,11.68,11.68,0,0,1,3.6,8.9V51.6A2,2,0,0,1,102.1,53.5Z"/><path class="cls-1" d="M125.9,54.4a14,14,0,0,1-10.2-4.2,14.16,14.16,0,0,1-3.9-9.9v-.1a14.16,14.16,0,0,1,3.9-9.9,14.37,14.37,0,0,1,20.4-.1,14.16,14.16,0,0,1,3.9,9.9v.1a14.16,14.16,0,0,1-3.9,9.9A13.82,13.82,0,0,1,125.9,54.4Zm0-24.8c-5.7,0-10.1,4.5-10.1,10.5v.1a10.67,10.67,0,0,0,2.9,7.5,10,10,0,0,0,7.3,3.1c5.7,0,10.1-4.5,10.1-10.5v-.1a10.67,10.67,0,0,0-2.9-7.5A10,10,0,0,0,125.9,29.6Z"/></g></svg>