<svg id="Calque_1" data-name="Calque 1" xmlns="http://www.w3.org/2000/svg" xmlns:xlink="http://www.w3.org/1999/xlink" viewBox="0 0 160 80"><defs><style>.cls-1{fill:url(#Dégradé_sans_nom_16);}.cls-2{fill:#ff8f1c;}.cls-3{fill:url(#Dégradé_sans_nom_15);}.cls-4{fill:#333;}</style><linearGradient id="Dégradé_sans_nom_16" x1="88.09" y1="343.12" x2="88.09" y2="341.64" gradientTransform="matrix(23.96, 0, 0, -19.52, -2078.97, 6735.33)" gradientUnits="userSpaceOnUse"><stop offset="0" stop-color="#ff0029"/><stop offset="1" stop-color="#ab00ff"/></linearGradient><linearGradient id="Dégradé_sans_nom_15" x1="87.05" y1="341.24" x2="88.28" y2="339.9" gradientTransform="matrix(22.02, 0, 0, -22.48, -1890.2, 7691.14)" gradientUnits="userSpaceOnUse"><stop offset="0" stop-color="#ff9100"/><stop offset="0.52" stop-color="#ff0029"/><stop offset="1" stop-color="#ab00ff"/></linearGradient></defs><title>lykke</title><g id="lykke"><g id="Shape"><polygon class="cls-1" points="19.82 60.59 31.59 48.62 43.32 60.59 43.32 53.42 31.59 41.45 19.82 53.42 19.82 53.42 19.82 53.42 19.82 60.59"/><polygon class="cls-2" points="10 36.34 26.62 36.34 31.59 41.45 14.97 41.45 14.97 41.45 14.97 41.45 10 36.34"/><polygon class="cls-3" points="53.18 36.34 36.56 36.34 36.56 24.48 31.59 19.41 31.59 41.45 48.21 41.45 48.21 41.45 48.21 41.45 53.18 36.34"/></g><g id="Shape-2" data-name="Shape"><path class="cls-4" d="M150,45.61c0-5.72-3.36-9.58-8.4-9.58s-8.67,3.93-8.67,9.12c0,5.38,3.66,9.15,8.93,9.15a10.26,10.26,0,0,0,6.87-2.4l.19-.15-2.21-3.32-.22.23a6.59,6.59,0,0,1-4.15,1.6A4.17,4.17,0,0,1,138,46.9h12V45.61Zm-4.67-2.29h-7.4a3.64,3.64,0,0,1,3.7-3.17,3.55,3.55,0,0,1,3.7,3.17Z"/><polygon class="cls-4" points="77.01 49.04 67.49 49.04 67.49 29.63 62.59 29.63 62.59 53.81 78.88 53.81 77.01 49.04"/><polygon class="cls-4" points="132.41 53.81 125.57 44.5 132.22 36.53 126.32 36.53 120.9 43.2 120.9 29.63 116.01 29.63 116.01 53.81 120.9 53.81 120.9 45.84 126.99 53.81 132.41 53.81"/><polygon class="cls-4" points="113.58 53.81 106.75 44.5 113.39 36.53 107.45 36.53 102.04 43.2 102.04 29.63 97.14 29.63 97.14 53.81 102.04 53.81 102.04 45.84 108.13 53.81 113.58 53.81"/><polygon class="cls-4" points="89.64 36.3 85.68 46.64 81.79 36.3 76.53 36.3 83.17 53.08 80.52 59.95 85.57 59.95 95.02 36.3 89.64 36.3"/></g></g></svg>