<svg id="Calque_1" data-name="Calque 1" xmlns="http://www.w3.org/2000/svg" viewBox="0 0 160 80"><defs><style>.cls-1{fill:#72c02c;}</style></defs><title>mixcoins</title><g id="mixcoins"><path class="cls-1" d="M82.38,37.9a7.43,7.43,0,0,1,2.2.27c.59.18,1.18.37,1.74.6l2.13-4.85a13.7,13.7,0,0,0-6.07-1.3,13.57,13.57,0,0,0-5.46,1.08,12.22,12.22,0,0,0-4.15,3,13,13,0,0,0-2.64,4.39,15.59,15.59,0,0,0-.91,5.36,12.64,12.64,0,0,0,.52,3.6,7.68,7.68,0,0,0,1.69,3,8.46,8.46,0,0,0,3,2,11.56,11.56,0,0,0,4.39.75,14,14,0,0,0,3.38-.36,22.71,22.71,0,0,0,2.59-.81l-.46-5a11.62,11.62,0,0,1-2,.63,11.21,11.21,0,0,1-2.35.25c-1.64,0-2.77-.44-3.38-1.32a5.94,5.94,0,0,1-.93-3.45A8.54,8.54,0,0,1,77.46,40,6.11,6.11,0,0,1,82.38,37.9Z"/><path class="cls-1" d="M106.93,35.17a7,7,0,0,0-2.73-1.87,10.23,10.23,0,0,0-3.83-.68,10.74,10.74,0,0,0-5.28,1.27,12.45,12.45,0,0,0-3.88,3.28,14,14,0,0,0-2.4,4.51,16.33,16.33,0,0,0-.82,5,11.1,11.1,0,0,0,.55,3.65,8.16,8.16,0,0,0,1.6,2.86,7.06,7.06,0,0,0,2.69,1.88,10.2,10.2,0,0,0,3.85.67,11,11,0,0,0,5.38-1.28,12.34,12.34,0,0,0,3.87-3.28,14.73,14.73,0,0,0,2.35-4.52,16.8,16.8,0,0,0,.79-5,11.7,11.7,0,0,0-.54-3.65A8.43,8.43,0,0,0,106.93,35.17Zm-4.4,9.89a10.2,10.2,0,0,1-1.06,2.66,7.14,7.14,0,0,1-1.76,2,4,4,0,0,1-2.44.79,2.6,2.6,0,0,1-2.43-1.16,6.74,6.74,0,0,1-.66-3.27,11.27,11.27,0,0,1,.36-2.73A9.74,9.74,0,0,1,95.6,40.7a7,7,0,0,1,1.76-2,3.92,3.92,0,0,1,2.42-.79,2.58,2.58,0,0,1,2.43,1.16,6.7,6.7,0,0,1,.68,3.26A11.28,11.28,0,0,1,102.53,45.06Z"/><polygon class="cls-1" points="114.85 33.21 109.63 55.2 115.82 55.2 121.09 33.21 114.85 33.21"/><polygon class="cls-1" points="35.21 55.2 41.41 55.2 46.69 33.21 40.45 33.21 35.21 55.2"/><polygon class="cls-1" points="48.68 24.2 42.44 24.2 41.38 28.53 47.56 28.53 48.68 24.2"/><polygon class="cls-1" points="123.08 24.2 116.85 24.2 115.78 28.53 121.97 28.53 123.08 24.2"/><path class="cls-1" d="M134.41,32.71a26.63,26.63,0,0,0-3,.15c-.88.1-1.68.22-2.39.37s-1.35.32-1.92.49l-1.57.49-5.08,21h6.24l4.06-17a12.32,12.32,0,0,1,2.47-.25,3,3,0,0,1,1.86.47,2.22,2.22,0,0,1,.77,1.25,4.9,4.9,0,0,1,0,1.8c-.1.69-.24,1.38-.41,2.11L132.74,55.2H139l2.84-11.88c.81-3.29.59-5.88-.64-7.77S137.67,32.71,134.41,32.71Z"/><path class="cls-1" d="M24.86,32.81A25,25,0,0,0,22,33a7.62,7.62,0,0,0-3.2,1.18,8.85,8.85,0,0,0-5.17-1.33,25.27,25.27,0,0,0-2.91.15c-.86.1-1.64.22-2.33.37s-1.32.31-1.88.49L5,34.3,0,54.76H6.08l4-16.59a11.75,11.75,0,0,1,2.4-.26,2.88,2.88,0,0,1,1.83.48A2.23,2.23,0,0,1,15,39.62a4.92,4.92,0,0,1,0,1.76c-.1.67-.22,1.35-.39,2.06L12,54.78h6.08l2.77-11.59a13.67,13.67,0,0,0,.43-4.42,4.46,4.46,0,0,1,2.5-.86,2.47,2.47,0,0,1,1.82.48,2.12,2.12,0,0,1,.76,1.23,4.68,4.68,0,0,1,0,1.76c-.1.67-.22,1.35-.39,2.06L23.27,54.78h6.09l2.77-11.59c.8-3.22.58-5.75-.64-7.59S28,32.81,24.86,32.81Z"/><polygon class="cls-1" points="62 33.21 58.4 38.66 55.97 33.21 49.73 33.21 54.68 44.28 47.46 55.2 53.67 55.2 57.18 49.88 59.56 55.2 65.77 55.2 60.9 44.28 68.24 33.21 62 33.21"/><path class="cls-1" d="M159.63,34.38A9.51,9.51,0,0,0,154.27,33c-2.84,0-5,.78-6.46,2.32a7.49,7.49,0,0,0-2.16,5.25,5.56,5.56,0,0,0,.42,2.3,3.87,3.87,0,0,0,1.39,1.71,8.34,8.34,0,0,0,1.59.91l.34.12c.38.15.84.32,1.41.51l.31.1a8.32,8.32,0,0,1,1.06.42,2.21,2.21,0,0,1,.78.68,1.76,1.76,0,0,1,.34,1.1,1.8,1.8,0,0,1-.68,1.53,3.28,3.28,0,0,1-2.21.73,13.76,13.76,0,0,1-3-.15,5.42,5.42,0,0,1-1.62-.66,2.87,2.87,0,0,1-.69-.56c-.07-.07-.51-.4-.5-.49L143.11,53l.39.31A10.31,10.31,0,0,0,150,55.24a11.32,11.32,0,0,0,3.65-.54,6.91,6.91,0,0,0,2.56-1.41,6.65,6.65,0,0,0,1.47-1.92,7.67,7.67,0,0,0,.77-2,8.19,8.19,0,0,0,.19-1.79,6.51,6.51,0,0,0-.44-2.42,4.65,4.65,0,0,0-1.32-1.76A9.63,9.63,0,0,0,154.52,42c-.6-.24-1.25-.44-1.86-.68a3.87,3.87,0,0,1-1.58-.86,1.21,1.21,0,0,1-.24-.61c-.25-1.79,1.76-2.92,3.29-2.94a7.2,7.2,0,0,1,2.37.27,3.73,3.73,0,0,1,1.34.81c.18.17.33.38.49.56s.44.41.42.46L160,34.67Z"/></g></svg>