<svg id="Calque_1" data-name="Calque 1" xmlns="http://www.w3.org/2000/svg" viewBox="0 0 160 80"><defs><style>.cls-1{fill:#5d8bcf;}.cls-2{fill:#fff;}</style></defs><title>nanex</title><g id="nanex"><path id="path3385" class="cls-1" d="M63.3,40A21.65,21.65,0,1,1,41.65,18.35,21.65,21.65,0,0,1,63.3,40"/><path id="path3387" class="cls-2" d="M26.83,48.27h2.3V40.88h-2.3Z"/><path id="path3389" class="cls-2" d="M31.48,43.49h2.3V36.1h-2.3Z"/><path id="path3391" class="cls-2" d="M40.79,43.49h2.3V36.1h-2.3Z"/><path id="path3393" class="cls-2" d="M36.14,38.33h2.3V30.94h-2.3Z"/><path id="path3395" class="cls-2" d="M45.45,48.2h2.3V40.81h-2.3Z"/><path id="path3397" class="cls-2" d="M50.1,43.68h2.3V36.29H50.1Z"/><path id="path3399" class="cls-2" d="M54.76,38.88h2.3V31.49h-2.3Z"/><path id="path3401" class="cls-1" d="M83.44,31.37V43.82L75.79,31.37h-1.5v15h1.43V33.87l7.67,12.47h1.48v-15Zm15.21,15h1.5l-5.69-15H92.93l-5.71,15h1.52l1.5-4h6.91Zm-7.91-5.26,3-7.8,3,7.8Zm20.92-9.71V43.82L104,31.37h-1.5v15H104V33.87l7.67,12.47h1.48v-15ZM118.92,45V39.67h6.22V38.32h-6.22v-5.6h7.13V31.37h-8.54v15h8.78V45ZM140,46.34l-5.34-8.06,4.64-6.91h-1.71l-3.78,5.76L130,31.37h-1.72L133,38.28l-5.32,8.06h1.69l4.48-6.89,4.47,6.89H140"/></g></svg>