<svg id="Calque_1" data-name="Calque 1" xmlns="http://www.w3.org/2000/svg" viewBox="0 0 160 80"><defs><style>.cls-1{fill:none;}.cls-2{fill:#3075ee;}.cls-3{fill:#205fec;}.cls-4{fill:#5795f1;}.cls-5{fill:#88bdf3;}.cls-6{fill:#1a1a1a;}</style></defs><title>okcoin</title><g id="okcoin"><rect id="Rectangle-2" class="cls-1" y="18.39" width="160" height="43.21"/><circle id="Oval" class="cls-2" cx="13.02" cy="31.6" r="13.02"/><circle id="Oval-2" data-name="Oval" class="cls-3" cx="32.44" cy="51.64" r="9.93"/><circle id="Oval-3" data-name="Oval" class="cls-4" cx="37.2" cy="30.71" r="8.61"/><circle id="Oval-4" data-name="Oval" class="cls-5" cx="13.02" cy="53.71" r="6.36"/><path id="Combined-Shape" class="cls-6" d="M72,40.66a12.28,12.28,0,0,1-.7,4.16,10.27,10.27,0,0,1-2,3.41A9.44,9.44,0,0,1,66,50.55a11.93,11.93,0,0,1-8.87,0,9.51,9.51,0,0,1-3.29-2.32,9.76,9.76,0,0,1-2-3.41,12.83,12.83,0,0,1,0-8.3,9.5,9.5,0,0,1,5.31-5.75,11.93,11.93,0,0,1,8.87,0,9.71,9.71,0,0,1,3.27,2.32,10.29,10.29,0,0,1,2,3.43A12.42,12.42,0,0,1,72,40.66ZM61.59,48a6,6,0,0,0,2.67-.57,5.33,5.33,0,0,0,1.89-1.54,6.53,6.53,0,0,0,1.14-2.32,11.36,11.36,0,0,0,0-5.79,6.7,6.7,0,0,0-1.14-2.32,5.33,5.33,0,0,0-1.89-1.54,6.59,6.59,0,0,0-5.33,0A5.33,5.33,0,0,0,57,35.44a6.53,6.53,0,0,0-1.14,2.32,11.36,11.36,0,0,0,0,5.79A6.53,6.53,0,0,0,57,45.87a5.33,5.33,0,0,0,1.89,1.54A6,6,0,0,0,61.59,48ZM74.76,51V30.29h4.36v10l7.2-10h5.05L83.74,40.54,91.9,51H86.5L79.12,40.85V51Zm27.88-21.11c.51,0,1,0,1.58.07s1.07.13,1.58.22a13.51,13.51,0,0,1,1.46.34,7.11,7.11,0,0,1,1.26.48l-.62,3.18a14.16,14.16,0,0,0-2.21-.6,12.13,12.13,0,0,0-2.4-.24,7.46,7.46,0,0,0-5.44,1.84A7.33,7.33,0,0,0,96,40.66a7.3,7.3,0,0,0,1.88,5.44A7.51,7.51,0,0,0,103.29,48a12.74,12.74,0,0,0,2.39-.23,14,14,0,0,0,2.22-.61l.62,3.19a8.32,8.32,0,0,1-1.26.47,13.15,13.15,0,0,1-1.47.34,15.22,15.22,0,0,1-1.57.22c-.54.05-1.07.08-1.59.08a12.94,12.94,0,0,1-4.73-.81,9.93,9.93,0,0,1-3.46-2.24A9.56,9.56,0,0,1,92.32,45a13.35,13.35,0,0,1,0-8.59A9.47,9.47,0,0,1,94.44,33a9.65,9.65,0,0,1,3.46-2.24A12.75,12.75,0,0,1,102.64,29.92Zm28.15,10.74a12.28,12.28,0,0,1-.7,4.16,10.1,10.1,0,0,1-2,3.41,9.35,9.35,0,0,1-3.27,2.32,11.93,11.93,0,0,1-8.87,0,9.51,9.51,0,0,1-3.29-2.32,9.76,9.76,0,0,1-2-3.41,12.83,12.83,0,0,1,0-8.3,9.5,9.5,0,0,1,5.31-5.75,11.93,11.93,0,0,1,8.87,0,9.61,9.61,0,0,1,3.27,2.32,10.12,10.12,0,0,1,2,3.43A12.17,12.17,0,0,1,130.79,40.66ZM120.36,48a6,6,0,0,0,2.66-.57,5.33,5.33,0,0,0,1.89-1.54,6.53,6.53,0,0,0,1.14-2.32,11.36,11.36,0,0,0,0-5.79,6.53,6.53,0,0,0-1.14-2.32A5.33,5.33,0,0,0,123,33.9a6.59,6.59,0,0,0-5.33,0,5.26,5.26,0,0,0-1.89,1.55,6.53,6.53,0,0,0-1.14,2.32,11.36,11.36,0,0,0,0,5.79,6.53,6.53,0,0,0,1.14,2.32,5.44,5.44,0,0,0,1.89,1.54A6,6,0,0,0,120.36,48ZM138.05,51h-4.36V30.29h4.36Zm17.75,0-9.68-13.58V51H142V30.29h4.17l9.68,13.58V30.29H160V51Z"/></g></svg>