<svg id="Calque_1" data-name="Calque 1" xmlns="http://www.w3.org/2000/svg" viewBox="0 0 160 80"><defs><style>.cls-1{fill:#1a1a1a;}.cls-2{fill:#7abdf7;}.cls-3{fill:#0d74f5;}.cls-4{fill:#4494f7;}.cls-5{fill:#005cf4;}.cls-6{fill:#186ef9;}.cls-7{fill:#0246f2;}.cls-8{fill:#0046f8;}.cls-9{fill:#0729f1;}</style></defs><title>okex</title><g id="okex"><path class="cls-1" d="M88.84,40.05a13.54,13.54,0,0,1-.79,4.68,11.37,11.37,0,0,1-2.27,3.83,10.92,10.92,0,0,1-3.67,2.6,13.47,13.47,0,0,1-10,0,10.76,10.76,0,0,1-6-6.44,14.47,14.47,0,0,1,0-9.33,10.74,10.74,0,0,1,6-6.45,13.45,13.45,0,0,1,10,0,10.81,10.81,0,0,1,3.67,2.61,11.18,11.18,0,0,1,2.28,3.86A13.59,13.59,0,0,1,88.84,40.05ZM77.12,48.28a6.83,6.83,0,0,0,3-.62,6,6,0,0,0,2.14-1.74,7.41,7.41,0,0,0,1.27-2.6,12.82,12.82,0,0,0,0-6.51,7.46,7.46,0,0,0-1.27-2.61,6,6,0,0,0-2.14-1.73,7.41,7.41,0,0,0-6,0A6,6,0,0,0,72,34.2a7.46,7.46,0,0,0-1.27,2.61,12.82,12.82,0,0,0,0,6.51A7.39,7.39,0,0,0,72,45.91a6.16,6.16,0,0,0,2.13,1.73,6.74,6.74,0,0,0,3,.64Zm14.8,3.43V28.41h4.9V39.6l8.08-11.19h5.67L102,39.92l9.16,11.79h-6L96.82,40.27V51.71Zm21.17-23.3h14v3.88H118v5.63h8.67V41.8H118v6h9.2v3.89h-14.1Zm31.44,0h5.32L142.19,40,150,51.71h-5.35l-5-8-5,8h-5.36L137,40,129.37,28.4h5.31l4.94,7.88Z"/><path class="cls-2" d="M32.13,37.33a11.21,11.21,0,0,0,5.34,0A11.25,11.25,0,0,1,45.7,29.1a11.23,11.23,0,0,0-21.81-5.34,11.47,11.47,0,0,0,0,5.34A11.24,11.24,0,0,1,32.13,37.33Z"/><path class="cls-3" d="M37.47,42.67a11.21,11.21,0,0,0-5.34,0A11.25,11.25,0,0,1,23.9,50.9a11.23,11.23,0,1,0,21.81,0A11.24,11.24,0,0,1,37.47,42.67Z"/><path class="cls-4" d="M48.38,28.77a10.91,10.91,0,0,0-2.67.33,11.24,11.24,0,0,1-8.24,8.23,11.21,11.21,0,0,0,0,5.34,11.24,11.24,0,0,1,8.24,8.23A11.23,11.23,0,1,0,51,29.09a11.39,11.39,0,0,0-2.66-.32Z"/><path class="cls-5" d="M32.13,42.67a11.21,11.21,0,0,0,0-5.34A11.25,11.25,0,0,1,23.9,29.1a11.22,11.22,0,1,0,0,21.8A11.23,11.23,0,0,1,32.13,42.67Z"/><path class="cls-6" d="M37.47,37.33A11.23,11.23,0,0,0,45.7,29.1,11.25,11.25,0,0,0,37.47,37.33Z"/><path class="cls-7" d="M37.47,42.67A11.25,11.25,0,0,0,45.7,50.9,11.23,11.23,0,0,0,37.47,42.67Z"/><path class="cls-8" d="M32.13,37.33A11.25,11.25,0,0,0,23.9,29.1,11.25,11.25,0,0,0,32.13,37.33Z"/><path class="cls-9" d="M32.13,42.67A11.25,11.25,0,0,0,23.9,50.9,11.25,11.25,0,0,0,32.13,42.67Z"/></g></svg>