<svg id="Calque_1" data-name="Calque 1" xmlns="http://www.w3.org/2000/svg" xmlns:xlink="http://www.w3.org/1999/xlink" viewBox="0 0 160 80"><defs><style>.cls-1{fill:#fff;}.cls-2{mask:url(#mask);}.cls-3{fill:#6fc;}.cls-4{mask:url(#mask-2);}</style><mask id="mask" x="0" y="19.84" width="40.27" height="40.27" maskUnits="userSpaceOnUse"><g id="b"><path id="a" class="cls-1" d="M6.86,24.87A21.18,21.18,0,0,1,20,20,21.17,21.17,0,0,1,33,24.87ZM20,59.89A20.16,20.16,0,0,1,6.86,55H33A20.2,20.2,0,0,1,20,59.89Zm15.45-33A21.23,21.23,0,0,1,40.27,40,21.18,21.18,0,0,1,35.4,53.06ZM4.87,53.06A21.18,21.18,0,0,1,0,40,21.23,21.23,0,0,1,4.87,26.88V53.06Z"/></g></mask><mask id="mask-2" x="44.38" y="19.84" width="115.63" height="40.31" maskUnits="userSpaceOnUse"><g id="d"><path id="c" class="cls-1" d="M75.25,37.7V50.25H70V39.37c0-2.56-1.37-4.09-3.55-4.09-2.52,0-4,2.2-4,5.09v9.88H57.22V39.37c0-2.56-1.36-4.09-3.51-4.09-2.55,0-4.09,2.2-4.09,5.09v9.88H44.38v-20h5.24v3.45a6.68,6.68,0,0,1,6.21-3.67,6.14,6.14,0,0,1,6.2,4.6,6.7,6.7,0,0,1,6.61-4.6c4,0,6.61,3,6.61,7.65Zm4.53,12.55v-20H85v20Zm5.45-24.71a2.85,2.85,0,1,1-5.65,0,2.85,2.85,0,1,1,5.65,0Zm20.62,8.74-3.54,2.79A4.9,4.9,0,0,0,98.12,35c-2.56,0-4.37,2.15-4.37,5.35s1.81,5.42,4.37,5.42a4.66,4.66,0,0,0,4.26-2.34L106,46.05c-1.54,2.79-4.4,4.42-8.15,4.42-5.55,0-9.33-4.09-9.33-10.14s3.78-10.24,9.4-10.24A8.89,8.89,0,0,1,105.85,34.28Zm8.66-.41a6.6,6.6,0,0,1,6.06-3.82v5.38c-3.75-.37-6.06,1.82-6.06,5.2v9.62h-5.25v-20h5.25ZM140.3,42H127.15a4.77,4.77,0,0,0,4.74,4,6.25,6.25,0,0,0,4.63-2.11l2.76,3a9.83,9.83,0,0,1-7.84,3.53c-5.86,0-9.57-4.09-9.57-10.14s3.85-10.24,9.44-10.24c6.44,0,9.44,4.64,9,11.91Zm-4.9-3.37c-.07-2.64-1.64-4.35-4.06-4.35s-3.88,1.71-4.29,4.35Zm18.47-8.36h5.72L153.76,40,160,50.25h-6l-3.68-6.54-4,6.54h-5.8L146.81,40l-5.89-9.77h6l3.38,6.05,3.58-6.05Z"/></g></mask></defs><title>omicrex</title><g id="omicrex"><g class="cls-2"><path class="cls-3" d="M0,19.84H40.27V60.11H0Z"/></g><g class="cls-4"><path class="cls-3" d="M44.38,19.84H160V60.16H44.38Z"/></g></g></svg>