<svg id="Calque_1" data-name="Calque 1" xmlns="http://www.w3.org/2000/svg" viewBox="0 0 160 80"><defs><style>.cls-1{fill:#858ae3;}.cls-2{fill:#613dc1;}.cls-3{fill:#2c0d35;}</style></defs><title>omnitrade</title><g id="omnitrade"><path class="cls-1" d="M8.52,44.42a7.46,7.46,0,0,1,1,1.83,8,8,0,0,1-.16,2.12c-.17,1.3,0,2.2.37,2.48A17.07,17.07,0,0,1,3.27,38a15,15,0,0,1,2.38-9.09A4.82,4.82,0,0,1,11.84,27a14.24,14.24,0,0,0-3.79,4.62A14.8,14.8,0,0,0,6.68,37,13,13,0,0,0,8.52,44.42Z"/><path class="cls-1" d="M26,53.22a12.92,12.92,0,0,1-6.48,1.15c-2.41-.32-3.61-2.19-4.38-4.24a14.74,14.74,0,0,0,5.92,1,15.23,15.23,0,0,0,5.15-1.52A12.35,12.35,0,0,0,30,46.76a14.79,14.79,0,0,0,2.52-3.85,5.06,5.06,0,0,1,2.16-1.17,10.49,10.49,0,0,0,2-1.12,17.28,17.28,0,0,1-7.2,11A16.37,16.37,0,0,1,26,53.22Z"/><path class="cls-1" d="M33.39,35.29A13.41,13.41,0,0,0,24.71,25a13,13,0,0,0-4.61-.84c-1.76-.18-3.4-1.8-4.88-2.65a17.19,17.19,0,0,1,10.5.24,16.4,16.4,0,0,1,8.09,6.06c1.48,2.14,1.59,3.15,1.59,3.6A5.19,5.19,0,0,1,33.39,35.29Z"/><path class="cls-2" d="M21.23,59.2a9.14,9.14,0,0,1-9.09-4.37,9.72,9.72,0,0,1-1.52-6.51,8.4,8.4,0,0,0-1.14-5.41,12.47,12.47,0,0,1-1.3-5.78,8.8,8.8,0,0,1,4.39,3.8,10.87,10.87,0,0,1,1.58,6.6A7.27,7.27,0,0,0,15.77,54a6.26,6.26,0,0,0,3.3,1.73h0a5.46,5.46,0,0,0,1.4.07c.43,0,.85-.22,1.28-.22h0c2.75-.5,4.67-.61,7-1.89C28.35,54.65,25.92,58.84,21.23,59.2Z"/><path class="cls-2" d="M35.05,39.92a18.79,18.79,0,0,0-2.92,1.56,6.54,6.54,0,0,0-1.34,1.44c-.37.55-.56,1.23-.9,1.78A10.38,10.38,0,0,1,26.27,48a9.69,9.69,0,0,1,5.27-10.29,25.91,25.91,0,0,0,2.53-1.26A6,6,0,0,0,36.3,34a6.27,6.27,0,0,0-.7-6.61,20.73,20.73,0,0,0-6.47-5.75c5.7-.87,11.34,3.29,11.56,9A9.53,9.53,0,0,1,39,36.76,10.12,10.12,0,0,1,35.05,39.92Z"/><path class="cls-2" d="M26,27a5.84,5.84,0,0,1-1.35.83,9.64,9.64,0,0,1-2,.76,10.92,10.92,0,0,1-2.62.31,9.9,9.9,0,0,1-5.91-2.17,6.81,6.81,0,0,0-5.21-1.51A6.29,6.29,0,0,0,4,28.9a18.74,18.74,0,0,0-2.16,8.15,9.76,9.76,0,0,1,8-15.52,9.33,9.33,0,0,1,4.61,1.26c.79.44,1.68,1.24,2.46,1.7a5.64,5.64,0,0,0,2.17.87,35,35,0,0,1,3.69.41A11.18,11.18,0,0,1,26,27Z"/><path class="cls-3" d="M51.51,43.25V36.83a5.08,5.08,0,0,1,1.46-4,6.74,6.74,0,0,1,7.85,0,5,5,0,0,1,1.47,4v6.41a5,5,0,0,1-1.47,4,6.74,6.74,0,0,1-7.85,0A5.1,5.1,0,0,1,51.51,43.25Zm3,0c0,1.75.79,2.64,2.39,2.64s2.4-.89,2.4-2.64V36.83q0-2.64-2.4-2.64c-1.61,0-2.39.88-2.39,2.64Z"/><path class="cls-3" d="M64.86,47.42V33.06a1.38,1.38,0,0,1,.42-1.12,1.6,1.6,0,0,1,1.07-.37,2.39,2.39,0,0,1,1.31.3,3.8,3.8,0,0,1,1,1.28l2.83,5.16,2.82-5.16a3.71,3.71,0,0,1,1-1.28,2.57,2.57,0,0,1,1.33-.3,1.62,1.62,0,0,1,1.07.37,1.41,1.41,0,0,1,.42,1.12V47.42a.76.76,0,0,1-.45.69,2.11,2.11,0,0,1-1,.26,2.06,2.06,0,0,1-1.06-.26.75.75,0,0,1-.44-.69V37.54l-2.69,4.79a1.15,1.15,0,0,1-1.53.49,1.16,1.16,0,0,1-.49-.49l-2.64-5V47.42a.76.76,0,0,1-.45.69,2.29,2.29,0,0,1-2.1,0A.75.75,0,0,1,64.86,47.42Z"/><path class="cls-3" d="M80.9,47.42V32.51a.75.75,0,0,1,.43-.7,2.66,2.66,0,0,1,2.32.06,3.57,3.57,0,0,1,1,1.28l4.43,8.59V32.49a.73.73,0,0,1,.44-.69,2.59,2.59,0,0,1,2.11,0,.73.73,0,0,1,.44.69V47.42a.76.76,0,0,1-.45.69,2.11,2.11,0,0,1-1,.26,1.82,1.82,0,0,1-1.73-.95l-4.94-9.23v9.23a.74.74,0,0,1-.45.69,2.29,2.29,0,0,1-2.1,0A.76.76,0,0,1,80.9,47.42Z"/><path class="cls-3" d="M94.8,47.42V32.49a.72.72,0,0,1,.43-.69,2.61,2.61,0,0,1,2.12,0,.72.72,0,0,1,.43.69V47.42a.74.74,0,0,1-.45.69,2.29,2.29,0,0,1-2.1,0A.76.76,0,0,1,94.8,47.42Z"/><path class="cls-3" d="M99.46,32.42a1,1,0,0,1,.19-.59.56.56,0,0,1,.5-.26h9.35a.58.58,0,0,1,.51.26,1,1,0,0,1,.19.59,1.11,1.11,0,0,1-.19.63.57.57,0,0,1-.51.26h-3.69V47.68a.58.58,0,0,1-.29.5,1.26,1.26,0,0,1-.68.18,1.18,1.18,0,0,1-.68-.18.55.55,0,0,1-.28-.5V33.31h-3.73a.56.56,0,0,1-.5-.25A1,1,0,0,1,99.46,32.42Z"/><path class="cls-3" d="M112.14,47.68V32.24a.61.61,0,0,1,.2-.46.8.8,0,0,1,.51-.21h4.2a6,6,0,0,1,3.7,1.07,4.14,4.14,0,0,1,1.4,3.53q0,3.8-3.42,4.49l3.4,6.45a.62.62,0,0,1,.09.32.89.89,0,0,1-.37.68,1.13,1.13,0,0,1-.78.31q-.48,0-.87-.75l-3.48-6.74h-2.65v6.76a.57.57,0,0,1-.28.51,1.37,1.37,0,0,1-1.36,0A.61.61,0,0,1,112.14,47.68Zm1.93-8.36h3q3.18,0,3.17-3c0-2-1.06-3-3.17-3h-3Z"/><path class="cls-3" d="M123.38,47.56a1.21,1.21,0,0,1,.05-.18l4.7-15.28c.14-.44.51-.67,1.17-.67s1,.23,1.18.68l4.71,15.33v.08a.08.08,0,0,1,0,.07.65.65,0,0,1-.38.54,1.45,1.45,0,0,1-.81.24.63.63,0,0,1-.69-.44l-1-3.4h-6.06l-1,3.39a.65.65,0,0,1-.7.45,1.36,1.36,0,0,1-.78-.24A.65.65,0,0,1,123.38,47.56Zm3.34-4.64h5.12l-2.55-8.66Z"/><path class="cls-3" d="M137.26,47.7V32.24a.6.6,0,0,1,.24-.48,1,1,0,0,1,.63-.19h4a5.27,5.27,0,0,1,3.62,1.2,4.92,4.92,0,0,1,1.35,3.81v6.78a4.88,4.88,0,0,1-1.35,3.8,5.28,5.28,0,0,1-3.62,1.21h-4a1,1,0,0,1-.63-.2A.58.58,0,0,1,137.26,47.7Zm1.93-1.08h3a3,3,0,0,0,2.24-.81,3.41,3.41,0,0,0,.8-2.45V36.58a3.41,3.41,0,0,0-.8-2.45,3,3,0,0,0-2.24-.82h-3Z"/><path class="cls-3" d="M150.27,47.68V32.26a.59.59,0,0,1,.26-.51,1.09,1.09,0,0,1,.61-.18h8.17a.57.57,0,0,1,.51.25,1,1,0,0,1,.17.6,1.08,1.08,0,0,1-.18.63.53.53,0,0,1-.51.26h-7.12v5.84h3.6a.56.56,0,0,1,.5.25,1,1,0,0,1,0,1.12.57.57,0,0,1-.5.24h-3.59v5.86h7.12a.56.56,0,0,1,.51.27,1.06,1.06,0,0,1,.18.63,1,1,0,0,1-.17.59.58.58,0,0,1-.51.26h-8.18a1.09,1.09,0,0,1-.61-.18A.59.59,0,0,1,150.27,47.68Z"/><path class="cls-3" d="M51.51,43.16V36.75a5.07,5.07,0,0,1,1.46-4,6.71,6.71,0,0,1,7.85,0,5,5,0,0,1,1.47,4v6.41a5,5,0,0,1-1.47,4,6.68,6.68,0,0,1-7.85,0A5,5,0,0,1,51.51,43.16Zm3,0c0,1.76.79,2.64,2.39,2.64s2.4-.88,2.4-2.64V36.75c0-1.76-.8-2.65-2.4-2.65S54.5,35,54.5,36.75Z"/><path class="cls-3" d="M64.86,47.34V33a1.38,1.38,0,0,1,.42-1.12,1.51,1.51,0,0,1,1.07-.37,2.38,2.38,0,0,1,1.31.29,3.74,3.74,0,0,1,1,1.29l2.83,5.15,2.82-5.15a3.74,3.74,0,0,1,1-1.29,2.57,2.57,0,0,1,1.33-.29,1.51,1.51,0,0,1,1.07.37A1.38,1.38,0,0,1,78.15,33V47.34a.76.76,0,0,1-.45.69,2.1,2.1,0,0,1-1,.25A2,2,0,0,1,75.6,48a.76.76,0,0,1-.44-.69V37.46l-2.69,4.78a1.13,1.13,0,0,1-1.53.49,1.16,1.16,0,0,1-.49-.49l-2.64-5V47.34a.76.76,0,0,1-.45.69,2.29,2.29,0,0,1-2.1,0A.76.76,0,0,1,64.86,47.34Z"/><path class="cls-3" d="M80.9,47.34V32.43a.74.74,0,0,1,.43-.7,2.17,2.17,0,0,1,1.06-.24,2.22,2.22,0,0,1,1.26.29,3.69,3.69,0,0,1,1,1.29l4.43,8.59V32.41a.77.77,0,0,1,.44-.7,2.59,2.59,0,0,1,2.11,0,.76.76,0,0,1,.44.7V47.34a.76.76,0,0,1-.45.69,2.1,2.1,0,0,1-1,.25,1.8,1.8,0,0,1-1.73-.94L83.88,38.1v9.24a.76.76,0,0,1-.45.69,2.29,2.29,0,0,1-2.1,0A.77.77,0,0,1,80.9,47.34Z"/><path class="cls-3" d="M94.8,47.34V32.41a.75.75,0,0,1,.43-.7,2.61,2.61,0,0,1,2.12,0,.75.75,0,0,1,.43.7V47.34a.74.74,0,0,1-.45.69,2.29,2.29,0,0,1-2.1,0A.78.78,0,0,1,94.8,47.34Z"/><path class="cls-3" d="M99.46,32.35a1,1,0,0,1,.19-.6.58.58,0,0,1,.5-.25h9.35a.6.6,0,0,1,.51.25,1.07,1.07,0,0,1,.19.6A1.06,1.06,0,0,1,110,33a.56.56,0,0,1-.51.27h-3.69V47.6a.57.57,0,0,1-.29.5,1.31,1.31,0,0,1-1.36,0,.54.54,0,0,1-.28-.5V33.23h-3.73a.58.58,0,0,1-.5-.25A1,1,0,0,1,99.46,32.35Z"/><path class="cls-3" d="M112.14,47.59V32.15a.63.63,0,0,1,.2-.46.79.79,0,0,1,.51-.2h4.2a5.94,5.94,0,0,1,3.7,1.06,4.15,4.15,0,0,1,1.4,3.54c0,2.52-1.14,4-3.42,4.48l3.4,6.45a.63.63,0,0,1,.09.33.87.87,0,0,1-.37.67,1.13,1.13,0,0,1-.78.31c-.32,0-.61-.25-.87-.76l-3.47-6.73h-2.65V47.6a.54.54,0,0,1-.28.5,1.31,1.31,0,0,1-1.36,0A.58.58,0,0,1,112.14,47.59Zm1.93-8.36h3q3.18,0,3.17-3t-3.17-3h-3Z"/><path class="cls-3" d="M123.38,47.5a1.21,1.21,0,0,1,.05-.18L128.13,32c.14-.45.51-.67,1.17-.67s1,.22,1.18.67l4.71,15.34v.08a.06.06,0,0,1,0,.06.63.63,0,0,1-.38.54,1.45,1.45,0,0,1-.81.24.62.62,0,0,1-.69-.43l-1-3.4h-6.06l-1,3.39a.63.63,0,0,1-.7.44,1.42,1.42,0,0,1-.78-.23A.67.67,0,0,1,123.38,47.5Zm3.34-4.64h5.12l-2.55-8.66Z"/><path class="cls-3" d="M137.26,47.61V32.15a.59.59,0,0,1,.24-.47,1,1,0,0,1,.63-.19h4a5.22,5.22,0,0,1,3.62,1.2,4.9,4.9,0,0,1,1.35,3.81v6.78a4.87,4.87,0,0,1-1.35,3.79,5.18,5.18,0,0,1-3.62,1.21h-4a1,1,0,0,1-.63-.19A.6.6,0,0,1,137.26,47.61Zm1.93-1.07h3a3,3,0,0,0,2.24-.82,3.4,3.4,0,0,0,.8-2.44V36.5a3.41,3.41,0,0,0-.8-2.45,3,3,0,0,0-2.24-.82h-3Z"/><path class="cls-3" d="M150.27,47.59V32.17a.56.56,0,0,1,.26-.5,1,1,0,0,1,.61-.18h8.17a.55.55,0,0,1,.51.25,1,1,0,0,1,.17.59,1.11,1.11,0,0,1-.18.64.57.57,0,0,1-.51.26h-7.12v5.84h3.6a.57.57,0,0,1,.5.24.91.91,0,0,1,.19.59,1,1,0,0,1-.19.53.57.57,0,0,1-.5.24h-3.59v5.86h7.12a.57.57,0,0,1,.51.26,1.1,1.1,0,0,1,.18.63,1,1,0,0,1-.17.6.55.55,0,0,1-.51.25h-8.18a1.09,1.09,0,0,1-.61-.18A.56.56,0,0,1,150.27,47.59Z"/></g></svg>