<svg id="Calque_1" data-name="Calque 1" xmlns="http://www.w3.org/2000/svg" xmlns:xlink="http://www.w3.org/1999/xlink" viewBox="0 0 160 80"><defs><style>.cls-1{fill:none;}.cls-2{clip-path:url(#clip-path);}.cls-3{fill:#23da79;}.cls-4{clip-path:url(#clip-path-2);}.cls-5{fill:#fff;}.cls-6{clip-path:url(#clip-path-3);}.cls-7{clip-path:url(#clip-path-4);}.cls-8{clip-path:url(#clip-path-5);}.cls-9{clip-path:url(#clip-path-6);}.cls-10{clip-path:url(#clip-path-7);}.cls-11{clip-path:url(#clip-path-8);}.cls-12{clip-path:url(#clip-path-9);}</style><clipPath id="clip-path"><path id="SVGID" class="cls-1" d="M20.7,20.24,35.24,28.4a4,4,0,0,1,2,3.45v16.3a4,4,0,0,1-2,3.45L20.7,59.76a4.23,4.23,0,0,1-4.11,0L2.05,51.6a4,4,0,0,1-2-3.45V31.85A4,4,0,0,1,2.05,28.4l14.54-8.16A4.23,4.23,0,0,1,20.7,20.24Z"/></clipPath><clipPath id="clip-path-2"><path id="SVGID-2" data-name="SVGID" class="cls-1" d="M26.81,34.79a9.17,9.17,0,0,0-12.36,2,.42.42,0,0,0,.1.6l3.07,2a.42.42,0,0,0,.56-.08,4.59,4.59,0,0,1,6.08-.9,4.46,4.46,0,0,1,1.42,5.91.41.41,0,0,0,.12.54L28.88,47a.44.44,0,0,0,.6-.13,8.91,8.91,0,0,0-2.67-12.09"/></clipPath><clipPath id="clip-path-3"><path id="SVGID-3" data-name="SVGID" class="cls-1" d="M10.86,45.87A8.9,8.9,0,0,1,8.19,33.79a.44.44,0,0,1,.6-.13l3.07,2.06a.4.4,0,0,1,.13.54,4.45,4.45,0,0,0,1.42,5.9,4.59,4.59,0,0,0,6.08-.89.42.42,0,0,1,.56-.09l3.07,2.06a.41.41,0,0,1,.1.59,9.15,9.15,0,0,1-12.36,2"/></clipPath><clipPath id="clip-path-4"><path id="SVGID-4" data-name="SVGID" class="cls-1" d="M62.75,33a10.19,10.19,0,0,0-3.33-2.31A10.93,10.93,0,0,0,55,29.8a11.07,11.07,0,0,0-4.45.86A10.34,10.34,0,0,0,47.21,33a9.94,9.94,0,0,0-2.08,3.35,11.26,11.26,0,0,0,0,7.87,9.94,9.94,0,0,0,2.08,3.35,10.52,10.52,0,0,0,3.34,2.32,11.07,11.07,0,0,0,4.45.86,10.93,10.93,0,0,0,4.42-.86,10.36,10.36,0,0,0,3.33-2.32,10,10,0,0,0,2.08-3.36,11.38,11.38,0,0,0,0-7.86A9.94,9.94,0,0,0,62.75,33M57.31,45.73a5.26,5.26,0,0,1-2.31.5,5.22,5.22,0,0,1-4-1.82,5.93,5.93,0,0,1-1.09-1.91,6.82,6.82,0,0,1,0-4.49A5.83,5.83,0,0,1,51,36.1a5.18,5.18,0,0,1,1.73-1.32,5.69,5.69,0,0,1,4.62,0,5.42,5.42,0,0,1,1.74,1.32A6,6,0,0,1,60.14,38a6.82,6.82,0,0,1,0,4.49,6.12,6.12,0,0,1-1.09,1.91,5.42,5.42,0,0,1-1.74,1.32"/></clipPath><clipPath id="clip-path-5"><path id="SVGID-5" data-name="SVGID" class="cls-1" d="M79.72,30.28H67.05a.58.58,0,0,0-.58.58V34a.58.58,0,0,0,.58.58h3.68a.15.15,0,0,1,.15.15V49.64a.58.58,0,0,0,.58.58h3.81a.58.58,0,0,0,.58-.58V34.77a.15.15,0,0,1,.15-.15h3.72A.58.58,0,0,0,80.3,34V30.86a.58.58,0,0,0-.58-.58"/></clipPath><clipPath id="clip-path-6"><path id="SVGID-6" data-name="SVGID" class="cls-1" d="M102.32,42.8H98.23a.57.57,0,0,0-.55.38,4.55,4.55,0,0,1-1.53,2.1,4.88,4.88,0,0,1-3.1.95,5.7,5.7,0,0,1-2.35-.47,5.42,5.42,0,0,1-1.79-1.28,5.9,5.9,0,0,1-1.17-1.9,6.39,6.39,0,0,1-.42-2.33A6.62,6.62,0,0,1,87.71,38a5.56,5.56,0,0,1,1.1-1.91,5.49,5.49,0,0,1,1.78-1.31,5.75,5.75,0,0,1,2.4-.49,5.63,5.63,0,0,1,1.86.29,4.93,4.93,0,0,1,1.44.81,3.89,3.89,0,0,1,1,1.2,5.39,5.39,0,0,1,.48,1.25.57.57,0,0,0,.56.45h4a.57.57,0,0,0,.57-.67,9.08,9.08,0,0,0-.91-2.78,8.85,8.85,0,0,0-2.06-2.65,9.78,9.78,0,0,0-3-1.76,11.71,11.71,0,0,0-4-.63,11.24,11.24,0,0,0-4.54.86A9.6,9.6,0,0,0,83,36.32a11.42,11.42,0,0,0-.7,3.93,11.13,11.13,0,0,0,.73,4,9.9,9.9,0,0,0,2.1,3.33,10.47,10.47,0,0,0,3.37,2.29,11.27,11.27,0,0,0,4.49.85,11.78,11.78,0,0,0,3.8-.59,9.57,9.57,0,0,0,3-1.66A9.16,9.16,0,0,0,101.88,46a8.76,8.76,0,0,0,1-2.52.55.55,0,0,0-.12-.49.56.56,0,0,0-.45-.22"/></clipPath><clipPath id="clip-path-7"><path id="SVGID-7" data-name="SVGID" class="cls-1" d="M120.83,41.13a4.2,4.2,0,0,0-1.13-.84l-.15-.07a.15.15,0,0,1-.09-.13.14.14,0,0,1,.08-.13l.21-.12a4.09,4.09,0,0,0,1.07-.85,4.71,4.71,0,0,0,.8-1.28,4.82,4.82,0,0,0,.31-1.79,7.28,7.28,0,0,0-.25-1.72,4.9,4.9,0,0,0-1-1.85,5.53,5.53,0,0,0-2-1.47,8,8,0,0,0-3.35-.6H107.6a.58.58,0,0,0-.58.58V49.64a.58.58,0,0,0,.58.58h7.92a8.05,8.05,0,0,0,3.36-.6,5.63,5.63,0,0,0,2-1.49,4.89,4.89,0,0,0,1-1.9,7.08,7.08,0,0,0,.25-1.76,4.78,4.78,0,0,0-.37-2A4.57,4.57,0,0,0,120.83,41.13Zm-4-4.34a1.47,1.47,0,0,1-.36.64,2.13,2.13,0,0,1-.76.49,3.45,3.45,0,0,1-1.27.2h-2.33A.15.15,0,0,1,112,38V34.29a.15.15,0,0,1,.15-.15h2.33a3.44,3.44,0,0,1,1.32.21,2.13,2.13,0,0,1,.74.5,1.47,1.47,0,0,1,.34.62,2.47,2.47,0,0,1,.09.64A2.43,2.43,0,0,1,116.86,36.79ZM112,42.13a.14.14,0,0,1,.15-.15h2.48a3,3,0,0,1,1.24.23,2.11,2.11,0,0,1,.75.56,1.8,1.8,0,0,1,.36.7,2.68,2.68,0,0,1,.1.7,2.78,2.78,0,0,1-.1.73,1.76,1.76,0,0,1-.37.7,2.18,2.18,0,0,1-.75.55,3.18,3.18,0,0,1-1.26.21h-2.45a.14.14,0,0,1-.15-.15Z"/></clipPath><clipPath id="clip-path-8"><path id="SVGID-8" data-name="SVGID" class="cls-1" d="M137.36,30.28H124.7a.58.58,0,0,0-.58.58V34a.58.58,0,0,0,.58.58h3.68a.15.15,0,0,1,.15.15V49.64a.58.58,0,0,0,.58.58h3.8a.58.58,0,0,0,.58-.58V34.77a.15.15,0,0,1,.15-.15h3.72a.58.58,0,0,0,.58-.58V30.86a.58.58,0,0,0-.58-.58"/></clipPath><clipPath id="clip-path-9"><path id="SVGID-9" data-name="SVGID" class="cls-1" d="M159.87,43a.56.56,0,0,0-.45-.22h-4.09a.57.57,0,0,0-.55.38,4.62,4.62,0,0,1-1.53,2.1,4.89,4.89,0,0,1-3.11.95,5.77,5.77,0,0,1-2.35-.47A5.48,5.48,0,0,1,146,44.48a5.73,5.73,0,0,1-1.17-1.9,6.39,6.39,0,0,1-.42-2.33A6.86,6.86,0,0,1,144.8,38a5.75,5.75,0,0,1,1.11-1.91,5.49,5.49,0,0,1,1.78-1.31,5.75,5.75,0,0,1,2.4-.49,5.63,5.63,0,0,1,1.86.29,5.06,5.06,0,0,1,1.44.81,4,4,0,0,1,1,1.2,5,5,0,0,1,.47,1.25.58.58,0,0,0,.56.45h4a.57.57,0,0,0,.57-.67,9.36,9.36,0,0,0-.91-2.78A8.85,8.85,0,0,0,157,32.19,9.84,9.84,0,0,0,154,30.43,11.61,11.61,0,0,0,150,29.8a11.21,11.21,0,0,0-4.54.86,9.66,9.66,0,0,0-5.39,5.66,11.41,11.41,0,0,0-.69,3.93,11.13,11.13,0,0,0,.72,4,9.93,9.93,0,0,0,2.11,3.33,10.36,10.36,0,0,0,3.37,2.29,11.27,11.27,0,0,0,4.49.85,11.83,11.83,0,0,0,3.8-.59,9.68,9.68,0,0,0,3-1.66A9.47,9.47,0,0,0,159,46a9.24,9.24,0,0,0,1-2.53.62.62,0,0,0-.12-.49"/></clipPath></defs><title>otcbtc</title><g id="otcbtc"><g class="cls-2"><rect class="cls-3" x="-2.74" y="16.97" width="42.77" height="46.06"/></g><g class="cls-4"><rect class="cls-5" x="11.62" y="30.51" width="21.92" height="19.31"/></g><g class="cls-6"><rect class="cls-5" x="4.13" y="30.85" width="21.92" height="19.31"/></g><g class="cls-7"><rect x="41.68" y="27.05" width="26.6" height="26.41"/></g><g class="cls-8"><rect x="63.73" y="27.54" width="19.31" height="25.42"/></g><g class="cls-9"><rect x="79.56" y="27.05" width="26.08" height="26.41"/></g><g class="cls-10"><rect class="cls-3" x="104.28" y="27.54" width="20.55" height="25.42"/></g><g class="cls-11"><rect class="cls-3" x="121.38" y="27.54" width="19.31" height="25.42"/></g><g class="cls-12"><rect class="cls-3" x="136.66" y="27.05" width="26.08" height="26.41"/></g></g></svg>