<svg id="Calque_1" data-name="Calque 1" xmlns="http://www.w3.org/2000/svg" viewBox="0 0 160 80"><title>ovis</title><g id="ovis"><path d="M20,26h4.27c.2,0,.2,0,.2.2V39.57a2.32,2.32,0,0,0,1.06,2,2.26,2.26,0,0,0,1.66.36,2.32,2.32,0,0,0,1.72-1.25,2.36,2.36,0,0,0,.26-1.08V30.9a7.35,7.35,0,0,1,.15-1.62,6.94,6.94,0,0,1,2.46-4,6.75,6.75,0,0,1,1.7-1,7.25,7.25,0,0,1,1.76-.46,7.83,7.83,0,0,1,1.53,0,6.56,6.56,0,0,1,1.09.21,6.29,6.29,0,0,1,1.57.63,6.89,6.89,0,0,1,1.1.75c.07.06.11.05.18,0a6.58,6.58,0,0,1,1.67-1,7.19,7.19,0,0,1,1.88-.52,7.91,7.91,0,0,1,1.54,0,7.35,7.35,0,0,1,1.12.21,6.71,6.71,0,0,1,1.23.45,6.89,6.89,0,0,1,3.91,6.32v8.88a2.2,2.2,0,0,0,.9,1.84,2.13,2.13,0,0,0,2,.36,2.2,2.2,0,0,0,1.46-1.33,2.29,2.29,0,0,0,.15-.82V26.21c0-.2,0-.19.19-.19h4.46V40.09A6.17,6.17,0,0,1,61,41.63a6.53,6.53,0,0,1-1,2.14,6.9,6.9,0,0,1-3.74,2.68,6.78,6.78,0,0,1-2.15.26,7.17,7.17,0,0,1-1.52-.23,6.75,6.75,0,0,1-2.49-1.26A7.15,7.15,0,0,1,48.27,43a6.46,6.46,0,0,1-.64-1.9,7.66,7.66,0,0,1-.11-1.26q0-4.52,0-9a2.24,2.24,0,0,0-.88-1.88,2.16,2.16,0,0,0-1.75-.44,2.25,2.25,0,0,0-1.66,1.25,2.2,2.2,0,0,0-.21,1V44.2c0,.14,0,.16-.15.16H38.29c-.1,0-.15,0-.14-.14V30.79a2.22,2.22,0,0,0-1.08-2,2.11,2.11,0,0,0-1.53-.3,2.19,2.19,0,0,0-1.6,1.11,2.1,2.1,0,0,0-.28.94,1.85,1.85,0,0,0,0,.23v8.95a7.15,7.15,0,0,1-.13,1.46,6.72,6.72,0,0,1-.92,2.33,6.81,6.81,0,0,1-6.16,3.18,6.25,6.25,0,0,1-1.61-.28,6.81,6.81,0,0,1-3.21-2.11,6.52,6.52,0,0,1-1.08-1.76,6.37,6.37,0,0,1-.49-1.82,4.82,4.82,0,0,1,0-.65q0-7,0-13.92Z"/><path d="M20,56.21V51.83c0-.11,0-.14.14-.14H61.06c.12,0,.15,0,.15.14,0,1.42,0,2.84,0,4.26v.12Z"/><path d="M123.33,49.05c0-1.19,0-2.33,0-3.47,0-.07.23-.21.35-.21,1,0,1.94,0,2.9,0h7.75a1.84,1.84,0,1,0,0-3.67H127a5.52,5.52,0,0,1-5.49-5.52,5.44,5.44,0,0,1,5.29-5.53c3.69-.05,7.38,0,11.08,0l.28,0c0,.16,0,.3,0,.44,0,.91,0,1.82,0,2.72,0,.39-.09.52-.5.52-2.35,0-4.7,0-7,0h-3.59A1.83,1.83,0,0,0,126,37.65a2.25,2.25,0,0,0,1.13.33c2.47,0,4.94,0,7.4,0a5.53,5.53,0,0,1,0,11q-5.37,0-10.73,0Z"/><path d="M88.82,39.91a9.24,9.24,0,1,1-9.23-9.2,9.2,9.2,0,0,1,9.23,9.18Zm-9.24-5.5a5.5,5.5,0,1,0,.08,0Z"/><path d="M90.09,30.54c1.38,0,2.66,0,3.94,0,.15,0,.33.24.42.4,1.15,2.2,2.28,4.4,3.42,6.61.53,1,1.06,2,1.6,3.06.06.11.13.21.23.37l.94-1.8c1.39-2.69,2.78-5.37,4.15-8.07a.93.93,0,0,1,1-.6c1.14,0,2.29,0,3.53,0L99.68,49.05Z"/><path d="M117.29,49h-3.56V30.66h3.56Z"/></g></svg>