<svg id="Calque_1" data-name="Calque 1" xmlns="http://www.w3.org/2000/svg" xmlns:xlink="http://www.w3.org/1999/xlink" viewBox="0 0 160 80"><defs><style>.cls-1{fill:none;}.cls-2{fill:#464646;}.cls-3{clip-path:url(#clip-path);}.cls-4{fill:url(#Dégradé_sans_nom_11);}.cls-5{clip-path:url(#clip-path-2);}.cls-6{fill:url(#Dégradé_sans_nom_11-2);}.cls-7{clip-path:url(#clip-path-3);}.cls-8{fill:url(#Dégradé_sans_nom_11-3);}.cls-9{clip-path:url(#clip-path-4);}.cls-10{fill:url(#Dégradé_sans_nom_11-4);}.cls-11{clip-path:url(#clip-path-5);}.cls-12{fill:url(#Dégradé_sans_nom_11-5);}</style><clipPath id="clip-path"><path id="SVGID" class="cls-1" d="M20,16.22V44.1h8.14a5.5,5.5,0,0,1,2.47.56,6.54,6.54,0,0,1,2,1.48,7,7,0,0,1,1.28,2.08,6.21,6.21,0,0,1,.47,2.33,6.75,6.75,0,0,1-.44,2.39A6.49,6.49,0,0,1,32.65,55a6.08,6.08,0,0,1-1.91,1.45,5.48,5.48,0,0,1-2.46.55H23.69v6.5h9.83l7.65-19.4h3.06l7.62,19.4h5.08V56.67l-7-12.57H54l4.78,9.35,4.86-9.35h3.63V16.22Z"/></clipPath><linearGradient id="Dégradé_sans_nom_11" x1="-448.82" y1="535.51" x2="-448.34" y2="535.51" gradientTransform="matrix(100, 100, 100, -100, -8649.63, 98444.48)" gradientUnits="userSpaceOnUse"><stop offset="0" stop-color="#3089ad"/><stop offset="1" stop-color="#0e3244"/></linearGradient><clipPath id="clip-path-2"><polygon id="SVGID-2" data-name="SVGID" class="cls-1" points="39.91 56.01 45.41 56.01 42.7 48.17 39.91 56.01"/></clipPath><linearGradient id="Dégradé_sans_nom_11-2" x1="-448.82" y1="535.6" x2="-448.34" y2="535.6" gradientTransform="matrix(100, 100, 100, -100, -8666.7, 98461.54)" xlink:href="#Dégradé_sans_nom_11"/><clipPath id="clip-path-3"><polygon id="SVGID-3" data-name="SVGID" class="cls-1" points="39.29 58.66 37.51 63.5 47.86 63.5 46.09 58.66 39.29 58.66"/></clipPath><linearGradient id="Dégradé_sans_nom_11-3" x1="-448.82" y1="535.64" x2="-448.34" y2="535.64" gradientTransform="matrix(100, 100, 100, -100, -8675.53, 98470.38)" xlink:href="#Dégradé_sans_nom_11"/><clipPath id="clip-path-4"><polygon id="SVGID-4" data-name="SVGID" class="cls-1" points="60.67 56.72 60.67 63.5 67.28 63.5 67.28 44.9 60.67 56.72"/></clipPath><linearGradient id="Dégradé_sans_nom_11-4" x1="-448.82" y1="535.49" x2="-448.34" y2="535.49" gradientTransform="matrix(100, 100, 100, -100, -8645.31, 98440.16)" xlink:href="#Dégradé_sans_nom_11"/><clipPath id="clip-path-5"><path id="SVGID-5" data-name="SVGID" class="cls-1" d="M23.69,47.41v6.28h4.37a2.15,2.15,0,0,0,1.73-.84,3.49,3.49,0,0,0,.7-2.3,3.66,3.66,0,0,0-.22-1.32,3,3,0,0,0-.57-1,2.38,2.38,0,0,0-.83-.62,2.59,2.59,0,0,0-1-.2Z"/></clipPath><linearGradient id="Dégradé_sans_nom_11-5" x1="-448.82" y1="535.67" x2="-448.34" y2="535.67" gradientTransform="matrix(100, 100, 100, -100, -8680.71, 98475.56)" xlink:href="#Dégradé_sans_nom_11"/></defs><title>paymium</title><g id="paymium"><path class="cls-2" d="M74.12,44.08,79.71,59h.08L85.4,44.08h4.2V63.5H86.36V56.88l.32-8.41-.08,0-5.77,15H78.66l-5.74-15-.08,0,.32,8.37V63.5H69.92V44.08Z"/><rect class="cls-2" x="94.04" y="44.08" width="3.24" height="19.42"/><path class="cls-2" d="M116.46,44.08v13a6,6,0,0,1-2.11,4.95,8.41,8.41,0,0,1-5.51,1.73,8.11,8.11,0,0,1-5.4-1.74,6.07,6.07,0,0,1-2.07-4.94v-13h3.24v13a3.9,3.9,0,0,0,1.15,3.06,4.43,4.43,0,0,0,3.08,1,4.67,4.67,0,0,0,3.19-1,3.82,3.82,0,0,0,1.19-3.06v-13Z"/><path class="cls-2" d="M124.53,44.08,130.12,59h.08l5.6-14.94H140V63.5h-3.24V56.88l.32-8.41-.08,0-5.76,15h-2.18l-5.73-15-.08,0,.32,8.37V63.5h-3.24V44.08Z"/><g class="cls-3"><path class="cls-4" d="M43.64-7.42l42.1,42.11L40.31,80.12-1.79,38Z"/></g><g class="cls-5"><path class="cls-6" d="M42.7,48.17,48,53.45l-5.31,5.31-5.27-5.27Z"/></g><g class="cls-7"><path class="cls-8" d="M42.69,55.26,49.39,62l-6.7,6.7L36,62Z"/></g><g class="cls-9"><path class="cls-10" d="M67.28,44.9l9.3,9.3L64,66.8l-9.3-9.3Z"/></g><g class="cls-11"><path class="cls-12" d="M26.3,44.8l5.82,5.82-5.75,5.75-5.82-5.82Z"/></g></g></svg>