<svg id="Calque_1" data-name="Calque 1" xmlns="http://www.w3.org/2000/svg" xmlns:xlink="http://www.w3.org/1999/xlink" viewBox="0 0 160 80"><defs><style>.cls-1{fill:url(#Dégradé_sans_nom_3);}.cls-2{fill:url(#Dégradé_sans_nom_3-2);}.cls-3{fill:url(#Dégradé_sans_nom_10);}.cls-4{fill:url(#Dégradé_sans_nom_10-2);}.cls-5{fill:url(#Dégradé_sans_nom_10-3);}.cls-6{fill:url(#Dégradé_sans_nom_10-4);}.cls-7{fill:url(#Dégradé_sans_nom_10-5);}.cls-8{fill:url(#Dégradé_sans_nom_10-6);}.cls-9{fill:url(#Dégradé_sans_nom_10-7);}.cls-10{fill:url(#Dégradé_sans_nom_10-8);}</style><linearGradient id="Dégradé_sans_nom_3" x1="154.53" y1="1329.77" x2="154.53" y2="1353.85" gradientTransform="matrix(1, 0, 0, -1, 0, 1382)" gradientUnits="userSpaceOnUse"><stop offset="0" stop-color="#2a343a"/><stop offset="0.15" stop-color="#3c454b"/><stop offset="0.91" stop-color="#444e54"/><stop offset="1" stop-color="#4d565c"/></linearGradient><linearGradient id="Dégradé_sans_nom_3-2" x1="154.71" y1="1329.84" x2="154.71" y2="1353.81" xlink:href="#Dégradé_sans_nom_3"/><linearGradient id="Dégradé_sans_nom_10" x1="9.84" y1="1329.84" x2="9.84" y2="1353.94" gradientTransform="matrix(1, 0, 0, -1, 0, 1382)" gradientUnits="userSpaceOnUse"><stop offset="0" stop-color="#05535c"/><stop offset="0.24" stop-color="#0c6267"/><stop offset="0.7" stop-color="#0d6e74"/><stop offset="0.79" stop-color="#1c747b"/><stop offset="1" stop-color="#2d7f86"/></linearGradient><linearGradient id="Dégradé_sans_nom_10-2" x1="32.02" y1="1329.84" x2="32.02" y2="1353.94" xlink:href="#Dégradé_sans_nom_10"/><linearGradient id="Dégradé_sans_nom_10-3" x1="52.26" y1="1329.84" x2="52.26" y2="1353.94" xlink:href="#Dégradé_sans_nom_10"/><linearGradient id="Dégradé_sans_nom_10-4" x1="71.4" y1="1329.84" x2="71.4" y2="1353.94" xlink:href="#Dégradé_sans_nom_10"/><linearGradient id="Dégradé_sans_nom_10-5" x1="94.81" y1="1329.84" x2="94.81" y2="1353.94" xlink:href="#Dégradé_sans_nom_10"/><linearGradient id="Dégradé_sans_nom_10-6" x1="111.18" y1="1329.84" x2="111.18" y2="1353.94" xlink:href="#Dégradé_sans_nom_10"/><linearGradient id="Dégradé_sans_nom_10-7" x1="125.66" y1="1329.84" x2="125.66" y2="1353.94" xlink:href="#Dégradé_sans_nom_10"/><linearGradient id="Dégradé_sans_nom_10-8" x1="143.53" y1="1329.84" x2="143.53" y2="1353.94" xlink:href="#Dégradé_sans_nom_10"/></defs><title>poloniex</title><g id="poloniex"><polygon class="cls-1" points="153.08 37.7 159.64 27.83 152.5 27.83 149.41 32.32 153.08 37.7"/><polygon class="cls-2" points="153.08 42.23 149.41 47.32 152.88 52.16 160 52.16 153.08 42.23"/><path class="cls-3" d="M12.78,27.8c2.38,0,4.12.58,5.23,1.79s1.66,3.74,1.66,6.12-.58,5.3-1.73,6.48A6.9,6.9,0,0,1,12.78,44H5.48v8.25H0V27.8ZM5.48,32v7.89H11a6,6,0,0,0,1.54-.17,2.13,2.13,0,0,0,1-.53,1.82,1.82,0,0,0,.49-.92c.1-.39.14-2.69.14-3.22A6.77,6.77,0,0,0,14,33.64a1.9,1.9,0,0,0-.48-1,2.27,2.27,0,0,0-1-.55A6.68,6.68,0,0,0,10.91,32Z"/><path class="cls-4" d="M21.5,35.85A11.9,11.9,0,0,1,22,32a5.89,5.89,0,0,1,1.66-2.58A6.71,6.71,0,0,1,26.56,28a16.8,16.8,0,0,1,4.17-.46h2.6a17.5,17.5,0,0,1,4.19.45,6.8,6.8,0,0,1,2.86,1.46A6,6,0,0,1,42,32a12.71,12.71,0,0,1,.51,3.84v7.63A17.15,17.15,0,0,1,42,48a5.94,5.94,0,0,1-1.64,2.58A6.87,6.87,0,0,1,37.52,52a16.42,16.42,0,0,1-4.18.46h-2.6A16.34,16.34,0,0,1,26.57,52a6.85,6.85,0,0,1-2.87-1.47A6.07,6.07,0,0,1,22,48a17.13,17.13,0,0,1-.53-4.49V35.85ZM31.85,32.2a11.41,11.41,0,0,0-2.2.18,3.14,3.14,0,0,0-1.47.68,2.89,2.89,0,0,0-.83,1.42,15.7,15.7,0,0,0-.25,3.07v4.94a17.21,17.21,0,0,0,.24,3A2.83,2.83,0,0,0,28.18,47a3.2,3.2,0,0,0,1.46.69,12.3,12.3,0,0,0,2.21.18h.35a11.41,11.41,0,0,0,2.2-.18A3.14,3.14,0,0,0,35.87,47a2.89,2.89,0,0,0,.83-1.42A15.66,15.66,0,0,0,37,42.49v-5a15.49,15.49,0,0,0-.25-3.05,2.87,2.87,0,0,0-.82-1.41,3,3,0,0,0-1.47-.68,12.57,12.57,0,0,0-2.21-.17h-.35Z"/><path class="cls-5" d="M50.32,47.52H59.7v4.7H44.83V27.8h5.49Z"/><path class="cls-6" d="M60.88,35.85A11.92,11.92,0,0,1,61.41,32a6,6,0,0,1,1.66-2.58A6.77,6.77,0,0,1,65.93,28a16.94,16.94,0,0,1,4.18-.46h2.6A17.5,17.5,0,0,1,76.9,28a6.8,6.8,0,0,1,2.86,1.46A6,6,0,0,1,81.41,32a12.69,12.69,0,0,1,.52,3.84v7.63A17.13,17.13,0,0,1,81.4,48a5.94,5.94,0,0,1-1.64,2.58A6.87,6.87,0,0,1,76.9,52a16.42,16.42,0,0,1-4.18.46h-2.6A16.34,16.34,0,0,1,66,52a6.85,6.85,0,0,1-2.87-1.47A6.07,6.07,0,0,1,61.42,48a16.71,16.71,0,0,1-.53-4.49V35.85ZM71.22,32.2a11.41,11.41,0,0,0-2.2.18,3.14,3.14,0,0,0-1.47.68,2.89,2.89,0,0,0-.83,1.42,15.7,15.7,0,0,0-.25,3.07v4.94a16.21,16.21,0,0,0,.25,3A2.89,2.89,0,0,0,67.55,47a3.2,3.2,0,0,0,1.46.69,12.3,12.3,0,0,0,2.21.18h.35a11.41,11.41,0,0,0,2.2-.18A3.14,3.14,0,0,0,75.24,47a2.89,2.89,0,0,0,.83-1.42,15.66,15.66,0,0,0,.25-3.06v-5a15.49,15.49,0,0,0-.25-3.05,2.87,2.87,0,0,0-.82-1.41,3,3,0,0,0-1.47-.68,12.49,12.49,0,0,0-2.21-.17h-.35Z"/><path class="cls-7" d="M84.52,27.8h6.3L100,44.47V27.8h5.14V52.22H98.8L89.66,35.36V52.22H84.52V27.8Z"/><path class="cls-8" d="M108.44,27.8h5.48V52.22h-5.48Z"/><path class="cls-9" d="M117.22,27.8h16.87v4.69H122.71v5h11v4.66h-11v5.37h11.38v4.7H117.22Z"/><path class="cls-10" d="M151.47,40l-8.78,12.21h-7.11L144.09,40,136,27.8h7.14L151.47,40"/></g></svg>