<svg id="Calque_1" data-name="Calque 1" xmlns="http://www.w3.org/2000/svg" viewBox="0 0 160 80"><defs><style>.cls-1{fill:#5fd9f6;}</style></defs><title>qryptos</title><g id="qryptos"><path class="cls-1" d="M129.2,29.12A10.74,10.74,0,1,0,140,39.85,10.75,10.75,0,0,0,129.2,29.12m0,1.79a8.95,8.95,0,1,1-9,8.94,9,9,0,0,1,9-8.94m-12.92-1.78h-9.81a.87.87,0,0,0-.6.24l0,0,0,0a.86.86,0,0,0-.25.6l-.07,0s-.08,0-.08,0V49.63a.9.9,0,1,0,1.8,0V30.91h9.06a.9.9,0,1,0,0-1.79M94.8,39.25H83V30.91H94.8c1.2,0,3.89.59,3.89,4.17S96,39.25,94.8,39.25m0-10.13H82.24a.87.87,0,0,0-.59.24l0,0,0,0a.89.89,0,0,0-.24.6l-.08,0s-.07,0-.07,0V49.63a.9.9,0,1,0,1.79,0V41H94.8a5.53,5.53,0,0,0,5.68-6,5.53,5.53,0,0,0-5.68-6m-16.73.27a.94.94,0,0,0-1.33,0l-3,3h0L69.08,37l-2.37-2.36h0l-5.3-5.28a.94.94,0,0,0-1.33,1.32h0l3,3H63l5,5.1V49.63a.9.9,0,1,0,1.79,0V38.77L72.69,36h0l5.32-5.28a.93.93,0,0,0,0-1.32h0M50.65,43.71h0L48,41h2.57a5.53,5.53,0,0,0,5.68-6,5.53,5.53,0,0,0-5.68-6H38a.89.89,0,0,0-.6.24s0,0,0,0l0,0a.9.9,0,0,0-.25.6L37,30s-.08,0-.08,0V49.63a.9.9,0,1,0,1.8,0V30.91H50.54c1.2,0,3.89.59,3.89,4.17s-2.69,4.17-3.89,4.17H45.46l0,.06a.93.93,0,0,0-.58,1.18,1,1,0,0,0,.22.36l5.3,5.28h0l4.19,4.17A.93.93,0,0,0,56,49h0ZM154.32,39h-5.09a3.72,3.72,0,0,1-3.88-4,3.72,3.72,0,0,1,3.88-4h8a.89.89,0,1,0,0-1.78h-8a5.49,5.49,0,0,0-5.68,5.81,5.5,5.5,0,0,0,5.68,5.82h5.09a3.72,3.72,0,0,1,3.89,4,3.73,3.73,0,0,1-3.89,4h-9.21a.9.9,0,1,0,0,1.79h9.21A5.5,5.5,0,0,0,160,44.77,5.49,5.49,0,0,0,154.32,39M19.57,34a6.48,6.48,0,0,0,0,12.36,10.72,10.72,0,0,0,0-12.36M8.37,40.15A13.1,13.1,0,0,1,13.5,29.77a10.5,10.5,0,0,0-2.73-.36A10.74,10.74,0,1,0,13.5,50.53,13.1,13.1,0,0,1,8.37,40.15M21.53,49a8.87,8.87,0,1,1,8.9-8.87,8.77,8.77,0,0,1-2,5.57l-2-2a1,1,0,0,0-1.33,0,.94.94,0,0,0,0,1.32h0l2,2A8.87,8.87,0,0,1,21.53,49Zm8.25-2a10.82,10.82,0,1,0-1.33,1.32l1.93,1.92a.94.94,0,0,0,1.32,0,.92.92,0,0,0,0-1.32h0l-1.92-1.92Z"/></g></svg>