<svg id="Calque_1" data-name="Calque 1" xmlns="http://www.w3.org/2000/svg" viewBox="0 0 160 80"><defs><style>.cls-1{fill:#34aaef;}</style></defs><title>quoine</title><g id="quoine"><path class="cls-1" d="M126.67,51.67a1.05,1.05,0,0,1,1.06-1.06h21.21a1.06,1.06,0,1,1,0,2.12H127.73A1.06,1.06,0,0,1,126.67,51.67Zm0-23.34a1.06,1.06,0,0,1,1.06-1.06h21.21a1.06,1.06,0,1,1,0,2.12H127.73A1.05,1.05,0,0,1,126.67,28.33Zm0,11.67a1.05,1.05,0,0,1,1.06-1.06h21.21a1.06,1.06,0,0,1,0,2.12H127.73A1.05,1.05,0,0,1,126.67,40ZM95.91,27.27A1.1,1.1,0,0,1,97,28.4V51.6a1.06,1.06,0,1,1-2.12,0V28.4a1.1,1.1,0,0,1,1.06-1.13M32.47,48.18a12.76,12.76,0,1,0-1.56,1.56L33.18,52a1.11,1.11,0,0,0,1.57-1.56Zm-9.74,2.43a10.63,10.63,0,1,1,8.24-4l-2.43-2.43a1.13,1.13,0,0,0-1.58,0h0a1.13,1.13,0,0,0,0,1.58h0l2.43,2.43A10.53,10.53,0,0,1,22.73,50.61ZM88.48,40a10.61,10.61,0,1,1-10.6-10.61A10.61,10.61,0,0,1,88.48,40ZM77.88,27.27A12.73,12.73,0,1,0,90.61,40,12.73,12.73,0,0,0,77.88,27.27m45.6,0a1.1,1.1,0,0,0-1.06,1.13V48.86L103.1,27.62a1.16,1.16,0,0,0-.81-.35h-.2l-.1,0-.11,0-.07,0-.12.07-.14.11-.12.15a1.2,1.2,0,0,0-.22.68V51.6a1.06,1.06,0,1,0,2.12,0V31.09L122.7,52.38a1.37,1.37,0,0,0,.24.18,1,1,0,0,0,.54.17,1.06,1.06,0,0,0,.77-.3,1,1,0,0,0,.29-.79s0-23.24,0-23.24A1.1,1.1,0,0,0,123.48,27.27ZM60.91,28.33V40A10.61,10.61,0,1,1,39.7,40V28.33a1.06,1.06,0,0,0-2.12,0V40A12.73,12.73,0,1,0,63,40V28.33a1.06,1.06,0,0,0-2.12,0Z"/></g></svg>