<svg id="Calque_1" data-name="Calque 1" xmlns="http://www.w3.org/2000/svg" viewBox="0 0 160 80"><defs><style>.cls-1{fill:#2f2f2f;}.cls-2{fill:#6f6f6f;}</style></defs><title>radarrelay</title><g id="radarrelay"><path class="cls-1" d="M64.55,32.71H62.27v1.23h2.28a3.15,3.15,0,0,1,3.36,3.35v5.24a3.14,3.14,0,0,1-3.36,3.34H62.27V47.1h2.28a4.43,4.43,0,0,0,4.7-4.66V37.37A4.44,4.44,0,0,0,64.55,32.71ZM60.15,47.1h1.33V32.71H60.15ZM102.78,37c0-2.54-2-4.25-4.85-4.25H93.79v1.21h4.1c2.16,0,3.51,1.17,3.51,3s-1.38,3.17-3.51,3.17h-2v1.19h2c.24,0,.47,0,.71,0l2.65,5.82h1.47L100,41a4.12,4.12,0,0,0,2.81-4Zm-9,10.14h1.34V34.72H93.79ZM35.67,37c0-2.54-2-4.25-4.85-4.25H26.68v1.21h4.1c2.17,0,3.51,1.17,3.51,3s-1.38,3.17-3.51,3.17h-2v1.19h2c.24,0,.48,0,.71,0l2.65,5.82h1.47L32.87,41a4.11,4.11,0,0,0,2.8-4Zm-9,10.14H28V34.72H26.68V47.1ZM80.6,32.71,75.83,47.1h1.35l4.7-14.39Zm1,3.39,2,6.17h-4l-.4,1.23H84l1.18,3.6h1.42L82.27,34.05,81.6,36.1ZM48,36.1l2,6.17H46l-.4,1.23h4.82l1.19,3.6H53L48.63,34.05Zm.28-3.38L43.54,47.1H42.19L47,32.71h1.28Z"/><path class="cls-2" d="M160,35.49l-2.8,5.35v3.68c0,.09,0,.14-.13.14h-.51a.13.13,0,0,1-.14-.14V40.84l-2.79-5.35a.08.08,0,0,1,0-.1.11.11,0,0,1,.1,0h.53a.24.24,0,0,1,.21.14l2.34,4.45h0l2.3-4.45a.23.23,0,0,1,.21-.14h.52a.13.13,0,0,1,.11,0,.17.17,0,0,1,0,.1Zm-15.11,6,1.75-4.88h.05l1.73,4.88Zm2.19-6a.16.16,0,0,0-.16-.14h-.49a.17.17,0,0,0-.17.14l-3.26,9c0,.09,0,.14.1.14h.53a.2.2,0,0,0,.18-.14l.82-2.29h4l.83,2.29a.15.15,0,0,0,.17.14h.54c.09,0,.12,0,.09-.14l-3.23-9Zm-8.16,8.57v.47a.12.12,0,0,1-.14.14h-5.32a.13.13,0,0,1-.14-.14v-9a.13.13,0,0,1,.14-.14h.5a.13.13,0,0,1,.14.14v8.35c0,.06,0,.09.08.09h4.6c.1,0,.14,0,.14.13ZM128,35.48V36c0,.09,0,.13-.14.13h-4.6s-.08,0-.08.09v3.31a.07.07,0,0,0,.08.08h4a.13.13,0,0,1,.14.14v.46a.12.12,0,0,1-.14.14h-4a.07.07,0,0,0-.08.08v3.45c0,.06,0,.09.08.09h4.6c.09,0,.14,0,.14.13v.47a.13.13,0,0,1-.14.14h-5.32a.12.12,0,0,1-.14-.14v-9a.12.12,0,0,1,.14-.14h5.32a.13.13,0,0,1,.14.14ZM114,39.75h-2.39s-.08,0-.08-.08v-3.5c0-.06,0-.09.08-.09H114a2.23,2.23,0,0,1,1.53.48,2,2,0,0,1,0,2.72,2.22,2.22,0,0,1-1.53.47Zm.94.63a2.42,2.42,0,0,0,1.4-.85,2.5,2.5,0,0,0,.51-1.61A2.45,2.45,0,0,0,116,36a3,3,0,0,0-2.08-.69h-3.12a.13.13,0,0,0-.14.14v9a.13.13,0,0,0,.14.14h.5a.12.12,0,0,0,.14-.14V40.58c0-.06,0-.09.08-.09h2.54l2,4a.18.18,0,0,0,.16.13h.63a.11.11,0,0,0,.09,0,.12.12,0,0,0,0-.11Z"/><path class="cls-1" d="M2.88,34H9.36a4.62,4.62,0,0,1,2.21,8.68Zm17,4.69A10.8,10.8,0,0,0,9.17,27.81H0v1H9.17a9.77,9.77,0,0,1,9.66,9.86A9.92,9.92,0,0,1,15,46.54l-1.09-1.11A8.35,8.35,0,0,0,17.3,38.7a8.23,8.23,0,0,0-8.13-8.3H0v1H9.17a7.21,7.21,0,0,1,7.12,7.26,7.3,7.3,0,0,1-3.09,6l-1.1-1.13a5.72,5.72,0,0,0,2.66-4.86A5.66,5.66,0,0,0,9.17,33H.3l10,10.22a4.45,4.45,0,0,1-1.16.15H0v1H9.17a5.64,5.64,0,0,0,2-.36l1.16,1.18A6.93,6.93,0,0,1,9.17,46H0v1H9.17a7.87,7.87,0,0,0,3.88-1l1.12,1.14a9.48,9.48,0,0,1-5,1.42H0v1H9.17a10.49,10.49,0,0,0,5.74-1.71l3.2,3.26H0v1H20.57l-4.82-4.91A11,11,0,0,0,19.85,38.7Z"/></g></svg>