<svg id="Calque_1" data-name="Calque 1" xmlns="http://www.w3.org/2000/svg" viewBox="0 0 160 80"><defs><style>.cls-1{fill:#955ba5;}.cls-2{fill:#2f2f2f;}</style></defs><title>remitano</title><g id="remitano"><path class="cls-1" d="M16.63,41.35v13.5H10V25.18H20.06a7.38,7.38,0,0,1,2.64.42,4.49,4.49,0,0,1,1.74,1.1,4.69,4.69,0,0,1,1,1.8,11.55,11.55,0,0,1,.48,2.26c.07.75.11,1.66.11,2.73,0,.56,0,1,0,1.37a9.92,9.92,0,0,1-.2,1.34,4.71,4.71,0,0,1-.5,1.35,4,4,0,0,1-1,1.06,4.46,4.46,0,0,1-1.55.8,3.51,3.51,0,0,1,1.51.62,2.61,2.61,0,0,1,.85,1.13,5.8,5.8,0,0,1,.36,1.24,8.19,8.19,0,0,1,.09,1.28c0,4.9,0,8.63-.07,11.17H19.11V43.29a3.59,3.59,0,0,0-.14-1.1,1,1,0,0,0-.52-.59,2.19,2.19,0,0,0-.74-.21A9.52,9.52,0,0,0,16.63,41.35Zm0-10.68v5.54h1.64c.87,0,1.3-.91,1.3-2.72a3.46,3.46,0,0,0-.51-2.31A3,3,0,0,0,17,30.67Z"/><path class="cls-2" d="M28.57,54.85V25.18H41.68v5.76H35.24v5.79h6.18V42.3H35.24v6.76h6.87v5.79Z"/><path class="cls-2" d="M60.42,54.85H54.54l-3.62-21.4v21.4H44.63V25.18h10l2.76,15.48,2.74-15.48H70.18V54.85H63.81V33.45Z"/><path class="cls-2" d="M73.42,54.85V25.18h6.34V54.85Z"/><path class="cls-2" d="M81.75,25.18H96.09V30.9H92.2v24H85.64v-24H81.75Z"/><path class="cls-2" d="M109.6,25.18l3.28,29.67h-6.34l-.46-4.47h-3.32l-.41,4.47H96l3.35-29.67Zm-4.9,5.57h-.6L103.23,45h2.34Z"/><path class="cls-2" d="M131,25.18V54.85h-6.41L121.3,40V54.85h-6.41V25.18h6.74l3,14.19V25.18Z"/><path class="cls-2" d="M133.83,46.84V32.71a7.87,7.87,0,0,1,2-5.75q2-2,6-2.1c2.76,0,4.8.74,6.14,2.1a7.87,7.87,0,0,1,2,5.75V46.84a11,11,0,0,1-.46,3.29,7.74,7.74,0,0,1-1.38,2.64,6.07,6.07,0,0,1-2.53,1.78,9,9,0,0,1-3.66.58,9.32,9.32,0,0,1-3.77-.58,6,6,0,0,1-2.52-1.78,7.59,7.59,0,0,1-1.39-2.64A11,11,0,0,1,133.83,46.84Zm8.09,2.48a1.38,1.38,0,0,0,.62-.14,1,1,0,0,0,.43-.43,3.77,3.77,0,0,0,.25-.55,2.65,2.65,0,0,0,.13-.7c0-.29,0-.51.05-.67s0-.37,0-.64V34.12c0-.07,0-.22,0-.45v-.5c0-.11,0-.28,0-.49a2.74,2.74,0,0,0-.06-.51c0-.11-.07-.26-.11-.44a.92.92,0,0,0-.18-.41,3.25,3.25,0,0,0-.26-.3.74.74,0,0,0-.37-.22,1.83,1.83,0,0,0-1.18.06,1,1,0,0,0-.46.42c-.11.19-.21.37-.28.52a2.38,2.38,0,0,0-.15.69c0,.31,0,.52,0,.65V46c0,.27,0,.49,0,.65s0,.4.05.71a2.71,2.71,0,0,0,.14.75,5.21,5.21,0,0,0,.27.61,1,1,0,0,0,.46.47A1.34,1.34,0,0,0,141.92,49.32Z"/></g></svg>