<svg id="Calque_1" data-name="Calque 1" xmlns="http://www.w3.org/2000/svg" viewBox="0 0 160 80"><defs><style>.cls-1{fill:#08c;}</style></defs><title>simex</title><g id="simex"><path class="cls-1" d="M67.67,32.34a10,10,0,0,0-4.88-1.52c-1.85,0-3,1-3,2.83,0,5,9.45,3.8,9.45,11.4,0,4.45-3.69,7-8.25,7-5.32,0-7.06-2.82-7.06-2.82l1.41-2.07a7.36,7.36,0,0,0,5.43,2.18C63,49.29,64.31,48,64.31,46c0-4.46-9.34-3.69-9.34-11,0-4.24,3.14-6.84,7.6-6.84a11.59,11.59,0,0,1,5.75,1.62ZM78,51.68H73v-23h5Zm30.41,0h-4.89L103.3,34.3h-.11L96.67,51.68H93L86.46,34.3h-.11l-.1,17.38h-3l.33-23h6L96,45.59h.11l6.52-16.94h5.53Zm19.88,0H113.72v-23h14v2.5h-9v7.6h7.93v2.5h-7.93v7.82h9.56Zm8.8-11.19-7-11.84h6.19l4.35,8.25h.11l5-8.25h3.48L142.4,39.29,150,51.68h-6.19l-5-8.8h-.11l-5.32,8.8h-3.69ZM24.45,30.93a5.22,5.22,0,1,0,0,10.43H31a2.61,2.61,0,1,1,0,5.21H24.45a10.54,10.54,0,1,1,0-21.07h20A7.93,7.93,0,0,0,37.91,22H17.82A7.79,7.79,0,0,0,10,29.84V49.07H31.4a5.22,5.22,0,0,0,0-10.43H24.88A2.57,2.57,0,0,1,22.27,36a2.64,2.64,0,0,1,2.61-2.61H31.4a10.54,10.54,0,0,1,0,21.07H11.3A8,8,0,0,0,17.82,58H38a7.79,7.79,0,0,0,7.82-7.82V30.93Z"/></g></svg>