<svg id="Calque_1" data-name="Calque 1" xmlns="http://www.w3.org/2000/svg" viewBox="0 0 160 80"><defs><style>.cls-1{fill:#141829;}.cls-2{fill:#4169ff;}.cls-3{fill:#fff;}</style></defs><title>stakenet</title><g id="stakenet"><path class="cls-1" d="M56.78,30.21a8.82,8.82,0,0,1,3,.46,7.31,7.31,0,0,1,2.14,1.13,5,5,0,0,1,1.31,1.51,3.91,3.91,0,0,1,.49,1.55.58.58,0,0,1-.19.5.73.73,0,0,1-.49.19H61.26a1.07,1.07,0,0,1-.65-.17,1.65,1.65,0,0,1-.39-.44,3.3,3.3,0,0,0-1.15-1.1,4.5,4.5,0,0,0-2.29-.47,5.57,5.57,0,0,0-1.25.14,3.47,3.47,0,0,0-1,.41,2.12,2.12,0,0,0-.69.64,1.55,1.55,0,0,0-.26.86,1.69,1.69,0,0,0,.24.95,1.94,1.94,0,0,0,.81.63,8.56,8.56,0,0,0,1.51.5l2.32.53A15.63,15.63,0,0,1,61,38.8a6,6,0,0,1,1.8,1.06,4,4,0,0,1,1,1.43,4.84,4.84,0,0,1,.34,1.85,4.5,4.5,0,0,1-.51,2.11,4.82,4.82,0,0,1-1.44,1.67A7.34,7.34,0,0,1,60,48a10.75,10.75,0,0,1-3.06.4,10.43,10.43,0,0,1-2.71-.34,8,8,0,0,1-2.29-1,5.38,5.38,0,0,1-1.6-1.55,4.08,4.08,0,0,1-.69-2,.57.57,0,0,1,.19-.49.76.76,0,0,1,.5-.19h1.77a1.18,1.18,0,0,1,.65.15,1.1,1.1,0,0,1,.38.46,6.18,6.18,0,0,0,.43.66,2.36,2.36,0,0,0,.69.58,4,4,0,0,0,1.07.42,6.67,6.67,0,0,0,1.61.16,9.93,9.93,0,0,0,1.46-.11,4.53,4.53,0,0,0,1.24-.38,2.66,2.66,0,0,0,.86-.66,1.46,1.46,0,0,0,.33-1,1.27,1.27,0,0,0-.35-.92,3,3,0,0,0-1.08-.6,13.76,13.76,0,0,0-1.78-.48c-.82-.18-1.64-.38-2.45-.59a12.5,12.5,0,0,1-2.22-.72,5.27,5.27,0,0,1-1.56-1,3.77,3.77,0,0,1-.93-1.43,5.73,5.73,0,0,1-.3-2,4.52,4.52,0,0,1,.5-2.1A5,5,0,0,1,52,31.68a6.67,6.67,0,0,1,2.11-1.08A8.75,8.75,0,0,1,56.78,30.21ZM71.3,43.41a1.83,1.83,0,0,0,.42,1.26,2,2,0,0,0,1.55.46h1.54a.67.67,0,0,1,.49.21.66.66,0,0,1,.2.48v1.67a.69.69,0,0,1-.2.48.68.68,0,0,1-.49.2H72.94A5.26,5.26,0,0,1,69.29,47,4.54,4.54,0,0,1,68,43.49V38.05H66.34a.68.68,0,0,1-.68-.68V35.7a.66.66,0,0,1,.2-.48.63.63,0,0,1,.48-.2H68V30.89a.68.68,0,0,1,.68-.68h1.93a.68.68,0,0,1,.68.68V35h3.26a.62.62,0,0,1,.48.2.63.63,0,0,1,.21.48v1.67a.68.68,0,0,1-.21.48.66.66,0,0,1-.48.2H71.3Zm10.9,2a4.55,4.55,0,0,0,1.53-.24,3.54,3.54,0,0,0,1.13-.65,2.65,2.65,0,0,0,.68-.91,2.54,2.54,0,0,0,.23-1V42.3l-3.44.61a3.58,3.58,0,0,0-1.5.52,1.11,1.11,0,0,0-.45.92.82.82,0,0,0,.54.78,3,3,0,0,0,1.28.26M78,38.25a3.37,3.37,0,0,1,.46-1.13,4.24,4.24,0,0,1,1-1.14,5.55,5.55,0,0,1,1.64-.88,7.09,7.09,0,0,1,2.27-.34,7.71,7.71,0,0,1,2.33.34,5.14,5.14,0,0,1,1.78,1,4.44,4.44,0,0,1,1.15,1.66,6.08,6.08,0,0,1,.4,2.29v7.44a.65.65,0,0,1-.2.48.66.66,0,0,1-.48.2H86.45A.66.66,0,0,1,86,48a.64.64,0,0,1-.2-.49v-.83a4.3,4.3,0,0,1-1.53,1.25,5.48,5.48,0,0,1-2.55.52,6.13,6.13,0,0,1-1.94-.29,4,4,0,0,1-1.45-.82,3.67,3.67,0,0,1-.89-1.25,3.76,3.76,0,0,1-.32-1.58,3.3,3.3,0,0,1,1.24-2.74,7.32,7.32,0,0,1,3.31-1.34l4.13-.7a1.59,1.59,0,0,0-.69-1.47,3.08,3.08,0,0,0-1.69-.43,2.24,2.24,0,0,0-1,.18,2.7,2.7,0,0,0-.68.48,1.47,1.47,0,0,1-.42.27,1.08,1.08,0,0,1-.42.08H78.53a.66.66,0,0,1-.43-.15.38.38,0,0,1-.12-.41Zm17.73,4.89v4.35a.7.7,0,0,1-.69.68H93.1a.68.68,0,0,1-.68-.69V30.89a.68.68,0,0,1,.68-.68H95a.7.7,0,0,1,.69.68v8l4.22-3.41a2.84,2.84,0,0,1,.39-.28,1.05,1.05,0,0,1,.6-.15h2.58a.63.63,0,0,1,.43.17.59.59,0,0,1,.17.43.88.88,0,0,1,0,.24.7.7,0,0,1-.24.27l-5.9,4.75,6.45,6.2a1.12,1.12,0,0,1,.2.25.59.59,0,0,1-.12.66.58.58,0,0,1-.43.18h-2.46a1.29,1.29,0,0,1-.64-.15,2.14,2.14,0,0,1-.39-.28Zm16.46-5.34a3.34,3.34,0,0,0-1.25.21,2.72,2.72,0,0,0-.87.56,2.43,2.43,0,0,0-.55.76,2.74,2.74,0,0,0-.24.8H115a4.24,4.24,0,0,0-.19-.8,2.13,2.13,0,0,0-.46-.76,2.48,2.48,0,0,0-.83-.56,3.6,3.6,0,0,0-1.33-.21M106,41.59a8.13,8.13,0,0,1,.44-2.67,6.32,6.32,0,0,1,1.23-2.17,6,6,0,0,1,2-1.46,6.15,6.15,0,0,1,2.57-.53,6.27,6.27,0,0,1,2.57.52A6,6,0,0,1,118,38.72a6.88,6.88,0,0,1,.44,2.47v1.14a.65.65,0,0,1-.2.48.66.66,0,0,1-.48.2h-8.45a2.08,2.08,0,0,0,.24,1,2.24,2.24,0,0,0,.65.75,2.87,2.87,0,0,0,.93.45,3.69,3.69,0,0,0,1.09.16,4.36,4.36,0,0,0,1.32-.17,2.81,2.81,0,0,0,.83-.42,4.06,4.06,0,0,1,.46-.28,1.43,1.43,0,0,1,.48-.07h2a.7.7,0,0,1,.49.2.55.55,0,0,1,.19.48,1.91,1.91,0,0,1-.39.91,4.21,4.21,0,0,1-1.1,1.09,6.8,6.8,0,0,1-1.81.91,7.24,7.24,0,0,1-2.49.38,6.47,6.47,0,0,1-2.57-.49,5.59,5.59,0,0,1-2-1.4,6.32,6.32,0,0,1-1.23-2.17A8.38,8.38,0,0,1,106,41.59Zm27.52,5.9a.65.65,0,0,1-.2.48.66.66,0,0,1-.48.2h-1.92a.66.66,0,0,1-.48-.2.69.69,0,0,1-.21-.49V41.06a3.88,3.88,0,0,0-.7-2.43,3,3,0,0,0-4.29,0,3.67,3.67,0,0,0-.77,2.43v6.43a.68.68,0,0,1-.69.68h-1.92a.68.68,0,0,1-.68-.69V35.7a.66.66,0,0,1,.2-.48.63.63,0,0,1,.48-.2h1.93a.65.65,0,0,1,.48.2.66.66,0,0,1,.2.48v.58A6,6,0,0,1,126,35.19a4.86,4.86,0,0,1,2.1-.42,6.29,6.29,0,0,1,2.58.47,4.56,4.56,0,0,1,1.67,1.3,4.9,4.9,0,0,1,.9,1.88,9.78,9.78,0,0,1,.26,2.26v6.81Zm8.91-9.69a3.39,3.39,0,0,0-1.26.21,3,3,0,0,0-.87.56,2.4,2.4,0,0,0-.54.76,2.74,2.74,0,0,0-.24.8h5.71a4.24,4.24,0,0,0-.19-.8,2.1,2.1,0,0,0-.45-.76,2.53,2.53,0,0,0-.84-.56,3.51,3.51,0,0,0-1.32-.21m-6.2,3.79a8.12,8.12,0,0,1,.43-2.67,6.52,6.52,0,0,1,1.24-2.17,5.75,5.75,0,0,1,2-1.46,6.12,6.12,0,0,1,2.57-.53,6.23,6.23,0,0,1,2.56.52,6.06,6.06,0,0,1,2,1.39,6.3,6.3,0,0,1,1.26,2,7.1,7.1,0,0,1,.44,2.47v1.14a.69.69,0,0,1-.2.48.68.68,0,0,1-.49.2h-8.44a2.08,2.08,0,0,0,.24,1,2.21,2.21,0,0,0,.64.75,2.83,2.83,0,0,0,.94.45,3.6,3.6,0,0,0,1.09.16,4.29,4.29,0,0,0,1.31-.17,2.58,2.58,0,0,0,.83-.42,4.06,4.06,0,0,1,.46-.28,1.52,1.52,0,0,1,.48-.07h2a.73.73,0,0,1,.49.2.6.6,0,0,1,.19.48,2.06,2.06,0,0,1-.4.91,4.32,4.32,0,0,1-1.09,1.09,7,7,0,0,1-1.81.91,7.32,7.32,0,0,1-2.49.38,6.44,6.44,0,0,1-2.57-.49,5.59,5.59,0,0,1-2-1.4,6.19,6.19,0,0,1-1.24-2.17,8.39,8.39,0,0,1-.43-2.77Zm19.6,1.82a1.83,1.83,0,0,0,.42,1.26,2,2,0,0,0,1.55.46h1.55a.7.7,0,0,1,.68.69v1.67a.69.69,0,0,1-.2.48.67.67,0,0,1-.48.2h-1.88A5.26,5.26,0,0,1,153.79,47a4.54,4.54,0,0,1-1.28-3.53V38.05h-1.67a.68.68,0,0,1-.68-.68V35.7a.66.66,0,0,1,.2-.48.63.63,0,0,1,.48-.2h1.67V30.89a.68.68,0,0,1,.69-.68h1.92a.68.68,0,0,1,.68.68V35h3.26a.68.68,0,0,1,.69.68v1.67a.68.68,0,0,1-.69.68H155.8Z"/><path class="cls-2" d="M20.23,19.77A20.23,20.23,0,1,0,40.47,40,20.23,20.23,0,0,0,20.23,19.77"/><path class="cls-3" d="M20.57,38.28a15.26,15.26,0,0,1-6.6-2.8,1.85,1.85,0,0,1-.2-2.61,1.83,1.83,0,0,1,.48-.4l5.06-2.92a1.85,1.85,0,0,1,1.85,0L28.82,34a1.84,1.84,0,0,1,.93,1.61v6.15a.44.44,0,0,1-.74.32c-1.23-1.13-3.63-2.79-8.44-3.77Zm-.67,3.44a15.26,15.26,0,0,1,6.6,2.8,1.85,1.85,0,0,1,.2,2.61,1.83,1.83,0,0,1-.48.4l-5.06,2.92a1.85,1.85,0,0,1-1.85,0L11.64,46a1.85,1.85,0,0,1-.92-1.61V38.27a.44.44,0,0,1,.74-.32c1.22,1.13,3.63,2.79,8.44,3.77Z"/></g></svg>