<svg id="Calque_1" data-name="Calque 1" xmlns="http://www.w3.org/2000/svg" viewBox="0 0 160 80"><defs><style>.cls-1{fill:#284c74;}.cls-2{fill:#29bd64;}</style></defs><title>stocksexchange</title><g id="stocksexchange"><path id="Fill-1" class="cls-1" d="M9.65,33.2V35C8.43,35,6.56,35,5.1,35c-1.7,0-2.34.06-2.34.88s.46.88,1.6,1.16l2.8.76c2.28.67,3,1.68,3,3.33,0,2.56-1.43,3.29-5.17,3.29A24.55,24.55,0,0,1,.17,44l.18-2c2.52,0,3.64.07,4.65.07,1.84,0,2.38-.15,2.38-.91s-.45-.88-1.51-1.11L3,39.2c-2.17-.67-3-1.65-3-3.31,0-2.58,1.51-3.16,5.08-3.16a18.91,18.91,0,0,1,4.58.47"/><path id="Fill-3" class="cls-1" d="M15.37,41.48c0,.57.34.77,1.21.77H18l.3,1.79a10.51,10.51,0,0,1-2.71.35c-1.82,0-2.84-.84-2.84-2.3V37.85H10.89V36.12h1.82V33.25h2.66v2.87h3v1.73h-3Z"/><path id="Fill-5" class="cls-1" d="M22.44,40.16c0,1.86.52,2.32,2.33,2.32S27.1,42,27.1,40.16s-.54-2.35-2.33-2.35-2.33.46-2.33,2.35m7.44,0c0,3.1-1.38,4.23-5.11,4.23s-5.12-1.13-5.12-4.23,1.4-4.25,5.12-4.25,5.11,1.14,5.11,4.25"/><path id="Fill-7" class="cls-1" d="M40.23,36.41l-.31,1.67c-1.06,0-2.12,0-2.89,0-2,0-2.71.46-2.71,2.11s.69,2.1,2.71,2.1a28.67,28.67,0,0,0,3.1-.13l.26,1.69a11.38,11.38,0,0,1-3.82.58c-3.71,0-5.05-1.13-5.05-4.24s1.35-4.24,5.06-4.24a12,12,0,0,1,3.65.5"/><polygon id="Fill-9" class="cls-1" points="44.81 40.51 44.81 44.19 42.15 44.19 42.15 33.25 44.81 33.25 44.81 38.91 45.76 38.91 48.4 36.12 51.61 36.12 48.07 39.69 48.07 39.76 51.96 44.19 48.73 44.19 45.74 40.51 44.81 40.51"/><path id="Fill-11" class="cls-1" d="M62,36.22l-.19,1.66-3.94,0c-1.68,0-2.15,0-2.15.45s.4.44,1.4.66l2.74.52c1.69.39,2.48,1,2.48,2.38,0,2-1.38,2.51-4.58,2.51a33.91,33.91,0,0,1-4.43-.29l.16-1.67c.83,0,2.2,0,3.56,0,2.16,0,2.7-.06,2.7-.53s-.5-.43-1.49-.67l-2.68-.52c-1.87-.46-2.45-1.23-2.45-2.51,0-1.62,1.18-2.32,4.26-2.3a37.4,37.4,0,0,1,4.61.31"/><path id="Fill-13" class="cls-1" d="M79,44.06c-2,.18-4.37.18-6.55.18-1.83,0-3-.91-3-2.33V35.22c0-1.42,1.2-2.33,3-2.33,2.18,0,4.59,0,6.55.18l-.13,2H73.17c-.74,0-1.08.24-1.08.76v1.57h6v1.94h-6v2c0,.54.34.79,1.08.79H78.9Z"/><path id="Fill-15" class="cls-1" d="M101.72,36.41l-.31,1.67c-1.06,0-2.12,0-2.89,0-2,0-2.71.46-2.71,2.11s.69,2.1,2.71,2.1a28.67,28.67,0,0,0,3.1-.13l.26,1.69a11.4,11.4,0,0,1-3.83.58c-3.71,0-5-1.13-5-4.24s1.35-4.24,5.06-4.24a12,12,0,0,1,3.65.5"/><path id="Fill-17" class="cls-1" d="M113.3,38.14v6h-2.66V39c0-.65-.32-.85-1.18-.85a9.42,9.42,0,0,0-3.16.66v5.41h-2.67V33.25h2.67s0,4,0,4a7.42,7.42,0,0,1,4.16-1.29c1.85,0,2.84.76,2.84,2.23"/><path id="Fill-19" class="cls-1" d="M117.84,41.71c0,.51.42.75,1.32.75a6.39,6.39,0,0,0,2.92-.86v-.9H119c-.82,0-1.11.29-1.11.72Zm6.91-2.79v5.27h-2.67V42.8a5,5,0,0,1-3.66,1.59c-1.87,0-3.23-.8-3.23-2.3v-.82c0-1.29,1.12-2.07,3-2.07h3.85v-.28c0-.76-.42-1-1.8-1-1,0-2.73,0-4.37.11l-.25-1.74a43.51,43.51,0,0,1,5.23-.39C123.4,35.91,124.75,36.61,124.75,38.92Z"/><path id="Fill-21" class="cls-1" d="M136.62,38.14v6H134V39c0-.65-.32-.85-1.17-.85a10.66,10.66,0,0,0-3.17.67v5.4H127V36.12h2.67v1.2a7.48,7.48,0,0,1,4.16-1.41c1.85,0,2.84.76,2.84,2.23"/><path id="Fill-23" class="cls-1" d="M145.54,38.48c0-.76-.52-1-2.19-1s-2.23.2-2.23,1,.55,1,2.23,1S145.54,39.2,145.54,38.48Zm-1.09,5.4-3.06-.23c-.43.3-.62.49-.62.88,0,.7.54.82,2.66.82s2.72-.13,2.72-.77S145.78,44,144.45,43.88Zm3.37-6.51a2.9,2.9,0,0,1,.19,1.11c0,1.85-1.17,2.56-4.66,2.56a15.27,15.27,0,0,1-1.92-.1c-.33.31-.26.89.65.93l3.78.31c2.07.18,2.84,1,2.84,2.45,0,2.14-1.38,2.64-5.23,2.64-4.1,0-5.26-.62-5.26-2.38,0-.83.4-1.32,1.51-1.76a1.48,1.48,0,0,1,.4-2.48,2.06,2.06,0,0,1-1.46-2.17c0-1.87,1.21-2.57,4.71-2.57a12.38,12.38,0,0,1,2.59.21h3.26l-.15,1.11Z"/><path id="Fill-26" class="cls-1" d="M153,39.46h3.36c.82,0,1-.29,1-.78,0-.7-.51-.91-1.91-.91-1.73,0-2.31.26-2.41,1.69m6.52,2.66.25,1.63a12.27,12.27,0,0,1-4.33.64c-3.77,0-5.2-1.29-5.2-4.21,0-3.2,1.48-4.27,5.06-4.27,3.37,0,4.71,1,4.72,2.82,0,1.48-.82,2.21-2.92,2.21h-4c.24,1.1,1,1.36,2.69,1.36,1,0,2.45,0,3.75-.18"/><polygon id="Fill-29" class="cls-2" points="92.11 44.16 89.27 44.16 86.45 40.04 83.66 44.13 80.84 44.13 83.9 40.02 81.11 36.13 83.89 36.13 86.45 39.95 89.03 36.09 91.84 36.09 89.03 40.02 92.11 44.16"/></g></svg>