<svg id="Calque_1" data-name="Calque 1" xmlns="http://www.w3.org/2000/svg" xmlns:xlink="http://www.w3.org/1999/xlink" viewBox="0 0 160 80"><defs><style>.cls-1{fill:#233283;}.cls-2{fill:url(#Dégradé_sans_nom_37);}.cls-3{fill:url(#Dégradé_sans_nom_36);}.cls-4{fill:url(#Dégradé_sans_nom_34);}</style><linearGradient id="Dégradé_sans_nom_37" x1="-634.3" y1="-474.88" x2="-633.87" y2="-474.88" gradientTransform="matrix(0, -102.67, -102.67, 0, -48734.01, -65076.25)" gradientUnits="userSpaceOnUse"><stop offset="0" stop-color="#233283"/><stop offset="0.24" stop-color="#0071f1"/><stop offset="0.29" stop-color="#0071f1"/><stop offset="0.4" stop-color="#0071f1"/><stop offset="1" stop-color="#00ceff"/></linearGradient><linearGradient id="Dégradé_sans_nom_36" x1="-633.67" y1="-474.48" x2="-633.24" y2="-474.48" gradientTransform="matrix(0, -113.05, -113.05, 0, -53634.01, -71582.12)" gradientUnits="userSpaceOnUse"><stop offset="0" stop-color="#3658ba"/><stop offset="0.24" stop-color="#0071f1"/><stop offset="0.29" stop-color="#0071f1"/><stop offset="0.4" stop-color="#0071f1"/><stop offset="1" stop-color="#00ceff"/></linearGradient><linearGradient id="Dégradé_sans_nom_34" x1="-618.81" y1="-477.79" x2="-618.38" y2="-477.79" gradientTransform="matrix(61.71, 0, 0, -61.71, 38189.63, -29440.88)" gradientUnits="userSpaceOnUse"><stop offset="0" stop-color="#00eaff"/><stop offset="0.56" stop-color="#00a4fa"/><stop offset="0.7" stop-color="#00a4fa"/><stop offset="0.75" stop-color="#00a4fa"/><stop offset="1" stop-color="#4976fb"/></linearGradient></defs><title>stronghold</title><g id="stronghold"><path class="cls-1" d="M52.73,34.08a5.74,5.74,0,0,0-3.81-1.67,2.68,2.68,0,0,0-2.85,2.68c0,3.87,9.15,2.43,9.15,8.84,0,3.16-2.23,5.87-6.38,5.87a9.11,9.11,0,0,1-6.63-2.88l2-2a6.36,6.36,0,0,0,4.35,2A3.07,3.07,0,0,0,51.86,44c0-3.75-9.12-2.2-9.12-8.8a5.4,5.4,0,0,1,5.82-5.64,8.72,8.72,0,0,1,6.18,2.56ZM56,36.84h1.5V34H60.7v2.82h2.85v2.43H60.7v5.87A2,2,0,0,0,63.55,47v2.57A3.82,3.82,0,0,1,62,49.8c-2.79,0-4.51-1.81-4.51-4.66V39.27H56Zm16.09-.14v2.71a3.15,3.15,0,0,0-1-.14,3.38,3.38,0,0,0-2.85,1.61v8.66H65.1V36.84h3.1v1.3a4.24,4.24,0,0,1,3.08-1.49,7,7,0,0,1,.79.05M79.41,47c2.06,0,3.47-1.55,3.47-3.84s-1.41-3.83-3.47-3.83-3.47,1.55-3.47,3.83S77.35,47,79.41,47m0-10.44a6.32,6.32,0,0,1,6.69,6.6,6.69,6.69,0,0,1-13.38,0,6.32,6.32,0,0,1,6.69-6.6m11.5.25v.94a5.29,5.29,0,0,1,3.45-1.19c2.9,0,4.74,2.17,4.74,5.39v7.56H96V42a2.41,2.41,0,0,0-2.45-2.62,3.47,3.47,0,0,0-2.63,1v9.14h-3.1V36.84Zm15.28,6.78a2.2,2.2,0,0,0,2.26-2.32,2.26,2.26,0,1,0-4.52,0,2.2,2.2,0,0,0,2.26,2.32m-.11,10.89c2,0,3.58-.85,3.58-2s-1.24-1.78-3.1-1.78c-2,0-3.36.82-3.36,2s1.07,1.78,2.88,1.78m-3.45-5.14a2.33,2.33,0,0,1-1.41-2.11,2.36,2.36,0,0,1,1.5-2.12,4.28,4.28,0,0,1-1.92-3.75c0-2.91,2.2-4.8,5.36-4.8a5.71,5.71,0,0,1,3.67,1.16,3,3,0,0,1,2.26-1.16,3.17,3.17,0,0,1,.76.06V39.1a2.84,2.84,0,0,0-.59-.08,1.43,1.43,0,0,0-1.1.59,4.79,4.79,0,0,1,.31,1.69c0,2.83-2.15,4.74-5.37,4.74-1.27,0-1.86.48-1.86,1.13s.88,1.13,2.32,1.13c3.78,0,6.32,1.67,6.32,4.12,0,2.63-2.88,4.43-6.78,4.43-3.75,0-6.15-1.69-6.15-4.12,0-1.61,1.07-2.71,2.68-3.36m14.76-21v9.4a5.26,5.26,0,0,1,3.44-1.19c2.91,0,4.74,2.17,4.74,5.39v7.56h-3.1V42A2.42,2.42,0,0,0,120,39.36a3.43,3.43,0,0,0-2.62,1v9.14h-3.11V28.38ZM133.89,47c2.06,0,3.47-1.55,3.47-3.84s-1.41-3.83-3.47-3.83-3.47,1.55-3.47,3.83S131.83,47,133.89,47m0-10.44a6.32,6.32,0,0,1,6.69,6.6,6.69,6.69,0,0,1-13.38,0,6.32,6.32,0,0,1,6.69-6.6m12.9,12.95a4.21,4.21,0,0,1-1.3.14c-2.11,0-3.24-1.38-3.24-3.41V28.38h3.1V46.19a1.29,1.29,0,0,0,1.44,1.32ZM154.27,47a3.54,3.54,0,0,0,2.63-1V40.29a3.8,3.8,0,0,0-2.63-.93,3.52,3.52,0,0,0-3.55,3.83A3.53,3.53,0,0,0,154.27,47m2.63,2.51v-.9a5.69,5.69,0,0,1-3.48,1.16c-3.55,0-5.92-2.68-5.92-6.61a6.2,6.2,0,0,1,6.49-6.6,6.55,6.55,0,0,1,2.91.65V28.38H160V49.54Z"/><path class="cls-2" d="M13.35,23.15V40.94l12.33,6.11L19,23.15H16.73L17,24.62H14.55l-.08-1.47Z"/><path class="cls-3" d="M12.21,23.15l-.08,1.47H9.71L10,23.15H7.67L1,47.05l12.33-6.11V23.15Z"/><path class="cls-4" d="M1,47.05,0,49.86a.61.61,0,0,0,.08.54h0a.61.61,0,0,0,.48.25h25.5a.61.61,0,0,0,.48-.25h0a.61.61,0,0,0,.08-.54h0l-1-2.81L13.34,40.94Z"/></g></svg>