<svg id="Calque_1" data-name="Calque 1" xmlns="http://www.w3.org/2000/svg" xmlns:xlink="http://www.w3.org/1999/xlink" viewBox="0 0 160 80"><defs><style>.cls-1{fill:url(#Dégradé_sans_nom_18);}.cls-2{fill:url(#Dégradé_sans_nom_18-2);}.cls-3{fill:url(#Dégradé_sans_nom_20);}.cls-4{fill:url(#Dégradé_sans_nom_23);}.cls-5{fill:url(#Dégradé_sans_nom_27);}.cls-6{fill:url(#Dégradé_sans_nom_31);}.cls-7{fill:url(#Dégradé_sans_nom_19);}.cls-8{fill:#a8c6dc;}.cls-9{fill:url(#Dégradé_sans_nom_18-3);}.cls-10{fill:url(#Dégradé_sans_nom_35);}</style><linearGradient id="Dégradé_sans_nom_18" x1="15.84" y1="35.91" x2="15.84" y2="61.72" gradientUnits="userSpaceOnUse"><stop offset="0" stop-color="#153a60"/><stop offset="0.64" stop-color="#344569"/><stop offset="1" stop-color="#40496c"/></linearGradient><linearGradient id="Dégradé_sans_nom_18-2" x1="1.41" y1="23.4" x2="1.41" y2="44.02" xlink:href="#Dégradé_sans_nom_18"/><linearGradient id="Dégradé_sans_nom_20" x1="5.01" y1="19.89" x2="5.01" y2="43.81" gradientUnits="userSpaceOnUse"><stop offset="0" stop-color="#1e4978"/><stop offset="0.59" stop-color="#365480"/><stop offset="1" stop-color="#425984"/></linearGradient><linearGradient id="Dégradé_sans_nom_23" x1="8.62" y1="18.28" x2="8.62" y2="42.49" gradientUnits="userSpaceOnUse"><stop offset="0" stop-color="#18619e"/><stop offset="0.62" stop-color="#346ca5"/><stop offset="1" stop-color="#4070a8"/></linearGradient><linearGradient id="Dégradé_sans_nom_27" x1="12.23" y1="26.63" x2="12.23" y2="41.16" gradientUnits="userSpaceOnUse"><stop offset="0" stop-color="#2575a7"/><stop offset="0.55" stop-color="#397bab"/><stop offset="1" stop-color="#457ead"/></linearGradient><linearGradient id="Dégradé_sans_nom_31" x1="15.83" y1="32.2" x2="15.83" y2="39.84" gradientUnits="userSpaceOnUse"><stop offset="0" stop-color="#508db3"/><stop offset="1" stop-color="#5a91b6"/></linearGradient><linearGradient id="Dégradé_sans_nom_19" x1="19.43" y1="34.56" x2="19.43" y2="38.52" gradientUnits="userSpaceOnUse"><stop offset="0" stop-color="#73a5c5"/><stop offset="1" stop-color="#77a7c6"/></linearGradient><linearGradient id="Dégradé_sans_nom_18-3" x1="34.39" y1="39.97" x2="73.92" y2="39.97" xlink:href="#Dégradé_sans_nom_18"/><linearGradient id="Dégradé_sans_nom_35" x1="78.67" y1="39.96" x2="160" y2="39.96" gradientUnits="userSpaceOnUse"><stop offset="0" stop-color="#639ebf"/><stop offset="0.1" stop-color="#69a1c1"/><stop offset="0.68" stop-color="#88b1cd"/><stop offset="1" stop-color="#94b7d1"/></linearGradient></defs><title>surbitcoin</title><g id="surbitcoin"><path class="cls-1" d="M10.05,41.44v4a15.09,15.09,0,0,0-2.86-1V42.49Zm.76-.28v4.62a14.4,14.4,0,0,1,2.84,2V40.12ZM3.59,43.81V44a15.63,15.63,0,0,1,2.84.25V42.77Zm18-6.61V60.13a12.46,12.46,0,0,0,2.83-2.5V36.16Zm4.81,1a17.56,17.56,0,0,0-1.11-2.26h-.1V56.63a17.17,17.17,0,0,0,2.87-9.87A22.44,22.44,0,0,0,26.42,38.17ZM18,38.52v23.2a12,12,0,0,0,2.83-1.13V37.48Zm-3.6,1.32v8.72A12.56,12.56,0,0,1,16,50.72a11.87,11.87,0,0,1,1.21,2.81V38.8Z"/><path class="cls-2" d="M2.83,44V23.4A17,17,0,0,0,0,33.22a22.49,22.49,0,0,0,1.69,8.65A20.5,20.5,0,0,0,2.76,44Z"/><path class="cls-3" d="M6.43,19.89A13,13,0,0,0,3.59,22.4V43.81l2.84-1Z"/><path class="cls-4" d="M10.05,18.28a13.16,13.16,0,0,0-2.86,1.15V42.49l2.86-1.05Z"/><path class="cls-5" d="M13.65,31.45A12.42,12.42,0,0,1,12,29.28a12.63,12.63,0,0,1-1.19-2.65V41.16l2.84-1Z"/><path class="cls-6" d="M17.24,34.18a13.69,13.69,0,0,1-2.83-2v7.64l2.83-1Z"/><path class="cls-7" d="M18,38.52l2.83-1V35.53a15.24,15.24,0,0,1-2.83-1Z"/><path class="cls-8" d="M21.61,37.2l2.83-1v-.23a15.59,15.59,0,0,1-2.83-.24Z"/><path class="cls-9" d="M44,36l-3.05.77a3.72,3.72,0,0,0-.58-2.34,1.86,1.86,0,0,0-2.57-.37,2.25,2.25,0,0,0,.15,2.72c.73,1,3.46,2.52,4.69,4.06a5.4,5.4,0,0,1,1.3,3.8c0,1.89-1.17,4.06-4.41,4.06-3.93,0-5-3-5.13-5.43l3-.76a6.35,6.35,0,0,0,.5,2.63,1.71,1.71,0,0,0,2,1c1-.17,1.11-.93,1.11-1.67a3.1,3.1,0,0,0-1.45-2.32c-.58-.46-1.61-1.34-2.52-2a5.4,5.4,0,0,1-2.61-4.75c0-3.19,2.76-4.59,5.55-4.13C42.24,31.65,43.75,33,44,36Zm11.9-4.64v8.83c0,4.36,0,6-2.08,6s-2.08-1.75-2.08-5.65V31.4h-3v9.93c0,3,0,7.41,5.08,7.41s5.08-4.43,5.08-7.41V31.4Zm12.66,9.43H67.36V48.6h-3V31.33h4.15s4.78-.26,4.78,4.64c0,2.63-1,3.73-2,4.17l2.67,8.45H71Zm-.89-7.07h-.3v4.65H68a2,2,0,0,0,2.22-2.28C70.26,34,68.92,33.76,67.66,33.76Z"/><path class="cls-10" d="M84.6,39.4a3.19,3.19,0,0,0,2.76-3.52c0-4.11-3.75-4.2-5.11-4.2H78.67V48.28h4c2,0,4.92-.75,4.92-4.82C87.63,41,86.46,39.87,84.6,39.4Zm-2.16-5.92a3.13,3.13,0,0,1,2.28.7,2.59,2.59,0,0,1,.51,1.94A2.7,2.7,0,0,1,84.58,38a3,3,0,0,1-2.22.78H81.1V33.48Zm2.22,12.16a2.62,2.62,0,0,1-2.14.81H81.1V40.56h1.26a3,3,0,0,1,2.24.76,3.05,3.05,0,0,1,.64,2.18A3,3,0,0,1,84.66,45.64Zm11,2.61H93.23V31.68h2.42Zm13.48-14.43h-3V48.25h-2.42V33.82h-2.91V31.68h8.31Zm13.57,8.53v.25c0,2.07,0,5.87-4.51,5.87s-4.52-4.7-4.52-5.87c0-.07,0-5.48,0-5.55,0-1.12,0-5.6,4.51-5.6s4.5,3.67,4.5,5.53h-2.38c0-2.4-.19-3.5-2.12-3.5-2.12,0-2.12,1.8-2.12,4.27V42c0,2.18,0,4.47,2.12,4.47s2.12-1.81,2.13-4.11ZM137,37.06c0-1.83,0-5.61-4.61-5.61s-4.6,3.73-4.6,5.6c0,.07,0,5.48,0,5.55,0,2,0,5.87,4.61,5.87S137,44.67,137,42.6Zm-4.6,9.4c-2.17,0-2.17-1.39-2.17-4.47V37.75c0-2.75,0-4.27,2.17-4.27s2.17,1.33,2.17,4.28V42C134.54,44.92,134.54,46.46,132.37,46.46Zm13,1.79h-2.42V31.68h2.42ZM160,31.68V48.25h-1.68l-.73-1.9-3.5-9V48.25h-2.41V31.68h1.79l.62,1.53,3.5,8.56V31.68Z"/></g></svg>