<svg id="Calque_1" data-name="Calque 1" xmlns="http://www.w3.org/2000/svg" viewBox="0 0 160 80"><defs><style>.cls-1{fill:#88c773;}.cls-2{fill:#212a3f;}</style></defs><title>switcheonetwork</title><g id="switcheonetwork"><polygon class="cls-1" points="6.09 49.32 15.35 36.44 12.96 36.42 12.79 36.42 0.03 36.34 0 38.57 11.18 38.65 3.53 49.29 6.09 49.32"/><polygon class="cls-2" points="4.34 41.35 11.99 30.71 9.43 30.68 0.19 43.56 2.59 43.58 2.75 43.58 15.52 43.66 15.54 41.43 4.34 41.35"/><path class="cls-1" d="M25.56,36.55a1.77,1.77,0,0,0-1.13.35,1.11,1.11,0,0,0-.43,1,1.29,1.29,0,0,0,.32,1,2.32,2.32,0,0,0,.87.54,7.23,7.23,0,0,0,1.15.32c.41.11.84.22,1.24.35a7.18,7.18,0,0,1,1.16.54,2.54,2.54,0,0,1,.86.92A3.05,3.05,0,0,1,29.93,43a3.12,3.12,0,0,1-1.14,2.43,4.33,4.33,0,0,1-3,1,5,5,0,0,1-3-.86,2.91,2.91,0,0,1-1.16-2.48h2.48a1.52,1.52,0,0,0,1.72,1.51,1.88,1.88,0,0,0,1.24-.4,1.38,1.38,0,0,0,.46-1.11A1.23,1.23,0,0,0,26.91,42a4.78,4.78,0,0,0-1.48-.59c-.57-.13-1.16-.3-1.73-.48a3.54,3.54,0,0,1-1.48-1,2.79,2.79,0,0,1-.62-1.86,3.14,3.14,0,0,1,1.13-2.51,4.6,4.6,0,0,1,2.94-.94,4.73,4.73,0,0,1,2.88.81,3.11,3.11,0,0,1,1.19,2.48H27.21a1.51,1.51,0,0,0-.49-1A2,2,0,0,0,25.56,36.55Z"/><path class="cls-1" d="M42.45,37.23h2.21l-2.8,9.1H39.38l-1.56-6.11-1.59,6.11H33.75L31,37.23h2.34L35,44.15l1.67-6.92h2.42l1.64,6.92Z"/><path class="cls-1" d="M48.57,34.91a1.41,1.41,0,1,1-1.41-1.4A1.39,1.39,0,0,1,48.57,34.91ZM46,46.33v-9.1h2.31v9.1Z"/><path class="cls-1" d="M54.33,44.42h1.1v1.94H54a3.26,3.26,0,0,1-2.16-.65,2.63,2.63,0,0,1-.75-2.13V39.11h-1V37.23h1V35h2.32v2.27h2v1.88h-2v4.47a.73.73,0,0,0,.21.62A1.13,1.13,0,0,0,54.33,44.42Z"/><path class="cls-1" d="M57.86,45.2a4.64,4.64,0,0,1-1.24-3.4,4.6,4.6,0,0,1,1.24-3.39,4.4,4.4,0,0,1,3.23-1.29,4.56,4.56,0,0,1,2.78.81,4,4,0,0,1,1.5,2.29h-2.5a1.73,1.73,0,0,0-1.78-1.14,1.89,1.89,0,0,0-1.56.73,3.11,3.11,0,0,0-.57,2,3.27,3.27,0,0,0,.57,2,1.93,1.93,0,0,0,1.56.73,1.72,1.72,0,0,0,1.78-1.16h2.5a4.06,4.06,0,0,1-1.53,2.26,4.55,4.55,0,0,1-2.75.83A4.21,4.21,0,0,1,57.86,45.2Z"/><path class="cls-1" d="M69.12,34.15v4.42A3.06,3.06,0,0,1,72,37.06a3.49,3.49,0,0,1,2.56,1,4,4,0,0,1,1,2.85V46.3H73.21v-5a2.24,2.24,0,0,0-.54-1.64,1.91,1.91,0,0,0-1.48-.57,2,2,0,0,0-1.48.57,2.28,2.28,0,0,0-.54,1.64v5H66.8V34.15Z"/><path class="cls-1" d="M81.37,46.46a4.25,4.25,0,0,1-3.23-1.29,4.7,4.7,0,0,1-1.24-3.42,4.56,4.56,0,0,1,1.27-3.39,4.33,4.33,0,0,1,3.26-1.27,4.51,4.51,0,0,1,3.28,1.24A4.37,4.37,0,0,1,86,41.64a8.67,8.67,0,0,1-.06.89H79.3A2.21,2.21,0,0,0,80,44a2.14,2.14,0,0,0,3.23-.46h2.5a4.08,4.08,0,0,1-1.53,2.13A4.5,4.5,0,0,1,81.37,46.46Zm1.54-6.86a2.12,2.12,0,0,0-1.48-.54A2.09,2.09,0,0,0,80,39.6a2.27,2.27,0,0,0-.7,1.45h4.31a2.06,2.06,0,0,0-.67-1.45Z"/><path class="cls-1" d="M88.51,45.17a4.53,4.53,0,0,1-1.35-3.42,4.46,4.46,0,0,1,1.35-3.39,5,5,0,0,1,6.71,0,4.51,4.51,0,0,1,1.35,3.39,4.52,4.52,0,0,1-4.72,4.71A4.53,4.53,0,0,1,88.51,45.17Zm3.34-.64a2.24,2.24,0,0,0,1.67-.73,3.26,3.26,0,0,0,0-4,2.31,2.31,0,0,0-3.31,0,2.8,2.8,0,0,0-.67,2,2.73,2.73,0,0,0,.67,2A2.18,2.18,0,0,0,91.85,44.53Z"/><path class="cls-2" d="M105.94,35h1.16V46.36h-1.16l-6.36-9.51v9.51H98.42V35h1.16l6.36,9.51Z"/><path class="cls-2" d="M113.32,46.52a4,4,0,0,1-3.12-1.29,4.79,4.79,0,0,1-1.22-3.4,4.66,4.66,0,0,1,1.22-3.37,4.13,4.13,0,0,1,3.17-1.26,4,4,0,0,1,3.1,1.21,4.18,4.18,0,0,1,1.16,3c0,.3,0,.59,0,.89h-7.41a3.52,3.52,0,0,0,.94,2.42,2.89,2.89,0,0,0,2.21.89,3,3,0,0,0,1.78-.48,2.58,2.58,0,0,0,1-1.24h1.24a4.27,4.27,0,0,1-1.45,1.91A4.61,4.61,0,0,1,113.32,46.52Zm3.12-5.15a3.09,3.09,0,0,0-.88-2.37,3.22,3.22,0,0,0-4.42,0,3.4,3.4,0,0,0-1,2.37Z"/><path class="cls-2" d="M123.5,38.28H121v5.95a1.36,1.36,0,0,0,.27.94,1.29,1.29,0,0,0,.95.27h1.29v.92H122a1.87,1.87,0,0,1-2.1-2.13V38.28h-1.24v-.92h1.24V35.1h1.16v2.26h2.48Z"/><path class="cls-2" d="M135.78,37.36H137l-2.86,9H133l-2.23-7.57-2.27,7.57h-1.15l-2.91-9h1.21l2.26,7.76,2.32-7.76h1.16l2.18,7.73Z"/><path class="cls-2" d="M141.9,46.52a4.13,4.13,0,0,1-3.15-1.29,4.71,4.71,0,0,1-1.21-3.37,4.54,4.54,0,0,1,1.29-3.37,4.63,4.63,0,0,1,6.41,0,4.54,4.54,0,0,1,1.29,3.37,4.42,4.42,0,0,1-1.34,3.37A4.62,4.62,0,0,1,141.9,46.52Zm0-.94a3.38,3.38,0,0,0,2.42-1,4.24,4.24,0,0,0,.06-5.47,3.19,3.19,0,0,0-2.37-1,3.15,3.15,0,0,0-2.35,1,3.82,3.82,0,0,0-.94,2.75,4,4,0,0,0,.89,2.75,3,3,0,0,0,2.29,1Z"/><path class="cls-2" d="M149.25,37.36v1.48A2.76,2.76,0,0,1,152,37.2v1.21h-.33a2.49,2.49,0,0,0-1.83.65,3.06,3.06,0,0,0-.62,2.21v5.09h-1.16v-9Z"/><path class="cls-2" d="M154.72,46.36h-1.16V34.15h1.16v7.22l3.61-4H160l-4.36,4.44L160,46.36h-1.59l-3.72-4Z"/></g></svg>