<svg id="Calque_1" data-name="Calque 1" xmlns="http://www.w3.org/2000/svg" viewBox="0 0 160 80"><defs><style>.cls-1{fill:#166674;}.cls-2{fill:#030202;}.cls-3{fill:#646869;}.cls-4{fill:#6c9b9f;}.cls-5{fill:#fff;}</style></defs><title>therocktrading</title><g id="therocktrading"><polygon class="cls-1" points="9.86 28.81 0 28.81 0 30.47 3.86 30.47 3.86 39.72 5.98 39.72 5.98 30.47 9.86 30.47 9.86 28.81"/><polygon class="cls-1" points="23.66 28.76 23.66 33.38 17.99 33.38 17.99 28.76 15.87 28.76 15.87 39.72 17.99 39.72 17.99 35.14 23.66 35.14 23.66 39.72 25.78 39.72 25.78 28.76 23.66 28.76"/><polygon class="cls-1" points="39.83 38.01 34.74 38.01 34.74 34.98 39.5 34.98 39.5 33.27 34.74 33.27 34.74 30.52 39.72 30.52 39.72 28.76 34.74 28.76 32.88 28.76 32.62 28.76 32.62 39.72 34.74 39.72 34.74 39.72 39.83 39.72 39.83 38.01"/><path class="cls-2" d="M53.22,36.2a3.41,3.41,0,0,0-1.47-1.64h0a3,3,0,0,0,1.85-2.74,3.06,3.06,0,0,0-2.86-3v0H46.22V39.72h2.1V35.08h.6c.82,0,1.33.28,2,1.31s1.82,3.33,1.82,3.33h2.4Zm-4.9-5.79h1.8a1.52,1.52,0,0,1,0,3h-1.8Z"/><path class="cls-2" d="M66.06,28.65a5.6,5.6,0,1,0,0,11.18,5.6,5.6,0,1,0,0-11.18Zm0,9.37a3.78,3.78,0,1,1,3.83-3.78A3.67,3.67,0,0,1,66.09,38Z"/><path class="cls-2" d="M88,36.84A7,7,0,0,1,84.46,38c-2.31,0-4.19-1.39-4.19-3.74s1.88-3.74,4.19-3.74A7,7,0,0,1,88,31.65v-2a7,7,0,0,0-3.56-1c-3.7,0-6.37,2.18-6.37,5.59s2.31,5.59,6.37,5.59A7,7,0,0,0,88,38.88Z"/><polygon class="cls-2" points="104.39 39.72 99.04 33.94 103.13 28.81 100.71 28.81 96.8 33.72 96.71 33.8 96.71 28.81 94.54 28.81 94.54 39.72 96.71 39.72 96.71 34.42 101.61 39.72 104.39 39.72"/><polygon class="cls-1" points="4.07 50.57 4.07 45.73 1.76 45.73 1.76 44.79 7.77 44.79 7.77 45.73 5.45 45.73 5.45 50.57 4.07 50.57"/><polygon class="cls-3" points="7.66 44.9 1.87 44.9 1.87 45.62 4.17 45.62 4.17 50.46 5.34 50.46 5.34 45.62 7.66 45.62 7.66 44.9"/><path class="cls-1" d="M22.44,48.7a1.94,1.94,0,0,0-.9-.87h0a1.62,1.62,0,0,0,1.14-1.45,1.77,1.77,0,0,0-1.77-1.59H18.13v5.78h1.29V48.11h.37A1.35,1.35,0,0,1,21,48.8c.4.54,1.12,1.76,1.12,1.76h1.48Zm-3-3.07h1.11a.85.85,0,0,1,.82.79.86.86,0,0,1-.82.8H19.42Z"/><path class="cls-3" d="M22.2,50.45c-.14-.24-.74-1.23-1.1-1.72A1.45,1.45,0,0,0,19.79,48h-.48v2.45H18.23V44.89H20.9a1.65,1.65,0,0,1,1.67,1.48,1.5,1.5,0,0,1-1.07,1.35l-.19.07.18.13h0a1.93,1.93,0,0,1,.85.83l1.07,1.69Zm-2.89-3.11h1.32v0a.94.94,0,0,0,.83-.89,1,1,0,0,0-.82-.89H19.31Z"/><path class="cls-1" d="M38.67,50.57h1.48l-2.92-5.78H35.86l0,0L33,50.57h1.47l.66-1.38H38Zm-3.08-2.31,1-2,1,2Z"/><path class="cls-3" d="M38.74,50.47l-.67-1.39h-3l-.66,1.39H33.2L36,44.9h1.21L40,50.47Zm-3.32-2.1h2.3L36.56,46Z"/><path class="cls-1" d="M53.35,44.79H50.3v5.78h3.05a2.91,2.91,0,1,0,0-5.78Zm-.1,4.85H51.62V45.73h1.64a2,2,0,1,1,0,3.91Z"/><path class="cls-3" d="M53.15,50.47H50.41V44.89h2.94a2.81,2.81,0,1,1,0,5.58Zm-1-4.85h-.59v4.12h1.74a2.06,2.06,0,1,0,0-4.12Z"/><rect class="cls-1" x="67.27" y="44.79" width="1.32" height="5.79"/><rect class="cls-3" x="65.15" y="47.13" width="5.57" height="1.1" transform="translate(115.61 -20.25) rotate(90)"/><polygon class="cls-1" points="84.49 44.79 84.49 48.67 80.82 44.79 79.5 44.79 79.5 50.58 80.82 50.58 80.82 46.71 84.49 50.58 85.78 50.58 85.78 44.79 84.49 44.79"/><polygon class="cls-3" points="84.53 50.47 80.71 46.44 80.71 50.47 79.61 50.47 79.61 44.9 80.77 44.9 84.59 48.95 84.59 44.9 85.67 44.9 85.67 50.47 84.53 50.47"/><path class="cls-1" d="M101.86,47.6h-1.6v1h1v.9a3.67,3.67,0,0,1-.94.12c-1.59,0-2.59-.62-2.59-1.88s1.16-2,2.58-2a4.69,4.69,0,0,1,2.18.59v-1.1a4.81,4.81,0,0,0-2.19-.51c-2.28,0-3.93,1.17-3.93,3s1.43,3,3.93,3a4.92,4.92,0,0,0,2.36-.6V47.6Z"/><path class="cls-3" d="M100.34,50.58c-2.39,0-3.82-1.09-3.82-2.9s1.54-2.9,3.82-2.9a4.71,4.71,0,0,1,2.09.47v.85a5,5,0,0,0-2.08-.52c-1.61,0-2.69.85-2.69,2.12s1,2,2.7,2a4.09,4.09,0,0,0,1-.12l.08,0v-1.1h-1v-.74h2.22V50A4.93,4.93,0,0,1,100.34,50.58Z"/><circle class="cls-1" cx="137.74" cy="40" r="22.26"/><path class="cls-4" d="M137.74,61.22a21.24,21.24,0,1,1,15-6.22A21.09,21.09,0,0,1,137.74,61.22Z"/><path class="cls-5" d="M137.74,60.68a20.67,20.67,0,1,1,14.62-6.06A20.5,20.5,0,0,1,137.74,60.68Z"/><path class="cls-4" d="M122.73,55a21.25,21.25,0,0,0,35.32-8.82c-.55.44-1.77.93-4-.4a13.67,13.67,0,0,1-4.67-3.84A11,11,0,0,1,147.73,37a13,13,0,0,0-2.52-6.3,22.57,22.57,0,0,0-4.6-4.47c-1.49-1.08-1.89-1.37-2.38-1.17s-1.2,2-1.69,2.86-1.4,2.89-1.78,3.64a3.34,3.34,0,0,1-1.91,2c-1.09.32-1.09-.06-1.46,0s-.86.72-1.89,2.24-2.47,3.37-3.33,4.72-1.37,1.63-2.06,1.66-1.4-.74-1.69-1-.74-.4-1.31.2-3.28,3.92-3.77,4.52A21.13,21.13,0,0,0,122.73,55Z"/><path class="cls-1" d="M155.87,48.67c-.69-1.49-4-1.54-7.1-5.21-3.3-4-1.72-6.67-3.78-10.39s-6-6.19-6.93-6.85c0,0,.63,3.73.86,6s.4,4-2.64,4.09c-1.21.05-1.87.16-2.43.14-.92,0-1.31-.21-1.58,0-.79.47-.42.87-.54,1.63a4.55,4.55,0,0,1-2.32,2.69,1.72,1.72,0,0,1,.92,1.43c0,1-3.1,5.24-3.1,5.24a10.76,10.76,0,0,0,4.93-1.89c2.19-1.77,2-3.55,3.09-4a1.48,1.48,0,0,1,1.92,1.78c-.28,1.25-.84,3.17-4.75,6.9-.27.25-1.58,1.64-2.95,3.09s-2.66,2.79-2.52,3.47a4.31,4.31,0,0,1,0,.92A20.71,20.71,0,0,0,155.9,49.9,2.3,2.3,0,0,0,155.87,48.67Z"/></g></svg>