<svg id="Calque_1" data-name="Calque 1" xmlns="http://www.w3.org/2000/svg" viewBox="0 0 160 80"><defs><style>.cls-1{fill:#058c6c;}</style></defs><title>tidex</title><g id="tidex"><g id="Group-2"><polygon id="х" points="126.71 36.76 134.09 25.59 138.88 25.59 129.21 39.55 140 55 134.96 55 126.59 42.5 118.34 55 113.39 55 124.09 39.51 114.3 25.59 119.3 25.59 126.71 36.76"/><polyline id="х-2" data-name="х" class="cls-1" points="126.59 42.5 118.34 55 113.39 55 124.09 39.51 114.3 25.59 119.3 25.59 126.71 36.76 126.71 36.76"/><rect id="Rectangle" x="89.75" y="25" width="19.67" height="4.62"/><rect id="Rectangle-Copy" x="89.75" y="37.69" width="19.67" height="4.62"/><rect id="Rectangle-Copy-2" x="89.75" y="50.39" width="19.67" height="4.62"/><polygon id="Triangle-2" class="cls-1" points="129.14 39.52 126.53 42.57 126.6 36.61 129.14 39.52"/></g><path id="tidex-2" data-name="tidex" d="M51.33,55H47.18V25.26h4.15Zm7.23-29.74h10.2a20.21,20.21,0,0,1,5.72.84,15.42,15.42,0,0,1,5.16,2.65,13.45,13.45,0,0,1,3.74,4.62,14.83,14.83,0,0,1,1.43,6.76,14.4,14.4,0,0,1-1.43,6.62,13.83,13.83,0,0,1-3.74,4.62,16,16,0,0,1-5.16,2.73,19,19,0,0,1-5.72.9H58.56Zm4.16,26.09h5.2a15.9,15.9,0,0,0,5-.76,11.47,11.47,0,0,0,3.95-2.18,9.73,9.73,0,0,0,2.58-3.53,11.6,11.6,0,0,0,.93-4.75,11.92,11.92,0,0,0-.93-4.87,9.49,9.49,0,0,0-2.58-3.51,11.4,11.4,0,0,0-3.95-2.14,16.2,16.2,0,0,0-5-.73h-5.2Z"/><polygon id="Path" points="35.27 25.26 43.23 25.26 43.23 28.92 35.27 28.92 35.27 25.26"/><polygon id="Path-2" data-name="Path" class="cls-1" points="33.69 55 29.53 55 29.53 28.92 20 28.92 20 25.26 33.69 25.26 33.69 28.92 33.69 55"/></g></svg>