<svg id="Calque_1" data-name="Calque 1" xmlns="http://www.w3.org/2000/svg" viewBox="0 0 160 80"><defs><style>.cls-1{fill:#8a727a;}.cls-2{fill:#8dbfb2;}.cls-3{fill:#f06061;}.cls-4{fill:#f0ba4d;}.cls-5{fill:#1e1e1e;}</style></defs><title>tokenstore</title><g id="tokenstore"><path class="cls-1" d="M12.62,48.15,8.16,40l4.46-8.14L16.33,40Z"/><path class="cls-1" d="M10.82,47.78,0,40,10.82,32.2,6.47,40Zm3.65-15.39L26.08,40l-11.61,7.6,3.6-7.6Z"/><path class="cls-2" d="M31.53,31.85,36,40l-4.46,8.16L27.82,40Z"/><path class="cls-2" d="M33.33,32.2,44.15,40,33.33,47.78,37.66,40ZM29.68,47.59l-8.31-5.44L21.16,38l8.52-5.61L26.08,40Z"/><path class="cls-3" d="M30.23,49.45l-8.17,4.46-8.14-4.46,8.14-3.7Z"/><path class="cls-3" d="M29.85,51.25,22.06,62.08,14.28,51.25l7.78,4.34ZM14.47,47.61,22.06,36l7.6,11.62L22.06,44Z"/><path class="cls-4" d="M13.92,30.55l8.14-4.46,8.17,4.46-8.17,3.7Z"/><path class="cls-4" d="M14.28,28.75l7.78-10.83,7.79,10.83-7.79-4.36Zm15.38,3.64L22.06,44,14.47,32.39,22.06,36Z"/><path class="cls-5" d="M54.3,36.5H51V34.79h8.46V36.5h-3.3v8.73H54.32V36.5ZM60.35,40a5.34,5.34,0,0,1,5.47-5.38A5.28,5.28,0,0,1,71.25,40a5.45,5.45,0,0,1-10.9,0Zm9,0a3.54,3.54,0,1,0-3.52,3.7A3.52,3.52,0,0,0,69.32,40Zm4.14-5.21H75.3V40l5-5.23H82.5l-4.32,4.48,4.52,5.94H80.49l-3.57-4.7L75.3,42.17v3H73.46Zm10.79,0H92v1.64h-5.9v2.71h5.23v1.64H86.09v2.79h6v1.64h-7.8V34.79Zm10,0h1.71l5.58,7.2v-7.2h1.8V45.21h-1.53L96,37.78v7.43H94.25V34.79Zm15.53,8.91,1.11-1.31a4.77,4.77,0,0,0,3.28,1.35c1.13,0,1.84-.53,1.84-1.33s-.42-1.15-2.35-1.61c-2.21-.53-3.48-1.18-3.48-3.13,0-1.79,1.49-3,3.57-3A5.85,5.85,0,0,1,117.51,36l-1,1.37a4.64,4.64,0,0,0-2.83-1.06c-1.07,0-1.71.55-1.71,1.26s.47,1.15,2.46,1.64c2.19.53,3.35,1.33,3.35,3.08,0,2-1.53,3.1-3.73,3.1a6.4,6.4,0,0,1-4.32-1.66Zm12.54-7.2H119V34.79h8.47V36.5h-3.31v8.73h-1.83V36.5Zm6.07,3.5a5.34,5.34,0,0,1,5.48-5.38A5.27,5.27,0,0,1,139.26,40a5.34,5.34,0,0,1-5.47,5.38A5.28,5.28,0,0,1,128.36,40Zm9,0a3.54,3.54,0,1,0-3.53,3.7A3.52,3.52,0,0,0,137.34,40Zm4.12-5.21h4.65c2.44,0,3.88,1.31,3.88,3.33a3.1,3.1,0,0,1-2.49,3.14l2.82,4h-2.15l-2.59-3.64h-2.26v3.64h-1.84V34.79ZM146,40c1.3,0,2.15-.69,2.15-1.78s-.8-1.72-2.15-1.72h-2.66V40Zm6.24-5.17H160v1.64h-5.9v2.71h5.21v1.64H154v2.79h6v1.64h-7.8V34.79Z"/></g></svg>