<svg id="Calque_1" data-name="Calque 1" xmlns="http://www.w3.org/2000/svg" viewBox="0 0 160 80"><defs><style>.cls-1{fill:#fff;}.cls-2{fill:#1d1d1b;}</style></defs><title>tuxexchange</title><g id="tuxexchange"><path class="cls-1" d="M21.14,18.82A21.18,21.18,0,0,1,22,61.17a21.18,21.18,0,1,1-.84-42.35Z"/><path d="M22.07,51.22l.12.33-.09.05a6.92,6.92,0,0,0-1.37.37c-.65.31-1.23.74-1.86,1.09a2,2,0,0,1-2.72-.33,2,2,0,0,0-1.6-.48,1.82,1.82,0,0,1-.88-.32,14.22,14.22,0,0,1-1.34-.83A8.79,8.79,0,0,1,11.06,50c.46.15.91.32,1.37.46a2,2,0,0,0,2.1-.47,8,8,0,0,1,2.94-1.7,2,2,0,0,0,.32-.17,1,1,0,0,0-1.19-.35,16.08,16.08,0,0,0-1.82,1.11c-.29.19-.52.46-.8.66a2.36,2.36,0,0,1-2.24.28A7.84,7.84,0,0,1,8,47.56a.89.89,0,0,0-.37-.27A2.4,2.4,0,0,1,6.2,44.58a.68.68,0,0,0-.28-.75,1.1,1.1,0,0,1-.46-1.41,7.88,7.88,0,0,1,1.88-3A8.63,8.63,0,0,0,9.16,37a2.57,2.57,0,0,1,.18-.33,6.92,6.92,0,0,0,1-2.44c.33-1.67,1.58-2.65,2.9-3.54A19,19,0,0,1,19.5,28s.08,0,.19-.09L18,26.31a11.1,11.1,0,0,1-2.85-3.47c-.16-.36-.29-.74-.47-1.21l2.72.68c2.53.63,5.09,1.2,7.6,1.92a12.64,12.64,0,0,1,3,1.43,18.17,18.17,0,0,0,3.42,1.63,13.34,13.34,0,0,1,4.85,2.87,15.93,15.93,0,0,1,2.84,3.89,25.82,25.82,0,0,1,2.23,5.67,4.42,4.42,0,0,1,0,1.62A21.17,21.17,0,0,1,37.6,51.42a21,21,0,0,1-10.66,7.94c-1,.33-1,.37-1.57-.54-.73-1.21-1.44-2.42-2.07-3.68a3.84,3.84,0,0,1-.22-2.75.72.72,0,0,1,.56-.55,12.32,12.32,0,0,0,3.76-1.42c2.4-1.56,3.56-3.64,3-6.59-.16-.81-.4-1.61-.62-2.41-.07-.25-.17-.56-.53-.42s-.26.42-.17.67a8,8,0,0,1,.42,4.3,5,5,0,0,1-3.4,4c-.77.26-1.56.44-2.34.68C23.17,50.83,22.64,51,22.07,51.22Z"/><path class="cls-1" d="M14.3,37.23l-2.22,3a3.83,3.83,0,0,1-.54-4c.17-.32.38-.45.71-.25Z"/><path class="cls-2" d="M52.83,36.56h-3V34.51h8.37v2.05h-3v8.73H52.83Z"/><path class="cls-2" d="M59.84,34.51h2.43v6c0,2.11.66,2.84,1.87,2.84s1.91-.73,1.91-2.84v-6H68.4V40.3c0,3.62-1.47,5.19-4.26,5.19s-4.3-1.57-4.3-5.19Z"/><path class="cls-2" d="M72.58,39.75l-2.81-5.24H72.5l.93,2c.25.49.48,1.05.79,1.73h.07c.25-.68.46-1.24.68-1.73l.86-2h2.59l-2.79,5.36,3,5.42H75.89l-1.06-2.2c-.28-.56-.53-1.11-.81-1.77H74c-.27.66-.5,1.21-.75,1.77l-1,2.2H69.61Z"/><path class="cls-2" d="M83.48,34.51h6.76v2.05H85.93v2.17H89.6v2H85.93v2.48h4.48v2H83.48Z"/><path class="cls-2" d="M94.41,39.75,91.6,34.51h2.73l.92,2c.25.49.48,1.05.8,1.73h.06c.25-.68.47-1.24.68-1.73l.86-2h2.6l-2.8,5.36,3,5.42H97.72l-1.06-2.2c-.28-.56-.53-1.11-.81-1.77h-.07c-.26.66-.49,1.21-.74,1.77l-1,2.2h-2.6Z"/><path class="cls-2" d="M106.07,34.31a4.51,4.51,0,0,1,3.19,1.41l-1.34,1.5a2.58,2.58,0,0,0-1.82-.81c-1.51,0-2.68,1.31-2.68,3.48s1,3.5,2.61,3.5a2.63,2.63,0,0,0,2-1l1.34,1.47A4.4,4.4,0,0,1,106,45.49c-2.79,0-5.08-1.9-5.08-5.52S103.29,34.31,106.07,34.31Z"/><path class="cls-2" d="M111,34.51h2.44v4.15h3.72V34.51h2.43V45.29h-2.43v-4.5h-3.72v4.5H111Z"/><path class="cls-2" d="M127.21,42.73h-3.3l-.67,2.56h-2.48l3.39-10.78h2.91l3.39,10.78h-2.58Zm-.49-1.9-.27-1c-.3-1.08-.58-2.35-.87-3.48h-.07c-.25,1.14-.55,2.4-.84,3.48l-.27,1Z"/><path class="cls-2" d="M131.58,34.51h2.49l2.82,5.36L138,42.25H138c-.12-1.14-.32-2.66-.32-3.94v-3.8H140V45.29h-2.5l-2.81-5.37-1.06-2.35h-.06c.11,1.19.31,2.63.31,3.9v3.82h-2.33Z"/><path class="cls-2" d="M147.35,34.31a4.67,4.67,0,0,1,3.36,1.41l-1.34,1.5a2.68,2.68,0,0,0-2-.81c-1.65,0-2.84,1.31-2.84,3.48s1,3.5,3,3.5a1.92,1.92,0,0,0,1.14-.33V41.21h-1.78v-2h3.95v5a5.71,5.71,0,0,1-3.62,1.31c-2.91,0-5.23-1.9-5.23-5.52S144.42,34.31,147.35,34.31Z"/><path class="cls-2" d="M153.07,34.51h6.76v2.05h-4.31v2.17h3.67v2h-3.67v2.48H160v2h-6.93Z"/></g></svg>