<svg id="Calque_1" data-name="Calque 1" xmlns="http://www.w3.org/2000/svg" viewBox="0 0 160 80"><defs><style>.cls-1{fill:#0062df;}.cls-2{fill:#093687;}</style></defs><title>upbit</title><g id="upbit"><path class="cls-1" d="M42.18,55.75,50,32l3.76,1.23-2.69-8.89H74.33c4.23,0,6.42,3.77,4.9,8.4l-1.47,4.49a.87.87,0,0,1-.07.17l-.06.17A12.66,12.66,0,0,1,76,40.67c-2.21,3-5.58,5-8.58,5H55.7l-3.31,10.1ZM57.43,40.4h6.19a4.5,4.5,0,0,0,3.83-3.08L69,32.68c.56-1.7-.25-3.09-1.8-3.09H61ZM15.36,55.75a6.82,6.82,0,0,1-.79-.07,5.8,5.8,0,0,1-1.29-.32,4.63,4.63,0,0,1-2.1-1.43,5.4,5.4,0,0,1-.78-1.41,5.88,5.88,0,0,1-.23-.79,8.22,8.22,0,0,1,.2-4.06l.18-.61L18,24.35h10.3L20.73,47.41a2.26,2.26,0,0,0,.81,2.86,1.86,1.86,0,0,0,.95.23h5.09l8.59-26.15H47.81l-8.53,8.89L43.88,32,36.07,55.75Z"/><path class="cls-2" d="M112.09,55.65l6.2-18.84H128.5l-6.2,18.84ZM119.87,32l2.53-7.72h10.21L130.08,32ZM77.47,55.75l10.31-31.4H98L94.67,34.44h11.64a5.13,5.13,0,0,1,5.35,5,8.74,8.74,0,0,1-.36,3.09l-.1.33-1.47,4.49c-1.52,4.64-6.2,8.41-10.42,8.41ZM89.4,50.5h6.2a4.48,4.48,0,0,0,3.82-3.09l1.52-4.63c.56-1.7-.24-3.09-1.79-3.09H93Zm46.42,5.15c-.14,0-.71-.06-.8-.07a6,6,0,0,1-2.24-.76l-.18-.12a5.42,5.42,0,0,1-2.14-4,8.74,8.74,0,0,1,.36-3.09c.08-.29.08-.27.1-.34l7.55-23h10.21l-3.32,10.1H150l-1.72,5.25h-4.64l-1.42,4.3c-.38,1.18-.75,2.33-1,3.46a2.51,2.51,0,0,0,.41,2.46,3.51,3.51,0,0,0,2.44.68h3.35l-1.69,5.15Z"/></g></svg>