<svg id="Calque_1" data-name="Calque 1" xmlns="http://www.w3.org/2000/svg" viewBox="0 0 160 80"><defs><style>.cls-1{fill:#010100;}.cls-2{fill:#424242;}.cls-3{fill:#999;}.cls-4{fill:#7f7f7f;}.cls-5{fill:#c9c9c9;}.cls-6{fill:#040404;}.cls-7{fill:#030303;}.cls-8{fill:#020202;}.cls-9{fill:#050505;}.cls-10{fill:#f9c119;}.cls-11{fill:#fac21a;}.cls-12{fill:#fbc31a;}.cls-13{fill:#fbc21a;}</style></defs><title>vaultoro</title><g id="vaultoro"><path class="cls-1" d="M40.76,19.68V60.32H.11c-.09,0-.12,0-.11-.11s0-.22,0-.33V20.11c0-.11,0-.22,0-.33s0-.12.11-.11H40.76ZM8.13,22.49h-5c-.26,0-.27,0-.27.25v10c0,.24,0,.25.28.25H13.17c.27,0,.27,0,.27-.25q0-5,0-10c0-.24,0-.25-.27-.25Zm12.28,0h-5c-.29,0-.3,0-.3.28v10c0,.26,0,.27.25.27H25.45c.24,0,.24,0,.24-.28v-10c0-.27,0-.28-.3-.28Zm12.25,0h-5c-.3,0-.3,0-.3.28v10c0,.26,0,.27.25.27H37.7c.24,0,.24,0,.24-.28v-10c0-.27,0-.28-.3-.28ZM8.11,45.26h5c.3,0,.31,0,.31-.28V35c0-.27,0-.28-.25-.28H3.07c-.24,0-.25,0-.25.28V45c0,.27,0,.28.3.28Zm12.3-10.52h-5c-.29,0-.29,0-.3.28v9.8a1.82,1.82,0,0,0,0,.33.12.12,0,0,0,.08.1.74.74,0,0,0,.21,0h10c.29,0,.29,0,.29-.28V35c0-.26,0-.27-.3-.27ZM8.14,57.51h5.09c.15,0,.24,0,.22-.2a1.47,1.47,0,0,1,0-.21V47.4a.85.85,0,0,1,0-.16c0-.17,0-.3-.23-.25h-10a1.82,1.82,0,0,0-.33,0,.12.12,0,0,0-.1.08.74.74,0,0,0,0,.21v9.92c0,.29,0,.3.33.3ZM20.44,47H15.35c-.27,0-.28,0-.28.25v10c0,.24,0,.25.27.25H25.42c.27,0,.27,0,.27-.25v-10c0-.24,0-.25-.27-.25ZM32.58,57.51h5.09c.27,0,.27,0,.27-.25v-10c0-.24,0-.25-.27-.25H27.59c-.26,0-.27,0-.27.25v10c0,.24,0,.25.27.25Zm.05-22.77H27.54c-.15,0-.24,0-.22.2s0,.25,0,.38v1.57c0,.54,0,1.08,0,1.62s.13,1,.12,1.53c0,1.64,0,3.28,0,4.93,0,.28,0,.29.28.29h9.91c.32,0,.32,0,.32-.31V35c0-.29,0-.3-.33-.3Z"/><ellipse class="cls-2" cx="159.95" cy="43.74" rx="0.08" ry="0.77"/><ellipse class="cls-3" cx="159.95" cy="42.82" rx="0.08" ry="0.54"/><ellipse class="cls-4" cx="159.95" cy="44.5" rx="0.08" ry="0.31"/><ellipse class="cls-5" cx="159.95" cy="44.88" rx="0.08" ry="0.23"/><path class="cls-6" d="M80,44.15c0,1.57,0,3.15,0,4.72a2.64,2.64,0,0,0,.15.8.84.84,0,0,0,.72.58,2.51,2.51,0,0,0,.67,0c.31,0,.31-.07.31.26s0,.83,0,1.25c0,.14,0,.23-.2.22a11.21,11.21,0,0,1-1.3.11,8.09,8.09,0,0,1-.95-.21,1.61,1.61,0,0,1-1.14-1.3,4,4,0,0,1-.1-1,.37.37,0,0,0-.09-.16.18.18,0,0,0-.13.06,5.43,5.43,0,0,0-.42.53,8.75,8.75,0,0,1-1,1.06,6.57,6.57,0,0,1-1.8,1.15,7.14,7.14,0,0,0-1.2.26c-.42.06-.84.06-1.26.08a7.34,7.34,0,0,1-1.24,0,5.78,5.78,0,0,1-2.83-1,4,4,0,0,1-1.39-1.69,4.33,4.33,0,0,1-.39-1.74c0-.32,0-.65,0-1a3.84,3.84,0,0,1,.86-2.35,5.09,5.09,0,0,1,2.44-1.56,12.12,12.12,0,0,1,1.87-.45,5.94,5.94,0,0,0,.77-.11,2.26,2.26,0,0,1,.77-.09c.23,0,.42-.16.66-.12a1.67,1.67,0,0,0,.66-.08,11.39,11.39,0,0,1,1.31-.13A3.64,3.64,0,0,0,76.94,42a1.66,1.66,0,0,0,1-1.46,5.65,5.65,0,0,0,0-.92,2.77,2.77,0,0,0-1.41-2.35,6.24,6.24,0,0,0-1.23-.44,4.16,4.16,0,0,0-1-.1c-.36,0-.72,0-1.08,0a4.42,4.42,0,0,0-2.22.54,3.44,3.44,0,0,0-1.75,2.87c0,.26-.14.39-.4.39-.52,0-1,0-1.57,0-.19,0-.22-.09-.18-.22.12-.44.07-.9.22-1.32a7.8,7.8,0,0,1,.5-1.2,4.82,4.82,0,0,1,2-2,6.64,6.64,0,0,1,2.13-.73,6.25,6.25,0,0,0,1-.11,3,3,0,0,1,1.15-.08,9.78,9.78,0,0,1,3.08.54,3.86,3.86,0,0,1,1.3.78,4.19,4.19,0,0,1,1.15,1.58,8.57,8.57,0,0,1,.3,1A6.61,6.61,0,0,1,80,40.25C80,41.55,80,42.85,80,44.15Zm-2.06.63c0-.36,0-.72,0-1.08,0-.2,0-.39,0-.59a1,1,0,0,0-.45.3s-.07,0-.11,0c-.31.06-.62.16-.93.23-.51.13-1,.12-1.55.3-.22.07-.47,0-.72.1s-.53-.06-.76.12c-.32-.08-.61.11-.93.12a7.17,7.17,0,0,0-.89.21,5,5,0,0,0-1.89.77,3.85,3.85,0,0,0-.83.88,3.07,3.07,0,0,0,1,3.94,3.52,3.52,0,0,0,2.19.7c.41,0,.8,0,1.21-.09a6.42,6.42,0,0,0,1.52-.4,5.37,5.37,0,0,0,2.38-1.94A4.35,4.35,0,0,0,77.94,46C78,45.61,77.94,45.2,77.94,44.78Z"/><path class="cls-7" d="M57.44,52.09c-.38,0-.76,0-1.14,0-.12,0-.12-.06-.15-.16a9,9,0,0,0-.38-1c-.26-.59-.44-1.19-.67-1.79s-.5-1.34-.75-2a18.42,18.42,0,0,0-.91-2.33A8.37,8.37,0,0,0,53,43.48a6.59,6.59,0,0,0-.45-1.27,19.15,19.15,0,0,0-.84-2.1,8,8,0,0,0-.58-1.71c-.21-.61-.45-1.22-.69-1.83-.4-1.06-.79-2.12-1.21-3.18-.2-.51-.37-1-.56-1.55-.27-.74-.52-1.48-.83-2.2,0-.11-.08-.23-.11-.34s-.06-.3.21-.3h1.9c.19,0,.2,0,.28.21.17.43.35.87.49,1.31.09.29.26.55.33.84a5.41,5.41,0,0,0,.28.8c.25.64.48,1.29.69,1.94.09.29.26.55.33.84a4.49,4.49,0,0,0,.29.8c.25.64.47,1.28.68,1.94.09.29.26.54.33.84a4.8,4.8,0,0,0,.29.8c.25.64.46,1.29.69,1.93a7.81,7.81,0,0,0,.33,1c.15.32.26.66.38,1,.23.63.48,1.25.69,1.89.09.29.25.55.32.84s.21.57.3.85c.2.65.48,1.28.69,1.93.07.23.14.45.22.67,0,0,0,.07.06.06a.12.12,0,0,0,.07-.07,4.06,4.06,0,0,0,.29-.64,8.8,8.8,0,0,1,.43-1.18c.17-.38.23-.8.42-1.18a7.47,7.47,0,0,0,.35-1c.19-.54.39-1.07.58-1.61l.35-1c.25-.69.52-1.38.76-2.07s.42-1.38.71-2,.43-1.27.7-1.88.54-1.51.8-2.27c.19-.53.4-1.06.59-1.6.13-.38.24-.77.39-1.13.27-.64.42-1.31.71-1.93.13-.27.17-.58.31-.85h2.17c.14,0,.21,0,.15.18-.42,1-.74,2-1.13,3-.32.81-.62,1.63-.91,2.45s-.53,1.47-.82,2.2c-.2.48-.33,1-.51,1.47s-.47,1.18-.68,1.78c-.37,1-.75,2.11-1.16,3.15-.31.81-.62,1.62-.92,2.43s-.62,1.7-.92,2.55a13.37,13.37,0,0,1-.83,2.09c-.05.48-.36.87-.45,1.33,0,.08-.09.15-.1.23s-.17.24-.35.24C58.16,52.08,57.8,52.09,57.44,52.09Z"/><path class="cls-6" d="M131.82,43.71c0,.18,0,.36,0,.54a9.49,9.49,0,0,1-.2,1.76,8.2,8.2,0,0,1-.89,2.56,10.37,10.37,0,0,1-.87,1.32,6.92,6.92,0,0,1-1.57,1.44,7.3,7.3,0,0,1-2.25,1,11.19,11.19,0,0,1-3.11.2,3.17,3.17,0,0,1-.81-.12,6.66,6.66,0,0,1-1-.3c-.28-.15-.57-.28-.86-.4a5.76,5.76,0,0,1-1.83-1.32,10,10,0,0,1-1.19-1.61,10.83,10.83,0,0,1-.71-1.6,5,5,0,0,1-.25-1,16.32,16.32,0,0,1-.22-3.76c.18-.63.21-1.3.42-1.93a9.85,9.85,0,0,1,.77-1.8A7.34,7.34,0,0,1,119,36.55a6.47,6.47,0,0,1,1.87-1.11,3.41,3.41,0,0,1,1.36-.37c.31-.21.67,0,1-.15a2.36,2.36,0,0,1,1-.06c.34,0,.69.07,1,.1a3.74,3.74,0,0,1,1,.22c.32.11.64.2,1,.33a5,5,0,0,1,.9.43,8.18,8.18,0,0,1,2,1.8,9.14,9.14,0,0,1,1.06,1.84,11.31,11.31,0,0,1,.43,1.28c.15.44.14.91.31,1.34a.85.85,0,0,1,0,.32Zm-2.06-.06a9.16,9.16,0,0,0-.2-1.86A7.78,7.78,0,0,0,129,40a5.81,5.81,0,0,0-2-2.47,4.43,4.43,0,0,0-2.63-.86c-.34,0-.68,0-1,0a1.54,1.54,0,0,0-.43,0,6.51,6.51,0,0,0-1.85.76,5.58,5.58,0,0,0-1.81,2,5.27,5.27,0,0,0-.76,2c-.19.16-.08.42-.2.62a1.76,1.76,0,0,0-.07.62c0,.23,0,.46,0,.68s0,.66,0,1a4.53,4.53,0,0,0,.12,1,4.07,4.07,0,0,0,.27,1.08,1.92,1.92,0,0,1,.15.48,6.78,6.78,0,0,0,1.55,2.5c.11.12.29.19.41.31a2.94,2.94,0,0,0,1,.63,4.75,4.75,0,0,0,2.13.49,4.49,4.49,0,0,0,1.15-.08l1.07-.3a5,5,0,0,0,1.83-1.21c.15-.14.25-.33.39-.48a3.25,3.25,0,0,0,.57-.85,8,8,0,0,0,.7-1.83,10.39,10.39,0,0,0,.27-1.56C129.77,44.24,129.76,44,129.76,43.65Z"/><path class="cls-6" d="M159.89,44.72V45a2.21,2.21,0,0,1-.1.77c-.06.23-.07.48-.12.71s-.14.48-.21.72a9.63,9.63,0,0,1-1.1,2.2,9,9,0,0,1-1.59,1.62,10.12,10.12,0,0,1-1.21.75,6.89,6.89,0,0,1-1.47.5,8.44,8.44,0,0,1-3,.19,6.57,6.57,0,0,1-2.78-.85,6.68,6.68,0,0,1-2.23-1.93,7.64,7.64,0,0,1-1-1.55,9.5,9.5,0,0,1-.57-1.54,4.23,4.23,0,0,1-.13-.71c-.06-.34-.07-.7-.14-1a14.7,14.7,0,0,1-.09-1.74c0-.23.12-.4.11-.61a2.35,2.35,0,0,1,0-.65c.18-.53.22-1.08.42-1.61a9.41,9.41,0,0,1,1.07-2.21,6.83,6.83,0,0,1,2.91-2.48,7.25,7.25,0,0,1,1.73-.54,7.35,7.35,0,0,0,.82-.1,2.92,2.92,0,0,1,.82-.1,2.36,2.36,0,0,1,.83.1c.25.09.56-.07.82.12a5.82,5.82,0,0,1,2.23.76,4.07,4.07,0,0,1,1,.68c.15.15.35.25.49.39a8.65,8.65,0,0,1,1.82,2.88,15.64,15.64,0,0,1,.54,1.89,4,4,0,0,1,.09.77v2.28Zm-7.91-8a3.88,3.88,0,0,0-1.64.22,5.22,5.22,0,0,0-2.69,2,7.2,7.2,0,0,0-1,2.24c-.11.43-.22.85-.3,1.28a10.4,10.4,0,0,0-.11,1.37c0,.31.13.6.11.93a2.64,2.64,0,0,0,.12,1,7.71,7.71,0,0,0,.24.82c.14.27.19.57.32.84a5.44,5.44,0,0,0,1.15,1.7,8,8,0,0,0,1,.9,7,7,0,0,0,1.18.55,4.13,4.13,0,0,0,1.1.22,5.57,5.57,0,0,0,2.18-.2,4.63,4.63,0,0,0,1.7-.86,6.22,6.22,0,0,0,2-2.85,6.32,6.32,0,0,0,.27-1,5.33,5.33,0,0,0,.19-1c0-.36.13-.68.12-1a4.31,4.31,0,0,0-.09-.88c-.08-.32,0-.66-.11-1a7.68,7.68,0,0,0-.56-1.88,5.53,5.53,0,0,0-1.79-2.39,4.77,4.77,0,0,0-2.86-1.08Z"/><path class="cls-8" d="M97.67,43.74v8.08c0,.26,0,.26-.25.27H96.07c-.27,0-.35-.07-.35-.34V49.41a.48.48,0,0,0,0-.14s-.1.07-.11.11a5.09,5.09,0,0,1-1.51,1.81,2.84,2.84,0,0,1-1.4.79,7,7,0,0,1-1.68.54.75.75,0,0,1-.26,0H89.46a1.45,1.45,0,0,1-.63,0c-.23-.12-.46,0-.67-.09a4.23,4.23,0,0,0-.57-.19A7.24,7.24,0,0,1,86,51.36a3,3,0,0,1-.81-.86,5.21,5.21,0,0,1-.65-1.29,9.4,9.4,0,0,1-.36-1.59,10.83,10.83,0,0,1-.08-2c0-3.23,0-6.46,0-9.69a3.23,3.23,0,0,1,0-.44s.07-.09.11-.12.07,0,.11,0h1.78c0,.59.05,1.18.05,1.77v9a2,2,0,0,0,0,.69c.1.23,0,.49.08.67s0,.46.21.62a3,3,0,0,0,1.82,2.25,4.72,4.72,0,0,0,1.13.31c.4.07.8.06,1.2.09a3.89,3.89,0,0,0,1.48-.23,4.76,4.76,0,0,0,1.24-.66,4.16,4.16,0,0,0,1-1.13,7.6,7.6,0,0,0,.88-2.18c.1-.42.14-.85.23-1.27a9.22,9.22,0,0,0,.08-1.74c0-2.64,0-5.28,0-7.91,0-.27,0-.28.25-.28h1.57c.17,0,.28,0,.24.23s0,.21,0,.32Z"/><path class="cls-6" d="M108.62,43.21v-5.8c0-.33,0-.28-.29-.28-.81,0-1.62,0-2.44,0-.17,0-.2-.05-.2-.21,0-.45,0-.9,0-1.36,0-.15.06-.17.19-.17h2.49c.25,0,.25,0,.25-.27V30.79c0-.38,0-.38.4-.38h1.41c.25,0,.25,0,.25.27v4.17c0,.18,0,.39.06.51s.3,0,.46,0h2.7c.17,0,.27,0,.25.22,0,.5,0,1,0,1.5l-1.46,0h-1.79c-.13,0-.2,0-.18.17s0,.22,0,.32V48.13a8.69,8.69,0,0,0,.14,1.25,1.18,1.18,0,0,0,.82,1,2.13,2.13,0,0,0,.72.12c.5,0,1,0,1.51,0,.27,0,.28,0,.28.3V52c0,.12,0,.2-.17.2-1,0-1.91,0-2.87,0a2.41,2.41,0,0,1-1.87-1,2.22,2.22,0,0,1-.41-.91,3.88,3.88,0,0,1-.11-.61c0-.21-.08-.43-.1-.65s0-.44,0-.65Z"/><path class="cls-9" d="M134.85,43.75V35.68c0-.32,0-.29.29-.29h1.46c.17,0,.21,0,.21.21,0,1,0,2,0,3,0,.14,0,.28,0,.42l.19-.36a7.27,7.27,0,0,1,1.38-1.92,5.75,5.75,0,0,1,2.21-1.32,4.25,4.25,0,0,1,1.46-.28,4.59,4.59,0,0,0,.82-.1c.18,0,.21.06.2.21,0,.58,0,1.16,0,1.73,0,.23-.09.24-.25.23s-.44,0-.65,0a5.15,5.15,0,0,0-2.58.83,5.62,5.62,0,0,0-1,.8,6.56,6.56,0,0,0-1.46,2.53c-.07.28-.07.58-.12.87a18.87,18.87,0,0,0-.11,3.1c0,1.06,0,2.13,0,3.19V51.7c0,.38,0,.39-.4.39H135.1c-.24,0-.25,0-.25-.28V43.75Z"/><path class="cls-6" d="M101.46,40.51V29.57c0-.14,0-.29,0-.43s.06-.15.17-.14h1.73c.11,0,.17,0,.17.14s0,.25,0,.38V51.57c0,.12,0,.25,0,.38s-.06.14-.17.14c-.58,0-1.15,0-1.73,0-.11,0-.17,0-.17-.14s0-.29,0-.44Z"/><path class="cls-10" d="M8.13,22.49h5c.27,0,.27,0,.27.25q0,5,0,10c0,.24,0,.25-.27.25H3.1c-.27,0-.28,0-.28-.25v-10c0-.24,0-.25.27-.25Z"/><path class="cls-10" d="M20.41,22.49h5c.3,0,.3,0,.3.28v10c0,.27,0,.28-.24.28H15.32c-.24,0-.25,0-.25-.27v-10c0-.27,0-.28.3-.28Z"/><path class="cls-10" d="M32.66,22.49h5c.3,0,.3,0,.3.28v10c0,.27,0,.28-.24.28H27.57c-.25,0-.25,0-.25-.27v-10c0-.27,0-.28.3-.28Z"/><path class="cls-11" d="M8.11,45.26h-5c-.29,0-.3,0-.3-.28V35c0-.27,0-.28.25-.28H13.2c.24,0,.25,0,.25.28V45c0,.27,0,.28-.31.28Z"/><path class="cls-11" d="M20.41,34.74h5c.3,0,.3,0,.3.27V45c0,.27,0,.28-.29.28h-10a.74.74,0,0,1-.21,0,.12.12,0,0,1-.08-.1,1.82,1.82,0,0,1,0-.33V35c0-.27,0-.27.3-.28h5Z"/><path class="cls-12" d="M8.14,57.51h-5c-.32,0-.33,0-.33-.3V47.29a.74.74,0,0,1,0-.21.12.12,0,0,1,.1-.08,1.82,1.82,0,0,1,.33,0h10c.23-.05.25.08.23.25a.85.85,0,0,0,0,.16v9.7a1.47,1.47,0,0,0,0,.21c0,.18-.07.2-.22.2H8.14Z"/><path class="cls-13" d="M20.44,47h5c.27,0,.27,0,.27.25v10c0,.24,0,.25-.27.25H15.34c-.26,0-.27,0-.27-.25v-10c0-.24,0-.25.28-.25Z"/><path class="cls-13" d="M32.58,57.51h-5c-.26,0-.27,0-.27-.25v-10c0-.24,0-.25.27-.25H37.67c.27,0,.27,0,.27.25v10c0,.24,0,.25-.27.25Z"/><path class="cls-11" d="M32.63,34.74h5c.33,0,.33,0,.33.3V45c0,.3,0,.31-.32.31H27.71c-.28,0-.28,0-.28-.29,0-1.65,0-3.29,0-4.93,0-.52-.16-1-.12-1.53s0-1.08,0-1.62V35.32c0-.13,0-.26,0-.38s.07-.2.22-.2h5.09Z"/></g></svg>