<svg id="Calque_1" data-name="Calque 1" xmlns="http://www.w3.org/2000/svg" viewBox="0 0 160 80"><defs><style>.cls-1{fill:#60774f;}.cls-2{fill:#5fc42c;}</style></defs><title>vbtc</title><g id="vbtc"><path class="cls-1" d="M97.89,32.71H93.72v4.11h4.17a7.68,7.68,0,1,1-7.81,7.68V23.29H86V44.5A11.93,11.93,0,1,0,97.89,32.71Z"/><path class="cls-1" d="M125.48,52.15h-.09a7.73,7.73,0,0,1-7.78-7.66V36.82h7.87V32.71h-7.87V23.29h-4.12v21.2a11.85,11.85,0,0,0,11.9,11.78h.09Z"/><path class="cls-1" d="M147.09,49.86a7.85,7.85,0,0,1-5.54,2.29,7.67,7.67,0,1,1,0-15.33,7.85,7.85,0,0,1,5.54,2.29L150,36.2a11.78,11.78,0,1,0,0,16.58Z"/><polygon class="cls-2" points="81.08 32.58 76.49 30.21 67 48.64 66.98 48.69 66.96 48.64 57.48 30.21 52.89 32.58 64.63 55.44 64.63 55.44 64.63 55.44 69.33 55.44 69.33 55.44 69.33 55.44 81.08 32.58"/><polygon class="cls-1" points="31.89 46.24 39.6 35.67 33.46 35.67 28.94 22.28 24.47 35.67 10 35.67 21.64 44.26 17.43 57.72 26.77 43.87 31.89 46.24"/><polygon class="cls-2" points="40.45 57.72 36.24 44.29 47.9 35.68 39.6 35.67 31.89 46.24 26.77 43.87 17.43 57.72 28.94 49.39 40.45 57.72"/></g></svg>