<svg id="Calque_1" data-name="Calque 1" xmlns="http://www.w3.org/2000/svg" viewBox="0 0 160 80"><defs><style>.cls-1{fill:#64abde;}.cls-2{fill:#0082c7;}.cls-3{fill:#77c14f;}.cls-4{fill:#293236;}</style></defs><title>walltime</title><g id="walltime"><path class="cls-1" d="M17.41,28.24,17,30.83c1.51-.15,3.09-.22,4.66-.22s3.16.07,4.66.22l.43-2.59a41.49,41.49,0,0,0-9.32,0M14.12,49.1l-.43,2.66a41.4,41.4,0,0,0,9.31,0l.43-2.59a78,78,0,0,1-9.31-.07"/><path class="cls-2" d="M24.51,22.73l-.43,2.72c6.45.29,12.4,2.36,16.27,5.66l.14-.86c-3.58-4.44-9.39-7.17-16-7.52m4.73,8.45a33.81,33.81,0,0,1,10.61,3.09l.14-1a23.55,23.55,0,0,0-10.32-4.51ZM26.09,51.25a33.36,33.36,0,0,0,11.82-4.58l.15-.94a43.05,43.05,0,0,1-11.54,3.09l-.43,2.43Zm-4.52-9.89c6.6-.07,12.9-.28,17.28-.79l.21-1.14C34.76,39,28.6,38.71,22,38.71l-.43,2.65ZM19,57.27a29.88,29.88,0,0,0,18.35-7.59l.14-.79a36.3,36.3,0,0,1-18.06,5.66ZM30.46,45.73a42.75,42.75,0,0,0,8-2.07l.14-1.08c-2.22.43-4.8.72-7.74,1l-.36,2.15ZM13,33.76l-.36,2.44c2.66-.14,5.45-.21,8.25-.21a101,101,0,0,1,18.49,1.43l.21-1.15c-4.37-1.86-11-3-18.2-3-2.94.07-5.74.22-8.39.5"/><path class="cls-3" d="M21.43,22.73A29.85,29.85,0,0,0,3.08,30.32l-.15.79A36.37,36.37,0,0,1,21,25.45l.43-2.72Zm-7,6A33.36,33.36,0,0,0,2.58,33.33l-.15.94A43.05,43.05,0,0,1,14,31.18ZM10,34.27a42.75,42.75,0,0,0-8,2.07l-.14,1.08c2.22-.43,4.8-.72,7.74-1L10,34.27Zm8.89,4.37c-6.6.07-12.9.28-17.28.79l-.21,1.14c4.3.43,10.46.72,17.06.79l.43-2.72Zm.72,5.3a101.09,101.09,0,0,1-18.5-1.43L.93,43.66c4.37,1.86,11,3,18.2,3v0a63.66,63.66,0,0,0,8.32-.51l.36-2.43c-2.58.14-5.38.21-8.17.21m-8.39,4.8A33.55,33.55,0,0,1,.64,45.66l-.14,1a23.55,23.55,0,0,0,10.32,4.51ZM0,49.75c3.58,4.44,9.39,7.17,16,7.52l.43-2.72C10,54.26,4,52.19.14,48.89L0,49.75Z"/><path class="cls-4" d="M71.46,30.11l-6.95,15.7L63,35.91l2.73-5.8h-4.3L54.54,45.73,52.39,30.11H48.16l3.23,21.07h4.8l4-8.67,1.36,8.67h4.59l9.67-21.07Zm11.47,9-1.08,7.38A4.67,4.67,0,0,1,78.34,48c-1.79,0-2-1.65-1.58-4.59.58-3.87,1.8-4.23,3.09-4.52a7.53,7.53,0,0,1,3.08.29m-2.8-3.51c-2.72.14-6,.71-7.24,7s1,8.75,4,8.75a6.81,6.81,0,0,0,4.66-1.79l.57,1.57h3.08l2-13.76c-1.43-1.43-5-1.86-7.1-1.79m14.7-7h-4L88.09,45.81c-.65,3.94,1,5.44,3.73,5.44H94.4l.36-2.51c-.15,0-1.65-.57-1.65-.57-.86-.29-1.29-.57-.86-3Zm8.6,0h-4L96.69,45.81c-.64,3.94,1,5.44,3.73,5.44H103l.36-2.51c-.15,0-1.65-.57-1.65-.57-.86-.29-1.29-.57-.86-3ZM110,45.16,111,39h3.44l.5-3.09h-3.44l.71-4.3h-3.36l-1.37,4.3-2.58.86L104.5,39h2.44l-1.07,6.73c-.58,4,1,5.52,3.51,5.52h2.79l.43-2.51c-.14,0-1.72-.57-1.72-.57-.86-.29-1.29-.64-.86-3m7.17-10.82h3c.43,0,.72-.22.72-.65l.43-2.58a.55.55,0,0,0-.57-.72h-2.94a.78.78,0,0,0-.79.72l-.36,2.58c-.07.43.14.65.5.65m-.71,1.57L114,51.25h4l2.44-15.34Zm24.58-.21a10.28,10.28,0,0,0-5.88,2.08,3.52,3.52,0,0,0-3.58-2.08c-2.37,0-3.51.86-5.09,1.86l-.57-1.65h-3.23l-2.44,15.34h4l1.72-11a6.08,6.08,0,0,1,3.8-1.29c1,0,1.65.64,1.36,2.08l-1.65,10.17h4l1.65-10.1c0-.15.15-.86.15-.93A5.72,5.72,0,0,1,139.27,39c1,0,1.58.64,1.36,2.08L139,51.25h4l1.65-10.17c.64-3.09-.29-5.38-3.59-5.38m12.62,3.22c1.65,0,2.36.29,2.15,1.73-.5,2.79-5.52,2-5.52,2,.43-1.93.64-3.73,3.37-3.73m6.3,1.15c.22-3.51-2.72-4.44-6-4.44-5.59,0-6.88,2.22-7.81,6.95-1,5.59.14,8.67,3.8,8.82a21.13,21.13,0,0,0,8-.86l.5-2.87a37.62,37.62,0,0,1-6.24.5c-2.08,0-2.65-.64-2.22-2.94,1.15.43,9.6,1.79,10-5.16"/></g></svg>