<svg id="Calque_1" data-name="Calque 1" xmlns="http://www.w3.org/2000/svg" viewBox="0 0 160 80"><defs><style>.cls-1{fill:#3ebcec;}.cls-2{fill:#136bad;}</style></defs><title>wanchain</title><g id="wanchain"><path class="cls-1" d="M6,30.66l13.19-7.61,13.2,7.63,5.06-2.26L19.17,17.88.92,28.4Z"/><path class="cls-2" d="M32.42,32V44.88L19.16,37.22,5.9,44.88V32L0,29.39V54.65L19.16,43.33,38.32,54.65V29.42Z"/><path class="cls-1" d="M29.76,50.82l-10.6,6.12L8.56,50.82,4.13,53.44l15,8.68,15-8.68Z"/><path class="cls-2" d="M122.49,48V40.05a1.4,1.4,0,0,0-1.39-1.39h-3.53V48H114.4V31.69h3.17v4.38h4.37a3.73,3.73,0,0,1,3.72,3.73V48Zm34.34,0V40a1.37,1.37,0,0,0-1.38-1.37h-3.13V48h-3.17V36.07h7.44A3.4,3.4,0,0,1,160,39.46V48ZM131.5,48a3.64,3.64,0,1,1-.12-7.28h5.15v-.41a1.63,1.63,0,0,0-1.63-1.63h-6.3V36.07h7.93a3.17,3.17,0,0,1,3.17,3.17V48ZM131,44.33a1.06,1.06,0,0,0,1.06,1.06h4.45V43.27h-4.45A1.07,1.07,0,0,0,131,44.33Zm-24,3.65a5.19,5.19,0,0,1-5.19-5.2V41.26a5.19,5.19,0,0,1,5.19-5.19h5.31v2.59H108a2.93,2.93,0,0,0-2.93,2.93v.87A2.93,2.93,0,0,0,108,45.39h4.4V48ZM96.35,48V40A1.37,1.37,0,0,0,95,38.66H91.84V48H88.67V36.07h7.44a3.39,3.39,0,0,1,3.41,3.39V48ZM77.41,48a3.64,3.64,0,0,1-.12-7.28h5.15v-.41a1.64,1.64,0,0,0-1.63-1.63H74.5V36.07h7.94a3.18,3.18,0,0,1,3.17,3.17V48Zm-.48-3.65A1.05,1.05,0,0,0,78,45.39h4.45V43.27H78a1.06,1.06,0,0,0-1.06,1.06ZM68.3,48H57.85a3.18,3.18,0,0,1-3.17-3.17V36.07h3.17v7.67a1.66,1.66,0,0,0,1.65,1.65h2V36.07h3.17v9.32H68.3V36.07h3.17V48Zm74.56,0V36H146V48Zm0-13.1V31.69H146v3.17Z"/></g></svg>