<svg id="Calque_1" data-name="Calque 1" xmlns="http://www.w3.org/2000/svg" viewBox="0 0 160 80"><defs><style>.cls-1{fill:#0056ff;}</style></defs><title>wavesdex</title><g id="wavesdex"><path d="M42.58,32.85l.28.39L36.29,53.62l-.47.4H31.63l-.46-.4L26.44,39h-.08L21.65,53.62l-.46.4H17l-.46-.4L10,33.24l.28-.39h4.18l.43.39,4.23,14.32h.09l4.71-14.32.43-.38h4.31l.43.38,4.74,14.49,4.24-14.47.44-.4h4.07Zm42.4,0-.47.38L78.72,48.3,73,33.23l-.52-.36H68.27l-.25.38,8.24,20.46.49.39h3.8l.48-.39,8.33-20.46-.25-.38H85Zm23.09,2.6a11.77,11.77,0,0,1,2.78,8.15v.61l-.38.39H94.85a6,6,0,0,0,1.92,4.1A5.94,5.94,0,0,0,101,50.38a4.85,4.85,0,0,0,4.89-2.85l.54-.39h3.85l.3.4a9,9,0,0,1-3.75,5.26A9.78,9.78,0,0,1,101,54.43a10.13,10.13,0,0,1-7.66-3.12,11,11,0,0,1-3-7.85,11.36,11.36,0,0,1,2.86-7.74,9.43,9.43,0,0,1,7.35-3.23A9.63,9.63,0,0,1,108.07,35.45Zm-1.86,5.39a5.46,5.46,0,0,0-5.56-4.31,5.72,5.72,0,0,0-5.53,4.31Zm-41.37-8,.38.39v20.4l-.38.39H61.3l-.38-.39V51.41h-.13a7.25,7.25,0,0,1-2.06,1.76,4.55,4.55,0,0,1-.66.34,8.67,8.67,0,0,1-3.88.84,9.12,9.12,0,0,1-6.94-3.15,11.14,11.14,0,0,1-2.91-7.83,11.14,11.14,0,0,1,2.91-7.83,9.12,9.12,0,0,1,6.9-3.11,8.74,8.74,0,0,1,3.9.85c.21.1.42.21.62.33a7.66,7.66,0,0,1,2.15,1.82l.06-.08V33.19l.39-.38H64.8ZM60.7,41.39a6.34,6.34,0,0,0-1.57-3,5.7,5.7,0,0,0-4.31-1.88,5.38,5.38,0,0,0-4.1,1.89,7.07,7.07,0,0,0-1.81,5.07,7.08,7.08,0,0,0,1.81,5.08,5.33,5.33,0,0,0,4.09,1.84,5.68,5.68,0,0,0,4.31-1.89,6.31,6.31,0,0,0,1.57-3Zm64.62.4s-2.32-.49-4.22-.92-2.62-.9-2.62-2.15,1.27-2.41,4-2.41,4.13,1.19,4.13,2.22l.46.4h3.86l.3-.38c0-2.76-2.39-6.09-8.62-6.09-6.52,0-8.61,3.83-8.61,6.31,0,2.08.75,4.52,5.75,5.69l4.31,1c2.15.5,3.09,1.22,3.09,2.51S126,50.48,123,50.48c-2.8,0-4.5-1.35-4.57-2.94l-.48-.39H114l-.3.4c.36,3.55,3,6.88,9.28,6.88,7.12,0,8.62-4.31,8.62-6.62-.07-3.05-1.81-5-6.24-6Z"/><path class="cls-1" d="M135.41,32.86l7.29-7.3,7.3,7.3-7.3,7.29Z"/></g></svg>