<svg id="Calque_1" data-name="Calque 1" xmlns="http://www.w3.org/2000/svg" viewBox="0 0 160 80"><defs><style>.cls-1{fill:#465a73;}.cls-2{fill:#00a9d2;}</style></defs><title>yobit</title><g id="yobit"><path class="cls-1" d="M30,24.86c2.41,0,4.8,0,7.21.07,1.88,4.9,5.2,9.26,6,14.54.9-5.25,4-9.76,6.06-14.61,2.1,0,4.2,0,6.3,0q-4.36,8.55-8.86,17a5.53,5.53,0,0,0-.85,2.65c0,3.46,0,6.92,0,10.4H40c-.1-3.67.17-7.35-.12-11C36.78,37.49,33.32,31.19,30,24.86Zm34.3,8.38c3.6-.74,7.85-.12,10.31,2.84s2.76,7,2.36,10.64a9.45,9.45,0,0,1-5.54,7.93c-4,1.57-9.31,1-12.17-2.48C56.66,48.73,56.47,44,57.45,40A8.89,8.89,0,0,1,64.3,33.24Zm1.28,4.68c-2.19.67-2.72,3.2-2.86,5.18-.12,2.26,0,4.89,1.67,6.61a3.92,3.92,0,0,0,6.28-1.27,12.28,12.28,0,0,0,0-8.45A3.83,3.83,0,0,0,65.58,37.92Z"/><path class="cls-2" d="M81.07,25.1a54.61,54.61,0,0,1,12.65-.33,9.23,9.23,0,0,1,6,2.74c1.81,2,1.86,5,1,7.45-.71,2-2.67,3-4.34,4.13,1.69.67,3.6,1.33,4.65,3,2.46,3.82,1,9.57-3.15,11.53-5.18,2.58-11.19,1.67-16.73,1.14C81,44.86,81.07,35,81.07,25.1Zm5.8,4.51c-.14,2.63-.14,5.28-.07,7.9,2.44,0,5.23.19,7.16-1.62,1.89-1.36,1.72-4.75-.5-5.68C91.41,29.23,89.07,29.64,86.87,29.61Zm-.09,12.56c0,2.65,0,5.29,0,7.94,2.62.12,5.63.6,7.87-1.09,1.94-1.39,1.94-4.8-.21-6C92.1,41.78,89.33,42.24,86.78,42.17Zm20.93-17.28c2-1,5.25-.1,5.51,2.43.07,3.32-5.06,4.27-6.73,1.7A2.91,2.91,0,0,1,107.71,24.89Zm10.67,4.63c1.88-.5,3.74-1,5.63-1.55,0,1.86,0,3.69,0,5.53,1.75,0,3.51,0,5.25.1,0,1.53,0,3-.07,4.56-1.72,0-3.46,0-5.18,0,.12,3.68-.33,7.38.27,11,.66,2,3.22.88,4.7.69.33,1.43.67,2.86,1,4.27-2.77,1-5.89,1.91-8.76.76-2-.74-2.72-3-2.82-4.86-.26-3.94,0-7.9-.09-11.87-1,0-1.91,0-2.89,0-.07-1.58-.07-3.13-.07-4.7,1,0,2,0,2.94-.05C118.33,32.17,118.33,30.83,118.38,29.52Zm-11.6,4c1.91,0,3.79,0,5.7,0V54.91h-5.7Z"/></g></svg>