<svg id="Calque_1" data-name="Calque 1" xmlns="http://www.w3.org/2000/svg" viewBox="0 0 160 80"><defs><style>.cls-1{fill:#2d85ed;}</style></defs><title>yunbi</title><g id="yunbi"><path class="cls-1" d="M103.87,33.82H87.58a2,2,0,0,1-2-2h0a2,2,0,0,1,2-2h16.2a2,2,0,0,1,2,2h0a1.91,1.91,0,0,1-1.88,2m2.25,4.87V39a1.87,1.87,0,0,1-1.87,1.87H92.17v4.87A1.28,1.28,0,0,0,93.48,47h6.83a.74.74,0,0,0,.75-.75l-.09-.84a2.34,2.34,0,0,1,2.15-2.71A2.28,2.28,0,0,1,105.37,45l.19,2.81a2.7,2.7,0,0,1-2.62,3.09H90.39A2.48,2.48,0,0,1,88,48.43V40.94H87.2a1.88,1.88,0,0,1-1.87-1.88v-.28a1.87,1.87,0,0,1,1.87-1.87h17a1.75,1.75,0,0,1,1.87,1.78"/><path class="cls-1" d="M117.54,48.62V41.5h-3.93v7.12a2.12,2.12,0,0,1-2.15,2.15h-.1a2.12,2.12,0,0,1-2.15-2.15v-9a2.51,2.51,0,0,1,2.53-2.53h5.9V33.63h-6.56a1.87,1.87,0,0,1,0-3.74h17a1.87,1.87,0,1,1,0,3.74H122v3.28h5.43A2.51,2.51,0,0,1,130,39.44v9.18a2.16,2.16,0,0,1-4.31,0V41.5H122v7.12a2.12,2.12,0,0,1-2.15,2.15h-.1A2.21,2.21,0,0,1,117.54,48.62Z"/><path class="cls-1" d="M78.49,40.84l-.28-.37a10.4,10.4,0,0,0-14.32-3.09l-8.71,5.71-5.81-9a3.64,3.64,0,0,1,1-5.06l.37-.28a3.66,3.66,0,0,1,5.06,1.13l4.68,7.21,5.62-3.66-4.68-7.21a10.42,10.42,0,0,0-14.33-3.09l-.37.28a10.41,10.41,0,0,0-3.09,14.33l5.8,9-6.93,4.5a3.64,3.64,0,0,1-5.05-1l-.28-.38a3.87,3.87,0,0,1,1.21-5.15l5.15-3.37-3.65-5.62-5.24,3.37a10.39,10.39,0,0,0-3,14.33l.28.38a10.42,10.42,0,0,0,14.33,3.09L67.54,43a3.62,3.62,0,0,1,5,1l.29.37a3.65,3.65,0,0,1-1,5.06l-4.41,2.81A3.39,3.39,0,1,0,71.1,58l4.4-2.81A10.38,10.38,0,0,0,78.49,40.84Z"/></g></svg>