<svg id="Calque_1" data-name="Calque 1" xmlns="http://www.w3.org/2000/svg" xmlns:xlink="http://www.w3.org/1999/xlink" viewBox="0 0 160 80"><defs><style>.cls-1{fill:#19212d;}.cls-2{fill:url(#Dégradé_sans_nom_39);}.cls-3{fill:url(#Dégradé_sans_nom_38);}.cls-4{fill:url(#Dégradé_sans_nom_39-2);}.cls-5{fill:url(#Dégradé_sans_nom_38-2);}.cls-6{fill:url(#Dégradé_sans_nom_38-3);}</style><linearGradient id="Dégradé_sans_nom_39" x1="480.8" y1="-409.66" x2="479.81" y2="-409.66" gradientTransform="matrix(24.03, 0, 0, -7, -11519.55, -2819.24)" gradientUnits="userSpaceOnUse"><stop offset="0" stop-color="#f5f7ff"/><stop offset="1" stop-color="#626d9c"/></linearGradient><linearGradient id="Dégradé_sans_nom_38" x1="480.78" y1="-303.26" x2="479.78" y2="-303.26" gradientTransform="matrix(24.05, 0, 0, -4.2, -11529.9, -1221.42)" gradientUnits="userSpaceOnUse"><stop offset="0" stop-color="#cacee6"/><stop offset="1" stop-color="#3d497c"/></linearGradient><linearGradient id="Dégradé_sans_nom_39-2" x1="480.8" y1="-380.17" x2="479.8" y2="-380.17" gradientTransform="matrix(24.03, 0, 0, -5.91, -11520.56, -2208.18)" xlink:href="#Dégradé_sans_nom_39"/><linearGradient id="Dégradé_sans_nom_38-2" x1="480.82" y1="-195.06" x2="479.83" y2="-195.06" gradientTransform="matrix(24.01, 0, 0, -2.99, -11512.12, -540.88)" xlink:href="#Dégradé_sans_nom_38"/><linearGradient id="Dégradé_sans_nom_38-3" x1="480.82" y1="-253.02" x2="479.82" y2="-253.02" gradientTransform="matrix(24.01, 0, 0, -3.53, -11512.65, -861.49)" xlink:href="#Dégradé_sans_nom_38"/></defs><title>zeniex</title><g id="zeniex"><path class="cls-1" d="M117.66,51.86a8.25,8.25,0,0,1-2.82-2,9,9,0,0,1-1.79-3,10.82,10.82,0,0,1,0-7.4A8.92,8.92,0,0,1,115,36.56a8.43,8.43,0,0,1,2.88-1.91,9.3,9.3,0,0,1,3.64-.68,8.83,8.83,0,0,1,3.41.64,7.62,7.62,0,0,1,2.67,1.81,8.32,8.32,0,0,1,1.73,2.92,12.06,12.06,0,0,1,.61,3.91v1H115.62a6,6,0,0,0,.55,2.19,5.73,5.73,0,0,0,1.24,1.81,5.28,5.28,0,0,0,1.79,1.22,5.67,5.67,0,0,0,2.23.46,6.54,6.54,0,0,0,5.63-2.67l2.23,1.7a8.93,8.93,0,0,1-3.49,2.87,11,11,0,0,1-4.39.82A9.43,9.43,0,0,1,117.66,51.86ZM117.45,38a5.7,5.7,0,0,0-1.82,3.64h11.14A5.07,5.07,0,0,0,125.3,38a5.35,5.35,0,0,0-3.87-1.36A5.72,5.72,0,0,0,117.45,38ZM68.18,51.86a8.06,8.06,0,0,1-2.82-2,8.69,8.69,0,0,1-1.79-3,10.82,10.82,0,0,1,0-7.4,8.92,8.92,0,0,1,1.89-2.95,8.47,8.47,0,0,1,2.89-1.91A9.23,9.23,0,0,1,72,34a8.82,8.82,0,0,1,3.4.64,7.75,7.75,0,0,1,2.68,1.81,8.15,8.15,0,0,1,1.72,2.92,11.8,11.8,0,0,1,.61,3.91v1H66.13a6.2,6.2,0,0,0,.55,2.19,6.08,6.08,0,0,0,1.24,1.81,5.48,5.48,0,0,0,1.79,1.22,5.67,5.67,0,0,0,2.23.46,6.55,6.55,0,0,0,5.64-2.67l2.23,1.7a9,9,0,0,1-3.49,2.87,11.06,11.06,0,0,1-4.4.82A9.39,9.39,0,0,1,68.18,51.86ZM67.94,38a5.69,5.69,0,0,0-1.81,3.64H77.26A5.07,5.07,0,0,0,75.79,38a5.35,5.35,0,0,0-3.87-1.36A5.73,5.73,0,0,0,67.94,38ZM46.08,52.15V49.81h0L56.48,36.9H46.53V34.41H60.35v2.28l-10.42,13H60.62v2.5Zm100,0-5.6-7.66L135,52.13h-3.68l7.26-9.55-6.35-8.19h3.87l4.69,6.36,4.44-6.36h3.6l-6.1,8.19,7.3,9.55Zm-40.88,0V34.41h2.94V52.13Zm-5.2,0h-3V42a4.92,4.92,0,1,0-9.84,0V52.13h-3V42a7.89,7.89,0,1,1,15.78,0V52.13Zm5.11-22.81a2.17,2.17,0,0,1-.61-1.55,2.19,2.19,0,0,1,2.17-2.17,2,2,0,0,1,1.53.65,2.2,2.2,0,0,1,0,3.07A2.29,2.29,0,0,1,105.14,29.32Z"/><path class="cls-2" d="M33.5,43.17l-23,3.45a.59.59,0,0,0-.5.59V49.6a.59.59,0,0,0,.59.6h.1l23-3.45a.58.58,0,0,0,.5-.59V43.76a.59.59,0,0,0-.59-.6Z"/><path class="cls-3" d="M33.59,50.17h-23a.61.61,0,0,0-.61.61h0v3a.61.61,0,0,0,.61.61h23a.61.61,0,0,0,.61-.61h0v-3A.63.63,0,0,0,33.59,50.17Z"/><path class="cls-4" d="M33.86,34.33,10.25,37.87a.29.29,0,0,0-.25.29V40a.3.3,0,0,0,.29.3h.07l23.58-3.54a.3.3,0,0,0,.26-.29V34.62a.29.29,0,0,0-.28-.29Z"/><path class="cls-5" d="M33.9,40.2H10.3a.29.29,0,0,0-.3.28v2.43a.3.3,0,0,0,.28.3h23.6a.3.3,0,0,0,.3-.28V40.5a.27.27,0,0,0-.23-.3Z"/><path class="cls-6" d="M33.92,32.58l-23.6-1.76a.28.28,0,0,0-.32.27v1.22a.29.29,0,0,0,.27.3h0l23.59,1.76a.31.31,0,0,0,.32-.27V32.88a.26.26,0,0,0-.24-.29Z"/></g></svg>